<svg width="516" height="247" xmlns="http://www.w3.org/2000/svg">
 <defs>
  <linearGradient y2="0.74537" x2="0.93565" y1="0.25463" x1="0.06435" id="linearGradient4">
   <stop stop-color="#bd0000" offset="0"/>
   <stop stop-color="#c44748" offset="0.35469"/>
   <stop stop-color="#ee9294" offset="1"/>
  </linearGradient>
 </defs>
 <g>
  <title>Layer 1</title>
  <g id="text">
   <g id="side-logo-text">
    <g id="g5">
     <path d="m181.4863,105.25812l0,-73.86588l9.77489,0l0,73.86588l-9.77489,0zm-75.88132,0l0,-73.86588l9.77489,0l0,30.33237l38.39413,0l0,-30.33237l9.77489,0l0,73.86588l-9.77489,0l0,-34.81673l-38.39413,0l0,34.81673l-9.77489,0zm-22.11946,-25.89841l9.77489,2.46892c-2.04904,8.02821 -5.73557,14.15005 -11.05972,18.36569c-5.32417,4.21565 -11.83229,6.32346 -19.52458,6.32346c-7.96103,0 -14.43557,-1.62074 -19.42381,-4.86226c-4.98824,-3.24152 -8.78395,-7.93578 -11.38723,-14.08289c-2.6033,-6.14713 -3.90492,-12.74763 -3.90492,-19.80169c0,-7.69231 1.46958,-14.40199 4.40878,-20.12922c2.93919,-5.72723 7.12118,-10.07719 12.54611,-13.04997c5.42492,-2.97279 11.3956,-4.45917 17.91223,-4.45917c7.38998,0 13.60419,1.88106 18.64282,5.64324c5.03864,3.76217 8.54881,9.05264 10.53067,15.8716l-9.62373,2.26736c-1.71313,-5.37453 -4.19882,-9.2878 -7.45712,-11.73993c-3.25832,-2.45215 -7.35633,-3.67818 -12.29419,-3.67818c-5.67685,0 -10.42149,1.36042 -14.23405,4.08125c-3.81256,2.72087 -6.49138,6.37381 -8.03656,10.95898c-1.54518,4.58514 -2.31776,9.31297 -2.31776,14.18365c0,6.28148 0.91534,11.76511 2.74603,16.45104c1.83071,4.68591 4.67749,8.18771 8.54043,10.50547c3.86295,2.31776 8.04495,3.47664 12.54612,3.47664c5.47531,0 10.11077,-1.57875 13.90654,-4.73628c3.79577,-3.15755 6.36542,-7.8434 7.70905,-14.05771z" fill-rule="evenodd" fill="#c53e32" id="CHI"/>
     <path d="m260.96802,85.658l13.70499,-1.66273c0.43668,3.49344 1.61234,6.16386 3.52701,8.01135c1.91467,1.84751 4.23242,2.77124 6.95328,2.77124c2.92236,0 5.38287,-1.10847 7.3815,-3.32547c1.99866,-2.21701 2.99799,-5.20654 2.99799,-8.96869c0,-3.56063 -0.95734,-6.38222 -2.87201,-8.46484c-1.91467,-2.08263 -4.24921,-3.12392 -7.00366,-3.12392c-1.81387,0 -3.98044,0.35268 -6.49976,1.05811l1.56198,-11.53838c3.82932,0.10077 6.75168,-0.73059 8.76712,-2.49411c2.01544,-1.7635 3.02316,-4.10643 3.02316,-7.02882c0,-2.48572 -0.73898,-4.46755 -2.21698,-5.94554c-1.478,-1.47797 -3.44302,-2.21698 -5.89517,-2.21698c-2.41855,0 -4.48431,0.83976 -6.19745,2.5193c-1.71313,1.67953 -2.75443,4.13162 -3.12393,7.35634l-13.04996,-2.21698c0.90695,-4.46758 2.27579,-8.03654 4.10648,-10.70702c1.83069,-2.67046 4.38354,-4.76985 7.65863,-6.29823c3.27512,-1.52837 6.94485,-2.29256 11.00934,-2.29256c6.95328,0 12.52927,2.21695 16.72812,6.65094c3.45984,3.62781 5.18976,7.72581 5.18976,12.29416c0,6.48302 -3.54379,11.65593 -10.63144,15.51886c4.23242,0.90695 7.61664,2.93916 10.15277,6.09669c2.5361,3.15753 3.80411,6.97003 3.80411,11.43759c0,6.48303 -2.3681,12.00862 -7.1044,16.57697c-4.7363,4.56834 -10.63141,6.85249 -17.68542,6.85249c-6.68457,0 -12.22699,-1.92305 -16.62738,-5.7692c-4.40036,-3.84615 -6.95325,-8.87628 -7.65866,-15.09058zm-9.06944,6.44941l0,13.15071l-49.63011,0c0.53745,-4.97144 2.1498,-9.68246 4.83705,-14.13324c2.68726,-4.45078 7.99452,-10.35427 15.92194,-17.71065c6.38223,-5.94556 10.29552,-9.97639 11.73991,-12.09262c1.94827,-2.92239 2.92238,-5.81116 2.92238,-8.66637c0,-3.15753 -0.84814,-5.58442 -2.54448,-7.28076c-1.69633,-1.69633 -4.03925,-2.54449 -7.02884,-2.54449c-2.95598,0 -5.30731,0.89014 -7.05403,2.67047c-1.7467,1.7803 -2.75443,4.73623 -3.02315,8.8679l-14.10805,-1.41079c0.83977,-7.79308 3.47661,-13.38586 7.91058,-16.77851c4.43399,-3.39268 9.97638,-5.08899 16.62735,-5.08899c7.2892,0 13.01633,1.96504 17.18159,5.89516c4.16525,3.93013 6.24785,8.81749 6.24785,14.66229c0,3.32549 -0.59622,6.49137 -1.78871,9.49774c-1.19246,3.00638 -3.08191,6.15546 -5.66841,9.44736c-1.71313,2.1834 -4.80344,5.3241 -9.27098,9.42217c-4.46759,4.09808 -7.29756,6.81886 -8.49005,8.1625c-1.19246,1.34365 -2.15817,2.65366 -2.89719,3.93011l28.11534,0z" fill-rule="evenodd" fill="#fbc63d" id="23"/>
    </g>
    <g id="g6">
     <path d="m302.11249,134.14401l0,-1.24248c-0.62433,0.97667 -1.54224,1.465 -2.75381,1.465c-0.78506,0 -1.50674,-0.21634 -2.16507,-0.64905c-0.65833,-0.43269 -1.1683,-1.03694 -1.52991,-1.81271c-0.36163,-0.77577 -0.54245,-1.66745 -0.54245,-2.67503c0,-0.98286 0.16382,-1.87453 0.49146,-2.67503c0.32761,-0.80049 0.81903,-1.414 1.47427,-1.84053c0.65524,-0.42653 1.38773,-0.63977 2.19751,-0.63977c0.59341,0 1.12192,0.12517 1.58554,0.37552c0.46362,0.25035 0.84067,0.57642 1.13123,0.97821l0,-4.87718l1.65973,0l0,13.59306l-1.54849,0zm-5.27588,-4.91428c0,1.26103 0.26581,2.20369 0.79742,2.82802c0.53159,0.62434 1.15903,0.93649 1.88223,0.93649c0.72943,0 1.34912,-0.29825 1.8591,-0.89476c0.50998,-0.59651 0.76495,-1.50673 0.76495,-2.73067c0,-1.34756 -0.25961,-2.33659 -0.77887,-2.9671c-0.51923,-0.63051 -1.15903,-0.94577 -1.91934,-0.94577c-0.74179,0 -1.36148,0.3029 -1.85907,0.90868c-0.49762,0.60579 -0.74643,1.56082 -0.74643,2.86511zm-5.32224,-6.75943l0,-1.91936l1.66901,0l0,1.91936l-1.66901,0zm0,11.67371l0,-9.84708l1.66901,0l0,9.84708l-1.66901,0zm-6.35147,0l0,-9.84708l1.50211,0l0,1.49281c0.38324,-0.6985 0.73712,-1.15901 1.06165,-1.38156c0.32455,-0.22253 0.68152,-0.33379 1.07098,-0.33379c0.5625,0 1.13428,0.17926 1.71533,0.53778l-0.57489,1.54845c-0.40796,-0.24107 -0.81592,-0.3616 -1.22391,-0.3616c-0.36472,0 -0.69232,0.10971 -0.98285,0.32916c-0.29056,0.21944 -0.49762,0.52388 -0.62125,0.91331c-0.18546,0.59341 -0.27817,1.24246 -0.27817,1.94716l0,5.15535l-1.66901,0zm-9.0033,0l-1.54846,0l0,-13.59306l1.66901,0l0,4.84937c0.70468,-0.88394 1.6041,-1.32591 2.69821,-1.32591c0.60577,0 1.17911,0.12209 1.71997,0.36624c0.54089,0.24417 0.98596,0.58723 1.33521,1.02922c0.34924,0.44197 0.6228,0.97511 0.82059,1.59946c0.19785,0.62433 0.29672,1.29192 0.29672,2.00279c0,1.68755 -0.41724,2.99182 -1.25174,3.91287c-0.8345,0.92104 -1.83591,1.38155 -3.00418,1.38155c-1.16214,0 -2.07391,-0.48523 -2.73532,-1.45573l0,1.23322zm-0.01855,-4.99773c0,1.18066 0.16071,2.03371 0.48218,2.55913c0.52542,0.85922 1.2363,1.28883 2.1326,1.28883c0.7294,0 1.35992,-0.31679 1.89154,-0.95039c0.53159,-0.63361 0.79739,-1.57782 0.79739,-2.83266c0,-1.28575 -0.25497,-2.2346 -0.76495,-2.84657c-0.50998,-0.61197 -1.12659,-0.91794 -1.84982,-0.91794c-0.7294,0 -1.35992,0.31679 -1.89151,0.95039c-0.53162,0.63361 -0.79742,1.54999 -0.79742,2.74921zm-11.08954,8.79005l-0.18546,-1.567c0.36472,0.09889 0.68304,0.14836 0.95505,0.14836c0.37088,0 0.6676,-0.06183 0.89014,-0.18546c0.22253,-0.12363 0.40485,-0.29671 0.54706,-0.51924c0.10507,-0.1669 0.27505,-0.58105 0.50995,-1.24248c0.03091,-0.09271 0.08038,-0.22871 0.14838,-0.40797l-3.73669,-9.86562l1.7988,0l2.04913,5.70239c0.26584,0.72324 0.50381,1.48355 0.71399,2.28096c0.19162,-0.76649 0.42035,-1.51445 0.68613,-2.24387l2.1048,-5.73949l1.66901,0l-3.74597,10.01396c-0.40179,1.08177 -0.71396,1.82663 -0.93649,2.2346c-0.29672,0.55016 -0.63669,0.95349 -1.01996,1.21004c-0.38327,0.25653 -0.84067,0.38478 -1.37225,0.38478c-0.32147,0 -0.67996,-0.06799 -1.07559,-0.20398zm-13.37053,-3.79233l0,-13.59306l1.7988,0l0,5.58188l7.06544,0l0,-5.58188l1.7988,0l0,13.59306l-1.7988,0l0,-6.4071l-7.06544,0l0,6.4071l-1.7988,0zm-9.98615,3.99631l0,-17.82117l1.45573,0l0,17.82117l-1.45573,0zm-15.33624,-0.20398l-0.18542,-1.567c0.36472,0.09889 0.68303,0.14836 0.95503,0.14836c0.37088,0 0.66759,-0.06183 0.89012,-0.18546c0.22255,-0.12363 0.40491,-0.29671 0.54707,-0.51924c0.10509,-0.1669 0.27507,-0.58105 0.50998,-1.24248c0.03088,-0.09271 0.08034,-0.22871 0.14833,-0.40797l-3.73669,-9.86562l1.79883,0l2.04916,5.70239c0.26579,0.72324 0.50377,1.48355 0.71394,2.28096c0.19162,-0.76649 0.42033,-1.51445 0.68613,-2.24387l2.10481,-5.73949l1.66898,0l-3.74597,10.01396c-0.40179,1.08177 -0.71394,1.82663 -0.93649,2.2346c-0.29671,0.55016 -0.63667,0.95349 -1.01993,1.21004c-0.38324,0.25653 -0.84067,0.38478 -1.37228,0.38478c-0.32143,0 -0.67996,-0.06799 -1.07559,-0.20398zm-10.48685,-3.79233l0,-9.84708l1.50209,0l0,1.4001c0.72324,-1.08177 1.7679,-1.62263 3.134,-1.62263c0.59343,0 1.13893,0.10663 1.63655,0.31989c0.4976,0.21326 0.87004,0.49297 1.11729,0.83914c0.24727,0.34615 0.42035,0.75722 0.51924,1.2332c0.06181,0.30907 0.09273,0.84995 0.09273,1.62263l0,6.05475l-1.66899,0l0,-5.98985c0,-0.67996 -0.06491,-1.18839 -0.19472,-1.52527c-0.12981,-0.3369 -0.36008,-0.60579 -0.69078,-0.80669c-0.33072,-0.2009 -0.7186,-0.30135 -1.16367,-0.30135c-0.71088,0 -1.32437,0.22562 -1.84053,0.67686c-0.51616,0.45126 -0.77423,1.30737 -0.77423,2.56841l0,5.37788l-1.66899,0zm-4.13541,-1.21466c-0.61815,0.52542 -1.2131,0.89632 -1.7849,1.11267c-0.57179,0.21634 -1.18529,0.32451 -1.84055,0.32451c-1.08174,0 -1.91315,-0.26425 -2.49422,-0.79277c-0.58105,-0.5285 -0.87158,-1.20383 -0.87158,-2.02597c0,-0.48216 0.10971,-0.92258 0.32918,-1.32129c0.21944,-0.39871 0.50687,-0.7186 0.8623,-0.95967c0.35542,-0.24107 0.75569,-0.42343 1.20076,-0.54706c0.32761,-0.08655 0.82213,-0.17 1.48354,-0.25035c1.34758,-0.16072 2.33969,-0.35236 2.97638,-0.57487c0.00618,-0.22871 0.00926,-0.37399 0.00926,-0.43581c0,-0.67996 -0.15762,-1.15901 -0.47287,-1.43718c-0.42653,-0.37708 -1.06012,-0.56561 -1.9008,-0.56561c-0.78505,0 -1.36456,0.13754 -1.73854,0.41261c-0.37398,0.27509 -0.65059,0.76187 -0.82986,1.46037l-1.63191,-0.22253c0.14836,-0.6985 0.39253,-1.26256 0.73251,-1.69217c0.33998,-0.42963 0.83141,-0.76031 1.47427,-0.99213c0.64288,-0.23181 1.38774,-0.3477 2.23462,-0.3477c0.84067,0 1.52371,0.09889 2.04915,0.29671c0.52542,0.1978 0.91176,0.44661 1.15903,0.74641c0.24725,0.29979 0.42033,0.67841 0.51924,1.13583c0.05563,0.28435 0.08345,0.79741 0.08345,1.53918l0,2.22533c0,1.55156 0.03554,2.53287 0.10663,2.94394c0.07109,0.41106 0.21172,0.80513 0.42189,1.18221l-1.74318,0c-0.17308,-0.34618 -0.28435,-0.75105 -0.3338,-1.21466zm-0.13908,-3.72743c-0.60577,0.24727 -1.51445,0.45743 -2.72601,0.63051c-0.68616,0.09891 -1.1714,0.21017 -1.45573,0.3338c-0.28436,0.12363 -0.5038,0.30444 -0.65834,0.54243c-0.15454,0.23798 -0.2318,0.50223 -0.2318,0.79277c0,0.44507 0.16843,0.81595 0.50533,1.11266c0.3369,0.29671 0.82985,0.44507 1.47891,0.44507c0.64288,0 1.21466,-0.14063 1.71536,-0.42189c0.50072,-0.28125 0.86848,-0.66605 1.10339,-1.15439c0.17926,-0.37706 0.26889,-0.9334 0.26889,-1.66899l0,-0.61197zm-22.10492,4.94209l0,-9.84708l1.49281,0l0,1.38155c0.30907,-0.48215 0.72014,-0.87004 1.2332,-1.16365c0.51306,-0.29362 1.09721,-0.44043 1.75244,-0.44043c0.72943,0 1.32748,0.15143 1.79419,0.45433c0.46669,0.3029 0.79585,0.72632 0.98747,1.27029c0.77888,-1.14977 1.79263,-1.72462 3.04129,-1.72462c0.97668,0 1.72771,0.27043 2.25314,0.81131c0.52542,0.54088 0.78813,1.37383 0.78813,2.49886l0,6.75945l-1.65971,0l0,-6.20311c0,-0.6676 -0.05409,-1.14821 -0.16226,-1.44183c-0.10818,-0.29361 -0.30444,-0.53004 -0.58878,-0.70932c-0.28436,-0.17926 -0.61815,-0.26889 -1.0014,-0.26889c-0.69234,0 -1.2672,0.23026 -1.72464,0.69078c-0.45743,0.46053 -0.68614,1.19765 -0.68614,2.21141l0,5.72096l-1.66899,0l0,-6.39783c0,-0.74178 -0.136,-1.2981 -0.40797,-1.66899c-0.27199,-0.3709 -0.71706,-0.55634 -1.33521,-0.55634c-0.46979,0 -0.90404,0.12363 -1.30273,0.3709c-0.39871,0.24725 -0.68768,0.60886 -0.86696,1.08484c-0.17926,0.47598 -0.26889,1.16211 -0.26889,2.05843l0,5.10899l-1.66899,0zm-6.34219,0l0,-9.84708l1.50209,0l0,1.49281c0.38327,-0.6985 0.73714,-1.15901 1.06168,-1.38156c0.32452,-0.22253 0.6815,-0.33379 1.07094,-0.33379c0.56252,0 1.13429,0.17926 1.71536,0.53778l-0.57487,1.54845c-0.40799,-0.24107 -0.81596,-0.3616 -1.22395,-0.3616c-0.36469,0 -0.69231,0.10971 -0.98283,0.32916c-0.29054,0.21944 -0.4976,0.52388 -0.62125,0.91331c-0.18544,0.59341 -0.27815,1.24246 -0.27815,1.94716l0,5.15535l-1.66901,0zm-3.80161,-3.1711l1.72464,0.21326c-0.27199,1.00758 -0.77579,1.78954 -1.51138,2.34587c-0.7356,0.55634 -1.67516,0.83449 -2.81874,0.83449c-1.44029,0 -2.58231,-0.44351 -3.42607,-1.33055c-0.84378,-0.88704 -1.26567,-2.13106 -1.26567,-3.73206c0,-1.65665 0.42653,-2.94238 1.27957,-3.85724c0.85304,-0.91487 1.95952,-1.37228 3.31946,-1.37228c1.31665,0 2.39221,0.44815 3.22672,1.34447c0.8345,0.8963 1.25174,2.15732 1.25174,3.78305c0,0.09891 -0.00308,0.24727 -0.00926,0.44507l-7.34358,0c0.06181,1.08176 0.3678,1.91006 0.91794,2.48495c0.55016,0.57487 1.2363,0.8623 2.05843,0.8623c0.61198,0 1.13431,-0.16071 1.56702,-0.48215c0.43271,-0.32144 0.77577,-0.83449 1.02921,-1.53918zm-5.47987,-2.69821l5.49841,0c-0.07417,-0.82832 -0.28433,-1.44955 -0.63049,-1.86371c-0.53162,-0.64288 -1.22084,-0.96431 -2.0677,-0.96431c-0.76653,0 -1.41093,0.25652 -1.93327,0.76959c-0.52232,0.51306 -0.81131,1.1992 -0.86694,2.05843zm-9.45764,0.53778l0,-1.59482l5.75804,-0.00926l0,5.04407c-0.88396,0.7047 -1.79572,1.23476 -2.73531,1.59019c-0.93959,0.35544 -1.90388,0.53314 -2.89293,0.53314c-1.33521,0 -2.54829,-0.28589 -3.63934,-0.85768c-1.09102,-0.57178 -1.9147,-1.39854 -2.47104,-2.48032c-0.55634,-1.08176 -0.83449,-2.29022 -0.83449,-3.62543c0,-1.32285 0.27661,-2.55757 0.82985,-3.70424c0.55325,-1.14667 1.34911,-1.99815 2.3876,-2.55449c1.03848,-0.55634 2.23459,-0.8345 3.58833,-0.8345c0.98286,0 1.87143,0.15918 2.66577,0.47752c0.79431,0.31834 1.4171,0.76186 1.86835,1.33055c0.45123,0.56871 0.79431,1.31047 1.02921,2.22534l-1.62262,0.44505c-0.20401,-0.69232 -0.45744,-1.2363 -0.76035,-1.63191c-0.30289,-0.39561 -0.73558,-0.7124 -1.2981,-0.95039c-0.56252,-0.23798 -1.18684,-0.35698 -1.87299,-0.35698c-0.82214,0 -1.533,0.12517 -2.1326,0.37553c-0.59961,0.25034 -1.08331,0.5795 -1.45111,0.98747c-0.3678,0.40799 -0.65369,0.85614 -0.85768,1.34448c-0.34616,0.84068 -0.51924,1.75244 -0.51924,2.73529c0,1.21158 0.20863,2.22533 0.62589,3.04129c0.41725,0.81596 1.02457,1.42174 1.82198,1.81735c0.79742,0.39561 1.64427,0.59341 2.54059,0.59341c0.77887,0 1.53918,-0.1499 2.28096,-0.44969c0.74179,-0.2998 1.30429,-0.61969 1.68755,-0.95967l0,-2.53133l-3.99632,0zm-16.68997,5.33153l0,-1.9008l1.9008,0l0,1.9008c0,0.6985 -0.12363,1.26256 -0.3709,1.69217c-0.24725,0.42961 -0.63977,0.76187 -1.17757,0.99677l-0.46361,-0.71396c0.35236,-0.15454 0.61197,-0.3817 0.77888,-0.6815c0.16689,-0.2998 0.2596,-0.73097 0.27815,-1.29347l-0.94577,0zm-11.30281,0.81595l1.62265,0.24107c0.06798,0.5007 0.25652,0.8654 0.56558,1.09413c0.41417,0.30907 0.97978,0.46361 1.69682,0.46361c0.77269,0 1.36919,-0.15454 1.78954,-0.46361c0.42035,-0.30908 0.70468,-0.74178 0.85304,-1.29811c0.08653,-0.34 0.12672,-1.05394 0.12054,-2.14189c-0.72943,0.85924 -1.63809,1.28885 -2.72604,1.28885c-1.35373,0 -2.40149,-0.48833 -3.14326,-1.46501c-0.74179,-0.97668 -1.11267,-2.14806 -1.11267,-3.51416c0,-0.93961 0.17,-1.80653 0.50998,-2.60086c0.33998,-0.79433 0.83295,-1.40782 1.47891,-1.84053c0.64597,-0.43271 1.40474,-0.64905 2.27632,-0.64905c1.16212,0 2.12024,0.46979 2.87439,1.40936l0,-1.18683l1.53918,0l0,8.51187c0,1.533 -0.15608,2.6194 -0.46826,3.25917c-0.31215,0.6398 -0.80667,1.14513 -1.48354,1.51601c-0.67688,0.3709 -1.50983,0.55634 -2.49886,0.55634c-1.17448,0 -2.12334,-0.26425 -2.84656,-0.79277c-0.72325,-0.52852 -1.07249,-1.32437 -1.04778,-2.38759zm1.38156,-5.91566c0,1.29193 0.25653,2.23459 0.76959,2.82802c0.51306,0.59343 1.15594,0.89014 1.92862,0.89014c0.76651,0 1.40938,-0.29517 1.92862,-0.8855c0.51924,-0.59033 0.77887,-1.51599 0.77887,-2.77702c0,-1.2054 -0.26735,-2.11406 -0.80206,-2.72603c-0.53468,-0.61197 -1.17911,-0.91795 -1.93324,-0.91795c-0.74178,0 -1.37228,0.30135 -1.89154,0.90404c-0.51923,0.60271 -0.77885,1.49747 -0.77885,2.68431zm-7.41776,5.09972l0,-9.84708l1.50209,0l0,1.49281c0.38324,-0.6985 0.73714,-1.15901 1.06168,-1.38156c0.32452,-0.22253 0.68149,-0.33379 1.07094,-0.33379c0.56252,0 1.13429,0.17926 1.71535,0.53778l-0.57487,1.54845c-0.40797,-0.24107 -0.81595,-0.3616 -1.22394,-0.3616c-0.3647,0 -0.69232,0.10971 -0.98283,0.32916c-0.29054,0.21944 -0.49762,0.52388 -0.62126,0.91331c-0.18544,0.59341 -0.27817,1.24246 -0.27817,1.94716l0,5.15535l-1.66898,0zm-4.08905,0l0,-1.44647c-0.7665,1.11267 -1.80807,1.66899 -3.12474,1.66899c-0.58105,0 -1.12348,-0.11125 -1.62727,-0.3338c-0.50379,-0.22252 -0.87775,-0.50224 -1.12193,-0.83913c-0.24417,-0.3369 -0.41572,-0.7495 -0.51462,-1.23784c-0.06799,-0.32762 -0.102,-0.84686 -0.102,-1.55772l0,-6.1011l1.66901,0l0,5.46132c0,0.87158 0.034,1.45882 0.10201,1.76172c0.10508,0.43889 0.32761,0.78351 0.66759,1.03384c0.33998,0.25035 0.76032,0.37553 1.26103,0.37553c0.50068,0 0.97047,-0.12827 1.40936,-0.3848c0.43889,-0.25653 0.74951,-0.60579 0.93186,-1.04776c0.18236,-0.44199 0.27354,-1.0833 0.27354,-1.92398l0,-5.27588l1.66898,0l0,9.84708l-1.49282,0zm-15.4753,0l-1.54847,0l0,-13.59306l1.66901,0l0,4.84937c0.70469,-0.88394 1.60408,-1.32591 2.6982,-1.32591c0.6058,0 1.17912,0.12209 1.72,0.36624c0.54089,0.24417 0.98594,0.58723 1.33521,1.02922c0.34925,0.44197 0.62278,0.97511 0.82059,1.59946c0.1978,0.62433 0.29671,1.29192 0.29671,2.00279c0,1.68755 -0.41724,2.99182 -1.25175,3.91287c-0.8345,0.92104 -1.83589,1.38155 -3.0042,1.38155c-1.16212,0 -2.07388,-0.48523 -2.73529,-1.45573l0,1.23322zm-0.01854,-4.99773c0,1.18066 0.16071,2.03371 0.48215,2.55913c0.52541,0.85922 1.23628,1.28883 2.13261,1.28883c0.72942,0 1.35991,-0.31679 1.89153,-0.95039c0.53161,-0.63361 0.7974,-1.57782 0.7974,-2.83266c0,-1.28575 -0.25499,-2.2346 -0.76495,-2.84657c-0.50998,-0.61197 -1.12658,-0.91794 -1.84981,-0.91794c-0.72942,0 -1.35992,0.31679 -1.89153,0.95039c-0.5316,0.63361 -0.79739,1.54999 -0.79739,2.74921zm-17.33904,4.99773l0,-9.84708l1.49283,0l0,1.38155c0.30907,-0.48215 0.72015,-0.87004 1.2332,-1.16365c0.51307,-0.29362 1.09721,-0.44043 1.75244,-0.44043c0.72942,0 1.32748,0.15143 1.79418,0.45433c0.4667,0.3029 0.79585,0.72632 0.98748,1.27029c0.77888,-1.14977 1.79263,-1.72462 3.04128,-1.72462c0.9767,0 1.72773,0.27043 2.25316,0.81131c0.52542,0.54088 0.78813,1.37383 0.78813,2.49886l0,6.75945l-1.65972,0l0,-6.20311c0,-0.6676 -0.05409,-1.14821 -0.16226,-1.44183c-0.10818,-0.29361 -0.30444,-0.53004 -0.58878,-0.70932c-0.28436,-0.17926 -0.61815,-0.26889 -1.0014,-0.26889c-0.69233,0 -1.2672,0.23026 -1.72463,0.69078c-0.45743,0.46053 -0.68614,1.19765 -0.68614,2.21141l0,5.72096l-1.66899,0l0,-6.39783c0,-0.74178 -0.136,-1.2981 -0.40797,-1.66899c-0.27198,-0.3709 -0.71706,-0.55634 -1.33521,-0.55634c-0.46979,0 -0.90404,0.12363 -1.30274,0.3709c-0.39872,0.24725 -0.68768,0.60886 -0.86694,1.08484c-0.17926,0.47598 -0.26891,1.16211 -0.26891,2.05843l0,5.10899l-1.669,0zm-4.1354,-1.21466c-0.61815,0.52542 -1.2131,0.89632 -1.7849,1.11267c-0.57179,0.21634 -1.1853,0.32451 -1.84053,0.32451c-1.08176,0 -1.91316,-0.26425 -2.49423,-0.79277c-0.58105,-0.5285 -0.87158,-1.20383 -0.87158,-2.02597c0,-0.48216 0.10972,-0.92258 0.32916,-1.32129c0.21945,-0.39871 0.50688,-0.7186 0.86232,-0.95967c0.35544,-0.24107 0.75568,-0.42343 1.20075,-0.54706c0.32761,-0.08655 0.82213,-0.17 1.48354,-0.25035c1.34757,-0.16072 2.33968,-0.35236 2.97639,-0.57487c0.00618,-0.22871 0.00927,-0.37399 0.00927,-0.43581c0,-0.67996 -0.15762,-1.15901 -0.47289,-1.43718c-0.42652,-0.37708 -1.06011,-0.56561 -1.90079,-0.56561c-0.78506,0 -1.36456,0.13754 -1.73854,0.41261c-0.37399,0.27509 -0.6506,0.76187 -0.82986,1.46037l-1.6319,-0.22253c0.14835,-0.6985 0.39252,-1.26256 0.7325,-1.69217c0.33999,-0.42963 0.83141,-0.76031 1.47428,-0.99213c0.64288,-0.23181 1.38773,-0.3477 2.2346,-0.3477c0.84069,0 1.52373,0.09889 2.04916,0.29671c0.52541,0.1978 0.91177,0.44661 1.15902,0.74641c0.24726,0.29979 0.42033,0.67841 0.51925,1.13583c0.05563,0.28435 0.08345,0.79741 0.08345,1.53918l0,2.22533c0,1.55156 0.03555,2.53287 0.10663,2.94394c0.07109,0.41106 0.21172,0.80513 0.42188,1.18221l-1.74317,0c-0.17309,-0.34618 -0.28435,-0.75105 -0.3338,-1.21466zm-0.13908,-3.72743c-0.6058,0.24727 -1.51445,0.45743 -2.72604,0.63051c-0.68613,0.09891 -1.17138,0.21017 -1.45573,0.3338c-0.28434,0.12363 -0.50378,0.30444 -0.65833,0.54243c-0.15454,0.23798 -0.23181,0.50223 -0.23181,0.79277c0,0.44507 0.16846,0.81595 0.50534,1.11266c0.33689,0.29671 0.82986,0.44507 1.47892,0.44507c0.64288,0 1.21466,-0.14063 1.71535,-0.42189c0.50069,-0.28125 0.8685,-0.66605 1.1034,-1.15439c0.17926,-0.37706 0.26889,-0.9334 0.26889,-1.66899l0,-0.61197zm-19.73125,4.94209l0,-13.59306l1.79879,0l0,5.58188l7.06543,0l0,-5.58188l1.79881,0l0,13.59306l-1.79881,0l0,-6.4071l-7.06543,0l0,6.4071l-1.79879,0z" fill-rule="evenodd" fill="#c53e32" id="Hamburg-Germany--Hybrid"/>
     <path d="m295.27448,156.2812l1.75089,-0.23344c0.20102,0.99217 0.54312,1.70712 1.02621,2.14484c0.48312,0.43773 1.07162,0.65659 1.7655,0.65659c0.82355,0 1.51904,-0.28532 2.08649,-0.85599c0.56741,-0.57068 0.8511,-1.2775 0.8511,-2.12053c0,-0.80412 -0.26263,-1.46718 -0.7879,-1.98921c-0.52527,-0.52203 -1.19318,-0.78305 -2.00378,-0.78305c-0.33072,0 -0.74252,0.06485 -1.23535,0.19455l0.19455,-1.5369c0.11673,0.01297 0.21072,0.01945 0.28207,0.01945c0.74576,0 1.41693,-0.19453 2.01352,-0.58363c0.59662,-0.38908 0.89493,-0.98892 0.89493,-1.79953c0,-0.642 -0.21725,-1.17374 -0.65173,-1.59526c-0.43448,-0.42151 -0.99542,-0.63226 -1.6828,-0.63226c-0.68091,0 -1.24835,0.214 -1.70227,0.64198c-0.45392,0.42801 -0.74573,1.06999 -0.87546,1.92599l-1.75089,-0.31128c0.21399,-1.17374 0.70035,-2.08322 1.45908,-2.72847c0.75873,-0.64525 1.70227,-0.96785 2.83063,-0.96785c0.77817,0 1.49472,0.16698 2.14972,0.50095c0.65497,0.33397 1.15591,0.78952 1.50284,1.36667c0.34692,0.57715 0.52042,1.18996 0.52042,1.83844c0,0.61606 -0.16537,1.177 -0.49609,1.6828c-0.33072,0.50583 -0.82034,0.90787 -1.46881,1.20618c0.84302,0.19455 1.49799,0.59824 1.9649,1.21103c0.46689,0.61282 0.70035,1.37964 0.70035,2.30049c0,1.24509 -0.45392,2.30048 -1.36182,3.16621c-0.90787,0.86572 -2.05566,1.29857 -3.44342,1.29857c-1.25159,0 -2.29074,-0.37288 -3.11755,-1.11864c-0.82681,-0.74576 -1.29858,-1.71198 -1.41531,-2.8987zm-1.88708,2.08162l0,1.6828l-9.42566,0c-0.01297,-0.42151 0.05511,-0.82681 0.20428,-1.21588c0.23993,-0.642 0.62415,-1.27428 1.15268,-1.89682c0.5285,-0.62253 1.29208,-1.34235 2.29074,-2.15942c1.54987,-1.27103 2.59717,-2.2778 3.14188,-3.02029c0.54474,-0.74252 0.81711,-1.44449 0.81711,-2.10596c0,-0.69386 -0.24805,-1.27911 -0.74414,-1.75574c-0.49609,-0.47665 -1.14294,-0.71497 -1.94058,-0.71497c-0.84302,0 -1.51743,0.25291 -2.02325,0.75873c-0.50583,0.50581 -0.76196,1.20616 -0.76846,2.10107l-1.79953,-0.18481c0.1232,-1.34236 0.58688,-2.36533 1.39099,-3.06894c0.80411,-0.7036 1.88385,-1.05539 3.23917,-1.05539c1.36832,0 2.45126,0.37936 3.24887,1.13808c0.79764,0.75871 1.19647,1.69902 1.19647,2.82088c0,0.57068 -0.11673,1.13159 -0.35019,1.68282c-0.23346,0.55121 -0.62094,1.13159 -1.16241,1.74117c-0.54144,0.60959 -1.44122,1.44611 -2.69928,2.50961c-1.05054,0.88194 -1.72498,1.48016 -2.02325,1.79468c-0.29831,0.31451 -0.54474,0.63065 -0.73929,0.94839l6.99387,0zm-20.28119,-5.34995c0,-1.68607 0.17346,-3.043 0.52039,-4.07083c0.34692,-1.02786 0.86246,-1.82062 1.54663,-2.37831c0.68414,-0.55769 1.54498,-0.83653 2.58258,-0.83653c0.7652,0 1.43637,0.15399 2.01352,0.46204c0.57715,0.30803 1.0538,0.75223 1.4299,1.33263c0.3761,0.5804 0.67117,1.28722 0.88516,2.12053c0.21402,0.8333 0.32101,1.95679 0.32101,3.37048c0,1.67307 -0.17184,3.02353 -0.51556,4.05136c-0.34369,1.02786 -0.8576,1.82224 -1.54175,2.38318c-0.68414,0.56093 -1.54825,0.8414 -2.59229,0.8414c-1.37479,0 -2.45453,-0.49286 -3.23917,-1.47855c-0.94028,-1.18672 -1.41043,-3.11917 -1.41043,-5.79739zm1.79953,0c0,2.341 0.27396,3.89897 0.82193,4.6739c0.54797,0.77495 1.22403,1.1624 2.02814,1.1624c0.80411,0 1.48013,-0.38907 2.02811,-1.16727c0.54797,-0.77817 0.82196,-2.3345 0.82196,-4.66904c0,-2.34752 -0.27399,-3.9071 -0.82196,-4.6788c-0.54797,-0.77168 -1.2305,-1.15753 -2.04758,-1.15753c-0.80411,0 -1.44611,0.34045 -1.92599,1.02136c-0.60306,0.86896 -0.9046,2.47394 -0.9046,4.81497zm-3.67688,5.34995l0,1.6828l-9.42566,0c-0.013,-0.42151 0.05511,-0.82681 0.20425,-1.21588c0.23993,-0.642 0.62415,-1.27428 1.15268,-1.89682c0.52853,-0.62253 1.29211,-1.34235 2.29074,-2.15942c1.5499,-1.27103 2.59717,-2.2778 3.14191,-3.02029c0.54471,-0.74252 0.81708,-1.44449 0.81708,-2.10596c0,-0.69386 -0.24805,-1.27911 -0.74414,-1.75574c-0.49606,-0.47665 -1.14294,-0.71497 -1.94055,-0.71497c-0.84302,0 -1.51746,0.25291 -2.02328,0.75873c-0.5058,0.50581 -0.76196,1.20616 -0.76843,2.10107l-1.79953,-0.18481c0.1232,-1.34236 0.58688,-2.36533 1.39099,-3.06894c0.80411,-0.7036 1.88382,-1.05539 3.23917,-1.05539c1.36829,0 2.45123,0.37936 3.24887,1.13808c0.79764,0.75871 1.19644,1.69902 1.19644,2.82088c0,0.57068 -0.11673,1.13159 -0.35019,1.68282c-0.23343,0.55121 -0.62091,1.13159 -1.16238,1.74117c-0.54147,0.60959 -1.44125,1.44611 -2.69931,2.50961c-1.05054,0.88194 -1.72495,1.48016 -2.02325,1.79468c-0.29828,0.31451 -0.54471,0.63065 -0.73926,0.94839l6.99387,0zm-19.32796,1.6828l0,-1.99406l1.99408,0l0,1.99406c0,0.73279 -0.12971,1.32452 -0.38908,1.77522c-0.25938,0.4507 -0.67119,0.79924 -1.23537,1.04567l-0.48636,-0.74899c0.36964,-0.16211 0.642,-0.40042 0.81709,-0.71495c0.17508,-0.31451 0.27235,-0.76682 0.29181,-1.35695l-0.99217,0zm-9.32838,-7.73312c-0.7263,-0.26587 -1.26453,-0.64523 -1.61472,-1.13806c-0.35017,-0.49286 -0.52527,-1.08298 -0.52527,-1.77036c0,-1.03757 0.37288,-1.90977 1.11864,-2.61662c0.74576,-0.70685 1.73792,-1.06026 2.97652,-1.06026c1.24509,0 2.24698,0.36151 3.00571,1.08458c0.75871,0.72305 1.13808,1.60335 1.13808,2.64093c0,0.66145 -0.17348,1.23698 -0.5204,1.72658c-0.34692,0.48961 -0.87384,0.86734 -1.58067,1.13321c0.87546,0.28534 1.54176,0.74576 1.99895,1.38127c0.45717,0.63551 0.68576,1.39423 0.68576,2.27617c0,1.21915 -0.43124,2.24374 -1.29372,3.07379c-0.86247,0.83005 -1.9973,1.24509 -3.40453,1.24509c-1.4072,0 -2.54202,-0.41666 -3.40451,-1.24995c-0.86249,-0.8333 -1.29372,-1.87248 -1.29372,-3.11757c0,-0.92732 0.23508,-1.70387 0.70522,-2.32965c0.47015,-0.62579 1.13969,-1.05215 2.00867,-1.27914zm-0.35017,-2.96678c0,0.67442 0.21724,1.22563 0.65172,1.65361c0.43449,0.42801 0.99866,0.642 1.69254,0.642c0.67442,0 1.22723,-0.21237 1.65849,-0.63712c0.43124,-0.42477 0.64685,-0.94516 0.64685,-1.56122c0,-0.642 -0.22211,-1.18185 -0.66631,-1.61958c-0.4442,-0.43773 -0.99704,-0.65659 -1.65849,-0.65659c-0.66792,0 -1.2224,0.214 -1.66335,0.64198c-0.44096,0.42801 -0.66145,0.94031 -0.66145,1.53691zm-0.56418,6.58531c0,0.49933 0.11835,0.98245 0.35504,1.44934c0.23669,0.46692 0.5885,0.82843 1.0554,1.08459c0.4669,0.25615 0.96947,0.38422 1.50771,0.38422c0.83655,0 1.52718,-0.2691 2.0719,-0.80734c0.54472,-0.53825 0.81708,-1.22238 0.81708,-2.05246c0,-0.84302 -0.28047,-1.54013 -0.8414,-2.09134c-0.56091,-0.55121 -1.26292,-0.82681 -2.10593,-0.82681c-0.82358,0 -1.5061,0.27237 -2.04758,0.81708c-0.54149,0.54474 -0.81223,1.22563 -0.81223,2.04272zm-3.65742,2.43179l0,1.6828l-9.42566,0c-0.01295,-0.42151 0.05513,-0.82681 0.20427,-1.21588c0.23994,-0.642 0.62416,-1.27428 1.15268,-1.89682c0.52852,-0.62253 1.29208,-1.34235 2.29076,-2.15942c1.54988,-1.27103 2.59715,-2.2778 3.14188,-3.02029c0.54472,-0.74252 0.81709,-1.44449 0.81709,-2.10596c0,-0.69386 -0.24805,-1.27911 -0.74414,-1.75574c-0.49608,-0.47665 -1.14294,-0.71497 -1.94057,-0.71497c-0.84303,0 -1.51744,0.25291 -2.02325,0.75873c-0.50581,0.50581 -0.76196,1.20616 -0.76845,2.10107l-1.79953,-0.18481c0.12321,-1.34236 0.58687,-2.36533 1.39098,-3.06894c0.80412,-0.7036 1.88383,-1.05539 3.23917,-1.05539c1.3683,0 2.45125,0.37936 3.24889,1.13808c0.79762,0.75871 1.19644,1.69902 1.19644,2.82088c0,0.57068 -0.11673,1.13159 -0.35017,1.68282c-0.23346,0.55121 -0.62093,1.13159 -1.1624,1.74117c-0.54149,0.60959 -1.44124,1.44611 -2.69931,2.50961c-1.05054,0.88194 -1.72495,1.48016 -2.02325,1.79468c-0.29831,0.31451 -0.54472,0.63065 -0.73926,0.94839l6.99385,0zm-16.03043,-2.59717l0,-1.76062l5.37914,0l0,1.76062l-5.37914,0zm-10.875,0.51555l1.75089,-0.23344c0.20103,0.99217 0.54311,1.70712 1.02623,2.14484c0.48312,0.43773 1.07159,0.65659 1.76549,0.65659c0.82356,0 1.51904,-0.28532 2.08647,-0.85599c0.56744,-0.57068 0.85114,-1.2775 0.85114,-2.12053c0,-0.80412 -0.26263,-1.46718 -0.7879,-1.98921c-0.52527,-0.52203 -1.19319,-0.78305 -2.0038,-0.78305c-0.33073,0 -0.74251,0.06485 -1.23535,0.19455l0.19453,-1.5369c0.11673,0.01297 0.21077,0.01945 0.28209,0.01945c0.74576,0 1.41692,-0.19453 2.01353,-0.58363c0.59662,-0.38908 0.8949,-0.98892 0.8949,-1.79953c0,-0.642 -0.21722,-1.17374 -0.65172,-1.59526c-0.43448,-0.42151 -0.99541,-0.63226 -1.6828,-0.63226c-0.68091,0 -1.24832,0.214 -1.70227,0.64198c-0.45393,0.42801 -0.74576,1.06999 -0.87544,1.92599l-1.7509,-0.31128c0.214,-1.17374 0.70036,-2.08322 1.45909,-2.72847c0.75871,-0.64525 1.70226,-0.96785 2.83061,-0.96785c0.77817,0 1.49474,0.16698 2.1497,0.50095c0.65498,0.33397 1.15591,0.78952 1.50285,1.36667c0.34694,0.57715 0.5204,1.18996 0.5204,1.83844c0,0.61606 -0.16536,1.177 -0.49608,1.6828c-0.33073,0.50583 -0.82033,0.90787 -1.46881,1.20618c0.84303,0.19455 1.49799,0.59824 1.96489,1.21103c0.46692,0.61282 0.70036,1.37964 0.70036,2.30049c0,1.24509 -0.45392,2.30048 -1.3618,3.16621c-0.90788,0.86572 -2.05568,1.29857 -3.44344,1.29857c-1.25157,0 -2.29076,-0.37288 -3.11757,-1.11864c-0.82681,-0.74576 -1.29858,-1.71198 -1.4153,-2.8987zm-1.88708,2.08162l0,1.6828l-9.42564,0c-0.01297,-0.42151 0.05511,-0.82681 0.20427,-1.21588c0.23994,-0.642 0.62415,-1.27428 1.15266,-1.89682c0.52852,-0.62253 1.2921,-1.34235 2.29076,-2.15942c1.54988,-1.27103 2.59717,-2.2778 3.14189,-3.02029c0.54472,-0.74252 0.81708,-1.44449 0.81708,-2.10596c0,-0.69386 -0.24805,-1.27911 -0.74413,-1.75574c-0.49609,-0.47665 -1.14294,-0.71497 -1.94058,-0.71497c-0.84302,0 -1.51744,0.25291 -2.02325,0.75873c-0.50581,0.50581 -0.76196,1.20616 -0.76845,2.10107l-1.79953,-0.18481c0.12321,-1.34236 0.58687,-2.36533 1.39099,-3.06894c0.80412,-0.7036 1.88382,-1.05539 3.23915,-1.05539c1.3683,0 2.45126,0.37936 3.24889,1.13808c0.79764,0.75871 1.19644,1.69902 1.19644,2.82088c0,0.57068 -0.11671,1.13159 -0.35017,1.68282c-0.23346,0.55121 -0.62091,1.13159 -1.1624,1.74117c-0.54149,0.60959 -1.44124,1.44611 -2.6993,2.50961c-1.05054,0.88194 -1.72496,1.48016 -2.02325,1.79468c-0.29831,0.31451 -0.54472,0.63065 -0.73927,0.94839l6.99385,0zm-18.71512,1.6828l0,-14.26007l1.75089,0l0,14.26007l-1.75089,0zm-4.37724,-12.24654l0,-2.01353l1.7509,0l0,2.01353l-1.7509,0zm0,12.24654l0,-10.33028l1.7509,0l0,10.33028l-1.7509,0zm-6.66313,0l0,-10.33028l1.57581,0l0,1.56609c0.40205,-0.73279 0.77332,-1.21591 1.11377,-1.44936c0.34045,-0.23344 0.71495,-0.35017 1.12349,-0.35017c0.59012,0 1.18996,0.18805 1.79953,0.56418l-0.60309,1.62444c-0.42799,-0.25291 -0.85599,-0.37936 -1.284,-0.37936c-0.38258,0 -0.72629,0.11511 -1.03108,0.34532c-0.30478,0.23019 -0.52202,0.54959 -0.65172,0.95813c-0.19453,0.62253 -0.29181,1.30344 -0.29181,2.04271l0,5.40831l-1.7509,0zm-11.05983,3.95898l0,-14.28926l1.59526,0l0,1.34236c0.37613,-0.52527 0.80087,-0.91922 1.27426,-1.18185c0.4734,-0.26263 1.04729,-0.39395 1.72173,-0.39395c0.88193,0 1.6601,0.22696 2.33452,0.68089c0.67444,0.45393 1.18349,1.09431 1.52718,1.92113c0.34369,0.82681 0.51553,1.73306 0.51553,2.71875c0,1.05704 -0.18967,2.00867 -0.56903,2.85493c-0.37936,0.84627 -0.93056,1.49474 -1.65363,1.94543c-0.72307,0.4507 -1.4834,0.67604 -2.28104,0.67604c-0.58362,0 -1.10727,-0.1232 -1.57094,-0.36963c-0.46367,-0.24643 -0.84464,-0.55769 -1.14294,-0.93381l0,5.02896l-1.7509,0zm1.58554,-9.06577c0,1.32941 0.2691,2.31183 0.80736,2.94736c0.53825,0.6355 1.18996,0.95326 1.95517,0.95326c0.77817,0 1.44449,-0.3291 1.99893,-0.98732c0.55446,-0.6582 0.83168,-1.67792 0.83168,-3.0592c0,-1.31641 -0.27074,-2.30209 -0.81223,-2.95706c-0.54149,-0.65497 -1.18832,-0.98245 -1.94057,-0.98245c-0.74576,0 -1.40559,0.34856 -1.97949,1.04568c-0.5739,0.69711 -0.86086,1.71036 -0.86086,3.03973zm-16.21524,5.10678l5.47641,-14.26007l2.03299,0l5.83632,14.26007l-2.14972,0l-1.66335,-4.31888l-5.96277,0l-1.56609,4.31888l-2.0038,0zm4.11461,-5.85577l4.83441,0l-1.48827,-3.94923c-0.45393,-1.19969 -0.79114,-2.18538 -1.01163,-2.95708c-0.18158,0.91437 -0.43771,1.82224 -0.76845,2.72363l-1.56607,4.18268z" fill-rule="evenodd" fill="#c53e32" id="April-23-28-2023"/>
    </g>
    <path d="m295.29395,185.85938l1.70898,0.25391c0.07162,0.52734 0.27017,0.91144 0.5957,1.15234c0.43619,0.3255 1.03189,0.48828 1.78711,0.48828c0.81381,0 1.44205,-0.16278 1.88477,-0.48828c0.44272,-0.3255 0.74219,-0.78125 0.89844,-1.36719c0.09116,-0.35809 0.13345,-1.11005 0.12695,-2.25586c-0.76822,0.90497 -1.72525,1.35742 -2.87109,1.35742c-1.42578,0 -2.5293,-0.51434 -3.31055,-1.54297c-0.78125,-1.02863 -1.17188,-2.26239 -1.17188,-3.70117c0,-0.98956 0.17905,-1.90265 0.53711,-2.73926c0.35806,-0.83661 0.87729,-1.48273 1.55762,-1.93848c0.68033,-0.45575 1.47949,-0.68359 2.39746,-0.68359c1.22397,0 2.23306,0.49481 3.02734,1.48438l0,-1.25l1.62109,0l0,8.96484c0,1.61456 -0.1644,2.75879 -0.49316,3.43262c-0.32877,0.67383 -0.84961,1.20605 -1.5625,1.59668c-0.71289,0.39063 -1.59015,0.58594 -2.63184,0.58594c-1.237,0 -2.23633,-0.27832 -2.99805,-0.83496c-0.76172,-0.55664 -1.12955,-1.39484 -1.10352,-2.51465zm1.45508,-6.23047c0,1.36066 0.27017,2.35352 0.81055,2.97852c0.54037,0.625 1.21744,0.9375 2.03125,0.9375c0.80728,0 1.48438,-0.31085 2.03125,-0.93262c0.54688,-0.62177 0.82031,-1.59668 0.82031,-2.9248c0,-1.26953 -0.28159,-2.22656 -0.84473,-2.87109c-0.56314,-0.64453 -1.24185,-0.9668 -2.03613,-0.9668c-0.78125,0 -1.44531,0.31738 -1.99219,0.95215c-0.54688,0.63477 -0.82031,1.57715 -0.82031,2.82715zm-12.25586,5.37109l0,-10.37109l1.58203,0l0,1.47461c0.76172,-1.13934 1.86197,-1.70898 3.30078,-1.70898c0.625,0 1.19955,0.1123 1.72363,0.33691c0.52408,0.22461 0.91635,0.51923 1.17676,0.88379c0.26041,0.36456 0.44272,0.79755 0.54688,1.29883c0.06509,0.3255 0.09766,0.8952 0.09766,1.70898l0,6.37695l-1.75781,0l0,-6.30859c0,-0.71613 -0.06836,-1.25165 -0.20508,-1.60645c-0.13672,-0.3548 -0.37924,-0.638 -0.72754,-0.84961c-0.3483,-0.21161 -0.75684,-0.31738 -1.22559,-0.31738c-0.74869,0 -1.39487,0.23761 -1.93848,0.71289c-0.54361,0.47528 -0.81543,1.37695 -0.81543,2.70508l0,5.66406l-1.75781,0zm-4.43359,-12.29492l0,-2.02148l1.75781,0l0,2.02148l-1.75781,0zm0,12.29492l0,-10.37109l1.75781,0l0,10.37109l-1.75781,0zm-1.72852,-1.57227l0.25391,1.55273c-0.49478,0.10419 -0.9375,0.15625 -1.32813,0.15625c-0.63803,0 -1.13281,-0.10089 -1.48438,-0.30273c-0.35156,-0.20184 -0.59897,-0.4671 -0.74219,-0.7959c-0.14322,-0.3288 -0.21484,-1.02051 -0.21484,-2.0752l0,-5.9668l-1.28906,0l0,-1.36719l1.28906,0l0,-2.56836l1.74805,-1.05469l0,3.62305l1.76758,0l0,1.36719l-1.76758,0l0,6.06445c0,0.50128 0.03091,0.82355 0.09277,0.9668c0.06186,0.14325 0.16275,0.25714 0.30273,0.3418c0.13998,0.08466 0.34018,0.12695 0.60059,0.12695c0.19531,0 0.45248,-0.02277 0.77148,-0.06836zm-7.07031,-2.22656l1.72852,0.22461c-0.18881,1.19141 -0.67221,2.12402 -1.4502,2.79785c-0.77798,0.67383 -1.7334,1.01074 -2.86621,1.01074c-1.41928,0 -2.56021,-0.46387 -3.42285,-1.3916c-0.86264,-0.92773 -1.29395,-2.25751 -1.29395,-3.98926c0,-1.11981 0.18555,-2.09961 0.55664,-2.93945c0.37109,-0.83984 0.93588,-1.46973 1.69434,-1.88965c0.75845,-0.41992 1.58365,-0.62988 2.47559,-0.62988c1.12631,0 2.04752,0.28485 2.76367,0.85449c0.71616,0.56964 1.17514,1.3786 1.37695,2.42676l-1.70898,0.26367c-0.16275,-0.69659 -0.45084,-1.2207 -0.86426,-1.57227c-0.41342,-0.35156 -0.91309,-0.52734 -1.49902,-0.52734c-0.88541,0 -1.60483,0.31738 -2.1582,0.95215c-0.55338,0.63477 -0.83008,1.63898 -0.83008,3.0127c0,1.39325 0.26694,2.40558 0.80078,3.03711c0.53384,0.63153 1.23047,0.94727 2.08984,0.94727c0.69009,0 1.26627,-0.21161 1.72852,-0.63477c0.46225,-0.42316 0.75522,-1.07422 0.87891,-1.95313zm-10.79102,0.45898l1.81641,0.22461c-0.28647,1.06122 -0.81705,1.88477 -1.5918,2.4707c-0.77475,0.58594 -1.76431,0.87891 -2.96875,0.87891c-1.51694,0 -2.71973,-0.4671 -3.6084,-1.40137c-0.88867,-0.93427 -1.33301,-2.24445 -1.33301,-3.93066c0,-1.74481 0.44922,-3.09894 1.34766,-4.0625c0.89844,-0.96356 2.06378,-1.44531 3.49609,-1.44531c1.38672,0 2.51953,0.47198 3.39844,1.41602c0.87891,0.94403 1.31836,2.27216 1.31836,3.98438c0,0.10419 -0.00327,0.26044 -0.00977,0.46875l-7.73438,0c0.06509,1.13934 0.38736,2.01172 0.9668,2.61719c0.57944,0.60547 1.30209,0.9082 2.16797,0.9082c0.64453,0 1.19467,-0.16925 1.65039,-0.50781c0.45572,-0.33856 0.81705,-0.87891 1.08398,-1.62109zm-5.77148,-2.8418l5.79102,0c-0.07813,-0.87238 -0.29947,-1.52667 -0.66406,-1.96289c-0.55991,-0.67706 -1.2858,-1.01563 -2.17773,-1.01563c-0.80728,0 -1.48599,0.2702 -2.03613,0.81055c-0.55014,0.54034 -0.85449,1.263 -0.91309,2.16797zm-12.45117,6.18164l0,-10.37109l1.58203,0l0,1.47461c0.76172,-1.13934 1.86197,-1.70898 3.30078,-1.70898c0.625,0 1.19955,0.1123 1.72363,0.33691c0.52408,0.22461 0.91635,0.51923 1.17676,0.88379c0.26041,0.36456 0.44272,0.79755 0.54688,1.29883c0.06509,0.3255 0.09766,0.8952 0.09766,1.70898l0,6.37695l-1.75781,0l0,-6.30859c0,-0.71613 -0.06836,-1.25165 -0.20508,-1.60645c-0.13672,-0.3548 -0.37924,-0.638 -0.72754,-0.84961c-0.3483,-0.21161 -0.75684,-0.31738 -1.22559,-0.31738c-0.74869,0 -1.39487,0.23761 -1.93848,0.71289c-0.54361,0.47528 -0.81543,1.37695 -0.81543,2.70508l0,5.66406l-1.75781,0zm-11.12305,0l0,-10.37109l1.58203,0l0,1.47461c0.76172,-1.13934 1.86197,-1.70898 3.30078,-1.70898c0.625,0 1.19955,0.1123 1.72363,0.33691c0.52408,0.22461 0.91635,0.51923 1.17676,0.88379c0.26041,0.36456 0.44272,0.79755 0.54688,1.29883c0.06509,0.3255 0.09766,0.8952 0.09766,1.70898l0,6.37695l-1.75781,0l0,-6.30859c0,-0.71613 -0.06836,-1.25165 -0.20508,-1.60645c-0.13672,-0.3548 -0.37924,-0.638 -0.72754,-0.84961c-0.3483,-0.21161 -0.75684,-0.31738 -1.22559,-0.31738c-0.74869,0 -1.39487,0.23761 -1.93848,0.71289c-0.54361,0.47528 -0.81543,1.37695 -0.81543,2.70508l0,5.66406l-1.75781,0zm-5.00977,0l0,-14.31641l1.89453,0l0,14.31641l-1.89453,0zm-14.70703,0l0,-14.31641l1.89453,0l0,5.87891l7.44141,0l0,-5.87891l1.89453,0l0,14.31641l-1.89453,0l0,-6.74805l-7.44141,0l0,6.74805l-1.89453,0zm-4.28711,-5.01953l1.89453,0.47852c-0.39713,1.55597 -1.11163,2.74249 -2.14355,3.55957c-1.03192,0.81708 -2.29327,1.22559 -3.78418,1.22559c-1.54297,0 -2.79785,-0.31415 -3.76465,-0.94238c-0.9668,-0.62823 -1.70248,-1.53809 -2.20703,-2.72949c-0.50455,-1.19141 -0.75684,-2.4707 -0.75684,-3.83789c0,-1.49091 0.28482,-2.79132 0.85449,-3.90137c0.56967,-1.11005 1.38019,-1.95313 2.43164,-2.5293c1.05145,-0.57617 2.20865,-0.86426 3.47168,-0.86426c1.43231,0 2.63672,0.36456 3.61328,1.09375c0.97656,0.72919 1.65689,1.75458 2.04102,3.07617l-1.86523,0.43945c-0.33203,-1.04169 -0.81381,-1.80011 -1.44531,-2.27539c-0.6315,-0.47528 -1.42578,-0.71289 -2.38281,-0.71289c-1.10028,0 -2.01987,0.26367 -2.75879,0.79102c-0.73892,0.52734 -1.25815,1.23535 -1.55762,2.12402c-0.29947,0.88867 -0.44922,1.80499 -0.44922,2.74902c0,1.21747 0.1774,2.28027 0.53223,3.18848c0.35483,0.9082 0.90659,1.58691 1.65527,2.03613c0.74869,0.44922 1.55923,0.67383 2.43164,0.67383c1.06122,0 1.95963,-0.30597 2.69531,-0.91797c0.73569,-0.612 1.23373,-1.5202 1.49414,-2.72461zm-14.46289,1.67969l1.81641,0.22461c-0.28647,1.06122 -0.81705,1.88477 -1.5918,2.4707c-0.77475,0.58594 -1.76431,0.87891 -2.96875,0.87891c-1.51694,0 -2.71973,-0.4671 -3.6084,-1.40137c-0.88867,-0.93427 -1.33301,-2.24445 -1.33301,-3.93066c0,-1.74481 0.44922,-3.09894 1.34766,-4.0625c0.89844,-0.96356 2.06378,-1.44531 3.49609,-1.44531c1.38672,0 2.51953,0.47198 3.39844,1.41602c0.87891,0.94403 1.31836,2.27216 1.31836,3.98438c0,0.10419 -0.00327,0.26044 -0.00977,0.46875l-7.73438,0c0.06509,1.13934 0.38736,2.01172 0.9668,2.61719c0.57944,0.60547 1.30209,0.9082 2.16797,0.9082c0.64453,0 1.19467,-0.16925 1.65039,-0.50781c0.45572,-0.33856 0.81705,-0.87891 1.08398,-1.62109zm-5.77148,-2.8418l5.79102,0c-0.07813,-0.87238 -0.29947,-1.52667 -0.66406,-1.96289c-0.55991,-0.67706 -1.2858,-1.01563 -2.17773,-1.01563c-0.80728,0 -1.48599,0.2702 -2.03613,0.81055c-0.55014,0.54034 -0.85449,1.263 -0.91309,2.16797zm-8.00781,6.18164l0,-10.37109l1.58203,0l0,1.57227c0.40366,-0.73566 0.77637,-1.2207 1.11816,-1.45508c0.3418,-0.23438 0.71777,-0.35156 1.12793,-0.35156c0.59244,0 1.19467,0.18878 1.80664,0.56641l-0.60547,1.63086c-0.42969,-0.25391 -0.85938,-0.38086 -1.28906,-0.38086c-0.38412,0 -0.72916,0.11554 -1.03516,0.34668c-0.306,0.23114 -0.52408,0.55176 -0.6543,0.96191c-0.19531,0.625 -0.29297,1.30859 -0.29297,2.05078l0,5.42969l-1.75781,0z" fill-rule="evenodd" fill="#c53e32" id="reCHInnecting-copy"/>
   </g>
  </g>
  <g id="network-boat">
   <g id="boat-graph">
    <path d="m152.38139,173.69843l-24.51601,-7.06393l-2.90867,16.20549l30.33337,-28.25574l-19.11418,-5.81737l4.15526,27.84021l-1.24658,-7.06393l6.23288,-17.45206l2.90869,-51.10965l12.88129,7.47946l-15.37445,43.63019l11.21919,-7.47946l-4.57079,-9.14157l1.24658,-30.74889l9.55708,-17.03654l-10.80367,-7.06393l1.24658,23.68495l10.80367,-39.89044l-9.14156,-3.3242l4.15524,1.66209l4.98631,-23.68494l-3.3242,14.54339l-2.90868,-5.81735l6.23288,-8.72604l-3.3242,-9.14156" visibility="hidden" stroke-linejoin="round" stroke-linecap="round" stroke-width="1.24658" stroke="#929292" fill="none" id="path870"/>
    <path d="m208.89287,149.59793l29.91785,9.97263" visibility="hidden" stroke-linejoin="round" stroke-linecap="round" stroke-width="1.24658" stroke="#929292" fill="none" id="path871"/>
    <path d="m164.84717,5.41058l10.80367,54.01831l-6.23288,3.32421l8.3105,16.20551l16.20549,82.68958l14.95892,-12.46577l27.42468,-11.6347l-75.21011,12.88129l9.55708,19.94522l-13.71234,-0.41553l34.07309,-24.51599l-26.1781,-12.05025l46.12334,-59.83568l-19.94524,71.88593l44.04572,-17.45207l-34.90414,-13.71234l18.69864,19.94522l6.23289,-34.90414l-24.93153,14.95892l-16.20551,-5.81737l-16.20549,-15.37444l9.97261,-13.71234l33.65756,-5.81737l-20.36075,-5.40182l-9.97261,0l-11.6347,-5.40184l27.00916,-13.29681l-8.31052,28.25574l-12.46576,-16.62102l-0.41553,-0.83105l14.12787,-21.1918l-18.69865,-1.6621l-1.24657,25.76257l5.81735,-2.90867l2.49315,-37.39729l-8.3105,1.24656" visibility="hidden" stroke-linejoin="round" stroke-linecap="round" stroke-width="1.24658" stroke="#929292" fill="none" id="path872"/>
    <path d="m117.89278,198.62994l8.72604,-8.72603l-11.63472,0.41551l22.43839,8.31052l1.66209,-9.55708l42.38361,9.55708l-31.99547,0l2.90868,-6.64841l76.87222,-3.3242l-60.66672,-5.81735l-16.20551,9.14156l30.33337,-1.66211l5.40182,-5.81735l1.24658,-7.47946l-1.24658,7.47946l-5.40182,6.23288l-1.24658,7.89499l17.03654,-8.72603l4.98631,8.72603l22.8539,0l-27.84021,-8.72603l5.40184,-18.28313l25.34705,17.03654l-40.7215,-11.63472l15.37445,-5.40182l30.74889,1.66211l-7.06393,-7.89499c0,0 5.8412,-2.082 12.88129,-1.66211c-6.73022,4.50735 -21.1918,8.72604 -21.1918,8.72604l12.46577,8.72604l-17.8676,-2.90869" visibility="hidden" stroke-linejoin="round" stroke-linecap="round" stroke-width="1.24658" stroke="#929292" fill="none" id="path873"/>
   </g>
   <g id="boat-border">
    <path d="m162.35402,12.05899c-0.564,10.32376 -16.68651,138.02353 -44.46124,174.93625c13.97292,-7.90152 13.3546,-9.93079 33.65758,-13.71234c6.19392,-31.04404 18.47191,-114.82841 10.80367,-161.22391z" visibility="hidden" fill-rule="evenodd" fill="#d5d5d5" id="path874"/>
    <path d="m153.62798,181.17789c10.10191,-4.99536 40.43289,-32.20551 85.18274,-21.1918c-1.24054,-16.26767 8.06708,-47.8242 -74.7946,-154.5755c1.76984,10.95896 13.66101,90.31784 -10.38814,175.76731z" visibility="hidden" fill-rule="evenodd" fill="#d5d5d5" id="path875"/>
    <path d="m114.9841,190.31943c0,0 2.02102,2.03311 2.90868,7.89499c5.11758,0.31363 108.86769,0.41553 108.86769,0.41553c0,0 6.82402,-28.73796 13.71234,-34.90414c-23.21094,0.68224 -49.01634,12.55801 -59.00427,15.71893c-17.74576,5.61603 -38.94507,9.30623 -45.29263,9.62813c-5.40903,0.27431 -21.1918,1.24657 -21.1918,1.24657" visibility="hidden" fill-rule="evenodd" fill="#d5d5d5" id="path876"/>
   </g>
   <g id="boat-dots">
    <path d="m117.61349,190.35419c0,-1.05722 -0.85702,-1.91425 -1.91423,-1.91425c-1.0572,0 -1.91423,0.85703 -1.91423,1.91425c0,1.05719 0.85703,1.91422 1.91423,1.91422c1.05721,0 1.91423,-0.85703 1.91423,-1.91422z" visibility="hidden" fill-rule="evenodd" fill="#ffffff" id="path877"/>
    <path d="m120.519,198.65564c0,-1.05721 -0.85702,-1.91425 -1.91423,-1.91425c-1.0572,0 -1.91423,0.85704 -1.91423,1.91425c0,1.05719 0.85703,1.91423 1.91423,1.91423c1.05721,0 1.91423,-0.85704 1.91423,-1.91423z" visibility="hidden" fill-rule="evenodd" fill="#ffffff" id="path878"/>
    <path d="m128.82047,189.93912c0,-1.05722 -0.85703,-1.91425 -1.91424,-1.91425c-1.0572,0 -1.91423,0.85703 -1.91423,1.91425c0,1.05719 0.85703,1.91422 1.91423,1.91422c1.05721,0 1.91424,-0.85703 1.91424,-1.91422z" visibility="hidden" fill-rule="evenodd" fill="#ffffff" id="path879"/>
    <path d="m125.49989,193.67476c0,-1.05721 -0.85704,-1.91423 -1.91425,-1.91423c-1.0572,0 -1.91423,0.85703 -1.91423,1.91423c0,1.05721 0.85703,1.91423 1.91423,1.91423c1.05721,0 1.91425,-0.85703 1.91425,-1.91423z" visibility="hidden" fill-rule="evenodd" fill="#ffffff" id="path880"/>
    <path d="m140.02744,198.65564c0,-1.05721 -0.85704,-1.91425 -1.91423,-1.91425c-1.05721,0 -1.91423,0.85704 -1.91423,1.91425c0,1.05719 0.85703,1.91423 1.91423,1.91423c1.05719,0 1.91423,-0.85704 1.91423,-1.91423z" visibility="hidden" fill-rule="evenodd" fill="#ffffff" id="path881"/>
    <path d="m141.27266,189.10896c0,-1.05721 -0.85704,-1.91423 -1.91425,-1.91423c-1.05719,0 -1.91423,0.85703 -1.91423,1.91423c0,1.05721 0.85704,1.91423 1.91423,1.91423c1.05721,0 1.91425,-0.85703 1.91425,-1.91423z" visibility="hidden" fill-rule="evenodd" fill="#ffffff" id="path882"/>
    <path d="m154.55498,192.42953c0,-1.05719 -0.85703,-1.91422 -1.91423,-1.91422c-1.05719,0 -1.91423,0.85703 -1.91423,1.91422c0,1.05722 0.85704,1.91425 1.91423,1.91425c1.05721,0 1.91423,-0.85703 1.91423,-1.91425z" visibility="hidden" fill-rule="evenodd" fill="#ffffff" id="path883"/>
    <path d="m171.57297,183.29794c0,-1.05721 -0.85703,-1.91425 -1.91423,-1.91425c-1.05721,0 -1.91423,0.85704 -1.91423,1.91425c0,1.05719 0.85703,1.91423 1.91423,1.91423c1.05721,0 1.91423,-0.85704 1.91423,-1.91423z" visibility="hidden" fill-rule="evenodd" fill="#ffffff" id="path884"/>
    <path d="m206.4391,171.6759c0,-1.05721 -0.85704,-1.91425 -1.91425,-1.91425c-1.05719,0 -1.91423,0.85704 -1.91423,1.91425c0,1.05719 0.85704,1.91423 1.91423,1.91423c1.05721,0 1.91425,-0.85704 1.91425,-1.91423z" visibility="hidden" fill-rule="evenodd" fill="#ffffff" id="path885"/>
    <path d="m230.09825,165.4498c0,-1.05719 -0.85703,-1.91422 -1.91423,-1.91422c-1.05721,0 -1.91423,0.85703 -1.91423,1.91422c0,1.05721 0.85703,1.91425 1.91423,1.91425c1.05721,0 1.91423,-0.85704 1.91423,-1.91425z" visibility="hidden" fill-rule="evenodd" fill="#ffffff" id="path886"/>
    <path d="m242.55045,163.78952c0,-1.05721 -0.85704,-1.91425 -1.91425,-1.91425c-1.05719,0 -1.91423,0.85704 -1.91423,1.91425c0,1.05719 0.85704,1.91423 1.91423,1.91423c1.05721,0 1.91425,-0.85704 1.91425,-1.91423z" visibility="hidden" fill-rule="evenodd" fill="#ffffff" id="path887"/>
    <path d="m239.64493,137.63992c0,-1.05721 -0.85703,-1.91423 -1.91423,-1.91423c-1.05721,0 -1.91423,0.85703 -1.91423,1.91423c0,1.05721 0.85703,1.91423 1.91423,1.91423c1.05721,0 1.91423,-0.85703 1.91423,-1.91423z" visibility="hidden" fill-rule="evenodd" fill="#ffffff" id="path888"/>
    <path d="m240.89015,160.05386c0,-1.05721 -0.85704,-1.91425 -1.91425,-1.91425c-1.05719,0 -1.91423,0.85704 -1.91423,1.91425c0,1.05719 0.85704,1.91423 1.91423,1.91423c1.05721,0 1.91425,-0.85704 1.91425,-1.91423z" visibility="hidden" fill-rule="evenodd" fill="#ffffff" id="path889"/>
    <path d="m196.89243,161.29907c0,-1.05719 -0.85704,-1.91423 -1.91425,-1.91423c-1.05719,0 -1.91423,0.85704 -1.91423,1.91423c0,1.05721 0.85704,1.91425 1.91423,1.91425c1.05721,0 1.91425,-0.85704 1.91425,-1.91425z" visibility="hidden" fill-rule="evenodd" fill="#ffffff" id="path890"/>
    <path d="m173.23326,170.84576c0,-1.05722 -0.85703,-1.91425 -1.91423,-1.91425c-1.05721,0 -1.91423,0.85703 -1.91423,1.91425c0,1.05719 0.85703,1.91422 1.91423,1.91422c1.05721,0 1.91423,-0.85703 1.91423,-1.91422z" visibility="hidden" fill-rule="evenodd" fill="#ffffff" id="path891"/>
    <path d="m159.12079,170.01561c0,-1.05721 -0.85704,-1.91423 -1.91423,-1.91423c-1.05721,0 -1.91423,0.85703 -1.91423,1.91423c0,1.05721 0.85703,1.91423 1.91423,1.91423c1.05719,0 1.91423,-0.85703 1.91423,-1.91423z" visibility="hidden" fill-rule="evenodd" fill="#ffffff" id="path892"/>
    <path d="m169.4976,162.95937c0,-1.05721 -0.85703,-1.91423 -1.91423,-1.91423c-1.05721,0 -1.91423,0.85703 -1.91423,1.91423c0,1.05721 0.85703,1.91423 1.91423,1.91423c1.05721,0 1.91423,-0.85703 1.91423,-1.91423z" visibility="hidden" fill-rule="evenodd" fill="#ffffff" id="path893"/>
    <path d="m163.27151,150.92226c0,-1.05721 -0.85703,-1.91423 -1.91423,-1.91423c-1.05721,0 -1.91423,0.85703 -1.91423,1.91423c0,1.05721 0.85703,1.91423 1.91423,1.91423c1.05721,0 1.91423,-0.85703 1.91423,-1.91423z" visibility="hidden" fill-rule="evenodd" fill="#ffffff" id="path894"/>
    <path d="m193.15677,145.11124c0,-1.05721 -0.85704,-1.91425 -1.91423,-1.91425c-1.05721,0 -1.91425,0.85704 -1.91425,1.91425c0,1.05719 0.85704,1.91423 1.91425,1.91423c1.05719,0 1.91423,-0.85704 1.91423,-1.91423z" visibility="hidden" fill-rule="evenodd" fill="#ffffff" id="path895"/>
    <path d="m211.0049,149.26196c0,-1.05721 -0.85703,-1.91423 -1.91423,-1.91423c-1.05721,0 -1.91423,0.85703 -1.91423,1.91423c0,1.05721 0.85703,1.91423 1.91423,1.91423c1.05721,0 1.91423,-0.85703 1.91423,-1.91423z" visibility="hidden" fill-rule="evenodd" fill="#ffffff" id="path896"/>
    <path d="m221.38171,134.31934c0,-1.05721 -0.85703,-1.91423 -1.91423,-1.91423c-1.05719,0 -1.91423,0.85703 -1.91423,1.91423c0,1.05721 0.85704,1.91423 1.91423,1.91423c1.05721,0 1.91423,-0.85703 1.91423,-1.91423z" visibility="hidden" fill-rule="evenodd" fill="#ffffff" id="path897"/>
    <path d="m237.98463,128.09325c0,-1.05721 -0.85703,-1.91423 -1.91423,-1.91423c-1.05721,0 -1.91423,0.85703 -1.91423,1.91423c0,1.05721 0.85703,1.91423 1.91423,1.91423c1.05721,0 1.91423,-0.85703 1.91423,-1.91423z" visibility="hidden" fill-rule="evenodd" fill="#ffffff" id="path898"/>
    <path d="m223.87216,123.11237c0,-1.05719 -0.85704,-1.91423 -1.91423,-1.91423c-1.05721,0 -1.91425,0.85704 -1.91425,1.91423c0,1.05721 0.85704,1.91423 1.91425,1.91423c1.05719,0 1.91423,-0.85703 1.91423,-1.91423z" visibility="hidden" fill-rule="evenodd" fill="#ffffff" id="path899"/>
    <path d="m227.60782,99.86829c0,-1.05721 -0.85704,-1.91423 -1.91423,-1.91423c-1.05721,0 -1.91425,0.85703 -1.91425,1.91423c0,1.05721 0.85704,1.91423 1.91425,1.91423c1.05719,0 1.91423,-0.85703 1.91423,-1.91423z" visibility="hidden" fill-rule="evenodd" fill="#ffffff" id="path900"/>
    <path d="m202.70345,114.81091c0,-1.05721 -0.85704,-1.91423 -1.91423,-1.91423c-1.05721,0 -1.91425,0.85703 -1.91425,1.91423c0,1.05721 0.85704,1.91423 1.91425,1.91423c1.05719,0 1.91423,-0.85703 1.91423,-1.91423z" visibility="hidden" fill-rule="evenodd" fill="#ffffff" id="path901"/>
    <path d="m186.10052,108.99989c0,-1.05721 -0.85703,-1.91423 -1.91423,-1.91423c-1.05721,0 -1.91423,0.85703 -1.91423,1.91423c0,1.05721 0.85703,1.91423 1.91423,1.91423c1.05721,0 1.91423,-0.85703 1.91423,-1.91423z" visibility="hidden" fill-rule="evenodd" fill="#ffffff" id="path902"/>
    <path d="m166.5921,133.4892c0,-1.05721 -0.85704,-1.91423 -1.91423,-1.91423c-1.05721,0 -1.91425,0.85703 -1.91425,1.91423c0,1.05721 0.85704,1.91423 1.91425,1.91423c1.05719,0 1.91423,-0.85703 1.91423,-1.91423z" visibility="hidden" fill-rule="evenodd" fill="#ffffff" id="path903"/>
    <path d="m170.32776,93.22713c0,-1.05721 -0.85704,-1.91425 -1.91423,-1.91425c-1.05721,0 -1.91425,0.85704 -1.91425,1.91425c0,1.05719 0.85704,1.91423 1.91425,1.91423c1.05719,0 1.91423,-0.85704 1.91423,-1.91423z" visibility="hidden" fill-rule="evenodd" fill="#ffffff" id="path904"/>
    <path d="m180.70457,79.52971c0,-1.05719 -0.85703,-1.91423 -1.91423,-1.91423c-1.05721,0 -1.91423,0.85704 -1.91423,1.91423c0,1.0572 0.85703,1.91424 1.91423,1.91424c1.05721,0 1.91423,-0.85704 1.91423,-1.91424z" visibility="hidden" fill-rule="evenodd" fill="#ffffff" id="path905"/>
    <path d="m190.25125,77.86943c0,-1.0572 -0.85703,-1.91425 -1.91423,-1.91425c-1.05721,0 -1.91423,0.85706 -1.91423,1.91425c0,1.05719 0.85703,1.91423 1.91423,1.91423c1.05721,0 1.91423,-0.85704 1.91423,-1.91423z" visibility="hidden" fill-rule="evenodd" fill="#ffffff" id="path906"/>
    <path d="m213.91042,74.13377c0,-1.05721 -0.85704,-1.91425 -1.91425,-1.91425c-1.05719,0 -1.91423,0.85704 -1.91423,1.91425c0,1.05719 0.85704,1.91422 1.91423,1.91422c1.05721,0 1.91425,-0.85703 1.91425,-1.91422z" visibility="hidden" fill-rule="evenodd" fill="#ffffff" id="path907"/>
    <path d="m193.15677,68.73782c0,-1.05721 -0.85704,-1.91423 -1.91423,-1.91423c-1.05721,0 -1.91425,0.85703 -1.91425,1.91423c0,1.05721 0.85704,1.91423 1.91425,1.91423c1.05719,0 1.91423,-0.85703 1.91423,-1.91423z" visibility="hidden" fill-rule="evenodd" fill="#ffffff" id="path908"/>
    <path d="m183.19501,68.32275c0,-1.0572 -0.85703,-1.91424 -1.91423,-1.91424c-1.05719,0 -1.91423,0.85704 -1.91423,1.91424c0,1.05719 0.85704,1.91423 1.91423,1.91423c1.05721,0 1.91423,-0.85704 1.91423,-1.91423z" visibility="hidden" fill-rule="evenodd" fill="#ffffff" id="path909"/>
    <path d="m198.55272,50.05954c0,-1.05721 -0.85704,-1.91423 -1.91425,-1.91423c-1.05719,0 -1.91423,0.85702 -1.91423,1.91423c0,1.0572 0.85704,1.91423 1.91423,1.91423c1.05721,0 1.91425,-0.85703 1.91425,-1.91423z" visibility="hidden" fill-rule="evenodd" fill="#ffffff" id="path910"/>
    <path d="m191.49648,39.68272c0,-1.0572 -0.85704,-1.91424 -1.91423,-1.91424c-1.05721,0 -1.91425,0.85704 -1.91425,1.91424c0,1.05719 0.85704,1.91423 1.91425,1.91423c1.05719,0 1.91423,-0.85704 1.91423,-1.91423z" visibility="hidden" fill-rule="evenodd" fill="#ffffff" id="path911"/>
    <path d="m179.87444,23.49487c0,-1.0572 -0.85704,-1.91423 -1.91423,-1.91423c-1.05721,0 -1.91425,0.85703 -1.91425,1.91423c0,1.05721 0.85704,1.91423 1.91425,1.91423c1.05719,0 1.91423,-0.85702 1.91423,-1.91423z" visibility="hidden" fill-rule="evenodd" fill="#ffffff" id="path912"/>
    <path d="m167.00717,6.06183c0,-1.05722 -0.85703,-1.91425 -1.91423,-1.91425c-1.05721,0 -1.91423,0.85703 -1.91423,1.91425c0,1.05719 0.85703,1.91421 1.91423,1.91421c1.05721,0 1.91423,-0.85702 1.91423,-1.91421z" visibility="hidden" fill-rule="evenodd" fill="#ffffff" id="path913"/>
    <path d="m162.85645,30.13605c0,-1.05721 -0.85704,-1.91425 -1.91423,-1.91425c-1.05721,0 -1.91425,0.85704 -1.91425,1.91425c0,1.05719 0.85704,1.91423 1.91425,1.91423c1.05719,0 1.91423,-0.85704 1.91423,-1.91423z" visibility="hidden" fill-rule="evenodd" fill="#ffffff" id="path914"/>
    <path d="m167.00717,39.68272c0,-1.0572 -0.85703,-1.91424 -1.91423,-1.91424c-1.05721,0 -1.91423,0.85704 -1.91423,1.91424c0,1.05719 0.85703,1.91423 1.91423,1.91423c1.05721,0 1.91423,-0.85704 1.91423,-1.91423z" visibility="hidden" fill-rule="evenodd" fill="#ffffff" id="path915"/>
    <path d="m160.36601,48.39925c0,-1.05721 -0.85704,-1.91422 -1.91425,-1.91422c-1.05719,0 -1.91423,0.85702 -1.91423,1.91422c0,1.05721 0.85704,1.91423 1.91423,1.91423c1.05721,0 1.91425,-0.85703 1.91425,-1.91423z" visibility="hidden" fill-rule="evenodd" fill="#ffffff" id="path916"/>
    <path d="m163.68658,53.38013c0,-1.05721 -0.85703,-1.91423 -1.91423,-1.91423c-1.05721,0 -1.91423,0.85703 -1.91423,1.91423c0,1.05721 0.85703,1.91423 1.91423,1.91423c1.05721,0 1.91423,-0.85703 1.91423,-1.91423z" visibility="hidden" fill-rule="evenodd" fill="#ffffff" id="path917"/>
    <path d="m157.87556,61.26651c0,-1.05721 -0.85703,-1.91423 -1.91423,-1.91423c-1.05721,0 -1.91423,0.85702 -1.91423,1.91423c0,1.05721 0.85703,1.91423 1.91423,1.91423c1.05721,0 1.91423,-0.85702 1.91423,-1.91423z" visibility="hidden" fill-rule="evenodd" fill="#ffffff" id="path918"/>
    <path d="m162.02629,62.9268c0,-1.05721 -0.85703,-1.91423 -1.91423,-1.91423c-1.05721,0 -1.91423,0.85703 -1.91423,1.91423c0,1.05721 0.85703,1.91422 1.91423,1.91422c1.05721,0 1.91423,-0.85702 1.91423,-1.91422z" visibility="hidden" fill-rule="evenodd" fill="#ffffff" id="path919"/>
    <path d="m167.00717,64.5871c0,-1.05721 -0.85703,-1.91423 -1.91423,-1.91423c-1.05721,0 -1.91423,0.85703 -1.91423,1.91423c0,1.05719 0.85703,1.91423 1.91423,1.91423c1.05721,0 1.91423,-0.85704 1.91423,-1.91423z" visibility="hidden" fill-rule="evenodd" fill="#ffffff" id="path920"/>
    <path d="m154.55498,81.19c0,-1.05719 -0.85703,-1.91423 -1.91423,-1.91423c-1.05719,0 -1.91423,0.85704 -1.91423,1.91423c0,1.05721 0.85704,1.91425 1.91423,1.91425c1.05721,0 1.91423,-0.85704 1.91423,-1.91425z" visibility="hidden" fill-rule="evenodd" fill="#ffffff" id="path921"/>
    <path d="m161.19615,85.34074c0,-1.0572 -0.85703,-1.91424 -1.91423,-1.91424c-1.05721,0 -1.91423,0.85704 -1.91423,1.91424c0,1.05719 0.85703,1.91423 1.91423,1.91423c1.05721,0 1.91423,-0.85704 1.91423,-1.91423z" visibility="hidden" fill-rule="evenodd" fill="#ffffff" id="path922"/>
    <path d="m165.34688,88.66132c0,-1.05719 -0.85703,-1.91423 -1.91423,-1.91423c-1.05721,0 -1.91423,0.85704 -1.91423,1.91423c0,1.0572 0.85703,1.91422 1.91423,1.91422c1.05721,0 1.91423,-0.85703 1.91423,-1.91422z" visibility="hidden" fill-rule="evenodd" fill="#ffffff" id="path923"/>
    <path d="m156.21527,104.01901c0,-1.05719 -0.85703,-1.91423 -1.91423,-1.91423c-1.05721,0 -1.91423,0.85704 -1.91423,1.91423c0,1.05721 0.85703,1.91423 1.91423,1.91423c1.05721,0 1.91423,-0.85703 1.91423,-1.91423z" visibility="hidden" fill-rule="evenodd" fill="#ffffff" id="path924"/>
    <path d="m150.40425,101.52858c0,-1.05721 -0.85703,-1.91423 -1.91423,-1.91423c-1.05721,0 -1.91423,0.85703 -1.91423,1.91423c0,1.05721 0.85703,1.91423 1.91423,1.91423c1.05721,0 1.91423,-0.85703 1.91423,-1.91423z" visibility="hidden" fill-rule="evenodd" fill="#ffffff" id="path925"/>
    <path d="m163.27151,108.99989c0,-1.05721 -0.85703,-1.91423 -1.91423,-1.91423c-1.05721,0 -1.91423,0.85703 -1.91423,1.91423c0,1.05721 0.85703,1.91423 1.91423,1.91423c1.05721,0 1.91423,-0.85703 1.91423,-1.91423z" visibility="hidden" fill-rule="evenodd" fill="#ffffff" id="path926"/>
    <path d="m154.55498,134.31934c0,-1.05721 -0.85703,-1.91423 -1.91423,-1.91423c-1.05719,0 -1.91423,0.85703 -1.91423,1.91423c0,1.05721 0.85704,1.91423 1.91423,1.91423c1.05721,0 1.91423,-0.85703 1.91423,-1.91423z" visibility="hidden" fill-rule="evenodd" fill="#ffffff" id="path927"/>
    <path d="m159.12079,145.11124c0,-1.05721 -0.85704,-1.91425 -1.91423,-1.91425c-1.05721,0 -1.91423,0.85704 -1.91423,1.91425c0,1.05719 0.85703,1.91423 1.91423,1.91423c1.05719,0 1.91423,-0.85704 1.91423,-1.91423z" visibility="hidden" fill-rule="evenodd" fill="#ffffff" id="path928"/>
    <path d="m157.46049,155.07298c0,-1.05721 -0.85703,-1.91423 -1.91423,-1.91423c-1.05721,0 -1.91423,0.85703 -1.91423,1.91423c0,1.05721 0.85703,1.91423 1.91423,1.91423c1.05721,0 1.91423,-0.85703 1.91423,-1.91423z" visibility="hidden" fill-rule="evenodd" fill="#ffffff" id="path929"/>
    <path d="m154.55498,173.75127c0,-1.05721 -0.85703,-1.91423 -1.91423,-1.91423c-1.05719,0 -1.91423,0.85703 -1.91423,1.91423c0,1.05721 0.85704,1.91423 1.91423,1.91423c1.05721,0 1.91423,-0.85703 1.91423,-1.91423z" visibility="hidden" fill-rule="evenodd" fill="#ffffff" id="path930"/>
    <path d="m142.51787,176.2417c0,-1.05719 -0.85703,-1.91423 -1.91423,-1.91423c-1.05721,0 -1.91423,0.85704 -1.91423,1.91423c0,1.05721 0.85703,1.91425 1.91423,1.91425c1.05721,0 1.91423,-0.85704 1.91423,-1.91425z" visibility="hidden" fill-rule="evenodd" fill="#ffffff" id="path931"/>
    <path d="m141.68773,170.01561c0,-1.05721 -0.85704,-1.91423 -1.91423,-1.91423c-1.05721,0 -1.91425,0.85703 -1.91425,1.91423c0,1.05721 0.85704,1.91423 1.91425,1.91423c1.05719,0 1.91423,-0.85703 1.91423,-1.91423z" visibility="hidden" fill-rule="evenodd" fill="#ffffff" id="path932"/>
    <path d="m148.74396,151.75241c0,-1.05722 -0.85703,-1.91425 -1.91423,-1.91425c-1.05719,0 -1.91423,0.85703 -1.91423,1.91425c0,1.05719 0.85704,1.91422 1.91423,1.91422c1.05721,0 1.91423,-0.85703 1.91423,-1.91422z" visibility="hidden" fill-rule="evenodd" fill="#ffffff" id="path933"/>
    <path d="m137.537,148.84689c0,-1.05721 -0.85704,-1.91425 -1.91425,-1.91425c-1.05719,0 -1.91423,0.85704 -1.91423,1.91425c0,1.05719 0.85704,1.91423 1.91423,1.91423c1.05721,0 1.91425,-0.85704 1.91425,-1.91423z" visibility="hidden" fill-rule="evenodd" fill="#ffffff" id="path934"/>
    <path d="m130.89583,167.11011c0,-1.05722 -0.85703,-1.91425 -1.91423,-1.91425c-1.05721,0 -1.91423,0.85703 -1.91423,1.91425c0,1.05719 0.85703,1.91422 1.91423,1.91422c1.05721,0 1.91423,-0.85703 1.91423,-1.91422z" visibility="hidden" fill-rule="evenodd" fill="#ffffff" id="path935"/>
    <path d="m128.4054,182.4678c0,-1.05722 -0.85703,-1.91425 -1.91424,-1.91425c-1.0572,0 -1.91423,0.85703 -1.91423,1.91425c0,1.05719 0.85703,1.91422 1.91423,1.91422c1.05721,0 1.91424,-0.85703 1.91424,-1.91422z" visibility="hidden" fill-rule="evenodd" fill="#ffffff" id="path936"/>
    <path d="m171.1579,24.7401c0,-1.05721 -0.85703,-1.91423 -1.91423,-1.91423c-1.05721,0 -1.91423,0.85702 -1.91423,1.91423c0,1.0572 0.85703,1.91423 1.91423,1.91423c1.05721,0 1.91423,-0.85703 1.91423,-1.91423z" visibility="hidden" fill-rule="evenodd" fill="#ffffff" id="path937"/>
    <path d="m173.23326,38.02243c0,-1.0572 -0.85703,-1.91423 -1.91423,-1.91423c-1.05721,0 -1.91423,0.85703 -1.91423,1.91423c0,1.05721 0.85703,1.91423 1.91423,1.91423c1.05721,0 1.91423,-0.85702 1.91423,-1.91423z" visibility="hidden" fill-rule="evenodd" fill="#ffffff" id="path938"/>
    <path d="m179.45937,38.02243c0,-1.0572 -0.85704,-1.91423 -1.91425,-1.91423c-1.05719,0 -1.91423,0.85703 -1.91423,1.91423c0,1.05721 0.85704,1.91423 1.91423,1.91423c1.05721,0 1.91425,-0.85702 1.91425,-1.91423z" visibility="hidden" fill-rule="evenodd" fill="#ffffff" id="path939"/>
    <path d="m177.79907,60.02129c0,-1.05719 -0.85704,-1.91423 -1.91425,-1.91423c-1.05719,0 -1.91423,0.85704 -1.91423,1.91423c0,1.0572 0.85704,1.91422 1.91423,1.91422c1.05721,0 1.91425,-0.85703 1.91425,-1.91422z" visibility="hidden" fill-rule="evenodd" fill="#ffffff" id="path940"/>
    <path d="m171.1579,63.34187c0,-1.05721 -0.85703,-1.91423 -1.91423,-1.91423c-1.05721,0 -1.91423,0.85703 -1.91423,1.91423c0,1.05721 0.85703,1.91423 1.91423,1.91423c1.05721,0 1.91423,-0.85703 1.91423,-1.91423z" visibility="hidden" fill-rule="evenodd" fill="#ffffff" id="path941"/>
    <path d="m237.1545,173.33618c0,-1.05719 -0.85704,-1.91422 -1.91423,-1.91422c-1.05721,0 -1.91425,0.85703 -1.91425,1.91422c0,1.05722 0.85704,1.91425 1.91425,1.91425c1.05719,0 1.91423,-0.85703 1.91423,-1.91425z" visibility="hidden" fill-rule="evenodd" fill="#ffffff" id="path942"/>
    <path d="m234.24898,181.63765c0,-1.05721 -0.85703,-1.91423 -1.91423,-1.91423c-1.05721,0 -1.91423,0.85703 -1.91423,1.91423c0,1.05721 0.85703,1.91423 1.91423,1.91423c1.05721,0 1.91423,-0.85703 1.91423,-1.91423z" visibility="hidden" fill-rule="evenodd" fill="#ffffff" id="path943"/>
    <path d="m231.75854,188.69388c0,-1.05719 -0.85704,-1.91422 -1.91423,-1.91422c-1.05721,0 -1.91423,0.85703 -1.91423,1.91422c0,1.05722 0.85703,1.91425 1.91423,1.91425c1.05719,0 1.91423,-0.85703 1.91423,-1.91425z" visibility="hidden" fill-rule="evenodd" fill="#ffffff" id="path944"/>
    <path d="m228.85303,198.65564c0,-1.05721 -0.85703,-1.91425 -1.91423,-1.91425c-1.05721,0 -1.91423,0.85704 -1.91423,1.91425c0,1.05719 0.85703,1.91423 1.91423,1.91423c1.05721,0 1.91423,-0.85704 1.91423,-1.91423z" visibility="hidden" fill-rule="evenodd" fill="#ffffff" id="path945"/>
    <path d="m205.19388,198.65564c0,-1.05721 -0.85703,-1.91425 -1.91423,-1.91425c-1.05721,0 -1.91423,0.85704 -1.91423,1.91425c0,1.05719 0.85703,1.91423 1.91423,1.91423c1.05721,0 1.91423,-0.85704 1.91423,-1.91423z" visibility="hidden" fill-rule="evenodd" fill="#ffffff" id="path946"/>
    <path d="m183.61009,198.65564c0,-1.05721 -0.85704,-1.91425 -1.91423,-1.91425c-1.05721,0 -1.91425,0.85704 -1.91425,1.91425c0,1.05719 0.85704,1.91423 1.91425,1.91423c1.05719,0 1.91423,-0.85704 1.91423,-1.91423z" visibility="hidden" fill-rule="evenodd" fill="#ffffff" id="path947"/>
    <path d="m184.8553,190.76926c0,-1.05721 -0.85703,-1.91425 -1.91423,-1.91425c-1.05721,0 -1.91423,0.85704 -1.91423,1.91425c0,1.05719 0.85703,1.91423 1.91423,1.91423c1.05721,0 1.91423,-0.85704 1.91423,-1.91423z" visibility="hidden" fill-rule="evenodd" fill="#ffffff" id="path948"/>
    <path d="m201.45822,190.35419c0,-1.05722 -0.85703,-1.91425 -1.91423,-1.91425c-1.05721,0 -1.91423,0.85703 -1.91423,1.91425c0,1.05719 0.85703,1.91422 1.91423,1.91422c1.05721,0 1.91423,-0.85703 1.91423,-1.91422z" visibility="hidden" fill-rule="evenodd" fill="#ffffff" id="path949"/>
    <path d="m202.28836,185.78838c0,-1.05721 -0.85703,-1.91423 -1.91423,-1.91423c-1.05719,0 -1.91423,0.85703 -1.91423,1.91423c0,1.05721 0.85704,1.91423 1.91423,1.91423c1.05721,0 1.91423,-0.85703 1.91423,-1.91423z" visibility="hidden" fill-rule="evenodd" fill="#ffffff" id="path950"/>
    <path d="m203.53358,180.8075c0,-1.05719 -0.85703,-1.91422 -1.91423,-1.91422c-1.05721,0 -1.91423,0.85703 -1.91423,1.91422c0,1.05722 0.85703,1.91425 1.91423,1.91425c1.05721,0 1.91423,-0.85703 1.91423,-1.91425z" visibility="hidden" fill-rule="evenodd" fill="#ffffff" id="path951"/>
    <path d="m217.64607,179.14722c0,-1.05721 -0.85704,-1.91425 -1.91425,-1.91425c-1.05719,0 -1.91423,0.85704 -1.91423,1.91425c0,1.05719 0.85704,1.91423 1.91423,1.91423c1.05721,0 1.91425,-0.85704 1.91425,-1.91423z" visibility="hidden" fill-rule="evenodd" fill="#ffffff" id="path952"/>
    <path d="m222.62694,172.50604c0,-1.05719 -0.85703,-1.91423 -1.91423,-1.91423c-1.05721,0 -1.91423,0.85704 -1.91423,1.91423c0,1.05721 0.85703,1.91425 1.91423,1.91425c1.05721,0 1.91423,-0.85704 1.91423,-1.91425z" visibility="hidden" fill-rule="evenodd" fill="#ffffff" id="path953"/>
    <path d="m233.00377,168.77039c0,-1.05719 -0.85704,-1.91423 -1.91425,-1.91423c-1.05719,0 -1.91423,0.85704 -1.91423,1.91423c0,1.05721 0.85704,1.91425 1.91423,1.91425c1.05721,0 1.91425,-0.85704 1.91425,-1.91425z" visibility="hidden" fill-rule="evenodd" fill="#ffffff" id="path954"/>
    <path d="m191.91154,177.07184c0,-1.05719 -0.85703,-1.91422 -1.91423,-1.91422c-1.05721,0 -1.91423,0.85703 -1.91423,1.91422c0,1.05722 0.85703,1.91425 1.91423,1.91425c1.05721,0 1.91423,-0.85703 1.91423,-1.91425z" visibility="hidden" fill-rule="evenodd" fill="#ffffff" id="path955"/>
    <path d="m190.25125,184.95822c0,-1.05719 -0.85703,-1.91422 -1.91423,-1.91422c-1.05721,0 -1.91423,0.85703 -1.91423,1.91422c0,1.05722 0.85703,1.91425 1.91423,1.91425c1.05721,0 1.91423,-0.85703 1.91423,-1.91425z" visibility="hidden" fill-rule="evenodd" fill="#ffffff" id="path956"/>
   </g>
  </g>
  <path d="m113.73753,227.71674l142.94078,0l0,-227.29245l-142.94078,0l0,227.29245z" visibility="hidden" fill-rule="evenodd" fill="url(#linearGradient4)" id="path957"/>
  <path d="m-28.02236,201.58398c0,0 96.79657,-39.88982 131.8373,-9.16043c35.04068,30.72931 61.61417,50.78009 102.83904,24.92456c41.22487,-25.85556 65.15379,-62.05612 126.47551,-24.98547" visibility="hidden" fill-rule="evenodd" fill="#929292" id="water-smooth-short"/>
  <g id="water-wifi-4-arches-copy-5">
   <path d="m-144.24741,218.78667c0,0 123.12442,-33.64696 241.99648,0.15257" visibility="hidden" fill-rule="evenodd" fill="#0376bb" id="path1027"/>
   <path d="m-103.4901,230.08307c0,0 81.45048,-20.0878 166.03969,-0.4523" visibility="hidden" fill-rule="evenodd" fill="#0376bb" id="path1028"/>
   <path d="m-71.53268,241.28317c0,0 44.83865,-18.18312 102.35642,-0.18851" visibility="hidden" fill-rule="evenodd" fill="#0376bb" id="path1029"/>
   <path d="m-36.79634,247.53571c0,0 12.42067,-8.41296 32.88373,0.2316" visibility="hidden" fill-rule="evenodd" fill="#0376bb" id="path1030"/>
  </g>
  <g id="water-wifi-4-arches-copy-7">
   <path d="m209.85889,218.78667c0,0 123.12442,-33.64696 241.99649,0.15257" visibility="hidden" fill-rule="evenodd" fill="#0376bb" id="path1031"/>
   <path d="m250.61618,230.08307c0,0 81.4505,-20.0878 166.0397,-0.4523" visibility="hidden" fill-rule="evenodd" fill="#0376bb" id="path1032"/>
   <path d="m282.57361,241.28317c0,0 44.83865,-18.18312 102.35641,-0.18851" visibility="hidden" fill-rule="evenodd" fill="#0376bb" id="path1033"/>
   <path d="m317.30997,247.53571c0,0 12.42065,-8.41296 32.88373,0.2316" visibility="hidden" fill-rule="evenodd" fill="#0376bb" id="path1034"/>
  </g>
  <g id="water-wifi-4-arches-copy-6">
   <path d="m30.41957,241.44836c0,0 123.12442,33.64697 241.99648,-0.15256" visibility="hidden" fill-rule="evenodd" fill="#0376bb" id="path1047"/>
   <path d="m71.17688,230.15198c0,0 81.45049,20.08777 166.03969,0.4523" visibility="hidden" fill-rule="evenodd" fill="#0376bb" id="path1048"/>
   <path d="m103.13431,218.95187c0,0 44.83865,18.18311 102.35641,0.18851" visibility="hidden" fill-rule="evenodd" fill="#0376bb" id="path1049"/>
   <path d="m137.87065,212.69933c0,0 12.42067,8.41295 32.88373,-0.23158" visibility="hidden" fill-rule="evenodd" fill="#0376bb" id="path1050"/>
  </g>
  <g id="water-wifi-4-arches-copy-25">
   <path d="m176.30447,242.36276c0,0 122.97824,33.60703 241.70917,-0.1524" visibility="hidden" fill-rule="evenodd" fill="#0376bb" id="path1107"/>
   <path d="m217.01341,231.07977c0,0 69.77974,27.40567 165.84251,0.45178" fill-rule="evenodd" fill="#0376bb" id="path1108"/>
   <path d="m248.93288,218.93964c0,0 44.78542,18.16153 102.23488,0.18829" fill-rule="evenodd" fill="#0376bb" id="path1109"/>
   <path d="m283.62796,211.74118c0,0 12.40594,8.40298 32.8447,-0.23129" fill-rule="evenodd" fill="#0376bb" id="path1110"/>
  </g>
  <g id="water-wifi-4-arches-copy-24">
   <path d="m308.8175,209.68217c0,0 122.97824,-33.60701 241.70917,0.15239" visibility="hidden" fill-rule="evenodd" fill="#0376bb" id="path1111"/>
   <path d="m349.52646,220.96515c0,0 69.77972,-27.40565 165.8425,-0.45177" fill-rule="evenodd" fill="#0376bb" id="path1112"/>
   <path d="m381.44592,233.10529c0,0 44.7854,-18.16151 102.23486,-0.18829" fill-rule="evenodd" fill="#0376bb" id="path1113"/>
   <path d="m416.14102,240.30374c0,0 12.40591,-8.40295 32.84467,0.23132" fill-rule="evenodd" fill="#0376bb" id="path1114"/>
  </g>
  <g id="water-wifi-4-arches-copy-23">
   <path d="m42.83812,209.68217c0,0 122.97823,-33.60701 241.70915,0.15239" visibility="hidden" fill-rule="evenodd" fill="#0376bb" id="path1115"/>
   <path d="m83.54706,220.96515c0,0 69.77972,-27.40565 165.8425,-0.45177" fill-rule="evenodd" fill="#0376bb" id="path1116"/>
   <path d="m115.46651,233.10529c0,0 44.78542,-18.16151 102.23489,-0.18829" fill-rule="evenodd" fill="#0376bb" id="path1117"/>
   <path d="m150.16161,240.30374c0,0 12.40593,-8.40295 32.8447,0.23132" fill-rule="evenodd" fill="#0376bb" id="path1118"/>
  </g>
  <g id="water-wifi-4-arches-copy-28">
   <path d="m-89.67492,242.36276c0,0 122.97823,33.60703 241.70916,-0.1524" visibility="hidden" fill-rule="evenodd" fill="#0376bb" id="path1119"/>
   <path d="m-48.96598,231.07977c0,0 69.77972,27.40567 165.84251,0.45178" fill-rule="evenodd" fill="#0376bb" id="path1120"/>
   <path d="m-17.04652,218.93964c0,0 44.78541,18.16153 102.23489,0.18829" fill-rule="evenodd" fill="#0376bb" id="path1121"/>
   <path d="m17.64858,211.74118c0,0 12.40592,8.40298 32.84469,-0.23129" fill-rule="evenodd" fill="#0376bb" id="path1122"/>
  </g>
  <g id="g64">
   <text baseline-shift="10.09923" fill="#b51700" font-size="20.19846" font-family="Arial" y="126" x="75.53464" xml:space="preserve" visibility="hidden" id="Hamburg-">Hamburg |</text>
   <text baseline-shift="10.09923" fill="#b51700" font-size="20.19846" font-family="Arial" y="126" x="173.9689" xml:space="preserve" visibility="hidden" id="Germany">Germany</text>
  </g>
  <g id="final-boat">
   <g id="top">
    <path d="m383,11c0.69354,4.60629 8.00827,65.80771 4,141c-5.33145,-0.19424 -11.96912,0.36398 -18,3c-2.34225,7.04944 -3.87759,12.30173 -7,19c16.4382,-14.02728 53.95328,-42.57698 78,-37c-3.75427,-19.43782 -5.04294,-65.90369 -57,-126z" fill-rule="evenodd" fill="#c53e32" id="Path"/>
    <path d="m340.65164,175.72577c15.90167,-17.15337 25.16104,-25.44333 44.15103,-26.37375c2.52676,-24.12224 0.64548,-110.08108 -2.82715,-118.74007c-7.68027,51.35306 -11.32422,76.44995 -41.32388,145.11382z" fill-rule="evenodd" fill="#c53e32" id="path1"/>
    <g id="flag">
     <path d="m333.16406,30.99414c20.71161,-12.82104 25.7168,-11.8418 25.7168,-11.8418c0,0 -7.41956,-4.73135 -35.13672,-4.56054c35.22086,-13.62082 56.74805,-2.45508 56.74805,-2.45508l1.48242,16.58984c-7.68268,-6.45958 -31.42624,-2.11259 -48.81055,2.26758z" fill-rule="evenodd" fill="#05a89d" id="path2"/>
    </g>
    <path d="m414.0741,66.48007c9.51337,19.21672 16.07455,42.5222 18.84766,64.08194c-4.58737,-1.38136 -10.36621,0.94238 -10.36621,0.94238c0,0 8.16528,-20.68005 -8.48145,-65.02432z" fill-rule="evenodd" fill="#d56b61" id="path3"/>
    <path d="m414.95886,67.36482c9.51337,19.21674 16.07452,42.52222 18.84766,64.08195c-14.69592,-1.60701 -26.38669,6.59666 -26.38669,6.59666c0,0 20.30835,-26.26923 7.53903,-70.67862z" visibility="hidden" fill-rule="evenodd" fill="#d56b61" id="Path-copy"/>
   </g>
   <g id="wifi">
    <g id="wifi-cut">
     <g id="Group">
      <path d="m212.35147,91.13976c0.00681,-0.39002 -0.30383,-0.71169 -0.69385,-0.71851c-0.39001,-0.00682 -0.71169,0.30384 -0.71849,0.69384c-0.00682,0.39001 0.30383,0.7117 0.69383,0.71851c0.39001,0.00681 0.7117,-0.30386 0.71851,-0.69384z" visibility="hidden" stroke-linejoin="round" stroke-linecap="round" stroke-width="0.67803" stroke="#b51700" fill="none" id="Ellipse"/>
      <path d="m210.11983,89.49023c0,0 1.4816,-1.75988 3.05066,0.05326" visibility="hidden" stroke-linejoin="round" stroke-linecap="round" stroke-width="0.67803" stroke="#b51700" fill="none" id="path4"/>
      <path d="m209.07701,87.7202c0,0 2.54234,-2.49861 5.25392,0.0917" visibility="hidden" stroke-linejoin="round" stroke-linecap="round" stroke-width="0.67803" stroke="#b51700" fill="none" id="path5"/>
      <path d="m208.25623,86.18008c0,0 3.39497,-3.62807 7.00522,0.12228" visibility="hidden" stroke-linejoin="round" stroke-linecap="round" stroke-width="0.67803" stroke="#b51700" fill="none" id="Path-copy-1"/>
      <path d="m207.32443,84.52499c0,0 4.2991,-4.62948 8.86951,0.15482" visibility="hidden" stroke-linejoin="round" stroke-linecap="round" stroke-width="0.67803" stroke="#b51700" fill="none" id="Path-copy-2"/>
      <path d="m206.5658,82.46495c0,0 5.06337,-5.12784 10.45822,0.18256" visibility="hidden" stroke-linejoin="round" stroke-linecap="round" stroke-width="0.67803" stroke="#b51700" fill="none" id="Path-copy-3"/>
     </g>
    </g>
    <g id="wifi-cut-skewed">
     <g id="g1">
      <path d="m384.76569,23.04256c-1.04575,0.05288 -1.85464,0.69378 -1.82138,1.41597c0.03256,0.7048 0.85928,1.23809 1.85999,1.20599c1.01498,-0.03259 1.85855,-0.63426 1.87122,-1.35948c0.01297,-0.74356 -0.84839,-1.31615 -1.90982,-1.26248z" visibility="hidden" stroke-linejoin="round" stroke-linecap="round" stroke-width="0.10945" stroke="#0070bb" fill-rule="evenodd" fill="#0070bb" id="path6"/>
      <path d="m380.88339,27.21649c0,0 -4.50525,-2.30829 -0.46759,-5.48269" visibility="hidden" stroke-linejoin="round" stroke-linecap="round" stroke-width="1.31335" stroke="#0070bb" fill="none" id="path7"/>
      <path d="m377.0972,28.95683c0,0 -6.30865,-3.78331 -1.44974,-9.17775" visibility="hidden" stroke-linejoin="round" stroke-linecap="round" stroke-width="1.31335" stroke="#0070bb" fill="none" id="path8"/>
      <path d="m374.11386,30.19444c0,0 -8.78036,-4.78224 -2.60782,-11.95985" visibility="hidden" stroke-linejoin="round" stroke-linecap="round" stroke-width="1.31335" stroke="#0070bb" fill="none" id="path9"/>
      <path d="m371.21857,31.46809c0,0 -10.8255,-5.74939 -4.12268,-14.74968" visibility="hidden" stroke-linejoin="round" stroke-linecap="round" stroke-width="1.31335" stroke="#0070bb" fill="none" id="path10"/>
      <path d="m367.80139,32.41093c0,0 -11.80966,-6.46673 -5.93402,-16.85188" visibility="hidden" stroke-linejoin="round" stroke-linecap="round" stroke-width="1.31335" stroke="#0070bb" fill="none" id="path11"/>
     </g>
     <path d="m369.05124,24.50339l-10.71017,-1.94998l2.46686,5.46923l8.24332,-3.51925z" visibility="hidden" fill-rule="evenodd" fill="#ffffff" id="Triangle"/>
    </g>
    <g id="wifi-skewed">
     <g id="g2">
      <path d="m384.39035,23.1378c-1.18771,0.02146 -2.11874,0.46016 -2.09186,0.97452c0.02658,0.50832 0.98099,0.90755 2.14377,0.89696c1.17587,-0.0107 2.13773,-0.43572 2.13629,-0.95485c-0.00146,-0.52547 -0.98679,-0.93833 -2.1882,-0.91663z" visibility="hidden" stroke-linejoin="round" stroke-linecap="round" stroke-width="0.10945" stroke="#0070bb" fill-rule="evenodd" fill="#0070bb" id="path12"/>
      <path d="m379.81219,26.11232c0,0 -5.18185,-1.76616 -0.32709,-3.94533" visibility="hidden" stroke-linejoin="round" stroke-linecap="round" stroke-width="1.31335" stroke="#0070bb" fill="none" id="path13"/>
      <path d="m375.1528,27.40608c0,0 -7.17758,-2.94281 -0.93057,-6.6367" visibility="hidden" stroke-linejoin="round" stroke-linecap="round" stroke-width="1.31335" stroke="#0070bb" fill="none" id="path14"/>
      <path d="m371.35883,28.35657c0,0 -9.99246,-3.79195 -1.63101,-8.6763" visibility="hidden" stroke-linejoin="round" stroke-linecap="round" stroke-width="1.31335" stroke="#0070bb" fill="none" id="path15"/>
      <path d="m367.55206,29.3672c0,0 -12.2962,-4.64155 -2.54865,-10.74508" visibility="hidden" stroke-linejoin="round" stroke-linecap="round" stroke-width="1.31335" stroke="#0070bb" fill="none" id="path16"/>
      <path d="m363.01581,30.12679c0,0 -13.28036,-5.29128 -3.65033,-12.34025" visibility="hidden" stroke-linejoin="round" stroke-linecap="round" stroke-width="1.31335" stroke="#0070bb" fill="none" id="path17"/>
     </g>
    </g>
   </g>
   <g id="body">
    <path d="m461.95285,156.27026c-1.06778,0.82205 -9.99921,10.79395 -27.69199,-10.35655c-4.66232,9.97276 -24.05087,30.00819 -39.59442,19.88422c-5.96973,7.06621 -23.74088,37.43571 -44.11697,21.86772c-5.96741,4.9214 -15.57898,16.39389 -28.241,9.53125c1.87576,17.09157 2.24371,24.4482 16.32086,22.73233c14.5574,-0.93323 102.87961,-1.12515 102.87961,-1.12515c0,0 36.38654,-18.25763 20.44391,-62.53381z" fill-rule="evenodd" fill="#fbc63d" id="path18"/>
    <g id="g3">
     <path d="m450.39639,169.74815c-1.17224,-0.88611 -11.12595,0 -11.12595,0c0,0 -1.82254,8.61734 3.37149,9.10304c5.19406,0.4857 8.9267,-8.21693 7.75446,-9.10304z" stroke-linejoin="round" stroke-linecap="round" stroke-width="1.16506" stroke="#fbc63d" fill-rule="evenodd" fill="#fbfbfb" id="path19"/>
     <path d="m431.51602,179.86264c-1.17224,-0.88611 -11.12595,0 -11.12595,0c0,0 -1.82254,8.61734 3.37149,9.10304c5.19406,0.4857 8.9267,-8.21693 7.75446,-9.10304z" stroke-linejoin="round" stroke-linecap="round" stroke-width="1.16506" stroke="#fbc63d" fill-rule="evenodd" fill="#fbfbfb" id="path20"/>
     <path d="m443.65341,196.04584c-1.17227,-0.88611 -11.12595,0 -11.12595,0c0,0 -1.82254,8.61732 3.37149,9.10303c5.19406,0.4857 8.9267,-8.21692 7.75446,-9.10303z" stroke-linejoin="round" stroke-linecap="round" stroke-width="1.16506" stroke="#fbc63d" fill-rule="evenodd" fill="#fbfbfb" id="path21"/>
     <path d="m420.72723,195.37152c-1.17227,-0.88611 -11.12595,0 -11.12595,0c0,0 -1.82254,8.61734 3.37149,9.10304c5.19406,0.4857 8.9267,-8.21693 7.75446,-9.10304z" stroke-linejoin="round" stroke-linecap="round" stroke-width="1.16506" stroke="#fbc63d" fill-rule="evenodd" fill="#fbfbfb" id="path22"/>
     <path d="m408.92697,180.87408c-1.17224,-0.88611 -11.12592,0 -11.12592,0c0,0 -1.82257,8.61734 3.37149,9.10306c5.19403,0.48569 8.9267,-8.21695 7.75443,-9.10306z" stroke-linejoin="round" stroke-linecap="round" stroke-width="1.16506" stroke="#fbc63d" fill-rule="evenodd" fill="#fbfbfb" id="path23"/>
     <path d="m390.04059,200.58234c-1.17224,-0.88611 -11.12592,0 -11.12592,0c0,0 -1.82257,8.61734 3.37149,9.10304c5.19403,0.4857 8.92667,-8.21693 7.75443,-9.10304z" stroke-linejoin="round" stroke-linecap="round" stroke-width="1.16506" stroke="#fbc63d" fill-rule="evenodd" fill="#fbfbfb" id="Path-copy-4"/>
     <path d="m364.76038,200.09161c-1.17224,-0.88611 -11.12595,0 -11.12595,0c0,0 -1.82254,8.61734 3.37149,9.10306c5.19406,0.48569 8.9267,-8.21695 7.75446,-9.10306z" stroke-linejoin="round" stroke-linecap="round" stroke-width="1.16506" stroke="#fbc63d" fill-rule="evenodd" fill="#fbfbfb" id="Path-copy-5"/>
    </g>
   </g>
  </g>
  <g stroke="null" id="Group-copy-1">
   <g stroke="null" id="g67">
    <path stroke="#ffffff" d="m414.55023,-29.32234c0.87234,5.46137 11.28384,90.83107 -20.17502,154.44344c16.56192,-13.32147 54.24911,-40.14674 78.47678,-34.85036c-3.7825,-18.45979 -5.95364,-62.52058 -58.30176,-119.59308z" visibility="hidden" stroke-linejoin="round" stroke-linecap="round" stroke-width="2.34765" fill-rule="evenodd" fill="#c53e32" id="path1312"/>
    <path stroke="#ffffff" d="m372.97476,127.55269c16.02136,-16.29028 25.35037,-24.16312 44.48331,-25.04671c2.54578,-22.90849 2.4693,-71.14428 -3.60553,-131.83402c-7.73807,48.76915 -10.65237,91.67179 -40.87778,156.88073z" visibility="hidden" stroke-linejoin="round" stroke-linecap="round" stroke-width="2.34765" fill-rule="evenodd" fill="#c53e32" id="path1313"/>
    <g stroke="null" id="g68">
     <path stroke="#ffffff" d="m414.06509,-26.01484c0,0 -22.19559,-10.85558 -58.41876,2.78991c16.91132,2.45776 26.01016,3.23716 26.01016,3.23716l-35.09998,17.22567c0,0 55.38553,-19.14387 68.08618,-9.0782" visibility="hidden" stroke-linejoin="round" stroke-linecap="round" stroke-width="2.25826" fill-rule="evenodd" fill="#05a89d" id="path1314"/>
     <path stroke="null" d="m391.34103,-21.14248c0,0 -8.33292,-5.01111 -40.2919,-4.25786c-0.16769,2.40624 4.42557,21.55128 7.56433,19.60799c26.61945,-16.48091 32.72757,-15.35013 32.72757,-15.35013z" visibility="hidden" fill-rule="evenodd" fill="#ffffff" id="path1315"/>
    </g>
    <path stroke="null" d="m445.94226,22.85419c9.58496,18.2498 16.1955,40.38263 18.98947,60.85756c-4.62186,-1.31187 -10.44418,0.89496 -10.44418,0.89496c0,0 8.22672,-19.63949 -8.54529,-61.75251z" visibility="hidden" fill-rule="evenodd" fill="#d56b61" id="path1316"/>
    <path stroke="null" d="m447.84122,24.64411c9.58493,18.24981 16.1955,40.38263 18.98947,60.85755c-14.80649,-1.52615 -26.58527,6.26475 -26.58527,6.26475c0,0 20.46121,-24.94745 7.59579,-67.1223z" visibility="hidden" fill-rule="evenodd" fill="#d56b61" id="path1317"/>
   </g>
   <g stroke="null" id="g69">
    <g stroke="null" id="g70">
     <g stroke="null" id="g71">
      <path stroke="#b51700" d="m243.70909,44.37372c0.00685,-0.37038 -0.30612,-0.67589 -0.69907,-0.68235c-0.39294,-0.00647 -0.71706,0.28855 -0.72391,0.65894c-0.00687,0.37038 0.30612,0.67587 0.69907,0.68234c0.39294,0.00645 0.71704,-0.28855 0.72391,-0.65894z" visibility="hidden" stroke-linejoin="round" stroke-linecap="round" stroke-width="0.68313" fill="none" id="path1318"/>
      <path stroke="#b51700" d="m241.46065,42.80721c0,0 1.49275,-1.67134 3.07362,0.05057" visibility="hidden" stroke-linejoin="round" stroke-linecap="round" stroke-width="0.68313" fill="none" id="path1319"/>
      <path stroke="#b51700" d="m240.40999,41.12621c0,0 2.56148,-2.37288 5.29346,0.0871" visibility="hidden" stroke-linejoin="round" stroke-linecap="round" stroke-width="0.68313" fill="none" id="path1320"/>
      <path stroke="#b51700" d="m239.58304,39.66359c0,0 3.42052,-3.44552 7.05792,0.11613" visibility="hidden" stroke-linejoin="round" stroke-linecap="round" stroke-width="0.68313" fill="none" id="path1321"/>
      <path stroke="#b51700" d="m238.64423,38.0918c0,0 4.33145,-4.39656 8.93625,0.14703" visibility="hidden" stroke-linejoin="round" stroke-linecap="round" stroke-width="0.68313" fill="none" id="path1322"/>
      <path stroke="#b51700" d="m237.87987,36.13541c0,0 5.10149,-4.86984 10.53693,0.17336" visibility="hidden" stroke-linejoin="round" stroke-linecap="round" stroke-width="0.68313" fill="none" id="path1323"/>
     </g>
    </g>
    <g stroke="null" id="g72">
     <g stroke="null" id="g73">
      <path stroke="#0070bb" d="m417.42081,-20.29706c-1.05362,0.05022 -1.86859,0.6589 -1.83508,1.34473c0.03281,0.66935 0.86575,1.1758 1.87399,1.1453c1.02258,-0.03095 1.87253,-0.60232 1.88528,-1.29105c0.01306,-0.70614 -0.85477,-1.24992 -1.92419,-1.19898z" visibility="hidden" stroke-linejoin="round" stroke-linecap="round" stroke-width="0.11027" fill-rule="evenodd" fill="#0070bb" id="path1324"/>
      <path stroke="#0070bb" d="m413.50931,-16.33314c0,0 -4.53915,-2.19213 -0.4711,-5.20683" visibility="hidden" stroke-linejoin="round" stroke-linecap="round" stroke-width="1.32323" fill="none" id="path1325"/>
      <path stroke="#0070bb" d="m409.69461,-14.68035c0,0 -6.35611,-3.59294 -1.46066,-8.71597" visibility="hidden" stroke-linejoin="round" stroke-linecap="round" stroke-width="1.32323" fill="none" id="path1326"/>
      <path stroke="#0070bb" d="m406.68884,-13.50502c0,0 -8.84647,-4.54162 -2.62747,-11.35808" visibility="hidden" stroke-linejoin="round" stroke-linecap="round" stroke-width="1.32323" fill="none" id="path1327"/>
      <path stroke="#0070bb" d="m403.77176,-12.29546c0,0 -10.90698,-5.4601 -4.15372,-14.00753" visibility="hidden" stroke-linejoin="round" stroke-linecap="round" stroke-width="1.32323" fill="none" id="path1328"/>
      <path stroke="#0070bb" d="m400.32883,-11.40005c0,0 -11.89853,-6.14136 -5.97864,-16.00395" visibility="hidden" stroke-linejoin="round" stroke-linecap="round" stroke-width="1.32323" fill="none" id="path1329"/>
     </g>
     <path stroke="null" d="m401.5881,-18.90973l-10.79077,-1.85187l2.48544,5.19406l8.30533,-3.34219z" visibility="hidden" fill-rule="evenodd" fill="#ffffff" id="path1330"/>
    </g>
    <g stroke="null" id="g74">
     <g stroke="null" id="g75">
      <path stroke="#0070bb" d="m417.04263,-20.2066c-1.19662,0.02037 -2.13467,0.43701 -2.10757,0.92548c0.02676,0.48274 0.98837,0.8619 2.15991,0.85183c1.18469,-0.01015 2.15378,-0.41379 2.15234,-0.9068c-0.00146,-0.49903 -0.9942,-0.89113 -2.20468,-0.87051z" visibility="hidden" stroke-linejoin="round" stroke-linecap="round" stroke-width="0.11027" fill-rule="evenodd" fill="#0070bb" id="path1331"/>
      <path stroke="#0070bb" d="m412.43002,-17.38176c0,0 -5.22083,-1.67729 -0.32953,-3.7468" visibility="hidden" stroke-linejoin="round" stroke-linecap="round" stroke-width="1.32323" fill="none" id="path1332"/>
      <path stroke="#0070bb" d="m407.73557,-16.15307c0,0 -7.23157,-2.79478 -0.93753,-6.3028" visibility="hidden" stroke-linejoin="round" stroke-linecap="round" stroke-width="1.32323" fill="none" id="path1333"/>
      <path stroke="#0070bb" d="m403.91306,-15.2504c0,0 -10.06766,-3.60116 -1.64328,-8.23975" visibility="hidden" stroke-linejoin="round" stroke-linecap="round" stroke-width="1.32323" fill="none" id="path1334"/>
      <path stroke="#0070bb" d="m400.07767,-14.29064c0,0 -12.38876,-4.408 -2.56784,-10.20441" visibility="hidden" stroke-linejoin="round" stroke-linecap="round" stroke-width="1.32323" fill="none" id="path1335"/>
      <path stroke="#0070bb" d="m395.50726,-13.56926c0,0 -13.38031,-5.02506 -3.67783,-11.71935" visibility="hidden" stroke-linejoin="round" stroke-linecap="round" stroke-width="1.32323" fill="none" id="path1336"/>
     </g>
    </g>
   </g>
   <g stroke="null" id="g76">
    <path stroke="#ffffff" d="m495.18884,106.22705c-1.07581,0.78072 -10.07443,10.25084 -27.90036,-9.83543c-4.69742,9.47096 -24.2319,28.49829 -39.89243,18.88371c-6.01462,6.71065 -23.91953,35.55206 -44.44897,20.76741c-6.0123,4.67377 -15.6962,15.569 -28.45349,9.05167c1.88986,16.23157 2.26059,23.21803 16.44366,21.58852c14.66696,-0.88628 103.65384,-1.06854 103.65384,-1.06854c0,0 36.66037,-17.33896 20.59775,-59.38733z" visibility="hidden" stroke-linejoin="round" stroke-linecap="round" stroke-width="1.70664" fill-rule="evenodd" fill="#fbc63d" id="path1337"/>
    <g stroke="null" id="g77">
     <path stroke="#fbc63d" d="m483.54544,119.02679c-1.18109,-0.84152 -11.20969,0 -11.20969,0c0,0 -1.83627,8.18373 3.39688,8.64499c5.23312,0.46127 8.99387,-7.80347 7.81281,-8.64499z" visibility="hidden" stroke-linejoin="round" stroke-linecap="round" stroke-width="1.17382" fill-rule="evenodd" fill="#fbfbfb" id="path1338"/>
     <path stroke="#fbc63d" d="m464.52295,128.63235c-1.18106,-0.84154 -11.20966,0 -11.20966,0c0,0 -1.83627,8.18373 3.39688,8.645c5.23312,0.46126 8.99387,-7.80348 7.81277,-8.645z" visibility="hidden" stroke-linejoin="round" stroke-linecap="round" stroke-width="1.17382" fill-rule="evenodd" fill="#fbfbfb" id="path1339"/>
     <path stroke="#fbc63d" d="m476.75168,144.00125c-1.18106,-0.84152 -11.20966,0 -11.20966,0c0,0 -1.83627,8.18373 3.39688,8.645c5.23312,0.46126 8.99387,-7.80348 7.81277,-8.645z" visibility="hidden" stroke-linejoin="round" stroke-linecap="round" stroke-width="1.17382" fill-rule="evenodd" fill="#fbfbfb" id="path1340"/>
     <path stroke="#fbc63d" d="m453.65298,143.36089c-1.18106,-0.84154 -11.20969,0 -11.20969,0c0,0 -1.83624,8.18375 3.39688,8.64499c5.23312,0.46126 8.99387,-7.80348 7.81281,-8.64499z" visibility="hidden" stroke-linejoin="round" stroke-linecap="round" stroke-width="1.17382" fill-rule="evenodd" fill="#fbfbfb" id="path1341"/>
     <path stroke="#fbc63d" d="m441.76395,129.59291c-1.18109,-0.84152 -11.20969,0 -11.20969,0c0,0 -1.83624,8.18375 3.39688,8.645c5.23312,0.46126 8.99387,-7.80348 7.81281,-8.645z" visibility="hidden" stroke-linejoin="round" stroke-linecap="round" stroke-width="1.17382" fill-rule="evenodd" fill="#fbfbfb" id="path1342"/>
     <path stroke="#fbc63d" d="m422.73541,148.30949c-1.18106,-0.84152 -11.20966,0 -11.20966,0c0,0 -1.83627,8.18375 3.39685,8.645c5.23315,0.46126 8.99387,-7.80348 7.81281,-8.645z" visibility="hidden" stroke-linejoin="round" stroke-linecap="round" stroke-width="1.17382" fill-rule="evenodd" fill="#fbfbfb" id="path1343"/>
     <path stroke="#fbc63d" d="m397.26495,147.84348c-1.18106,-0.84154 -11.20966,0 -11.20966,0c0,0 -1.83627,8.18375 3.39685,8.645c5.23315,0.46126 8.99387,-7.80348 7.81281,-8.645z" visibility="hidden" stroke-linejoin="round" stroke-linecap="round" stroke-width="1.17382" fill-rule="evenodd" fill="#fbfbfb" id="path1344"/>
    </g>
   </g>
  </g>
 </g>
</svg>