<?xml version="1.0" encoding="UTF-8"?>
<svg version="1.1" xmlns="http://www.w3.org/2000/svg" width="200" height="123">
<path d="M0 0 C0.88091309 -0.00056396 1.76182617 -0.00112793 2.66943359 -0.00170898 C9.45563068 0.11266512 15.15870206 1.25414982 21.25 4.375 C22.24 4.87 22.24 4.87 23.25 5.375 C23.25 4.055 23.25 2.735 23.25 1.375 C31.17 1.375 39.09 1.375 47.25 1.375 C48.2281006 24.72715176 48.35334971 48.00648124 48.25 71.375 C40.33 71.375 32.41 71.375 24.25 71.375 C24.25 69.725 24.25 68.075 24.25 66.375 C23.75371094 66.65214844 23.25742188 66.92929688 22.74609375 67.21484375 C18.1721237 69.65371582 14.44108338 71.05717857 9.25 71.375 C8.92 71.045 8.59 70.715 8.25 70.375 C7.92 71.035 7.59 71.695 7.25 72.375 C-4.25642393 72.78923126 -13.49962093 72.03968317 -23.75 66.375 C-24.08 68.025 -24.41 69.675 -24.75 71.375 C-43.56 71.375 -62.37 71.375 -81.75 71.375 C-81.915 63.145625 -82.08 54.91625 -82.25 46.4375 C-82.30220703 43.87750244 -82.35441406 41.31750488 -82.40820312 38.67993164 C-82.6489466 26.57662251 -82.82689596 14.48077388 -82.75 2.375 C-75.41666667 2.375 -68.08333333 2.375 -60.75 2.375 C-60.42 2.045 -60.09 1.715 -59.75 1.375 C-57.22905924 1.28652257 -54.73569107 1.25972699 -52.21484375 1.27734375 C-51.08496788 1.27946617 -51.08496788 1.27946617 -49.93226624 1.28163147 C-47.5173044 1.28724624 -45.10243399 1.29980117 -42.6875 1.3125 C-41.05403779 1.3175131 -39.42057414 1.32207634 -37.78710938 1.32617188 C-33.77470415 1.33722046 -29.76236759 1.35449494 -25.75 1.375 C-25.255 4.345 -25.255 4.345 -24.75 7.375 C-24.25371094 7.03726562 -23.75742187 6.69953125 -23.24609375 6.3515625 C-22.56675781 5.90554687 -21.88742188 5.45953125 -21.1875 5 C-20.52621094 4.55914063 -19.86492188 4.11828125 -19.18359375 3.6640625 C-12.9843113 0.38033343 -6.85691584 -0.01103233 0 0 Z M-65.75 4.375 C-66.08 5.035 -66.41 5.695 -66.75 6.375 C-65.76 6.045 -64.77 5.715 -63.75 5.375 C-64.41 5.045 -65.07 4.715 -65.75 4.375 Z M-11.1875 24.875 C-14.5966057 30.32956912 -14.33732157 36.12953824 -13.75 42.375 C-11.48361668 47.256441 -8.61479088 50.07528068 -3.75 52.375 C1.62866435 53.16055754 5.83712739 53.11996919 10.6875 50.5625 C11.533125 49.840625 12.37875 49.11875 13.25 48.375 C14.425625 47.50875 14.425625 47.50875 15.625 46.625 C16.16125 46.2125 16.6975 45.8 17.25 45.375 C19.56 47.025 21.87 48.675 24.25 50.375 C24.25 45.755 24.25 41.135 24.25 36.375 C26.56 36.045 28.87 35.715 31.25 35.375 C31.25 35.045 31.25 34.715 31.25 34.375 C28.61 34.705 25.97 35.035 23.25 35.375 C23.25 31.085 23.25 26.795 23.25 22.375 C21.27 23.695 19.29 25.015 17.25 26.375 C14.73955952 25.21633516 12.72891858 23.98418894 10.5 22.3125 C2.94971377 17.81136782 -5.03692246 18.56671534 -11.1875 24.875 Z M-57.75 20.375 C-57.75 22.355 -57.75 24.335 -57.75 26.375 C-50.82 26.375 -43.89 26.375 -36.75 26.375 C-36.42 24.395 -36.09 22.415 -35.75 20.375 C-43.01 20.375 -50.27 20.375 -57.75 20.375 Z M-57.75 44.375 C-57.75 47.015 -57.75 49.655 -57.75 52.375 C-50.16 52.375 -42.57 52.375 -34.75 52.375 C-35.74 49.735 -36.73 47.095 -37.75 44.375 C-44.35 44.375 -50.95 44.375 -57.75 44.375 Z M5.25 63.375 C6.25 65.375 6.25 65.375 6.25 65.375 Z M6.25 65.375 C7.25 68.375 7.25 68.375 7.25 68.375 Z " fill="#002A7E" transform="translate(82.75,-0.375)"/>
<path d="M0 0 C6.703125 -0.0825 13.40625 -0.165 20.3125 -0.25 C22.40505127 -0.28641602 24.49760254 -0.32283203 26.65356445 -0.36035156 C39.18477003 -0.48873074 49.91841498 -0.0210168 59.41015625 9.16015625 C64.27430774 14.7891866 65.13904798 21.78936884 65 29 C63.96554405 36.46128867 60.71205191 42.07249498 55 47 C54.34 47 53.68 47 53 47 C53.350625 47.5775 53.70125 48.155 54.0625 48.75 C55.14917407 51.35801776 54.93065133 52.39417629 54 55 C54.33 55 54.66 55 55 55 C56.32 55 57.64 55 59 55 C61.140625 57.5546875 61.140625 57.5546875 63.25 60.875 C64.30960938 62.51082031 64.30960938 62.51082031 65.390625 64.1796875 C67 67 67 67 67 69 C62.75051671 69.17415915 58.50194845 69.28081127 54.25 69.375 C53.0434375 69.42527344 51.836875 69.47554688 50.59375 69.52734375 C47.29359189 69.58234639 44.25143092 69.57412032 41 69 C38.296875 66.1015625 38.296875 66.1015625 37 63 C36.34 62.34 35.68 61.68 35 61 C33 59 33 59 31.0625 55.8125 C29.06743299 52.42868662 29.06743299 52.42868662 24 52 C24 57.61 24 63.22 24 69 C16.08 69 8.16 69 0 69 C0 46.23 0 23.46 0 0 Z M24 19 C24 23.95 24 28.9 24 34 C31.25550409 34.33755618 31.25550409 34.33755618 38 32 C40.34813734 30.06832602 40.34813734 30.06832602 40.375 26.625 C40.31369687 23.03293888 40.31369687 23.03293888 38.3671875 20.7890625 C35.30468961 18.47450139 33.54231165 18.58511688 29.75 18.75 C27.8525 18.8325 25.955 18.915 24 19 Z " fill="#002A7E" transform="translate(133,2)"/>
<path d="M0 0 C6.48560546 3.87521654 9.181158 8.66311014 11.0625 15.79296875 C12.61046953 23.78678013 11.7392132 31.41027239 7.8125 38.5625 C4.63202066 42.53809917 1.49427725 45.73107425 -3.4375 47.375 C-10.75901623 48.02621491 -17.71761146 48.59138624 -23.8203125 44.0078125 C-30.41637268 37.34802227 -31.68442917 30.55770743 -31.68847656 21.50268555 C-31.57468375 13.8794294 -30.06323659 7.84868965 -24.4375 2.375 C-17.38065473 -2.83647169 -8.00286066 -3.60053088 0 0 Z M-12.4375 12.375 C-14.83824392 15.97611588 -14.76994948 18.65103771 -14.75 22.8125 C-14.76675781 24.13121094 -14.78351563 25.44992188 -14.80078125 26.80859375 C-14.4312501 30.43635659 -13.92964025 31.80395294 -11.4375 34.375 C-9.47855639 34.26193303 -9.47855639 34.26193303 -7.4375 33.375 C-4.81493308 28.17587611 -4.88234919 23.0717014 -5.4375 17.375 C-6.44444063 14.20709456 -6.44444063 14.20709456 -8.4375 12.375 C-9.7575 12.375 -11.0775 12.375 -12.4375 12.375 Z " fill="#002A7E" transform="translate(89.4375,75.625)"/>
<path d="M0 0 C-0.57634139 4.75481646 -2.55068521 7.97048212 -5 12 C-5.80824219 11.89300781 -6.61648437 11.78601563 -7.44921875 11.67578125 C-8.51785156 11.55589844 -9.58648437 11.43601562 -10.6875 11.3125 C-12.27111328 11.12107422 -12.27111328 11.12107422 -13.88671875 10.92578125 C-17.46926591 11.01118702 -19.13063834 11.929162 -22 14 C-19.91572938 14 -17.83081061 13.93254677 -15.75 13.8125 C-10.07782593 14.0961087 -6.39535616 15.78664681 -2.125 19.5 C1.35628853 23.59563357 1.34138749 27.3317871 1.28125 32.49609375 C0.72745653 37.42639397 -2.01623008 40.11220763 -5.5625 43.3125 C-11.50845215 47.42892841 -19.0692126 46.51980906 -26 46 C-31.39647406 44.52239401 -35.0545657 41.79996701 -38 37 C-41.91522294 29.02972472 -42.33619217 20.58840826 -39.75 12.0625 C-37.33739263 5.84582798 -33.75463668 2.33768927 -28 -1 C-18.86314287 -4.61344632 -8.8194821 -4.23335141 0 0 Z M-21 26 C-23.28728734 27.83883881 -23.28728734 27.83883881 -23.125 30.625 C-23.08375 31.40875 -23.0425 32.1925 -23 33 C-21.16715557 34.12516085 -21.16715557 34.12516085 -19 35 C-18.01 34.67 -17.02 34.34 -16 34 C-15.23043864 31.65466049 -15.23043864 31.65466049 -15 29 C-16.14646548 27.10338257 -16.14646548 27.10338257 -18 26 C-18.99 26 -19.98 26 -21 26 Z " fill="#002A7E" transform="translate(184,77)"/>
<path d="M0 0 C4.71687104 2.89880511 6.97146017 5.67143801 8.3125 11.125 C8.63267681 15.74593023 7.82269077 19.365323 5.375 23.3125 C2.53141035 26.5385902 -0.46335697 29.37996153 -3.625 32.3125 C0.665 32.6425 4.955 32.9725 9.375 33.3125 C9.375 37.6025 9.375 41.8925 9.375 46.3125 C-3.495 46.3125 -16.365 46.3125 -29.625 46.3125 C-29.625 36.3125 -29.625 36.3125 -27.71875 33.39453125 C-26.43484375 32.27111328 -26.43484375 32.27111328 -25.125 31.125 C-24.2175 30.30515625 -23.31 29.4853125 -22.375 28.640625 C-21.4675 27.87234375 -20.56 27.1040625 -19.625 26.3125 C-18.84125 25.62671875 -18.0575 24.9409375 -17.25 24.234375 C-15.91907388 23.06981464 -14.5768871 21.91786486 -13.21875 20.78515625 C-11.384259 19.20560003 -11.384259 19.20560003 -9.625 16.3125 C-9.625 15.3225 -9.625 14.3325 -9.625 13.3125 C-11.87375747 12.44399826 -11.87375747 12.44399826 -14.625 12.3125 C-16.275 13.6325 -17.925 14.9525 -19.625 16.3125 C-23.585 14.3325 -27.545 12.3525 -31.625 10.3125 C-30.61158372 6.25883489 -30.36123742 5.66737543 -27.375 3.1875 C-26.79234375 2.68992187 -26.2096875 2.19234375 -25.609375 1.6796875 C-18.50327948 -3.21624445 -7.79275111 -3.62487669 0 0 Z " fill="#002A7E" transform="translate(46.625,75.6875)"/>
<path d="M0 0 C4.32454962 3.76047793 5.82460364 5.93032294 6.3125 11.6875 C6.19413675 17.56262146 4.07978378 21.90830907 -0.046875 26.05859375 C-1.98174347 27.76361082 -3.98620622 29.38896498 -6 31 C-1.71 31.33 2.58 31.66 7 32 C7 36.29 7 40.58 7 45 C-5.54 45 -18.08 45 -31 45 C-31 34 -31 34 -27.60546875 29.75 C-26.1598609 28.46881525 -24.68599927 27.21889966 -23.1875 26 C-22.08051758 25.03900391 -22.08051758 25.03900391 -20.95117188 24.05859375 C-19.58289243 22.87233881 -18.20343953 21.69875307 -16.80932617 20.54296875 C-14.27597152 18.40089056 -14.27597152 18.40089056 -12 16 C-12.23043864 13.34533951 -12.23043864 13.34533951 -13 11 C-17.46840411 11.49648935 -18.68987756 11.68987756 -22 15 C-25.96 13.02 -29.92 11.04 -34 9 C-31.73544974 3.33862434 -31.73544974 3.33862434 -28.125 0.75 C-27.44695312 0.24984375 -26.76890625 -0.2503125 -26.0703125 -0.765625 C-18.66796632 -5.17909933 -7.19577301 -4.3474462 0 0 Z " fill="#002A7E" transform="translate(134,77)"/>
</svg>
