<?xml version="1.0" encoding="UTF-8"?>
<svg id="b" data-name="Laag 2" xmlns="http://www.w3.org/2000/svg" viewBox="0 0 323.73 205.74">
  <defs>
    <style>
      .d {
        fill: none;
      }

      .e {
        letter-spacing: 0em;
      }

      .e, .f, .g, .h, .i, .j, .k, .l, .m {
        font-size: 13px;
      }

      .f, .n {
        letter-spacing: -.03em;
      }

      .g {
        letter-spacing: -.03em;
      }

      .h {
        letter-spacing: -.02em;
      }

      .i {
        letter-spacing: -.02em;
      }

      .j {
        letter-spacing: -.02em;
      }

      .k {
        letter-spacing: -.03em;
      }

      .l {
        letter-spacing: -.04em;
      }

      .o, .p, .q {
        fill: #002b7f;
      }

      .o, .q {
        font-family: Montserrat-Medium, Montserrat;
        font-weight: 500;
      }

      .r {
        font-size: 9px;
        letter-spacing: -.02em;
      }

      .s {
        letter-spacing: -.02em;
      }

      .t {
        letter-spacing: -.02em;
      }

      .u {
        letter-spacing: -.02em;
      }

      .v {
        letter-spacing: -.02em;
      }

      .w {
        letter-spacing: -.01em;
      }

      .x {
        letter-spacing: -.03em;
      }

      .y {
        letter-spacing: 0em;
      }

      .z {
        letter-spacing: 0em;
      }

      .aa {
        letter-spacing: -.01em;
      }

      .ab {
        letter-spacing: -.01em;
      }

      .ac {
        letter-spacing: 0em;
      }

      .q {
        font-size: 11.39px;
      }
    </style>
  </defs>
  <g id="c" data-name="Laag 1">
    <g>
      <path class="p" d="M192.82,194.27l5.76-5.24c1.96-1.77,3.44-3.37,4.44-4.81,1-1.44,1.66-2.81,1.99-4.12.33-1.31.49-2.61.49-3.92,0-2.57-.69-4.8-2.07-6.68-1.38-1.88-3.3-3.34-5.76-4.38-2.46-1.04-5.28-1.56-8.47-1.56-4.34,0-7.97.86-10.89,2.59-2.92,1.73-5.11,3.98-6.57,6.74l10.26,5.13c.61-1.23,1.46-2.16,2.54-2.79,1.07-.63,2.21-.95,3.4-.95,1.31,0,2.28.28,2.94.84.65.56.98,1.33.98,2.33,0,.46-.08.95-.23,1.47-.15.52-.45,1.1-.89,1.76-.44.65-1.12,1.42-2.05,2.3l-14.58,13.48v8.36h32.33v-10.55h-13.6Z"/>
      <path class="p" d="M227.45,205.74c-3.57,0-6.73-.83-9.48-2.48-2.75-1.65-4.9-4.05-6.45-7.2-1.56-3.15-2.33-6.95-2.33-11.41s.78-8.26,2.33-11.41c1.56-3.15,3.71-5.55,6.45-7.2,2.75-1.65,5.91-2.48,9.48-2.48s6.73.83,9.48,2.48c2.75,1.65,4.9,4.05,6.45,7.2,1.56,3.15,2.33,6.95,2.33,11.41s-.78,8.26-2.33,11.41c-1.56,3.15-3.71,5.55-6.45,7.2-2.75,1.65-5.91,2.48-9.48,2.48ZM227.45,194.85c.88,0,1.67-.31,2.36-.92.69-.61,1.24-1.67,1.64-3.17.4-1.5.61-3.53.61-6.11s-.2-4.66-.61-6.14-.95-2.53-1.64-3.14c-.69-.61-1.48-.92-2.36-.92s-1.67.31-2.36.92c-.69.62-1.24,1.66-1.64,3.14s-.6,3.52-.6,6.14.2,4.61.6,6.11c.4,1.5.95,2.55,1.64,3.17.69.62,1.48.92,2.36.92Z"/>
      <path class="p" d="M267.16,194.27l5.76-5.24c1.96-1.77,3.44-3.37,4.44-4.81,1-1.44,1.66-2.81,1.99-4.12.33-1.31.49-2.61.49-3.92,0-2.57-.69-4.8-2.07-6.68-1.38-1.88-3.31-3.34-5.76-4.38-2.46-1.04-5.28-1.56-8.47-1.56-4.34,0-7.97.86-10.89,2.59-2.92,1.73-5.11,3.98-6.57,6.74l10.26,5.13c.61-1.23,1.46-2.16,2.54-2.79,1.07-.63,2.21-.95,3.4-.95,1.31,0,2.28.28,2.94.84.65.56.98,1.33.98,2.33,0,.46-.08.95-.23,1.47-.15.52-.45,1.1-.89,1.76-.44.65-1.12,1.42-2.05,2.3l-14.58,13.48v8.36h32.33v-10.55h-13.6Z"/>
      <path class="p" d="M317.31,184.77c-1.29-1.92-2.98-3.41-5.07-4.47-2.09-1.06-4.37-1.58-6.83-1.58-1.88,0-3.54.24-4.96.72-1.14.38-2.15.91-3.04,1.57.35-1.83,1.08-3.32,2.2-4.45,1.63-1.63,3.81-2.45,6.54-2.45,1.27,0,2.51.14,3.72.43,1.21.29,2.41.86,3.6,1.7l4.9-9.51c-1.54-1-3.41-1.78-5.62-2.33-2.21-.56-4.5-.84-6.89-.84-4.42,0-8.31.88-11.67,2.65-3.36,1.77-5.98,4.31-7.87,7.64-1.88,3.32-2.82,7.35-2.82,12.07,0,4.38.82,8.04,2.45,10.98,1.63,2.94,3.9,5.15,6.8,6.63,2.9,1.48,6.27,2.22,10.11,2.22,3.03,0,5.79-.58,8.27-1.73,2.48-1.15,4.45-2.78,5.91-4.9,1.46-2.11,2.19-4.61,2.19-7.49,0-2.65-.64-4.94-1.93-6.86ZM305.59,194.45c-.35.61-.84,1.09-1.47,1.41-.63.33-1.35.49-2.16.49s-1.52-.16-2.13-.49c-.62-.33-1.1-.8-1.47-1.41-.36-.61-.55-1.34-.55-2.19s.18-1.57.55-2.19c.36-.61.85-1.09,1.47-1.44.61-.35,1.33-.52,2.13-.52,1.23,0,2.23.38,3,1.12.77.75,1.15,1.76,1.15,3.03,0,.85-.17,1.58-.52,2.19Z"/>
    </g>
    <g>
      <path class="d" d="M38.8,84.66h35.43c.74-3.17,1.73-6.23,2.99-9.15.57-1.31,1.22-2.55,1.87-3.79h-40.29v12.94Z"/>
      <path class="d" d="M73.88,111.48h-35.08v14.52h40.29c-.65-1.24-1.3-2.48-1.87-3.79-1.47-3.4-2.58-6.98-3.34-10.73Z"/>
      <path class="d" d="M160.22,84.19c-3.26-4.1-6.86-7.28-10.81-9.55-3.95-2.26-8.39-3.39-13.33-3.39-3.89,0-7.42.63-10.57,1.89s-5.86,3.1-8.13,5.52c-2.26,2.42-4.02,5.34-5.29,8.76-1.26,3.42-1.89,7.23-1.89,11.44s.63,8.02,1.89,11.44c1.26,3.42,3.02,6.34,5.29,8.76,2.26,2.42,4.97,4.26,8.13,5.52,3.16,1.26,6.68,1.89,10.57,1.89.19,0,.37-.03.55-.03l-.26-.88.37.88c4.67-.1,8.91-1.19,12.67-3.35,3.94-2.26,7.55-5.44,10.81-9.55l12.78,11.41v-24.23l-1.02.28-.95-4.28,1.97-.33v-23.61l-12.78,11.41Z"/>
      <path class="d" d="M263.06,72.35h-13.57v25.88h13.57c5.15,0,8.97-1.16,11.44-3.47,2.47-2.31,3.71-5.47,3.71-9.47s-1.24-7.15-3.71-9.47c-2.47-2.31-6.29-3.47-11.44-3.47Z"/>
      <path class="p" d="M136.08,125.25c-3.89,0-7.42-.63-10.57-1.89-3.16-1.26-5.86-3.1-8.13-5.52-2.26-2.42-4.02-5.34-5.29-8.76-1.26-3.42-1.89-7.23-1.89-11.44s.63-8.02,1.89-11.44c1.26-3.42,3.02-6.34,5.29-8.76,2.26-2.42,4.97-4.26,8.13-5.52s6.68-1.89,10.57-1.89c4.94,0,9.39,1.13,13.33,3.39,3.94,2.26,7.55,5.44,10.81,9.55l12.78-11.41v23.61l37.24-6.25v-46.51h-37.24v9.03c-3.08-2.27-6.4-4.24-10.02-5.88-8.36-3.79-17.96-5.68-28.8-5.68-8.84,0-17.02,1.4-24.53,4.18-6.7,2.48-12.56,5.96-17.68,10.33v-11.98h-52.93L2.19,68.94v83.92h91.83v-10.25c4.62,3.57,9.82,6.45,15.63,8.6,7.52,2.79,15.7,4.18,24.53,4.18,3.84,0,7.51-.25,11.03-.73l-8.59-29.43c-.19,0-.36.03-.55.03ZM38.8,124.78v-14.52h35.08c.76,3.75,1.87,7.33,3.34,10.73.57,1.31,1.22,2.55,1.87,3.79h-40.29ZM77.22,74.29c-1.26,2.92-2.25,5.98-2.99,9.15h-35.43v-12.94h40.29c-.65,1.24-1.3,2.48-1.87,3.79Z"/>
      <polygon class="p" points="0 43.64 0 69.63 30.3 43.64 0 43.64"/>
      <path class="p" d="M173.97,123.72l-12.78-11.41c-3.26,4.1-6.86,7.28-10.81,9.55-3.77,2.16-8,3.26-12.67,3.35l12.02,28.86c5.08-.96,9.82-2.43,14.22-4.45,3.62-1.66,6.94-3.64,10.02-5.9v9.13h37.24v-63.75l-37.24,10.38v24.23Z"/>
      <polygon class="p" points="323.73 154.08 308.99 132.48 276.04 142.33 283.97 154.08 323.73 154.08"/>
      <path class="p" d="M298.36,120.11c6.19-3.17,11.08-7.44,14.66-12.81,4.1-6.15,6.15-13.49,6.15-22.01,0-12.83-4.42-22.98-13.25-30.45-8.84-7.47-21.72-11.2-38.66-11.2h-51.6v110.45h37.24v-27.77h10.14l10.76,15.95,30.59-13.3-6.04-8.84ZM277.91,94.76c-2.47,2.31-6.29,3.47-11.44,3.47h-13.57v-25.88h13.57c5.15,0,8.97,1.16,11.44,3.47,2.47,2.31,3.71,5.47,3.71,9.47s-1.24,7.15-3.71,9.47Z"/>
    </g>
    <text class="q" transform="translate(61.95 173.65)"><tspan class="u" x="0" y="0">29 Ma</tspan><tspan class="x" x="33.29" y="0">r</tspan><tspan class="t" x="37.62" y="0">c</tspan><tspan class="u" x="43.84" y="0">h – 2 Ap</tspan><tspan class="s" x="87.48" y="0">r</tspan><tspan class="u" x="91.86" y="0">il</tspan><tspan class="u" x="-27.68" y="13.14">Delf</tspan><tspan class="ac" x="-4.92" y="13.14">t</tspan><tspan class="v" x="-.3" y="13.14">, The Nethe</tspan><tspan class="s" x="63.23" y="13.14">r</tspan><tspan class="v" x="67.62" y="13.14">lands</tspan></text>
    <text class="o" transform="translate(1.53 15.05)"><tspan class="e" x="0" y="0">4</tspan><tspan class="i" x="8.59" y="0">8</tspan><tspan class="r" x="16.73" y="-4">th</tspan><tspan class="j" x="26.26" y="0"> </tspan><tspan class="h" x="29.52" y="0">E</tspan><tspan class="i" x="37.91" y="0">u</tspan><tspan class="k" x="46.48" y="0">r</tspan><tspan class="i" x="51.42" y="0">op</tspan><tspan class="g" x="68.07" y="0">e</tspan><tspan class="i" x="75.6" y="0">an </tspan><tspan class="l" x="95.02" y="0">C</tspan><tspan class="i" x="103.77" y="0">on</tspan><tspan class="f" x="120.41" y="0">f</tspan><tspan class="i" x="124.66" y="0">e</tspan><tspan class="k" x="132.38" y="0">r</tspan><tspan class="j" x="137.32" y="0">en</tspan><tspan class="f" x="153.66" y="0">c</tspan><tspan class="i" x="160.75" y="0">e </tspan><tspan class="m"><tspan class="z" x="0" y="15">on In</tspan><tspan class="ab" x="33.23" y="15">f</tspan><tspan class="z" x="37.66" y="15">o</tspan><tspan class="aa" x="45.86" y="15">r</tspan><tspan class="z" x="51.05" y="15">mation Ret</tspan><tspan class="aa" x="124.45" y="15">r</tspan><tspan class="z" x="129.63" y="15">i</tspan><tspan class="w" x="133.21" y="15">e</tspan><tspan class="n" x="140.98" y="15">v</tspan><tspan class="y" x="147.91" y="15">al </tspan></tspan></text>
  </g>
</svg>