<?xml version="1.0" encoding="UTF-8" standalone="no"?>
<svg
   xmlns:dc="http://purl.org/dc/elements/1.1/"
   xmlns:cc="http://creativecommons.org/ns#"
   xmlns:rdf="http://www.w3.org/1999/02/22-rdf-syntax-ns#"
   xmlns:svg="http://www.w3.org/2000/svg"
   xmlns="http://www.w3.org/2000/svg"
   xmlns:sodipodi="http://sodipodi.sourceforge.net/DTD/sodipodi-0.dtd"
   xmlns:inkscape="http://www.inkscape.org/namespaces/inkscape"
   version="1.1"
   id="svg2"
   xml:space="preserve"
   width="814.49335"
   height="418.79999"
   viewBox="0 0 814.49335 418.79999"
   sodipodi:docname="FFG_Logo_EN_CMYK.eps"><metadata
     id="metadata8"><rdf:RDF><cc:Work
         rdf:about=""><dc:format>image/svg+xml</dc:format><dc:type
           rdf:resource="http://purl.org/dc/dcmitype/StillImage" /></cc:Work></rdf:RDF></metadata><defs
     id="defs6" /><sodipodi:namedview
     pagecolor="#ffffff"
     bordercolor="#666666"
     borderopacity="1"
     objecttolerance="10"
     gridtolerance="10"
     guidetolerance="10"
     inkscape:pageopacity="0"
     inkscape:pageshadow="2"
     inkscape:window-width="640"
     inkscape:window-height="480"
     id="namedview4" /><g
     id="g10"
     inkscape:groupmode="layer"
     inkscape:label="ink_ext_XXXXXX"
     transform="matrix(1.3333333,0,0,-1.3333333,0,418.8)"><g
       id="g12"
       transform="scale(0.1)"><path
         d="m 1633.19,2201.36 c 0,0 80.42,90.68 207.91,140.39 127.49,49.7 233.17,34.29 271.92,2.75 38.74,-31.55 78.14,-91.96 2.1,-212.08 -76.04,-120.14 -114.19,-119.78 -136.23,-177.64 -22.05,-57.85 -17.83,-91.93 26.79,-118.15 44.61,-26.21 121.81,-3.9 149.17,6.31 27.35,10.2 173.07,40.12 283.65,-12.22 110.59,-52.34 114.79,-132.31 80.66,-225.03 -34.16,-92.72 -125.67,-178.89 -197.14,-232.73 -71.46,-53.86 -203.06,-113.06 -328.33,-127.56 -97.53,-11.29 -181.09,-3.4 -229.4,18.07 -48.3,21.46 -80.84,27.25 -164.17,-12.76 -83.33,-40.02 -143.39,-75.97 -163.29,-118.59 -19.9,-42.65 -38.27,-129.99 -133.76,-218.761 -95.49,-88.757 -254.63,-138.23 -357.699,-142.058 -103.066,-3.86 -166.578,56.488 -173.008,124.308 -6.429,67.832 22.231,136.911 100.563,219.321 78.328,82.41 177.754,128.55 265.554,150.61 87.8,22.07 147.1,21.06 198.75,5.64 28.65,-8.55 62.48,-37.07 114.88,-20.71 61.25,19.12 136.53,46.47 176.71,87.47 40.17,40.97 52.85,73.05 60.93,108.83 8.08,35.76 49.18,118.92 109,181.48 59.83,62.54 100.83,85.75 112.91,134.76 12.08,49.01 7.7,84 -28.3,102.28 -36,18.29 -79.61,14.82 -161.95,-10.95 -82.32,-25.76 -194.21,6.92 -206.89,89.37 -12.68,82.47 28.4,163.14 118.67,257.65"
         style="fill:#ed1639;fill-opacity:1;fill-rule:nonzero;stroke:none"
         id="path14" /><path
         d="m 3312.73,2235.51 v 134.24 h -507.69 v -770.76 h 150.46 v 312.83 h 304.2 v 134.24 h -304.2 v 189.45 z m 676.47,0 v 134.24 h -507.71 v -770.76 h 150.5 v 312.83 h 304.17 v 134.24 h -304.17 v 189.45 z m 701.48,-320.42 v 112.58 h -291.2 v -125.58 h 141.8 v -29.22 c 0,-40.04 -9.73,-74.7 -34.62,-102.85 -24.92,-27.06 -61.71,-43.28 -107.18,-43.28 -41.14,0 -74.7,15.13 -96.36,40.05 -29.22,32.46 -36.79,69.27 -36.79,217.57 0,148.3 7.57,184.04 36.79,216.5 21.66,24.91 55.22,41.14 96.36,41.14 76.86,0 121.24,-40.04 138.56,-112.58 h 151.57 c -20.59,129.92 -111.52,246.82 -290.13,246.82 -86.6,0 -153.73,-30.31 -207.84,-84.44 -77.94,-77.94 -75.77,-174.28 -75.77,-307.44 0,-133.15 -2.17,-229.5 75.77,-307.43 54.11,-54.14 123.4,-84.43 207.84,-84.43 82.26,0 155.89,23.8 217.6,87.66 54.11,56.31 73.6,123.42 73.6,234.93"
         style="fill:#231f20;fill-opacity:1;fill-rule:nonzero;stroke:none"
         id="path16" /><path
         d="m 2932.49,1382.21 c 0,33.54 -23.58,54.76 -57.63,54.76 h -69.4 v -186.5 h 19.91 v 76.73 h 49.49 c 34.05,0 57.63,21.48 57.63,55.01 m -19.92,0 c 0,-24.63 -16.23,-37.18 -39.54,-37.18 h -47.66 v 74.1 h 47.66 c 23.31,0 39.54,-12.3 39.54,-36.92 m 142.81,-13.36 c -9.15,9.16 -18.58,12.05 -30.91,12.05 -14.9,0 -29.06,-6.55 -36.13,-17.28 v 15.7 h -18.86 v -128.85 h 18.86 v 79.09 c 0,19.64 12.06,34.58 30.91,34.58 9.95,0 15.17,-2.36 22.26,-9.42 z m 125.25,-53.94 c 0,19.9 -2.59,37.97 -15.71,51.33 -8.89,8.91 -21.21,14.66 -36.91,14.66 -15.73,0 -28.05,-5.75 -36.96,-14.66 -13.08,-13.36 -15.7,-31.43 -15.7,-51.33 0,-19.91 2.62,-38 15.7,-51.35 8.91,-8.89 21.23,-14.66 36.96,-14.66 15.7,0 28.02,5.77 36.91,14.66 13.12,13.35 15.71,31.44 15.71,51.35 m -18.84,0 c 0,-14.42 -0.79,-30.39 -10.23,-39.81 -6,-6.03 -14.38,-9.46 -23.55,-9.46 -9.18,0 -17.31,3.43 -23.31,9.46 -9.45,9.42 -10.48,25.39 -10.48,39.81 0,14.39 1.03,30.38 10.48,39.81 6,6.02 14.13,9.42 23.31,9.42 9.17,0 17.55,-3.4 23.55,-9.42 9.44,-9.43 10.23,-25.42 10.23,-39.81 m 243.98,-64.44 v 82.5 c 0,14.92 -4.71,26.97 -13.87,35.88 -7.85,7.6 -19.37,12.05 -33.27,12.05 -18.05,0 -32.48,-7.33 -42.43,-21.49 -7.84,14.16 -21.75,21.49 -39.55,21.49 -14.38,0 -27.23,-5.22 -36.4,-15.71 v 14.13 h -18.84 v -128.85 h 18.84 v 79.35 c 0,22.54 12.84,34.32 32.2,34.32 19.42,0 31.7,-11.52 31.7,-34.32 v -79.35 h 18.89 v 81.46 c 0,20.43 13.34,32.21 32.18,32.21 19.39,0 31.69,-11.52 31.69,-34.32 v -79.35 z m 144.93,64.44 c 0,19.9 -2.61,37.97 -15.72,51.33 -8.91,8.91 -21.21,14.66 -36.91,14.66 -15.75,0 -28.02,-5.75 -36.94,-14.66 -13.09,-13.36 -15.72,-31.43 -15.72,-51.33 0,-19.91 2.63,-38 15.72,-51.35 8.92,-8.89 21.19,-14.66 36.94,-14.66 15.7,0 28,5.77 36.91,14.66 13.11,13.35 15.72,31.44 15.72,51.35 m -18.84,0 c 0,-14.42 -0.8,-30.39 -10.23,-39.81 -6.02,-6.03 -14.4,-9.46 -23.56,-9.46 -9.17,0 -17.3,3.43 -23.32,9.46 -9.44,9.42 -10.48,25.39 -10.48,39.81 0,14.39 1.04,30.38 10.48,39.81 6.02,6.02 14.15,9.42 23.32,9.42 9.16,0 17.54,-3.4 23.56,-9.42 9.43,-9.43 10.23,-25.42 10.23,-39.81 m 107.88,-64.44 v 16.23 h -9.96 c -12.06,0 -17.55,7.09 -17.55,18.87 v 78.57 h 27.51 v 14.39 h -27.51 v 40.34 h -18.86 v -40.34 h -16.23 v -14.39 h 16.23 v -79.09 c 0,-19.14 11,-34.58 33.01,-34.58 z m 56.7,186.76 h -21.23 V 1416 h 21.23 z m -1.32,-57.91 h -18.85 v -128.85 h 18.85 z m 147.58,-128.85 v 82.5 c 0,14.92 -4.17,26.97 -13.34,35.88 -7.87,7.87 -19.13,12.05 -33.01,12.05 -14.43,0 -26.97,-5.22 -36.14,-15.71 v 14.13 h -18.87 v -128.85 h 18.87 v 79.35 c 0,22.54 12.55,34.32 31.94,34.32 19.39,0 31.7,-11.52 31.7,-34.32 v -79.35 z m 141.66,-3.93 v 132.78 h -18.61 v -15.18 c -10.48,13.6 -22,16.76 -36.15,16.76 -13.09,0 -24.61,-4.45 -31.42,-11.27 -12.84,-12.82 -15.72,-32.75 -15.72,-53.67 0,-20.96 2.88,-40.86 15.72,-53.71 6.81,-6.82 18.07,-11.51 31.17,-11.51 13.87,0 25.67,3.4 36.15,16.74 v -20.17 c 0,-21.99 -10.48,-39.53 -35.37,-39.53 -14.92,0 -21.47,4.45 -30.91,12.82 l -12.3,-12.05 c 13.62,-12.31 24.35,-17.27 43.72,-17.27 33.8,0 53.72,23.29 53.72,55.26 m -18.86,69.42 c 0,-24.11 -3.95,-48.22 -31.96,-48.22 -28.02,0 -32.22,24.11 -32.22,48.22 0,24.08 4.2,48.18 32.22,48.18 28.01,0 31.96,-24.1 31.96,-48.18 m 159.75,121.01 h -19.91 v -186.49 h 19.91 z m 150.05,-186.5 v 82.5 c 0,14.92 -4.18,26.97 -13.37,35.88 -7.85,7.87 -19.11,12.05 -32.97,12.05 -14.42,0 -27,-5.22 -36.17,-15.71 v 14.13 h -18.84 v -128.85 h 18.84 v 79.35 c 0,22.54 12.58,34.32 31.98,34.32 19.36,0 31.68,-11.52 31.68,-34.32 v -79.35 z m 146.87,0 v 82.5 c 0,14.92 -4.2,26.97 -13.36,35.88 -7.85,7.87 -19.12,12.05 -33,12.05 -14.4,0 -26.98,-5.22 -36.14,-15.71 v 14.13 h -18.87 v -128.85 h 18.87 v 79.35 c 0,22.54 12.58,34.32 31.94,34.32 19.39,0 31.69,-11.52 31.69,-34.32 v -79.35 z m 144.65,64.44 c 0,19.9 -2.6,37.97 -15.72,51.33 -8.89,8.91 -21.22,14.66 -36.91,14.66 -15.72,0 -28.05,-5.75 -36.94,-14.66 -13.12,-13.36 -15.72,-31.43 -15.72,-51.33 0,-19.91 2.6,-38 15.72,-51.35 8.89,-8.89 21.22,-14.66 36.94,-14.66 15.69,0 28.02,5.77 36.91,14.66 13.12,13.35 15.72,31.44 15.72,51.35 m -18.85,0 c 0,-14.42 -0.79,-30.39 -10.24,-39.81 -5.99,-6.03 -14.37,-9.46 -23.54,-9.46 -9.19,0 -17.31,3.43 -23.31,9.46 -9.43,9.42 -10.49,25.39 -10.49,39.81 0,14.39 1.06,30.38 10.49,39.81 6,6.02 14.12,9.42 23.31,9.42 9.17,0 17.55,-3.4 23.54,-9.42 9.45,-9.43 10.24,-25.42 10.24,-39.81 m 151.02,64.41 h -20.43 l -35.37,-103.46 -35.09,103.46 h -20.41 l 47.12,-128.85 h 16.76 z m 123.45,-128.85 v 87.47 c 0,28.04 -17,42.96 -51.59,42.96 -20.96,0 -34.03,-4.18 -45.57,-19.12 l 12.83,-11.79 c 7.6,10.75 15.98,14.68 32.49,14.68 23.56,0 32.98,-9.43 32.98,-28.28 v -12.31 h -38.76 c -28.79,0 -44.53,-14.69 -44.53,-37.22 0,-10.21 3.42,-19.89 9.69,-26.17 8.13,-8.39 18.59,-11.79 36.44,-11.79 17.26,0 26.7,3.4 37.16,13.89 v -12.32 z m -18.86,45.55 c 0,-10.7 -2.1,-18.06 -6.53,-22.23 -8.13,-7.88 -17.82,-8.64 -28.83,-8.64 -20.43,0 -29.6,7.06 -29.6,21.98 0,14.94 9.45,22.79 28.83,22.79 h 36.13 z m 113.52,-45.55 v 16.23 h -9.95 c -12.03,0 -17.55,7.09 -17.55,18.87 v 78.57 h 27.5 v 14.39 h -27.5 v 40.34 h -18.86 v -40.34 h -16.23 v -14.39 h 16.23 v -79.09 c 0,-19.14 11.01,-34.58 33.01,-34.58 z m 56.72,186.76 H 4952.6 V 1416 h 21.22 z m -1.32,-57.91 h -18.86 v -128.85 h 18.86 z m 145.44,-64.41 c 0,19.9 -2.64,37.97 -15.72,51.33 -8.92,8.91 -21.2,14.66 -36.94,14.66 -15.69,0 -28,-5.75 -36.91,-14.66 -13.12,-13.36 -15.73,-31.43 -15.73,-51.33 0,-19.91 2.61,-38 15.73,-51.35 8.91,-8.89 21.22,-14.66 36.91,-14.66 15.74,0 28.02,5.77 36.94,14.66 13.08,13.35 15.72,31.44 15.72,51.35 m -18.87,0 c 0,-14.42 -0.78,-30.39 -10.2,-39.81 -6.05,-6.03 -14.43,-9.46 -23.59,-9.46 -9.17,0 -17.27,3.43 -23.32,9.46 -9.41,9.42 -10.48,25.39 -10.48,39.81 0,14.39 1.07,30.38 10.48,39.81 6.05,6.02 14.15,9.42 23.32,9.42 9.16,0 17.54,-3.4 23.59,-9.42 9.42,-9.43 10.2,-25.42 10.2,-39.81 m 160.98,-64.44 v 82.5 c 0,14.92 -4.18,26.97 -13.37,35.88 -7.84,7.87 -19.11,12.05 -32.99,12.05 -14.4,0 -26.98,-5.22 -36.15,-15.71 v 14.13 h -18.86 v -128.85 h 18.86 v 79.35 c 0,22.54 12.58,34.32 31.95,34.32 19.39,0 31.69,-11.52 31.69,-34.32 v -79.35 z m 71.38,24.63 h -24.63 v -24.63 h 24.63 v 24.63"
         style="fill:#231f20;fill-opacity:1;fill-rule:nonzero;stroke:none"
         id="path18" /></g></g></svg>
