<?xml version="1.0" encoding="UTF-8" standalone="no"?>
<!-- Generator: Adobe Illustrator 19.2.1, SVG Export Plug-In . SVG Version: 6.00 Build 0)  -->

<svg
   version="1.1"
   id="layer"
   x="0px"
   y="0px"
   viewBox="0 0 383.69208 107.8"
   xml:space="preserve"
   width="383.69208"
   height="107.8"
   xmlns="http://www.w3.org/2000/svg"
   xmlns:svg="http://www.w3.org/2000/svg"><defs
   id="defs867"><clipPath
     clipPathUnits="userSpaceOnUse"
     id="clipPath973"><rect
       style="fill:#000000"
       id="rect975"
       width="391.88751"
       height="130.62918"
       x="12.604569"
       y="253.23726" /></clipPath></defs>
<style
   type="text/css"
   id="style824">
	.st0{fill:#F29104;}
	.st1{fill:#D4181A;}
	.st2{fill:#30B6BB;}
	.st3{fill:#007C3E;}
	.st4{fill:#94C11F;}
	.st5{fill:#EFD500;}
	.st6{fill:#134391;}
	.st7{fill:#70296B;}
	.st8{fill:#0094CD;}
	.st9{fill:none;stroke:#706F6F;stroke-width:2.0281;stroke-miterlimit:10;}
	.st10{fill:#706F6F;}
</style>
<g
   id="g862"
   clip-path="url(#clipPath973)"
   transform="translate(-20.8,-267.2)">
	<title
   id="title826">Layer 1</title>
	<polyline
   id="svg_1"
   class="st0"
   points="516.2,341.2 532.9,334.5 558.1,344.3 583.2,334.5 599.9,341.2 558.1,358 516.2,341.2  " />
	<polygon
   id="svg_3"
   class="st1"
   points="29.3,280.6 53.7,285.2 56.5,309.3 32.3,304.6 " />
	<polygon
   id="svg_4"
   class="st2"
   points="42.8,267.2 67.2,271.8 53.7,285.2 29.3,280.6 " />
	<polygon
   id="svg_5"
   class="st3"
   points="53.7,285.2 67.2,271.8 69.9,295.9 56.5,309.3 " />
	<polygon
   id="svg_7"
   class="st4"
   points="56.5,309.3 56.4,347.3 20.8,358.5 20.9,320.3 " />
	<polygon
   id="svg_8"
   class="st5"
   points="80.6,325.8 80.5,363.8 56.4,347.3 56.5,309.3 " />
	<polygon
   id="svg_9"
   class="st6"
   points="56.4,347.3 80.5,363.8 44.9,375 20.8,358.5 " />
	<polygon
   id="svg_11"
   class="st7"
   points="77.8,314.5 68.2,336.7 55.7,307.4 65.3,285.1 " />
	<polygon
   id="svg_12"
   class="st8"
   points="110.5,309.2 100.8,331.1 68.2,336.7 77.8,314.5 " />
	<polygon
   id="svg_13"
   class="st0"
   points="98,279.9 110.5,309.2 77.8,314.5 65.3,285.1 " />
	<path
   id="svg_14"
   class="st4"
   d="m 606.1,357.1 v -3.5 l 5.7,-3.3 -5.7,-3.3 v -3.5 l 8.8,5.3 h 5.5 v 3.1 h -5.6 z" />
	<path
   id="svg_15"
   class="st4"
   d="m 606.1,327.6 h 2.6 v 7.5 h 3 v -6.9 h 2.4 v 6.9 h 3.4 v -7.7 h 2.6 v 10.9 H 606 v -10.6 h 0.1 z" />
	<path
   id="svg_16"
   class="st4"
   d="m 606.1,314.2 14.3,-5.4 v 3.2 l -3.1,1.1 v 5.4 l 3.1,1.1 v 3.1 l -14.3,-5.4 c 0,0.2 0,-3.1 0,-3.1 z m 8.7,-0.2 -5.3,1.8 v 0 l 5.3,1.8 z" />
	<path
   id="svg_17"
   class="st4"
   d="m 606.1,296 c 0,-0.6 0.1,-1.2 0.3,-1.7 0.2,-0.5 0.5,-0.9 0.8,-1.3 0.4,-0.4 0.8,-0.6 1.2,-0.8 0.5,-0.2 1,-0.3 1.5,-0.3 0.8,0 1.5,0.2 2.1,0.5 0.6,0.3 1.1,0.9 1.4,1.7 v 0 c 0.1,-0.4 0.3,-0.7 0.5,-0.9 0.2,-0.3 0.5,-0.5 0.8,-0.6 0.3,-0.2 0.6,-0.3 1,-0.3 0.4,0 0.7,-0.1 1.1,-0.1 0.2,0 0.5,0 0.8,0 0.3,0 0.6,0 0.9,-0.1 0.3,0 0.6,-0.1 0.9,-0.2 0.3,-0.1 0.5,-0.2 0.7,-0.3 v 3.1 c -0.4,0.2 -1,0.3 -1.6,0.3 -0.6,0 -1.2,0.1 -1.8,0.2 -0.7,0.1 -1.3,0.3 -1.6,0.7 -0.3,0.3 -0.5,0.9 -0.5,1.7 v 3.1 h 5.6 v 3.1 H 606 V 296 Z m 6.5,1.1 c 0,-0.7 -0.2,-1.2 -0.5,-1.6 -0.3,-0.4 -0.8,-0.5 -1.5,-0.5 -0.7,0 -1.2,0.2 -1.5,0.5 -0.3,0.4 -0.5,0.9 -0.5,1.6 v 3.4 h 4.1 v -3.4 z" />
	<path
   id="svg_18"
   class="st4"
   d="m 616.9,282.8 c 0.3,-0.2 0.6,-0.4 0.8,-0.7 0.2,-0.3 0.4,-0.6 0.5,-1 0.1,-0.4 0.1,-0.8 0.1,-1.2 0,-0.3 0,-0.6 -0.1,-0.9 0,-0.3 -0.1,-0.6 -0.3,-0.9 -0.1,-0.3 -0.3,-0.5 -0.5,-0.7 -0.2,-0.2 -0.5,-0.3 -0.9,-0.3 -0.4,0 -0.7,0.1 -0.9,0.4 -0.2,0.2 -0.4,0.6 -0.6,1 -0.2,0.4 -0.3,0.8 -0.4,1.3 -0.1,0.5 -0.3,1 -0.4,1.5 -0.1,0.5 -0.3,1 -0.5,1.5 -0.2,0.5 -0.4,0.9 -0.7,1.3 -0.3,0.4 -0.7,0.7 -1.1,1 -0.5,0.2 -1,0.4 -1.6,0.4 -0.7,0 -1.4,-0.2 -1.9,-0.5 -0.5,-0.3 -1,-0.7 -1.3,-1.2 -0.4,-0.5 -0.6,-1.1 -0.8,-1.7 -0.2,-0.6 -0.3,-1.3 -0.3,-1.9 0,-0.7 0.1,-1.4 0.2,-2.1 0.2,-0.7 0.4,-1.3 0.8,-1.8 0.4,-0.5 0.8,-0.9 1.4,-1.3 0.6,-0.3 1.3,-0.5 2.1,-0.5 v 3 c -0.4,0 -0.8,0.1 -1,0.3 -0.3,0.2 -0.5,0.4 -0.6,0.6 -0.2,0.3 -0.3,0.5 -0.3,0.9 -0.1,0.3 -0.1,0.7 -0.1,1.1 0,0.3 0,0.5 0.1,0.7 0.1,0.3 0.1,0.5 0.3,0.7 0.1,0.2 0.3,0.4 0.5,0.5 0.2,0.1 0.4,0.2 0.7,0.2 0.3,0 0.5,-0.1 0.7,-0.2 0.2,-0.1 0.3,-0.3 0.5,-0.6 0.1,-0.3 0.3,-0.7 0.4,-1.3 0.1,-0.5 0.3,-1.3 0.6,-2.1 0.1,-0.3 0.1,-0.6 0.3,-1.1 0.1,-0.5 0.4,-0.9 0.7,-1.4 0.3,-0.5 0.7,-0.9 1.2,-1.2 0.5,-0.3 1.2,-0.5 1.9,-0.5 0.6,0 1.2,0.1 1.8,0.4 0.6,0.3 1,0.6 1.4,1.1 0.4,0.5 0.7,1.1 0.9,1.8 0.2,0.7 0.3,1.6 0.3,2.5 0,0.8 -0.1,1.5 -0.3,2.3 -0.2,0.7 -0.5,1.4 -0.9,1.9 -0.4,0.6 -0.9,1 -1.6,1.3 -0.6,0.3 -1.4,0.5 -2.2,0.5 v -3 c 0.3,0.2 0.8,0.1 1.1,-0.1 z" />
	<polygon
   id="svg_20"
   class="st2"
   points="449,284.1 465.9,290.9 507.8,274.1 491.6,267.7 " />
	<polygon
   id="svg_21"
   class="st1"
   points="449,284.2 465.9,290.9 465.9,307.7 449,301 " />
	<polygon
   id="svg_22"
   class="st1"
   points="474.2,304.3 491,297.6 491,374.7 474.2,368 " />
	<polygon
   id="svg_23"
   class="st6"
   points="566.5,304.3 583.2,297.6 583.2,347.9 566.5,341.2 " />
	<polygon
   id="svg_24"
   class="st8"
   points="549.6,304.3 532.9,297.6 532.9,347.9 549.6,341.2 " />
	<polyline
   id="svg_25"
   class="st5"
   points="516.2,274.1 532.9,267.4 558.1,277.2 583.2,267.4 599.9,274.1 558.1,290.9 516.2,274.1     " />
	<polygon
   id="svg_26"
   class="st3"
   points="507.8,347.9 507.8,367.8 491,374.6 491,374.6 491,297.6 465.9,307.7 465.9,290.9 507.8,274.1 507.8,290.9 507.8,341.2 " />
	<polygon
   id="svg_27"
   class="st4"
   points="599.9,347.9 599.9,358 558.1,374.7 558.1,358 583.2,347.9 583.2,347.9 583.2,297.6 558.1,307.7 558.1,290.9 599.9,274.1 599.9,290.9 599.9,341.2 " />
	<polygon
   id="svg_28"
   class="st7"
   points="516.2,347.9 516.2,358 558.1,374.7 558.1,358 532.9,347.9 532.9,347.9 532.9,297.6 558.1,307.7 558.1,290.9 516.2,274.1 516.2,290.9 516.2,341.2 " />
	<line
   id="svg_29"
   class="st9"
   x1="424.20001"
   y1="272.60001"
   x2="424.20001"
   y2="369.60001" />
	<path
   id="svg_31"
   class="st10"
   d="m 124,330.9 h -5.8 v -7.7 h 5.8 c 0,-10.4 3.7,-13.7 13.9,-13.7 1.9,0 3.9,0.1 5.8,0.2 v 8.4 c -1.1,-0.1 -2.1,-0.2 -3.2,-0.2 -2.7,0 -4.5,0.3 -4.5,3.7 v 1.6 h 7.2 v 7.7 H 136 v 28.7 h -12 c 0,0 0,-28.7 0,-28.7 z" />
	<path
   id="svg_32"
   class="st10"
   d="m 146.9,323.2 h 11.6 v 6.4 h 0.1 c 1.7,-4.7 5.9,-7.1 11,-7.1 0.9,0 1.9,0.1 2.8,0.3 v 10.9 c -1.5,-0.4 -2.9,-0.7 -4.6,-0.7 -5.9,0 -9,4.1 -9,8.6 v 18 h -12 v -36.4 z" />
	<path
   id="svg_33"
   class="st10"
   d="m 192.9,322.1 c 11.4,0 19.3,8.3 19.3,19.4 0,11 -7.9,19.3 -19.3,19.3 -11.4,0 -19.2,-8.3 -19.2,-19.3 0,-11 7.9,-19.4 19.2,-19.4 z m 0,29.4 c 5.6,0 7.3,-5.5 7.3,-10.1 0,-4.6 -1.7,-10.1 -7.3,-10.1 -5.6,0 -7.2,5.6 -7.2,10.1 0,4.5 1.7,10.1 7.2,10.1 z" />
	<path
   id="svg_34"
   class="st10"
   d="m 215.3,323.2 h 11.6 v 5 h 0.1 c 2.1,-3.8 7.1,-6.1 11.5,-6.1 12.2,0 13.2,8.8 13.2,14.1 v 23.4 h -12 V 342 c 0,-5 0.6,-10 -6,-10 -4.5,0 -6.5,3.8 -6.5,7.8 v 19.9 h -12 v -36.4 h 0.1 z" />
	<path
   id="svg_35"
   class="st10"
   d="m 279.1,330.9 h -7.4 v 16.5 c 0,2.8 1.7,3.5 4.3,3.5 1,0 2,-0.1 3,-0.1 v 8.8 c -2.1,0.1 -4.4,0.3 -6.5,0.3 -10.1,0 -12.8,-2.9 -12.8,-12.9 v -16.2 h -6.1 v -7.7 h 6.1 V 312 h 12 v 11.1 h 7.4 z" />
	<path
   id="svg_36"
   class="st10"
   d="m 294.7,318.5 h -12 v -9.1 h 12 z m -12,4.7 h 12 v 36.5 h -12 z" />
	<path
   id="svg_37"
   class="st10"
   d="m 310.1,344.3 c 0.2,5 3,8.3 8.1,8.3 2.8,0 5.7,-1.3 6.8,-4 h 11.2 c -2.1,8.4 -9.9,12.1 -18.2,12.1 -11.9,0 -20,-7.2 -20,-19.4 0,-11.2 8.9,-19.2 19.7,-19.2 13.1,0 19.6,9.8 19.1,22.2 z m 14.8,-6.7 c -0.2,-4.1 -3,-7.4 -7.1,-7.4 -4.3,0 -7,3 -7.7,7.4 z" />
	<path
   id="svg_38"
   class="st10"
   d="m 340.3,323.2 h 11.6 v 6.4 h 0.1 c 1.7,-4.7 5.9,-7.1 11,-7.1 0.9,0 1.9,0.1 2.8,0.3 v 10.9 c -1.5,-0.4 -2.9,-0.7 -4.6,-0.7 -5.9,0 -9,4.1 -9,8.6 v 18 h -12 v -36.4 c 0,0 0.1,0 0.1,0 z" />
	<path
   id="svg_39"
   class="st10"
   d="m 380,347.6 c 0,1.8 0.8,3.1 1.9,4.1 1.1,0.8 2.7,1.2 4.5,1.2 2.3,0 5.6,-1 5.6,-3.9 0,-2.8 -3.8,-3.3 -5.9,-3.9 -7.5,-1.9 -16.9,-2.1 -16.9,-12 0,-8.8 9.5,-11.2 16.6,-11.2 8,0 16.3,2.3 16.8,11.8 h -11.1 c 0,-1.5 -0.6,-2.5 -1.5,-3.1 -1,-0.6 -2.3,-0.9 -3.8,-0.9 -1.9,0 -5.2,0.2 -5.2,2.7 0,3.4 8,4.1 13.5,5.3 7.4,1.5 9.2,6.8 9.2,9.8 0,9.7 -9.2,13 -17.5,13 -8.6,0 -17.5,-2.8 -17.8,-13.1 H 380 Z" />
</g>
</svg>
