<svg id="svg" version="1.1" xmlns="http://www.w3.org/2000/svg" xmlns:xlink="http://www.w3.org/1999/xlink" width="400" height="143.6548223350254" viewBox="0, 0, 400,143.6548223350254"><g id="svgg"><path id="path0" d="M125.078 16.008 C 125.014 16.113,125.217 16.468,125.534 16.807 C 128.187 19.631,126.862 24.503,122.083 29.500 C 107.775 44.460,107.131 55.077,120.143 61.484 C 122.529 62.659,122.536 62.658,121.919 61.140 C 120.317 57.198,120.192 52.953,121.556 48.813 C 122.388 46.286,122.845 45.306,126.210 38.833 C 131.007 29.606,131.897 24.489,129.561 19.552 C 128.721 17.775,125.540 15.261,125.078 16.008 M133.210 26.154 C 133.511 29.469,132.043 34.470,129.302 39.465 C 123.694 49.688,123.109 54.433,126.736 60.296 C 128.242 62.731,128.499 62.741,128.501 60.365 C 128.504 57.127,129.543 53.365,131.681 48.855 C 132.131 47.904,132.500 47.103,132.500 47.075 C 132.500 47.046,132.712 46.549,132.972 45.970 C 133.391 45.032,133.562 44.620,134.201 43.000 C 136.249 37.803,136.403 32.486,134.642 27.750 C 133.587 24.912,133.042 24.304,133.210 26.154 M138.246 31.340 C 138.187 31.435,138.231 32.030,138.344 32.661 C 138.616 34.185,138.446 37.680,138.020 39.333 C 137.686 40.628,136.927 43.001,136.661 43.583 C 136.578 43.767,136.355 44.329,136.167 44.833 C 135.978 45.337,135.755 45.900,135.672 46.083 C 131.867 54.397,131.232 58.316,133.213 61.280 C 133.883 62.282,134.202 62.313,134.359 61.389 C 134.604 59.956,136.008 58.437,138.573 56.833 C 140.954 55.344,141.935 54.573,142.639 53.635 C 147.043 47.772,145.613 38.302,139.379 32.042 C 138.440 31.099,138.407 31.079,138.246 31.340 M205.750 47.019 C 198.933 47.854,194.136 49.261,189.462 51.795 C 177.975 58.023,171.689 70.759,172.669 85.817 C 172.954 90.194,173.887 94.599,175.096 97.275 C 175.227 97.564,175.333 97.854,175.333 97.920 C 175.333 98.765,178.374 103.711,180.325 106.039 C 190.552 118.244,211.271 121.414,229.667 113.589 C 233.523 111.948,233.901 111.639,234.057 110.000 C 234.261 107.852,234.610 104.691,234.924 102.141 C 234.990 101.602,234.938 101.494,234.473 101.199 L 233.948 100.867 231.432 103.401 C 230.049 104.795,228.354 106.351,227.667 106.858 C 226.489 107.727,223.661 109.500,223.452 109.500 C 223.400 109.500,222.883 109.716,222.303 109.980 C 217.210 112.299,209.640 112.949,204.500 111.507 C 190.737 107.647,183.601 91.530,187.265 72.583 C 189.993 58.475,200.494 50.943,215.417 52.393 C 219.251 52.765,221.162 53.242,223.995 54.535 C 226.594 55.722,229.132 58.001,230.503 60.379 C 231.393 61.922,232.046 62.131,232.443 61.000 C 232.663 60.375,233.648 57.184,234.500 54.333 C 234.788 53.371,235.094 52.410,235.179 52.198 C 235.530 51.333,227.892 48.669,222.000 47.602 C 217.994 46.876,209.424 46.569,205.750 47.019 M282.917 47.024 C 270.400 48.903,263.948 56.236,264.388 68.083 C 264.698 76.430,267.865 80.502,277.417 84.837 C 277.600 84.920,278.425 85.257,279.250 85.586 C 280.075 85.914,280.900 86.252,281.083 86.337 C 281.267 86.422,281.829 86.645,282.333 86.833 C 282.837 87.022,283.400 87.244,283.583 87.328 C 283.767 87.411,284.854 87.866,286.000 88.338 C 292.510 91.022,295.179 94.269,295.453 99.838 C 295.833 107.538,290.355 112.840,282.031 112.831 C 275.225 112.824,271.088 109.893,267.389 102.458 C 266.840 101.355,266.816 101.333,266.174 101.333 C 265.350 101.333,265.366 101.300,265.161 103.359 C 264.931 105.660,264.466 108.038,263.831 110.167 C 262.983 113.012,262.841 112.622,265.111 113.698 C 269.593 115.821,272.233 116.660,277.167 117.530 C 283.997 118.734,293.191 116.904,298.479 113.289 C 306.093 108.084,309.505 96.892,306.062 88.417 C 303.495 82.097,300.783 79.915,290.500 75.899 C 288.987 75.308,286.962 74.516,286.000 74.138 C 280.053 71.804,277.005 69.682,275.803 67.039 C 274.463 64.094,274.545 60.624,276.027 57.526 C 280.108 48.990,295.750 50.036,299.338 59.083 C 299.863 60.406,299.946 60.500,300.594 60.500 C 301.275 60.500,301.281 60.489,301.756 58.611 C 302.388 56.108,302.576 55.521,303.494 53.194 C 303.976 51.971,304.306 50.913,304.227 50.841 C 304.036 50.668,300.346 49.103,299.083 48.659 C 297.066 47.950,294.900 47.419,292.646 47.080 C 290.811 46.805,284.616 46.769,282.917 47.024 M351.458 47.088 C 340.702 48.654,334.429 54.838,333.314 64.974 C 332.306 74.134,336.395 80.539,345.833 84.580 C 346.613 84.914,347.400 85.255,347.583 85.339 C 347.767 85.423,348.892 85.872,350.083 86.337 C 351.275 86.801,352.400 87.248,352.583 87.330 C 352.767 87.412,353.929 87.899,355.167 88.412 C 361.553 91.064,364.500 94.819,364.500 100.303 C 364.500 107.688,359.028 112.833,351.175 112.833 C 344.320 112.833,340.273 110.110,336.683 103.083 C 335.793 101.340,335.768 101.316,335.000 101.373 L 334.417 101.417 334.207 102.917 C 333.687 106.639,333.435 107.950,332.836 110.028 C 332.484 111.250,332.171 112.348,332.140 112.468 C 332.045 112.835,336.248 114.849,339.083 115.796 C 349.753 119.358,360.944 118.174,368.191 112.716 C 379.202 104.421,379.001 86.298,367.825 79.632 C 366.194 78.659,363.571 77.465,360.536 76.314 C 350.929 72.671,348.383 71.398,346.282 69.189 C 343.768 66.546,343.135 62.196,344.669 58.111 C 348.110 48.951,364.781 49.820,368.423 59.350 L 368.869 60.517 369.550 60.467 L 370.231 60.417 370.615 58.917 C 371.181 56.708,371.800 54.811,372.621 52.768 C 373.023 51.769,373.291 50.898,373.218 50.832 C 372.653 50.327,366.606 48.097,364.436 47.594 C 361.122 46.825,354.922 46.583,351.458 47.088 M22.739 49.156 C 22.798 50.033,22.916 51.612,23.001 52.667 C 23.688 61.212,23.819 88.413,23.245 103.583 C 22.958 111.170,22.816 114.549,22.749 115.375 L 22.672 116.333 23.278 116.333 C 23.612 116.333,24.930 116.213,26.208 116.067 C 28.752 115.775,31.438 115.811,34.703 116.179 C 37.063 116.445,36.921 116.575,36.682 114.381 C 36.178 109.742,35.855 100.054,35.842 89.143 L 35.833 82.704 37.792 82.596 C 47.163 82.081,58.880 82.081,67.542 82.597 L 69.333 82.703 69.332 90.393 C 69.332 97.436,69.104 104.720,68.670 111.583 C 68.577 113.050,68.482 114.728,68.459 115.312 L 68.417 116.373 69.973 116.259 C 70.829 116.196,71.954 116.075,72.473 115.990 C 73.684 115.791,76.977 115.790,78.183 115.988 C 78.696 116.072,79.904 116.194,80.866 116.258 L 82.616 116.375 82.395 114.563 C 82.274 113.566,82.051 110.688,81.899 108.167 C 81.375 99.462,81.646 66.859,82.330 56.167 C 82.415 54.837,82.527 53.038,82.579 52.167 C 82.630 51.296,82.754 49.960,82.853 49.198 C 83.079 47.467,83.230 47.561,80.620 47.812 C 76.720 48.187,74.887 48.213,72.270 47.933 C 70.906 47.786,69.527 47.667,69.206 47.667 L 68.622 47.667 68.724 49.375 C 69.076 55.253,69.191 59.419,69.219 67.250 L 69.250 76.083 67.750 76.226 C 65.765 76.415,38.771 76.418,37.167 76.230 L 35.917 76.083 35.967 68.083 C 36.019 59.978,36.336 51.718,36.692 49.208 C 36.940 47.463,37.158 47.559,33.706 47.891 C 30.127 48.234,29.582 48.232,25.691 47.856 L 22.632 47.561 22.739 49.156 M125.525 66.511 C 120.633 66.701,114.611 67.650,113.708 68.374 C 113.358 68.654,113.475 68.988,113.958 69.090 C 121.022 70.568,123.846 73.190,124.331 78.721 C 124.424 79.787,124.536 80.905,124.579 81.205 C 124.622 81.505,124.736 82.762,124.833 84.000 C 124.930 85.237,125.122 87.675,125.259 89.417 C 125.608 93.847,125.964 98.510,126.251 102.417 C 127.169 114.900,127.431 118.523,127.661 121.917 C 127.970 126.472,128.254 127.622,129.168 128.000 C 130.658 128.618,131.343 126.932,131.576 122.083 C 131.633 120.892,131.748 119.242,131.831 118.417 C 131.913 117.592,132.027 116.054,132.082 115.000 C 132.137 113.946,132.217 112.858,132.259 112.583 C 132.301 112.308,132.450 110.433,132.589 108.417 C 132.728 106.400,132.911 103.850,132.996 102.750 C 133.080 101.650,133.269 99.175,133.415 97.250 C 134.122 87.938,134.426 84.126,134.830 79.500 C 135.353 73.501,137.779 70.859,144.153 69.345 C 146.098 68.883,146.301 68.383,144.697 68.005 C 142.350 67.452,141.557 67.297,139.576 67.003 C 137.852 66.746,129.655 66.253,128.917 66.361 C 128.825 66.375,127.299 66.442,125.525 66.511 " stroke="none" fill="#0f436a" fill-rule="evenodd"></path><path id="path1" d="M0.000 71.750 L 0.000 143.500 200.000 143.500 L 400.000 143.500 400.000 71.750 L 400.000 0.000 200.000 0.000 L 0.000 0.000 0.000 71.750 M126.667 16.473 C 132.308 19.713,132.150 27.407,126.210 38.833 C 122.845 45.306,122.388 46.286,121.556 48.813 C 120.192 52.953,120.317 57.198,121.919 61.140 C 122.536 62.658,122.529 62.659,120.143 61.484 C 107.131 55.077,107.775 44.460,122.083 29.500 C 126.862 24.503,128.187 19.631,125.534 16.807 C 124.552 15.761,125.130 15.591,126.667 16.473 M133.727 25.542 C 136.293 29.652,136.498 37.172,134.201 43.000 C 133.562 44.620,133.391 45.032,132.972 45.970 C 132.712 46.549,132.500 47.046,132.500 47.075 C 132.500 47.103,132.131 47.904,131.681 48.855 C 129.543 53.365,128.504 57.127,128.501 60.365 C 128.499 62.741,128.242 62.731,126.736 60.296 C 123.109 54.433,123.694 49.688,129.302 39.465 C 132.043 34.470,133.511 29.469,133.210 26.154 C 133.113 25.091,133.304 24.865,133.727 25.542 M139.379 32.042 C 145.613 38.302,147.043 47.772,142.639 53.635 C 141.935 54.573,140.954 55.344,138.573 56.833 C 136.008 58.437,134.604 59.956,134.359 61.389 C 134.202 62.313,133.883 62.282,133.213 61.280 C 131.232 58.316,131.867 54.397,135.672 46.083 C 135.755 45.900,135.978 45.337,136.167 44.833 C 136.355 44.329,136.578 43.767,136.661 43.583 C 136.927 43.001,137.686 40.628,138.020 39.333 C 138.446 37.680,138.616 34.185,138.344 32.661 C 138.162 31.643,138.189 31.167,138.430 31.167 C 138.473 31.167,138.899 31.560,139.379 32.042 M218.359 47.089 C 223.983 47.736,229.693 49.255,234.221 51.308 C 235.256 51.777,235.324 51.841,235.179 52.198 C 235.094 52.410,234.788 53.371,234.500 54.333 C 233.648 57.184,232.663 60.375,232.443 61.000 C 232.046 62.131,231.393 61.922,230.503 60.379 C 228.828 57.474,226.271 55.426,222.250 53.769 C 218.498 52.223,210.739 51.787,205.667 52.838 C 193.020 55.458,186.436 65.527,186.435 82.250 C 186.433 93.994,190.151 102.705,197.476 108.122 C 203.938 112.901,214.202 113.669,222.303 109.980 C 222.883 109.716,223.400 109.500,223.452 109.500 C 223.661 109.500,226.489 107.727,227.667 106.858 C 228.354 106.351,230.049 104.795,231.432 103.401 L 233.948 100.867 234.473 101.199 C 234.938 101.494,234.990 101.602,234.924 102.141 C 234.610 104.691,234.261 107.852,234.057 110.000 C 233.901 111.639,233.523 111.948,229.667 113.589 C 211.271 121.414,190.552 118.244,180.325 106.039 C 178.374 103.711,175.333 98.765,175.333 97.920 C 175.333 97.854,175.227 97.564,175.096 97.275 C 172.738 92.056,171.917 82.784,173.177 75.610 C 176.111 58.913,187.052 49.310,205.750 47.019 C 207.837 46.763,215.917 46.808,218.359 47.089 M292.646 47.080 C 294.900 47.419,297.066 47.950,299.083 48.659 C 300.346 49.103,304.036 50.668,304.227 50.841 C 304.306 50.913,303.976 51.971,303.494 53.194 C 302.576 55.521,302.388 56.108,301.756 58.611 C 301.281 60.489,301.275 60.500,300.594 60.500 C 299.946 60.500,299.863 60.406,299.338 59.083 C 295.750 50.036,280.108 48.990,276.027 57.526 C 274.545 60.624,274.463 64.094,275.803 67.039 C 277.005 69.682,280.053 71.804,286.000 74.138 C 286.962 74.516,288.987 75.308,290.500 75.899 C 300.783 79.915,303.495 82.097,306.062 88.417 C 307.189 91.190,307.681 97.145,307.027 100.083 C 304.886 109.703,298.366 115.523,287.583 117.441 C 285.481 117.815,279.094 117.869,277.167 117.530 C 272.233 116.660,269.593 115.821,265.111 113.698 C 262.841 112.622,262.983 113.012,263.831 110.167 C 264.466 108.038,264.931 105.660,265.161 103.359 C 265.366 101.300,265.350 101.333,266.174 101.333 C 266.816 101.333,266.840 101.355,267.389 102.458 C 271.088 109.893,275.225 112.824,282.031 112.831 C 290.355 112.840,295.833 107.538,295.453 99.838 C 295.179 94.269,292.510 91.022,286.000 88.338 C 284.854 87.866,283.767 87.411,283.583 87.328 C 283.400 87.244,282.837 87.022,282.333 86.833 C 281.829 86.645,281.267 86.422,281.083 86.337 C 280.900 86.252,280.075 85.914,279.250 85.586 C 278.425 85.257,277.600 84.920,277.417 84.837 C 267.865 80.502,264.698 76.430,264.388 68.083 C 263.948 56.236,270.400 48.903,282.917 47.024 C 284.616 46.769,290.811 46.805,292.646 47.080 M361.652 47.089 C 365.117 47.607,372.162 49.887,373.218 50.832 C 373.291 50.898,373.023 51.769,372.621 52.768 C 371.800 54.811,371.181 56.708,370.615 58.917 L 370.231 60.417 369.550 60.467 L 368.869 60.517 368.423 59.350 C 364.781 49.820,348.110 48.951,344.669 58.111 C 343.135 62.196,343.768 66.546,346.282 69.189 C 348.383 71.398,350.929 72.671,360.536 76.314 C 363.571 77.465,366.194 78.659,367.825 79.632 C 379.001 86.298,379.202 104.421,368.191 112.716 C 361.472 117.776,350.375 119.269,340.917 116.384 C 337.058 115.207,332.013 112.956,332.140 112.468 C 332.171 112.348,332.484 111.250,332.836 110.028 C 333.435 107.950,333.687 106.639,334.207 102.917 L 334.417 101.417 335.000 101.373 C 335.768 101.316,335.793 101.340,336.683 103.083 C 340.273 110.110,344.320 112.833,351.175 112.833 C 359.028 112.833,364.500 107.688,364.500 100.303 C 364.500 94.819,361.553 91.064,355.167 88.412 C 353.929 87.899,352.767 87.412,352.583 87.330 C 352.400 87.248,351.275 86.801,350.083 86.337 C 348.892 85.872,347.767 85.423,347.583 85.339 C 347.400 85.255,346.613 84.914,345.833 84.580 C 337.603 81.056,334.037 76.635,333.315 69.057 C 332.289 58.303,338.461 49.886,349.124 47.496 C 352.159 46.816,358.458 46.612,361.652 47.089 M29.750 48.163 C 30.300 48.169,32.080 48.047,33.706 47.891 C 37.158 47.559,36.940 47.463,36.692 49.208 C 36.336 51.718,36.019 59.978,35.967 68.083 L 35.917 76.083 37.167 76.230 C 38.771 76.418,65.765 76.415,67.750 76.226 L 69.250 76.083 69.219 67.250 C 69.191 59.419,69.076 55.253,68.724 49.375 L 68.622 47.667 69.206 47.667 C 69.527 47.667,70.906 47.786,72.270 47.933 C 74.887 48.213,76.720 48.187,80.620 47.812 C 83.230 47.561,83.079 47.467,82.853 49.198 C 82.754 49.960,82.630 51.296,82.579 52.167 C 82.527 53.038,82.415 54.837,82.330 56.167 C 82.245 57.496,82.135 59.933,82.086 61.583 C 81.343 86.532,81.462 106.888,82.395 114.563 L 82.616 116.375 80.866 116.258 C 79.904 116.194,78.696 116.072,78.183 115.988 C 76.977 115.790,73.684 115.791,72.473 115.990 C 71.954 116.075,70.829 116.196,69.973 116.259 L 68.417 116.373 68.459 115.312 C 68.482 114.728,68.577 113.050,68.670 111.583 C 69.104 104.720,69.332 97.436,69.332 90.393 L 69.333 82.703 67.542 82.597 C 58.880 82.081,47.163 82.081,37.792 82.596 L 35.833 82.704 35.842 89.143 C 35.855 100.054,36.178 109.742,36.682 114.381 C 36.921 116.575,37.063 116.445,34.703 116.179 C 31.438 115.811,28.752 115.775,26.208 116.067 C 24.930 116.213,23.612 116.333,23.278 116.333 L 22.672 116.333 22.749 115.375 C 22.816 114.549,22.958 111.170,23.245 103.583 C 23.819 88.413,23.688 61.212,23.001 52.667 C 22.916 51.612,22.798 50.033,22.739 49.156 L 22.632 47.561 25.691 47.856 C 27.373 48.019,29.200 48.157,29.750 48.163 M133.242 66.508 C 137.214 66.672,140.473 67.034,142.833 67.574 C 145.214 68.118,145.484 68.196,145.646 68.392 C 145.954 68.763,145.570 69.008,144.153 69.345 C 139.257 70.508,136.035 73.028,135.274 76.289 C 134.937 77.737,134.663 80.822,133.415 97.250 C 133.269 99.175,133.080 101.650,132.996 102.750 C 132.911 103.850,132.728 106.400,132.589 108.417 C 132.450 110.433,132.301 112.308,132.259 112.583 C 132.217 112.858,132.137 113.946,132.082 115.000 C 132.027 116.054,131.913 117.592,131.831 118.417 C 131.748 119.242,131.633 120.892,131.576 122.083 C 131.343 126.932,130.658 128.618,129.168 128.000 C 128.254 127.622,127.970 126.472,127.661 121.917 C 127.431 118.523,127.169 114.900,126.251 102.417 C 125.964 98.510,125.608 93.847,125.259 89.417 C 125.122 87.675,124.930 85.237,124.833 84.000 C 124.736 82.762,124.622 81.505,124.579 81.205 C 124.536 80.905,124.424 79.787,124.331 78.721 C 123.846 73.190,121.022 70.568,113.958 69.090 C 113.475 68.988,113.358 68.654,113.708 68.374 C 114.611 67.650,120.633 66.701,125.525 66.511 C 127.299 66.442,128.825 66.375,128.917 66.361 C 129.008 66.348,130.955 66.414,133.242 66.508 " stroke="none" fill="#fbfbfb" fill-rule="evenodd"></path></g></svg>