<svg id="svg" version="1.1" xmlns="http://www.w3.org/2000/svg" xmlns:xlink="http://www.w3.org/1999/xlink" width="400" height="216.25441696113074" viewBox="0, 0, 400,216.25441696113074"><g id="svgg"><path id="path0" d="M41.078 20.144 C 40.267 20.442,40.242 20.870,40.240 34.783 C 40.238 49.229,40.251 49.318,42.234 47.972 C 43.245 47.285,50.482 40.001,50.965 39.184 C 51.185 38.811,51.514 38.459,51.696 38.400 C 51.879 38.341,53.360 36.954,54.987 35.318 C 59.199 31.082,59.974 30.309,63.246 27.081 C 69.172 21.235,69.784 20.527,69.197 20.201 C 68.569 19.853,42.019 19.799,41.078 20.144 M68.718 52.755 C 68.021 53.426,66.610 54.835,65.581 55.887 C 64.552 56.939,62.947 58.545,62.015 59.457 C 60.196 61.236,44.190 77.256,43.774 77.713 C 43.637 77.864,43.053 78.425,42.476 78.959 C 41.900 79.493,41.160 80.464,40.833 81.117 L 40.238 82.304 40.238 136.806 C 40.238 183.555,40.282 191.465,40.549 192.409 C 40.720 193.015,40.957 194.232,41.075 195.115 C 41.216 196.167,41.445 196.913,41.740 197.279 C 41.987 197.586,42.276 198.037,42.382 198.282 C 42.824 199.299,47.283 203.353,47.960 203.353 C 48.188 203.353,49.051 203.694,49.877 204.110 L 51.379 204.866 55.168 204.867 C 58.904 204.867,58.975 204.859,60.252 204.242 C 60.964 203.898,61.888 203.548,62.304 203.463 C 63.091 203.303,63.257 203.181,64.946 201.535 C 65.507 200.988,66.043 200.541,66.137 200.541 C 66.231 200.541,66.648 200.091,67.064 199.540 C 67.480 198.990,68.137 198.242,68.524 197.878 C 69.073 197.360,69.227 197.040,69.227 196.407 C 69.227 195.840,69.405 195.387,69.822 194.891 L 70.416 194.184 70.525 123.553 C 70.620 61.069,70.595 52.841,70.308 52.228 L 69.984 51.536 68.718 52.755 " stroke="none" fill="#14465a" fill-rule="evenodd"></path><path id="path1" d="M228.448 20.310 L 226.609 20.443 226.438 21.958 C 226.144 24.558,226.578 50.078,226.891 48.567 C 227.025 47.916,227.364 47.593,227.910 47.593 C 228.411 47.593,228.664 47.228,228.664 46.506 C 228.664 46.102,229.152 45.753,230.660 45.079 C 231.104 44.881,231.523 44.543,231.591 44.328 C 231.659 44.114,231.907 43.877,232.142 43.802 C 232.377 43.728,232.736 43.406,232.939 43.088 C 233.262 42.581,233.553 42.242,234.646 41.103 C 234.783 40.960,235.075 40.653,235.295 40.421 C 235.871 39.812,237.748 37.948,238.507 37.231 C 238.864 36.894,239.331 36.558,239.545 36.484 C 239.759 36.410,240.036 36.056,240.161 35.698 C 240.286 35.339,240.470 35.046,240.571 35.046 C 240.671 35.046,241.379 34.413,242.145 33.640 C 242.911 32.866,243.643 32.234,243.773 32.234 C 243.903 32.234,244.122 32.015,244.260 31.747 C 244.481 31.317,244.936 30.795,245.941 29.816 C 246.103 29.659,246.687 29.050,247.239 28.463 C 247.791 27.877,248.418 27.244,248.634 27.057 C 248.849 26.870,249.336 26.416,249.715 26.049 C 250.095 25.681,250.573 25.320,250.777 25.247 C 250.982 25.173,251.294 24.767,251.471 24.344 C 251.648 23.921,251.934 23.520,252.107 23.453 C 252.280 23.387,252.479 23.103,252.550 22.822 C 252.620 22.541,252.866 22.252,253.095 22.179 C 253.546 22.036,254.509 20.580,254.294 20.366 C 254.119 20.190,230.787 20.140,228.448 20.310 M302.518 20.324 C 302.148 20.412,301.613 20.648,301.328 20.848 C 301.044 21.048,300.422 21.311,299.946 21.432 C 299.144 21.637,297.320 22.427,295.511 23.352 C 295.028 23.600,294.473 24.200,293.977 25.012 C 293.550 25.712,292.868 26.510,292.463 26.785 C 292.057 27.061,291.604 27.517,291.456 27.798 C 291.307 28.080,290.997 28.370,290.767 28.443 C 290.506 28.526,290.214 28.978,289.995 29.636 C 289.802 30.218,289.452 30.938,289.218 31.236 C 288.484 32.169,288.178 35.393,288.350 40.370 C 288.447 43.186,289.450 43.812,293.813 43.774 C 296.510 43.751,298.352 43.429,298.787 42.905 C 299.023 42.620,299.329 38.643,299.389 35.072 C 299.438 32.183,305.118 29.865,307.799 31.639 C 308.294 31.966,308.792 32.234,308.907 32.234 C 309.022 32.234,309.553 32.769,310.086 33.424 C 311.322 34.941,311.362 35.259,311.268 42.644 L 311.195 48.388 310.617 49.235 C 310.299 49.700,309.933 50.484,309.804 50.975 C 309.675 51.467,309.431 51.985,309.262 52.125 C 309.092 52.266,308.406 53.462,307.737 54.784 C 307.067 56.105,306.296 57.453,306.022 57.778 C 305.748 58.104,305.464 58.746,305.390 59.206 C 305.317 59.666,305.011 60.375,304.711 60.782 C 304.410 61.190,304.164 61.628,304.164 61.757 C 304.164 61.886,303.883 62.238,303.539 62.540 C 303.087 62.937,302.843 63.429,302.659 64.315 C 302.519 64.990,302.303 65.604,302.179 65.681 C 302.054 65.758,301.720 66.347,301.436 66.990 C 301.151 67.633,300.778 68.213,300.606 68.279 C 300.434 68.345,300.172 68.940,300.024 69.601 C 299.876 70.261,299.554 71.105,299.308 71.475 C 299.062 71.845,298.744 72.410,298.602 72.731 C 298.459 73.051,298.095 73.476,297.792 73.675 C 297.490 73.873,297.242 74.215,297.242 74.434 C 297.242 74.917,295.411 78.460,294.839 79.083 C 294.614 79.329,294.284 80.021,294.106 80.622 C 293.927 81.223,293.586 81.962,293.348 82.265 C 293.110 82.568,292.915 82.933,292.915 83.077 C 292.915 83.221,292.627 83.667,292.275 84.068 C 291.923 84.469,291.534 85.175,291.409 85.637 C 291.285 86.099,290.978 86.738,290.726 87.057 C 290.475 87.376,290.137 88.078,289.975 88.616 C 289.813 89.154,289.435 89.887,289.135 90.244 C 288.834 90.601,288.588 91.162,288.588 91.491 C 288.588 91.820,288.443 92.567,288.266 93.151 C 287.655 95.167,288.101 102.091,288.875 102.593 C 289.319 102.881,321.195 102.688,321.488 102.396 C 322.037 101.846,322.100 93.133,321.559 92.592 C 321.096 92.129,317.494 91.829,313.899 91.953 C 309.300 92.112,303.179 91.860,302.295 91.475 L 301.626 91.184 301.911 89.816 C 302.068 89.063,302.393 88.138,302.632 87.761 C 303.293 86.718,304.746 83.714,305.024 82.815 C 305.160 82.376,305.471 81.762,305.717 81.450 C 305.962 81.138,306.324 80.475,306.520 79.976 C 306.717 79.478,307.348 78.347,307.924 77.463 C 308.499 76.579,309.109 75.463,309.279 74.981 C 309.448 74.500,309.767 73.909,309.986 73.668 C 310.205 73.426,310.502 72.864,310.644 72.418 C 310.787 71.972,311.087 71.480,311.310 71.323 C 311.778 70.996,312.169 70.084,312.169 69.321 C 312.169 69.017,312.488 68.456,312.926 67.992 C 313.342 67.551,313.683 67.077,313.683 66.939 C 313.683 66.802,313.889 66.427,314.140 66.108 C 314.392 65.788,314.734 65.074,314.900 64.521 C 315.066 63.969,315.380 63.316,315.596 63.072 C 315.812 62.828,316.112 62.190,316.261 61.655 C 316.411 61.120,316.756 60.292,317.029 59.816 C 317.301 59.340,317.594 58.629,317.679 58.235 C 317.764 57.841,318.111 57.234,318.451 56.887 C 318.791 56.539,319.163 55.914,319.278 55.497 C 319.393 55.080,319.688 54.484,319.933 54.173 C 320.178 53.862,320.440 53.252,320.515 52.817 C 320.590 52.383,320.894 51.651,321.191 51.189 C 322.318 49.436,322.378 34.154,321.263 32.736 C 321.044 32.457,320.704 31.508,320.508 30.627 C 320.238 29.413,320.027 28.943,319.638 28.688 C 319.355 28.503,319.057 28.138,318.974 27.878 C 318.892 27.618,318.422 26.896,317.930 26.273 C 317.439 25.650,316.767 24.748,316.439 24.268 C 316.042 23.688,315.570 23.308,315.033 23.133 C 314.588 22.988,313.699 22.591,313.058 22.251 C 312.416 21.911,311.768 21.633,311.617 21.633 C 311.467 21.633,310.872 21.389,310.296 21.090 C 308.632 20.227,304.591 19.829,302.518 20.324 M346.566 20.321 C 345.911 20.416,345.035 20.645,344.619 20.829 C 344.202 21.013,343.034 21.424,342.023 21.742 C 341.011 22.060,339.877 22.458,339.502 22.626 C 339.127 22.794,338.706 22.931,338.567 22.931 C 338.226 22.931,335.834 25.402,335.195 26.413 C 334.915 26.858,334.591 27.280,334.476 27.350 C 334.362 27.421,334.205 27.768,334.127 28.120 C 334.050 28.472,333.696 29.072,333.341 29.452 C 332.914 29.909,332.626 30.515,332.489 31.242 C 332.376 31.847,332.065 32.634,331.798 32.991 L 331.314 33.640 331.256 61.638 L 331.198 89.635 331.777 90.470 C 332.119 90.964,332.434 91.809,332.549 92.541 C 332.656 93.220,332.921 93.972,333.139 94.211 C 333.357 94.450,333.706 94.986,333.916 95.403 C 334.125 95.819,334.823 96.731,335.466 97.428 C 336.109 98.125,336.783 98.920,336.962 99.194 C 337.142 99.468,337.669 99.845,338.133 100.031 C 338.598 100.216,339.137 100.611,339.331 100.908 C 339.557 101.253,339.971 101.498,340.475 101.586 C 340.910 101.662,341.647 101.981,342.113 102.295 L 342.961 102.866 348.424 102.866 C 353.698 102.866,353.904 102.851,354.390 102.405 C 354.982 101.863,356.151 101.244,356.581 101.244 C 356.747 101.244,357.051 101.057,357.258 100.830 C 357.464 100.602,358.320 99.993,359.161 99.478 C 361.140 98.263,362.515 96.549,362.931 94.775 C 363.003 94.466,363.299 93.959,363.587 93.648 C 363.876 93.338,364.247 92.571,364.412 91.945 C 364.578 91.319,364.913 90.593,365.158 90.332 C 365.831 89.616,365.865 34.771,365.193 33.665 C 364.967 33.294,364.606 32.407,364.390 31.693 C 364.174 30.979,363.788 30.103,363.533 29.746 C 362.987 28.984,362.027 27.180,361.726 26.354 C 361.610 26.035,361.194 25.617,360.801 25.425 C 360.408 25.233,359.706 24.593,359.240 24.004 C 358.604 23.198,358.250 22.931,357.817 22.931 C 357.500 22.931,356.810 22.651,356.284 22.309 C 355.758 21.966,354.792 21.564,354.137 21.414 C 353.483 21.264,352.563 20.948,352.093 20.712 C 351.120 20.223,348.514 20.039,346.566 20.321 M350.545 31.561 C 350.875 31.905,351.411 32.240,351.737 32.305 C 352.502 32.458,353.591 33.569,354.319 34.938 L 354.895 36.019 354.943 61.547 L 354.991 87.074 354.120 88.811 C 352.819 91.407,351.531 92.133,348.158 92.177 C 346.348 92.200,346.007 92.145,345.512 91.749 C 345.199 91.499,344.594 91.106,344.168 90.875 C 343.539 90.534,343.253 90.135,342.653 88.765 L 341.915 87.074 341.915 61.655 L 341.915 36.236 342.517 35.093 C 343.995 32.287,345.759 31.245,349.500 30.969 C 349.745 30.950,350.216 31.217,350.545 31.561 M253.280 54.895 C 252.964 55.222,252.358 55.782,251.934 56.138 C 250.662 57.209,249.159 58.752,248.270 59.901 C 247.809 60.496,246.930 61.384,246.315 61.875 C 245.701 62.365,244.722 63.343,244.140 64.047 C 243.557 64.752,242.904 65.384,242.687 65.453 C 242.470 65.522,242.293 65.683,242.293 65.810 C 242.293 66.119,240.137 68.145,239.809 68.145 C 239.667 68.145,239.171 68.639,238.705 69.243 C 238.239 69.847,237.691 70.505,237.486 70.704 C 236.563 71.600,229.079 79.104,228.818 79.394 C 228.658 79.573,228.081 80.117,227.537 80.605 L 226.547 81.490 226.402 83.741 C 226.322 84.979,226.287 110.395,226.324 140.220 L 226.393 194.447 226.846 195.060 C 227.095 195.397,227.474 196.014,227.687 196.431 C 228.190 197.413,229.644 199.132,232.364 201.964 C 233.337 202.977,233.551 203.091,235.114 203.426 C 236.046 203.627,236.996 203.932,237.225 204.106 C 237.915 204.627,244.324 204.567,245.327 204.030 C 245.743 203.807,246.591 203.554,247.213 203.469 C 248.942 203.231,253.520 198.901,254.233 196.828 C 254.370 196.431,254.709 195.760,254.986 195.337 C 255.451 194.629,255.508 194.222,255.696 190.253 C 255.985 184.155,255.972 187.303,255.984 120.930 C 255.990 87.674,255.999 59.978,256.004 59.383 C 256.014 58.223,255.615 55.740,255.275 54.846 C 254.986 54.085,254.040 54.108,253.280 54.895 M303.929 120.693 C 303.622 120.792,303.131 121.030,302.840 121.221 C 302.549 121.412,301.551 121.681,300.624 121.819 C 299.465 121.991,298.756 122.221,298.360 122.552 C 297.835 122.990,297.175 123.383,295.212 124.425 C 294.841 124.622,293.972 125.474,293.281 126.318 C 292.590 127.162,291.933 127.853,291.821 127.853 C 291.709 127.853,291.617 127.981,291.617 128.137 C 291.617 128.293,291.330 128.696,290.979 129.033 C 290.627 129.369,290.281 129.915,290.208 130.246 C 290.135 130.577,289.775 131.303,289.407 131.859 C 288.378 133.412,287.757 142.706,288.625 143.550 C 289.512 144.412,294.145 144.683,297.350 144.060 C 299.148 143.711,299.067 143.908,299.196 139.597 C 299.319 135.468,299.376 135.238,300.652 133.731 C 301.679 132.516,305.097 131.923,307.401 132.558 C 308.615 132.893,308.893 133.070,309.518 133.914 C 309.914 134.447,310.478 135.153,310.771 135.482 C 311.064 135.812,311.312 136.201,311.323 136.348 C 311.655 140.848,311.208 148.856,310.559 150.027 C 310.296 150.503,309.909 151.354,309.701 151.919 C 309.492 152.484,309.198 153.019,309.048 153.109 C 308.898 153.199,308.597 153.759,308.380 154.354 C 308.164 154.949,307.820 155.630,307.616 155.868 C 307.413 156.106,307.127 156.674,306.980 157.131 C 306.834 157.587,306.433 158.212,306.088 158.519 C 305.744 158.825,305.462 159.279,305.462 159.527 C 305.461 159.775,305.169 160.562,304.813 161.276 C 304.457 161.990,304.166 162.679,304.165 162.807 C 304.165 162.935,303.924 163.265,303.631 163.541 C 303.337 163.817,302.942 164.508,302.753 165.077 C 302.565 165.645,302.260 166.235,302.077 166.387 C 301.894 166.539,301.521 167.106,301.249 167.648 C 300.976 168.189,300.547 169.017,300.296 169.489 C 300.044 169.960,299.838 170.512,299.838 170.716 C 299.838 170.920,299.613 171.362,299.337 171.698 C 299.062 172.034,298.665 172.772,298.454 173.337 C 298.244 173.902,297.978 174.365,297.864 174.365 C 297.750 174.365,297.377 174.986,297.037 175.746 C 296.696 176.506,296.327 177.163,296.217 177.206 C 296.107 177.250,295.257 178.891,294.328 180.855 C 293.399 182.818,292.453 184.629,292.227 184.880 C 292.001 185.131,291.721 185.679,291.605 186.098 C 291.489 186.517,291.104 187.226,290.749 187.673 C 290.393 188.120,290.103 188.605,290.103 188.750 C 290.103 188.895,289.822 189.588,289.479 190.289 C 288.015 193.280,288.048 193.103,288.048 198.107 C 288.048 203.355,287.926 203.035,289.988 203.247 C 292.689 203.525,321.428 203.267,321.731 202.962 C 322.085 202.605,322.111 193.307,321.759 192.954 C 321.617 192.813,318.279 192.694,312.580 192.627 C 302.991 192.516,302.556 192.490,301.848 191.994 L 301.386 191.670 301.894 190.022 C 302.174 189.116,302.641 188.118,302.933 187.805 C 303.225 187.492,303.577 186.881,303.715 186.447 C 303.854 186.013,304.158 185.438,304.391 185.169 C 304.624 184.900,304.915 184.308,305.038 183.852 C 305.161 183.397,305.501 182.765,305.794 182.448 C 306.088 182.132,306.328 181.755,306.328 181.610 C 306.328 181.465,306.615 180.985,306.966 180.544 C 307.349 180.062,307.662 179.352,307.750 178.768 C 307.830 178.233,308.130 177.517,308.415 177.178 C 308.701 176.838,309.045 176.237,309.180 175.841 C 309.315 175.445,309.645 174.856,309.913 174.532 C 310.181 174.208,310.521 173.575,310.667 173.126 C 310.814 172.677,311.154 172.044,311.425 171.720 C 311.695 171.395,311.983 170.825,312.065 170.452 C 312.146 170.080,312.441 169.440,312.719 169.030 C 312.997 168.621,313.339 167.926,313.480 167.485 C 313.621 167.045,313.908 166.490,314.117 166.252 C 314.326 166.014,314.669 165.479,314.878 165.062 C 315.087 164.646,315.476 164.044,315.742 163.726 C 316.008 163.407,316.293 162.774,316.376 162.319 C 316.582 161.195,318.124 158.009,318.540 157.849 C 318.724 157.778,318.875 157.586,318.875 157.421 C 318.875 157.256,319.264 156.352,319.739 155.413 C 320.215 154.473,320.604 153.533,320.605 153.322 C 320.605 153.112,320.882 152.422,321.219 151.790 L 321.833 150.640 321.968 145.033 C 322.137 137.993,321.932 134.450,321.304 133.566 C 321.058 133.220,320.750 132.413,320.620 131.774 C 320.375 130.577,319.185 128.397,318.227 127.393 C 317.929 127.080,317.442 126.503,317.144 126.110 C 315.949 124.530,312.674 122.483,310.398 121.893 C 309.661 121.702,308.706 121.367,308.276 121.147 C 307.389 120.695,304.770 120.421,303.929 120.693 M346.666 120.683 C 346.448 120.726,345.922 120.989,345.498 121.268 C 345.074 121.546,344.116 121.871,343.369 121.990 C 342.610 122.111,341.762 122.402,341.447 122.650 C 341.137 122.894,340.661 123.094,340.389 123.094 C 340.073 123.094,339.652 123.401,339.216 123.951 C 338.747 124.544,338.307 124.852,337.792 124.949 C 337.382 125.026,337.047 125.200,337.046 125.335 C 337.046 125.471,336.406 126.263,335.625 127.096 C 334.844 127.929,334.024 129.015,333.804 129.510 C 333.583 130.004,333.257 130.491,333.080 130.591 C 332.900 130.693,332.614 131.473,332.431 132.361 C 332.251 133.234,331.926 134.145,331.709 134.384 C 331.194 134.953,330.974 143.194,331.464 143.576 C 332.486 144.374,338.434 144.650,340.230 143.984 C 341.641 143.460,341.608 143.552,341.799 139.583 C 341.964 136.162,342.416 134.841,343.690 134.060 C 343.847 133.964,344.209 133.633,344.496 133.324 C 345.006 132.773,346.814 132.308,348.296 132.344 C 353.186 132.465,354.460 134.072,354.774 140.508 C 354.971 144.576,354.872 146.302,354.367 147.539 C 354.149 148.075,353.864 149.089,353.733 149.793 C 353.602 150.503,353.302 151.279,353.060 151.536 C 352.821 151.791,352.473 152.447,352.287 152.993 C 352.100 153.539,351.763 154.153,351.537 154.357 C 351.311 154.562,350.962 155.226,350.760 155.833 C 350.443 156.788,349.951 157.712,348.782 159.551 C 348.632 159.786,348.349 160.319,348.153 160.736 C 346.075 165.138,344.825 167.482,344.270 168.021 C 344.018 168.265,343.743 168.843,343.657 169.305 C 343.572 169.768,343.318 170.343,343.094 170.585 C 342.870 170.826,342.534 171.456,342.347 171.985 C 342.161 172.514,341.821 173.145,341.593 173.388 C 341.365 173.631,341.028 174.190,340.844 174.630 C 340.660 175.070,340.326 175.529,340.102 175.649 C 339.839 175.789,339.642 176.214,339.547 176.844 C 339.348 178.175,338.015 180.993,337.393 181.401 C 337.076 181.609,336.837 182.030,336.758 182.518 C 336.688 182.949,336.399 183.554,336.115 183.863 C 335.832 184.171,335.379 184.984,335.109 185.668 C 334.838 186.352,334.544 186.912,334.455 186.912 C 334.366 186.912,334.119 187.374,333.906 187.939 C 333.693 188.505,333.290 189.242,333.011 189.579 C 332.732 189.915,332.504 190.333,332.504 190.507 C 332.504 190.681,332.218 191.379,331.868 192.059 L 331.232 193.294 331.167 198.091 C 331.131 200.730,331.182 202.969,331.280 203.067 C 331.513 203.300,363.103 203.420,364.458 203.193 L 365.495 203.019 365.560 198.913 C 365.642 193.708,365.559 193.061,364.782 192.858 C 364.460 192.774,360.254 192.678,355.435 192.644 C 344.074 192.565,343.952 192.532,345.351 189.900 C 345.635 189.367,345.934 188.625,346.015 188.253 C 346.097 187.880,346.391 187.241,346.668 186.833 C 346.945 186.425,347.241 185.862,347.326 185.582 C 347.410 185.302,347.700 184.830,347.970 184.532 C 348.595 183.842,348.945 183.159,348.945 182.630 C 348.945 182.401,349.285 181.786,349.700 181.264 C 350.116 180.741,350.457 180.216,350.458 180.097 C 350.459 179.978,350.741 179.346,351.084 178.691 C 351.426 178.037,351.773 177.192,351.854 176.813 C 351.935 176.435,352.152 176.001,352.335 175.848 C 352.519 175.696,352.896 175.057,353.175 174.427 C 353.453 173.798,353.764 173.283,353.866 173.283 C 353.968 173.283,354.232 172.781,354.453 172.167 C 354.674 171.554,355.021 170.885,355.224 170.682 C 355.427 170.478,355.769 169.837,355.984 169.256 C 356.198 168.674,356.488 168.053,356.626 167.875 C 356.765 167.696,357.009 167.221,357.169 166.818 C 357.328 166.416,357.670 165.832,357.928 165.520 C 358.186 165.209,358.574 164.484,358.790 163.911 C 359.007 163.337,359.345 162.655,359.542 162.396 C 359.738 162.137,360.030 161.585,360.190 161.168 C 360.350 160.752,360.645 160.216,360.845 159.978 C 361.045 159.740,361.435 158.913,361.711 158.140 C 361.988 157.366,362.642 155.857,363.165 154.786 C 363.700 153.691,364.250 152.153,364.424 151.269 C 364.593 150.405,364.927 149.313,365.167 148.843 C 365.572 148.051,365.603 147.576,365.603 142.277 L 365.603 136.566 364.986 135.790 C 364.485 135.159,364.346 134.726,364.241 133.480 C 364.141 132.291,363.994 131.805,363.587 131.321 C 363.298 130.977,362.994 130.340,362.913 129.905 C 362.831 129.470,362.478 128.649,362.128 128.081 C 361.779 127.513,361.493 126.977,361.493 126.890 C 361.493 126.675,359.574 124.824,359.351 124.824 C 359.150 124.824,356.537 122.928,356.007 122.398 C 355.813 122.204,355.078 121.991,354.306 121.905 C 353.526 121.819,352.579 121.543,352.082 121.257 C 351.253 120.780,347.959 120.431,346.666 120.683 " stroke="none" fill="#ec792e" fill-rule="evenodd"></path><path id="path2" d="M191.933 54.945 C 191.156 55.129,190.701 55.476,189.525 56.780 C 185.308 61.455,183.530 63.210,182.566 63.653 C 181.511 64.137,181.163 64.671,180.736 66.459 C 180.550 67.236,180.370 67.355,178.530 67.905 C 177.001 68.361,176.947 68.402,176.390 69.503 C 175.555 71.151,174.958 71.857,172.990 73.519 C 169.845 76.176,167.334 78.984,165.317 82.098 C 164.481 83.388,164.388 88.036,164.442 125.690 C 164.490 158.657,164.417 162.396,163.673 165.127 C 163.485 165.817,163.332 166.430,163.332 166.489 C 163.332 166.848,160.288 169.577,159.653 169.787 C 159.084 169.975,158.763 170.291,158.356 171.059 C 157.873 171.972,157.677 172.129,156.517 172.528 C 155.803 172.774,154.957 173.149,154.638 173.362 C 153.739 173.958,152.080 174.315,149.425 174.482 C 148.091 174.566,146.852 174.710,146.674 174.802 C 146.229 175.032,142.205 174.014,141.459 173.483 C 141.128 173.248,140.509 172.909,140.082 172.731 C 137.257 171.550,135.930 170.230,135.354 168.024 C 135.136 167.189,134.765 166.486,134.229 165.893 C 132.426 163.897,131.761 160.926,131.983 155.868 C 132.286 148.984,132.090 68.755,131.769 68.037 C 131.408 67.228,131.444 65.604,131.881 62.981 C 132.289 60.537,131.999 56.235,131.380 55.551 C 130.366 54.430,127.859 56.008,125.257 59.405 C 124.721 60.104,123.157 61.845,121.781 63.275 C 120.405 64.704,119.113 66.140,118.911 66.466 C 118.486 67.151,117.419 67.742,115.710 68.239 C 114.193 68.680,113.784 69.151,113.160 71.174 C 112.561 73.113,112.479 73.227,111.304 73.747 C 110.801 73.970,110.059 74.511,109.656 74.949 C 109.253 75.388,108.110 76.592,107.116 77.625 C 106.122 78.657,104.710 80.281,103.979 81.233 L 102.650 82.964 102.650 85.343 C 102.650 86.652,102.659 88.210,102.671 88.805 C 102.682 89.400,102.655 105.024,102.610 123.526 C 102.525 158.139,102.588 161.542,103.371 164.763 C 103.599 165.701,103.897 167.183,104.032 168.057 C 104.168 168.931,104.460 170.100,104.683 170.653 C 105.166 171.856,106.148 174.778,106.476 175.987 C 106.604 176.463,106.940 177.400,107.222 178.069 C 107.503 178.739,107.734 179.539,107.734 179.848 C 107.734 180.225,107.954 180.571,108.404 180.902 C 108.773 181.173,109.223 181.687,109.404 182.044 C 110.280 183.764,111.068 184.744,111.758 184.972 C 112.478 185.210,113.153 186.478,113.511 188.269 C 113.596 188.695,113.877 189.004,114.443 189.293 C 114.888 189.520,115.630 190.132,116.090 190.651 C 116.551 191.171,117.404 191.874,117.986 192.213 C 118.567 192.552,120.113 193.883,121.421 195.171 C 122.729 196.459,123.915 197.512,124.057 197.512 C 124.200 197.512,124.543 197.754,124.820 198.049 C 125.158 198.409,125.746 198.668,126.605 198.837 C 127.309 198.976,128.243 199.333,128.680 199.632 C 129.117 199.930,129.979 200.352,130.594 200.570 C 131.210 200.788,132.149 201.259,132.681 201.619 C 133.213 201.978,133.763 202.271,133.903 202.271 C 134.043 202.271,134.564 202.505,135.062 202.789 C 136.916 203.852,150.181 204.315,157.058 203.557 C 158.188 203.432,159.929 203.243,160.927 203.136 C 162.229 202.996,162.870 202.822,163.198 202.519 C 164.079 201.705,167.658 199.846,169.498 199.246 C 170.894 198.790,173.039 197.487,174.343 196.303 C 175.862 194.923,177.734 193.691,179.069 193.193 C 180.132 192.796,180.209 192.699,181.306 190.343 C 181.584 189.745,182.510 188.615,183.596 187.549 C 185.368 185.810,186.930 183.557,187.252 182.276 C 187.345 181.905,187.774 181.408,188.356 180.998 C 188.927 180.595,189.350 180.109,189.415 179.780 C 189.679 178.443,190.247 176.758,190.813 175.629 C 191.790 173.684,193.109 169.430,193.279 167.680 C 193.364 166.800,193.670 165.426,193.958 164.628 L 194.482 163.177 194.470 111.907 C 194.464 83.708,194.516 60.403,194.586 60.118 C 194.803 59.230,194.363 55.142,194.027 54.929 C 193.673 54.705,192.922 54.711,191.933 54.945 " stroke="none" fill="#dcdc35" fill-rule="evenodd"></path><path id="path3" d="M0.000 108.167 L 0.000 216.333 200.000 216.333 L 400.000 216.333 400.000 108.167 L 400.000 0.000 200.000 0.000 L 0.000 0.000 0.000 108.167 M255.216 19.379 C 256.379 19.614,256.576 21.180,255.486 21.526 C 255.246 21.602,254.910 21.998,254.740 22.406 C 254.569 22.814,254.330 23.148,254.208 23.148 C 254.086 23.148,253.836 23.438,253.652 23.794 C 253.469 24.149,253.096 24.495,252.824 24.563 C 252.539 24.635,252.228 24.957,252.090 25.324 C 251.927 25.755,251.700 25.960,251.387 25.960 C 251.067 25.960,250.854 26.161,250.697 26.610 C 250.558 27.009,250.272 27.310,249.959 27.389 C 249.678 27.460,249.392 27.691,249.325 27.904 C 249.257 28.117,248.986 28.533,248.722 28.828 C 248.458 29.124,248.073 29.573,247.866 29.826 C 247.659 30.079,247.300 30.287,247.069 30.287 C 246.825 30.287,246.585 30.488,246.496 30.769 C 246.412 31.034,246.064 31.511,245.724 31.829 C 245.384 32.147,245.105 32.563,245.105 32.753 C 245.105 32.993,244.907 33.099,244.456 33.099 C 244.016 33.099,243.807 33.206,243.807 33.432 C 243.807 33.846,241.738 35.911,241.323 35.911 C 241.156 35.911,240.892 36.175,240.737 36.497 C 240.581 36.819,240.217 37.139,239.927 37.207 C 239.601 37.283,239.344 37.541,239.252 37.884 C 239.070 38.565,236.470 41.241,235.709 41.530 C 235.390 41.652,235.154 41.911,235.154 42.141 C 235.154 42.360,234.911 42.751,234.613 43.010 C 234.310 43.274,234.072 43.714,234.072 44.014 C 234.072 44.454,233.920 44.589,233.207 44.781 C 232.731 44.909,232.342 45.113,232.342 45.233 C 232.342 45.354,232.065 45.549,231.727 45.667 C 231.388 45.785,230.898 46.169,230.638 46.521 C 230.378 46.873,230.033 47.161,229.871 47.161 C 229.709 47.161,229.516 47.403,229.441 47.698 C 229.358 48.032,229.100 48.287,228.761 48.373 C 228.462 48.448,228.075 48.783,227.902 49.118 C 227.378 50.130,226.151 50.158,225.745 49.168 C 225.515 48.607,225.228 23.970,225.438 22.880 C 225.536 22.373,225.621 21.559,225.626 21.072 C 225.645 19.277,224.936 19.377,238.584 19.250 C 250.219 19.142,254.198 19.173,255.216 19.379 M70.110 19.700 C 71.244 20.294,71.226 20.320,66.328 25.143 C 63.757 27.675,61.435 29.947,61.168 30.192 C 60.900 30.438,60.268 31.071,59.763 31.599 C 59.257 32.126,58.722 32.681,58.573 32.831 C 58.424 32.981,57.086 34.329,55.600 35.827 C 54.114 37.324,52.632 38.688,52.305 38.856 C 51.978 39.025,51.560 39.455,51.376 39.812 C 50.785 40.954,42.047 49.512,41.074 49.902 C 39.389 50.576,39.489 51.476,39.422 34.968 L 39.364 20.410 39.824 19.994 C 40.499 19.383,68.977 19.106,70.110 19.700 M311.459 19.926 C 311.827 20.236,312.520 20.553,312.999 20.629 C 313.617 20.728,313.999 20.949,314.311 21.388 C 314.612 21.811,315.009 22.049,315.562 22.139 C 316.007 22.211,316.618 22.505,316.920 22.792 C 318.784 24.564,319.513 25.368,319.646 25.798 C 319.730 26.066,320.111 26.634,320.494 27.060 C 321.014 27.641,321.228 28.127,321.343 28.991 C 321.441 29.732,321.685 30.371,322.024 30.774 C 322.663 31.533,322.725 31.802,322.834 34.289 C 322.889 35.544,323.090 36.730,323.400 37.626 C 324.131 39.738,324.291 43.942,323.695 45.363 C 323.450 45.948,323.147 47.445,323.002 48.783 C 322.621 52.295,322.586 52.460,322.039 53.266 C 321.762 53.674,321.485 54.460,321.423 55.013 C 321.342 55.727,321.113 56.243,320.633 56.790 C 320.261 57.213,319.957 57.756,319.957 57.997 C 319.957 58.238,319.653 58.711,319.282 59.050 C 318.912 59.389,318.430 60.065,318.211 60.552 C 317.993 61.040,317.716 61.439,317.596 61.439 C 317.476 61.439,317.271 61.852,317.140 62.358 C 317.010 62.864,316.670 63.910,316.386 64.684 C 316.066 65.554,315.916 66.319,315.992 66.692 C 316.104 67.236,316.031 67.327,315.234 67.640 C 314.575 67.899,314.241 68.211,313.908 68.877 C 313.664 69.367,313.370 69.913,313.254 70.092 C 313.138 70.270,312.939 70.836,312.811 71.348 C 312.683 71.860,312.390 72.441,312.159 72.638 C 311.929 72.836,311.585 73.463,311.396 74.032 C 311.207 74.602,310.878 75.189,310.665 75.339 C 310.452 75.488,310.207 76.027,310.121 76.536 C 310.035 77.045,309.744 77.727,309.475 78.050 C 308.946 78.684,307.193 81.990,307.193 82.353 C 307.193 82.475,306.916 82.957,306.577 83.425 C 306.238 83.892,305.894 84.634,305.811 85.073 C 305.729 85.512,305.437 86.142,305.162 86.473 C 304.886 86.804,304.607 87.495,304.539 88.010 C 304.472 88.525,304.257 89.124,304.060 89.341 C 303.344 90.133,306.307 90.427,315.000 90.427 C 324.338 90.427,323.851 90.010,323.851 98.005 C 323.851 103.341,323.896 103.201,322.020 103.622 C 320.463 103.971,289.730 103.986,288.267 103.639 C 286.404 103.196,286.423 103.247,286.439 98.777 C 286.457 93.448,286.665 91.417,287.256 90.788 C 287.510 90.518,287.858 89.830,288.030 89.260 C 288.202 88.690,288.504 88.044,288.701 87.826 C 288.899 87.608,289.153 87.017,289.266 86.513 C 289.379 86.009,289.760 85.268,290.112 84.867 C 290.464 84.466,290.752 83.923,290.753 83.659 C 290.754 83.396,290.924 82.925,291.131 82.614 C 291.339 82.303,291.781 81.641,292.113 81.144 C 292.445 80.646,292.845 80.190,293.001 80.130 C 293.156 80.070,293.406 79.515,293.555 78.897 C 293.947 77.273,295.103 74.996,295.659 74.752 C 295.962 74.619,296.212 74.226,296.355 73.656 C 296.478 73.167,296.773 72.592,297.010 72.377 C 297.248 72.162,297.556 71.633,297.695 71.202 C 297.835 70.770,298.228 70.032,298.569 69.563 C 298.910 69.093,299.189 68.533,299.189 68.319 C 299.189 68.104,299.363 67.754,299.577 67.540 C 299.791 67.327,300.089 66.598,300.241 65.920 C 300.422 65.111,300.771 64.384,301.259 63.800 C 301.667 63.312,302.001 62.675,302.001 62.384 C 302.001 62.073,302.303 61.555,302.738 61.120 C 303.144 60.714,303.539 60.095,303.616 59.743 C 303.693 59.392,303.945 58.933,304.177 58.723 C 304.408 58.514,304.597 58.182,304.597 57.986 C 304.597 57.790,304.831 57.148,305.116 56.560 C 305.401 55.971,305.753 55.114,305.897 54.656 C 306.042 54.197,306.391 53.621,306.673 53.375 C 306.956 53.130,307.251 52.590,307.329 52.175 C 307.406 51.761,307.783 51.071,308.166 50.643 C 308.550 50.215,308.929 49.503,309.010 49.062 C 309.091 48.620,309.414 47.695,309.729 47.007 C 310.192 45.995,310.304 45.421,310.313 44.024 C 310.372 34.278,308.162 31.277,302.866 33.914 C 300.460 35.112,300.282 35.514,300.262 39.805 C 300.236 45.387,300.329 45.310,293.564 45.291 C 286.458 45.271,286.593 45.391,286.463 38.957 C 286.374 34.521,286.383 34.402,286.939 32.791 C 287.251 31.887,287.507 30.941,287.507 30.689 C 287.507 30.436,287.849 29.907,288.267 29.513 C 288.685 29.118,289.088 28.492,289.162 28.120 C 289.242 27.720,289.593 27.209,290.025 26.865 C 290.425 26.546,290.752 26.181,290.752 26.054 C 290.752 25.927,291.068 25.518,291.455 25.144 C 291.842 24.770,292.331 24.290,292.542 24.077 C 293.901 22.704,294.382 22.308,294.862 22.166 C 295.160 22.079,295.660 21.792,295.974 21.530 C 298.142 19.718,300.191 19.278,306.233 19.326 L 310.789 19.362 311.459 19.926 M353.297 19.472 C 353.937 19.593,354.705 19.866,355.003 20.078 C 355.300 20.291,356.006 20.639,356.570 20.851 C 357.135 21.062,357.681 21.387,357.785 21.571 C 357.972 21.906,359.015 22.366,360.363 22.708 C 361.319 22.951,361.653 23.265,361.829 24.082 C 361.911 24.460,362.380 25.222,362.871 25.774 C 364.412 27.505,364.924 28.344,365.175 29.550 C 365.308 30.193,365.505 30.719,365.613 30.719 C 366.588 30.719,366.572 30.259,366.644 60.898 C 366.716 91.522,366.733 90.927,365.675 93.070 C 365.397 93.631,365.170 94.293,365.170 94.541 C 365.170 95.099,364.584 96.268,364.304 96.268 C 364.190 96.268,363.899 96.658,363.656 97.134 C 363.413 97.610,363.120 97.999,363.005 97.999 C 362.890 97.999,362.548 98.392,362.245 98.872 C 361.312 100.350,360.166 101.317,358.582 101.962 C 357.759 102.297,356.808 102.805,356.470 103.089 C 356.132 103.374,355.493 103.660,355.050 103.726 C 354.608 103.793,353.418 104.003,352.407 104.195 C 348.250 104.983,347.539 105.016,345.504 104.517 C 344.470 104.264,343.064 104.056,342.380 104.056 C 340.981 104.056,340.084 103.686,339.677 102.939 C 339.340 102.322,337.311 100.811,336.819 100.811 C 336.623 100.811,336.174 100.544,335.822 100.216 C 335.470 99.889,334.821 99.342,334.380 99.000 C 333.804 98.553,333.511 98.110,333.339 97.427 C 333.207 96.905,332.821 96.126,332.480 95.698 C 332.140 95.269,331.771 94.592,331.661 94.193 C 331.551 93.795,331.267 93.196,331.030 92.863 C 330.118 91.582,330.102 90.997,330.169 60.665 L 330.233 31.659 330.809 30.904 C 331.125 30.489,331.494 29.742,331.628 29.246 C 331.803 28.595,332.050 28.250,332.512 28.011 C 332.966 27.776,333.153 27.520,333.153 27.134 C 333.153 25.259,335.202 22.983,337.449 22.362 C 338.445 22.087,338.886 21.848,339.046 21.498 C 339.167 21.231,339.570 20.904,339.942 20.770 C 340.313 20.636,341.003 20.322,341.475 20.073 C 342.903 19.318,350.439 18.936,353.297 19.472 M348.485 33.199 C 348.429 33.254,347.772 33.318,347.024 33.340 C 345.812 33.377,345.644 33.437,345.470 33.893 C 345.363 34.174,345.040 34.494,344.752 34.604 C 343.625 35.032,343.645 34.544,343.645 60.790 C 343.645 84.931,343.741 88.656,344.378 89.425 C 345.577 90.869,351.280 90.933,352.236 89.512 C 353.049 88.305,353.051 88.230,353.094 61.439 C 353.132 37.283,353.065 34.613,352.421 34.613 C 352.327 34.613,352.002 34.366,351.699 34.063 C 350.976 33.340,348.901 32.782,348.485 33.199 M70.555 51.036 L 71.065 51.449 71.131 120.857 C 71.201 194.656,71.204 194.374,70.413 195.313 C 70.137 195.641,69.843 196.294,69.758 196.765 C 69.595 197.672,69.121 198.378,68.673 198.378 C 68.525 198.378,68.294 198.692,68.160 199.077 C 67.862 199.931,66.681 201.190,66.177 201.190 C 65.974 201.190,65.607 201.531,65.361 201.947 C 65.116 202.363,64.784 202.704,64.623 202.704 C 64.463 202.704,64.125 202.984,63.872 203.327 C 63.567 203.739,63.134 204.000,62.588 204.101 C 62.134 204.185,61.563 204.439,61.319 204.666 C 60.046 205.850,50.264 205.866,49.309 204.686 C 49.106 204.436,48.523 204.138,48.013 204.023 C 47.502 203.909,46.834 203.572,46.528 203.275 C 46.221 202.978,45.561 202.339,45.060 201.854 C 44.559 201.370,44.064 200.973,43.959 200.973 C 43.854 200.973,43.657 200.729,43.521 200.429 C 43.385 200.130,43.030 199.775,42.733 199.639 C 42.436 199.504,42.132 199.189,42.056 198.940 C 41.981 198.690,41.653 198.237,41.329 197.934 C 40.820 197.458,40.717 197.148,40.585 195.692 C 40.474 194.463,40.302 193.828,39.956 193.360 L 39.481 192.717 39.425 137.040 L 39.369 81.363 39.966 80.693 C 40.558 80.027,45.737 74.684,47.447 72.974 C 47.744 72.677,48.069 72.349,48.169 72.247 C 48.269 72.145,49.227 71.187,50.297 70.119 C 51.368 69.052,52.356 68.063,52.493 67.923 C 52.799 67.611,53.519 66.890,53.861 66.555 C 54.179 66.243,55.147 65.275,55.343 65.073 C 55.424 64.990,57.899 62.533,60.844 59.612 C 63.789 56.692,66.198 54.207,66.198 54.090 C 66.198 53.974,66.466 53.732,66.793 53.554 C 67.120 53.376,67.923 52.643,68.578 51.927 C 69.924 50.452,69.866 50.478,70.555 51.036 M132.845 51.612 L 133.369 52.170 133.495 59.238 C 133.563 63.126,133.696 66.525,133.790 66.793 C 133.901 67.109,133.876 67.280,133.719 67.280 C 133.542 67.280,133.478 79.751,133.478 114.025 L 133.478 160.771 134.218 161.674 C 134.772 162.350,135.078 163.062,135.431 164.499 C 136.070 167.094,136.338 167.639,137.405 168.524 C 137.908 168.940,138.560 169.511,138.855 169.793 C 139.149 170.075,139.726 170.446,140.136 170.618 C 140.546 170.789,141.236 171.157,141.669 171.436 C 142.101 171.715,143.186 172.111,144.078 172.316 C 144.970 172.522,146.157 172.823,146.715 172.986 C 148.664 173.556,151.153 172.998,154.797 171.174 C 155.505 170.820,156.429 170.418,156.851 170.282 C 157.484 170.077,157.757 169.776,158.413 168.561 C 158.851 167.752,159.442 166.964,159.728 166.811 C 161.341 165.948,162.466 163.252,162.466 160.251 C 162.466 159.539,162.617 158.921,162.902 158.459 C 163.320 157.782,163.386 131.734,163.085 86.052 C 163.071 83.907,163.170 82.657,163.442 81.546 L 163.819 80.009 168.821 74.929 C 171.573 72.135,174.001 69.506,174.217 69.087 C 174.516 68.507,174.944 68.169,176.008 67.671 C 176.926 67.241,177.512 66.812,177.713 66.423 C 178.067 65.740,179.446 64.468,179.834 64.467 C 179.979 64.466,180.341 63.955,180.638 63.331 C 180.997 62.578,181.471 62.002,182.044 61.620 C 182.520 61.303,183.591 60.332,184.424 59.463 C 185.257 58.594,186.426 57.389,187.022 56.786 C 187.617 56.184,188.493 55.216,188.968 54.637 C 189.443 54.058,190.172 53.442,190.589 53.267 C 191.006 53.093,191.640 52.693,191.999 52.379 C 193.213 51.313,194.443 51.072,195.052 51.780 C 195.555 52.365,195.600 52.595,195.690 55.057 C 195.712 55.652,195.846 57.492,195.989 59.146 C 196.132 60.800,196.185 62.747,196.107 63.473 C 196.029 64.198,195.897 87.572,195.815 115.414 C 195.675 162.707,195.640 166.114,195.288 167.226 C 195.080 167.880,194.856 168.756,194.789 169.173 C 194.499 170.968,193.972 172.818,193.464 173.824 C 193.164 174.419,192.780 175.487,192.610 176.197 C 192.441 176.907,192.119 177.881,191.894 178.360 C 191.669 178.840,191.427 179.500,191.357 179.827 C 191.276 180.208,190.922 180.616,190.371 180.964 C 189.495 181.517,189.106 182.183,188.502 184.166 C 188.328 184.737,188.002 185.389,187.777 185.614 C 187.552 185.839,187.224 186.301,187.049 186.640 C 186.553 187.598,182.850 191.597,182.196 191.880 C 181.823 192.041,181.416 192.538,181.071 193.254 C 180.602 194.226,180.341 194.476,179.104 195.133 C 177.778 195.836,177.258 196.205,175.554 197.648 C 173.488 199.399,170.045 201.406,169.110 201.406 C 168.915 201.406,168.651 201.600,168.525 201.837 C 168.010 202.797,164.704 203.718,161.009 203.929 C 158.743 204.058,158.523 204.111,157.954 204.654 C 157.386 205.197,157.128 205.258,154.441 205.494 C 152.846 205.634,150.665 205.826,149.594 205.922 C 147.727 206.088,146.483 205.999,140.959 205.301 C 139.989 205.178,138.929 204.897,138.513 204.651 C 138.110 204.413,137.581 204.218,137.339 204.218 C 136.738 204.218,132.960 203.429,131.677 203.035 C 131.103 202.859,130.258 202.418,129.800 202.055 C 129.341 201.692,128.642 201.285,128.247 201.151 C 127.852 201.017,127.275 200.731,126.966 200.516 C 126.657 200.301,125.993 200.033,125.492 199.920 C 124.991 199.807,124.216 199.463,123.771 199.155 C 123.326 198.846,122.840 198.594,122.691 198.594 C 122.541 198.594,122.060 198.257,121.621 197.846 C 121.181 197.435,120.214 196.599,119.470 195.989 C 118.726 195.378,118.118 194.805,118.118 194.716 C 118.118 194.626,117.859 194.435,117.544 194.291 C 115.751 193.474,113.680 191.507,112.963 189.941 C 112.612 189.172,111.876 188.215,110.883 187.236 C 109.063 185.443,107.436 183.215,107.126 182.093 C 107.004 181.651,106.604 181.037,106.237 180.728 C 105.752 180.320,105.570 179.981,105.570 179.483 C 105.570 179.107,105.289 178.264,104.946 177.610 C 104.603 176.955,104.250 175.884,104.162 175.230 C 104.074 174.575,103.766 173.587,103.477 173.033 C 103.101 172.315,102.890 171.418,102.736 169.897 C 102.599 168.540,102.352 167.415,102.056 166.798 C 101.284 165.192,101.236 162.265,101.295 120.714 C 101.349 83.138,101.371 81.199,101.742 80.519 C 101.957 80.125,102.711 79.249,103.419 78.572 C 105.877 76.216,108.034 73.980,108.291 73.520 C 108.567 73.027,111.504 70.593,112.023 70.428 C 112.295 70.342,112.528 69.967,112.677 69.373 C 112.959 68.256,113.634 67.597,114.689 67.409 C 115.260 67.307,115.511 67.135,115.599 66.787 C 115.719 66.313,118.301 63.574,119.621 62.520 C 120.361 61.930,123.470 58.903,125.079 57.206 C 125.636 56.619,126.193 56.041,126.317 55.922 C 126.440 55.803,127.188 54.947,127.978 54.019 C 129.114 52.685,129.692 52.203,130.743 51.712 C 132.391 50.942,132.223 50.950,132.845 51.612 M256.940 51.850 C 257.396 52.545,257.860 59.706,257.716 63.806 C 257.667 65.181,257.609 94.538,257.586 129.043 L 257.545 191.779 257.076 192.753 C 256.819 193.288,256.541 194.310,256.459 195.024 C 256.308 196.343,255.261 198.635,254.367 199.602 C 254.130 199.860,253.577 200.687,253.139 201.441 C 252.447 202.634,252.246 202.827,251.591 202.923 C 250.668 203.059,248.342 204.194,247.971 204.689 C 247.000 205.986,236.538 205.945,234.701 204.637 C 234.391 204.416,233.667 204.129,233.092 204.001 C 231.805 203.712,230.106 202.638,229.530 201.748 C 228.549 200.232,228.308 199.928,227.637 199.363 C 227.250 199.038,226.933 198.649,226.933 198.499 C 226.933 198.348,226.683 197.755,226.377 197.180 C 225.479 195.489,225.434 193.223,225.295 141.590 C 225.131 81.053,225.152 80.190,226.852 79.025 C 227.632 78.491,228.193 77.938,229.205 76.703 C 231.078 74.420,232.019 73.432,233.023 72.697 C 233.598 72.275,234.127 71.755,234.197 71.540 C 234.268 71.325,234.712 70.870,235.184 70.528 C 235.656 70.186,236.337 69.536,236.696 69.084 C 237.055 68.632,237.804 67.998,238.361 67.674 C 238.917 67.350,239.567 66.799,239.805 66.450 C 241.408 64.101,245.935 59.424,247.279 58.729 C 247.646 58.540,248.202 57.899,248.575 57.238 C 248.935 56.601,249.597 55.825,250.047 55.513 C 250.497 55.201,251.485 54.308,252.241 53.529 C 253.938 51.781,254.235 51.621,256.404 51.295 C 256.490 51.282,256.732 51.531,256.940 51.850 M309.188 119.830 C 309.631 119.933,310.280 120.257,310.629 120.551 C 311.035 120.893,311.672 121.140,312.395 121.236 C 313.883 121.433,315.527 122.268,316.624 123.383 C 317.111 123.878,317.777 124.465,318.103 124.686 C 319.136 125.388,321.197 128.376,321.362 129.412 C 321.443 129.923,321.763 130.730,322.071 131.206 C 322.553 131.947,322.670 132.474,322.887 134.884 C 323.027 136.431,323.315 138.172,323.526 138.753 C 324.016 140.097,323.895 145.583,323.345 146.998 C 323.160 147.474,322.914 148.963,322.799 150.307 C 322.648 152.074,322.479 152.906,322.193 153.311 C 321.431 154.384,321.261 154.791,321.258 155.551 C 321.256 156.061,320.996 156.708,320.477 157.498 C 319.642 158.767,318.443 161.129,318.443 161.506 C 318.442 161.633,318.150 162.016,317.793 162.358 C 317.436 162.700,317.144 163.121,317.144 163.293 C 317.144 163.898,316.643 165.271,316.279 165.662 C 316.077 165.879,315.844 166.413,315.762 166.848 C 315.664 167.373,315.399 167.793,314.978 168.093 C 314.594 168.366,314.256 168.870,314.122 169.365 C 314.001 169.816,313.713 170.356,313.483 170.564 C 313.254 170.772,313.000 171.330,312.920 171.805 C 312.839 172.280,312.507 172.977,312.181 173.354 C 311.855 173.732,311.479 174.361,311.345 174.753 C 311.212 175.146,310.905 175.718,310.663 176.025 C 310.421 176.333,310.118 176.975,309.990 177.452 C 309.861 177.929,309.520 178.693,309.232 179.150 C 308.943 179.607,308.707 180.183,308.707 180.430 C 308.707 180.677,308.418 181.143,308.064 181.466 C 307.711 181.789,307.308 182.392,307.170 182.806 C 307.031 183.220,306.706 183.802,306.447 184.100 C 306.187 184.397,305.807 185.197,305.602 185.877 C 305.397 186.557,305.135 187.171,305.021 187.242 C 304.907 187.312,304.813 187.661,304.813 188.017 C 304.813 188.818,304.304 189.841,303.810 190.030 C 303.520 190.141,303.647 190.283,304.397 190.681 C 306.059 191.563,314.028 191.962,317.716 191.347 C 318.902 191.149,322.496 191.767,323.202 192.290 C 323.928 192.828,324.012 193.348,324.041 197.536 C 324.078 202.643,324.003 203.045,322.900 203.635 L 322.012 204.110 304.922 204.110 C 286.700 204.110,286.454 204.097,286.415 203.077 C 286.173 196.827,286.470 192.322,287.188 191.347 C 287.451 190.990,287.733 190.415,287.815 190.070 C 287.897 189.724,288.251 189.025,288.601 188.516 C 288.951 188.007,289.237 187.476,289.237 187.335 C 289.237 186.973,290.147 185.398,290.356 185.398 C 290.452 185.398,290.593 185.003,290.671 184.520 C 290.748 184.038,291.038 183.332,291.317 182.952 C 291.595 182.572,291.918 182.046,292.035 181.784 C 292.152 181.522,292.533 181.160,292.881 180.980 C 293.527 180.646,293.688 180.211,294.432 176.798 C 294.636 175.863,295.425 174.610,296.832 172.991 C 297.260 172.497,297.681 171.806,297.766 171.456 C 297.851 171.105,298.191 170.510,298.522 170.133 C 298.862 169.746,299.185 169.065,299.264 168.570 C 299.342 168.087,299.642 167.410,299.932 167.065 C 300.222 166.721,300.522 166.187,300.599 165.879 C 300.676 165.571,300.972 165.101,301.256 164.835 C 301.540 164.568,301.884 163.999,302.021 163.570 C 302.158 163.141,302.488 162.547,302.756 162.250 C 303.023 161.952,303.304 161.379,303.379 160.975 C 303.455 160.571,303.937 159.598,304.451 158.812 C 305.444 157.292,306.111 155.805,306.111 155.114 C 306.111 154.883,306.391 154.373,306.733 153.983 C 307.075 153.592,307.423 152.957,307.507 152.572 C 307.590 152.186,307.944 151.603,308.291 151.274 C 308.639 150.946,308.924 150.455,308.924 150.183 C 308.924 149.599,309.465 148.235,309.884 147.763 C 310.749 146.790,310.450 138.276,309.494 136.645 C 309.180 136.110,308.924 135.535,308.924 135.367 C 308.924 135.199,308.678 134.950,308.379 134.813 C 308.079 134.676,307.740 134.320,307.627 134.021 C 307.424 133.489,307.374 133.478,305.176 133.478 L 302.932 133.478 302.607 134.305 C 302.384 134.873,301.969 135.330,301.282 135.765 L 300.283 136.398 300.305 140.411 C 300.337 146.451,300.819 146.057,293.355 146.086 C 286.070 146.114,286.520 146.506,286.556 140.173 C 286.577 136.287,286.840 134.473,287.511 133.586 C 287.601 133.467,287.745 132.752,287.831 131.998 C 287.949 130.954,288.128 130.463,288.579 129.943 C 288.905 129.567,289.232 129.016,289.306 128.718 C 289.485 127.992,290.956 126.249,292.174 125.319 C 292.718 124.904,293.554 124.139,294.033 123.621 C 294.511 123.102,295.112 122.612,295.369 122.531 C 295.626 122.451,296.093 122.170,296.409 121.907 C 296.724 121.643,297.566 121.313,298.281 121.172 C 298.996 121.032,299.824 120.725,300.121 120.491 C 300.418 120.258,300.890 119.975,301.169 119.863 C 301.811 119.606,308.112 119.580,309.188 119.830 M352.059 119.828 C 352.977 119.942,353.440 120.117,353.713 120.454 C 353.989 120.794,354.434 120.960,355.358 121.063 C 356.717 121.216,357.350 121.459,357.728 121.972 C 357.859 122.150,358.260 122.450,358.619 122.640 C 360.631 123.703,361.014 124.001,361.659 124.996 C 362.043 125.589,362.358 126.165,362.358 126.276 C 362.358 126.386,362.591 126.679,362.875 126.926 C 363.159 127.173,363.513 127.744,363.661 128.194 C 363.810 128.644,364.199 129.238,364.527 129.513 C 364.886 129.815,365.182 130.336,365.274 130.826 C 365.358 131.273,365.676 132.222,365.980 132.936 C 367.051 135.450,366.948 150.135,365.843 152.550 C 365.606 153.066,365.300 153.926,365.163 154.462 C 365.026 154.997,364.761 155.606,364.575 155.815 C 364.389 156.023,364.178 156.559,364.107 157.004 C 364.005 157.645,363.827 157.890,363.259 158.175 C 362.313 158.648,362.368 158.565,362.033 160.013 C 361.365 162.896,361.064 163.649,360.301 164.348 C 359.822 164.787,359.546 165.239,359.546 165.584 C 359.546 165.884,359.262 166.452,358.915 166.847 C 358.569 167.242,358.217 167.927,358.134 168.369 C 358.051 168.812,357.702 169.528,357.358 169.960 C 357.015 170.393,356.733 170.988,356.733 171.282 C 356.733 171.619,356.451 172.077,355.976 172.512 C 355.459 172.986,355.219 173.396,355.219 173.806 C 355.219 174.196,354.989 174.622,354.565 175.019 C 354.204 175.355,353.773 176.084,353.606 176.640 C 353.439 177.196,353.138 177.832,352.937 178.054 C 352.736 178.276,352.522 178.902,352.461 179.444 C 352.376 180.193,352.195 180.561,351.711 180.969 C 351.360 181.264,350.980 181.843,350.866 182.255 C 350.753 182.667,350.433 183.275,350.156 183.606 C 349.880 183.937,349.578 184.451,349.485 184.749 C 349.185 185.713,347.862 188.312,347.552 188.545 C 346.839 189.082,346.922 190.216,347.731 191.000 L 348.490 191.734 351.909 191.564 C 355.354 191.393,357.216 191.372,360.195 191.473 C 361.087 191.503,362.061 191.500,362.358 191.466 C 363.347 191.353,365.695 191.893,366.144 192.337 C 366.737 192.923,366.929 202.729,366.362 203.453 C 365.836 204.124,364.128 204.192,348.080 204.187 C 332.880 204.182,331.008 204.113,330.432 203.537 C 329.653 202.759,330.092 191.644,330.949 190.421 C 331.176 190.097,331.480 189.469,331.624 189.024 C 331.768 188.580,332.111 188.040,332.385 187.824 C 332.690 187.584,332.943 187.084,333.035 186.536 C 333.118 186.044,333.422 185.387,333.709 185.077 C 333.996 184.767,334.281 184.275,334.341 183.982 C 334.402 183.690,334.499 183.217,334.558 182.931 C 334.617 182.645,335.113 181.862,335.660 181.190 C 336.207 180.519,336.888 179.372,337.175 178.642 C 337.461 177.912,337.881 177.113,338.107 176.867 C 338.334 176.621,338.621 176.047,338.744 175.592 C 338.868 175.136,339.205 174.454,339.494 174.075 C 339.782 173.696,340.088 173.072,340.172 172.688 C 340.256 172.304,340.546 171.816,340.817 171.604 C 341.087 171.391,341.424 170.866,341.565 170.437 C 341.707 170.008,342.008 169.490,342.235 169.284 C 342.462 169.079,342.707 168.605,342.781 168.231 C 343.009 167.071,343.351 166.380,343.759 166.250 C 344.016 166.169,344.203 165.816,344.303 165.227 C 344.397 164.668,344.691 164.092,345.078 163.705 C 345.464 163.318,345.700 162.854,345.700 162.482 C 345.700 162.152,345.991 161.454,346.345 160.930 C 346.700 160.407,346.992 159.769,346.994 159.514 C 346.997 159.259,347.327 158.761,347.728 158.409 C 348.196 157.998,348.594 157.350,348.837 156.602 C 349.046 155.960,349.343 155.289,349.497 155.111 C 349.651 154.932,349.841 154.529,349.920 154.215 C 349.998 153.901,350.342 153.375,350.685 153.047 C 351.121 152.630,351.351 152.150,351.450 151.455 C 351.547 150.771,351.796 150.243,352.247 149.768 L 352.902 149.076 352.925 142.953 C 352.951 135.893,352.979 136.061,351.534 134.593 L 350.436 133.478 348.964 133.478 C 346.450 133.478,345.536 133.675,345.392 134.247 C 345.323 134.522,345.063 134.811,344.815 134.890 C 344.033 135.138,343.715 136.383,343.494 140.076 C 343.120 146.310,342.960 146.396,332.524 145.941 C 330.066 145.833,329.817 145.078,330.027 138.372 L 330.176 133.586 330.908 132.084 C 331.310 131.259,331.639 130.414,331.639 130.207 C 331.639 130.000,331.906 129.621,332.234 129.364 C 332.561 129.106,332.985 128.491,333.175 127.996 C 333.366 127.501,333.716 127.006,333.953 126.897 C 334.190 126.787,334.491 126.414,334.622 126.068 C 334.752 125.722,335.056 125.388,335.297 125.325 C 335.538 125.262,335.794 125.023,335.866 124.795 C 335.939 124.567,336.259 124.219,336.577 124.022 C 336.895 123.825,337.399 123.457,337.696 123.204 C 338.840 122.233,340.858 121.203,341.879 121.070 C 342.454 120.995,343.198 120.739,343.533 120.501 C 343.867 120.263,344.370 119.976,344.650 119.864 C 345.250 119.623,350.226 119.599,352.059 119.828 " stroke="none" fill="#fbfbf8" fill-rule="evenodd"></path><path id="path4" d="M238.584 19.250 C 224.936 19.377,225.645 19.277,225.626 21.072 C 225.621 21.559,225.536 22.373,225.438 22.880 C 225.228 23.970,225.515 48.607,225.745 49.168 C 226.151 50.158,227.378 50.130,227.902 49.118 C 228.075 48.783,228.462 48.448,228.761 48.373 C 229.100 48.287,229.358 48.032,229.441 47.698 C 229.516 47.403,229.709 47.161,229.871 47.161 C 230.033 47.161,230.378 46.873,230.638 46.521 C 230.898 46.169,231.388 45.785,231.727 45.667 C 232.065 45.549,232.342 45.354,232.342 45.233 C 232.342 45.113,232.731 44.909,233.207 44.781 C 233.920 44.589,234.072 44.454,234.072 44.014 C 234.072 43.714,234.310 43.274,234.613 43.010 C 234.911 42.751,235.154 42.360,235.154 42.141 C 235.154 41.911,235.390 41.652,235.709 41.530 C 236.470 41.241,239.070 38.565,239.252 37.884 C 239.344 37.541,239.601 37.283,239.927 37.207 C 240.217 37.139,240.581 36.819,240.737 36.497 C 240.892 36.175,241.156 35.911,241.323 35.911 C 241.738 35.911,243.807 33.846,243.807 33.432 C 243.807 33.206,244.016 33.099,244.456 33.099 C 244.907 33.099,245.105 32.993,245.105 32.753 C 245.105 32.563,245.384 32.147,245.724 31.829 C 246.064 31.511,246.412 31.034,246.496 30.769 C 246.585 30.488,246.825 30.287,247.069 30.287 C 247.300 30.287,247.659 30.079,247.866 29.826 C 248.073 29.573,248.458 29.124,248.722 28.828 C 248.986 28.533,249.257 28.117,249.325 27.904 C 249.392 27.691,249.678 27.460,249.959 27.389 C 250.272 27.310,250.558 27.009,250.697 26.610 C 250.854 26.161,251.067 25.960,251.387 25.960 C 251.700 25.960,251.927 25.755,252.090 25.324 C 252.228 24.957,252.539 24.635,252.824 24.563 C 253.096 24.495,253.469 24.149,253.652 23.794 C 253.836 23.438,254.086 23.148,254.208 23.148 C 254.330 23.148,254.569 22.814,254.740 22.406 C 254.910 21.998,255.246 21.602,255.486 21.526 C 256.576 21.180,256.379 19.614,255.216 19.379 C 254.198 19.173,250.219 19.142,238.584 19.250 M54.160 19.463 C 40.859 19.573,40.264 19.595,39.824 19.994 L 39.364 20.410 39.422 34.968 C 39.489 51.476,39.389 50.576,41.074 49.902 C 42.047 49.512,50.785 40.954,51.376 39.812 C 51.560 39.455,51.978 39.025,52.305 38.856 C 52.632 38.688,54.114 37.324,55.600 35.827 C 57.086 34.329,58.424 32.981,58.573 32.831 C 58.722 32.681,59.257 32.126,59.763 31.599 C 60.268 31.071,60.900 30.438,61.168 30.192 C 65.503 26.211,70.970 20.503,70.727 20.210 C 69.981 19.312,70.341 19.328,54.160 19.463 M300.588 19.459 C 299.398 19.643,296.877 20.775,295.974 21.530 C 295.660 21.792,295.160 22.079,294.862 22.166 C 294.382 22.308,293.901 22.704,292.542 24.077 C 292.331 24.290,291.842 24.770,291.455 25.144 C 291.068 25.518,290.752 25.927,290.752 26.054 C 290.752 26.181,290.425 26.546,290.025 26.865 C 289.593 27.209,289.242 27.720,289.162 28.120 C 289.088 28.492,288.685 29.118,288.267 29.513 C 287.849 29.907,287.507 30.436,287.507 30.689 C 287.507 30.941,287.251 31.887,286.939 32.791 C 286.383 34.402,286.374 34.521,286.463 38.957 C 286.593 45.391,286.458 45.271,293.564 45.291 C 300.329 45.310,300.236 45.387,300.262 39.805 C 300.282 35.514,300.460 35.112,302.866 33.914 C 308.162 31.277,310.372 34.278,310.313 44.024 C 310.304 45.421,310.192 45.995,309.729 47.007 C 309.414 47.695,309.091 48.620,309.010 49.062 C 308.929 49.503,308.550 50.215,308.166 50.643 C 307.783 51.071,307.406 51.761,307.329 52.175 C 307.251 52.590,306.956 53.130,306.673 53.375 C 306.391 53.621,306.042 54.197,305.897 54.656 C 305.753 55.114,305.401 55.971,305.116 56.560 C 304.831 57.148,304.597 57.790,304.597 57.986 C 304.597 58.182,304.408 58.514,304.177 58.723 C 303.945 58.933,303.693 59.392,303.616 59.743 C 303.539 60.095,303.144 60.714,302.738 61.120 C 302.303 61.555,302.001 62.073,302.001 62.384 C 302.001 62.675,301.667 63.312,301.259 63.800 C 300.771 64.384,300.422 65.111,300.241 65.920 C 300.089 66.598,299.791 67.327,299.577 67.540 C 299.363 67.754,299.189 68.104,299.189 68.319 C 299.189 68.533,298.910 69.093,298.569 69.563 C 298.228 70.032,297.835 70.770,297.695 71.202 C 297.556 71.633,297.248 72.162,297.010 72.377 C 296.773 72.592,296.478 73.167,296.355 73.656 C 296.212 74.226,295.962 74.619,295.659 74.752 C 295.103 74.996,293.947 77.273,293.555 78.897 C 293.406 79.515,293.156 80.070,293.001 80.130 C 292.845 80.190,292.445 80.646,292.113 81.144 C 291.781 81.641,291.339 82.303,291.131 82.614 C 290.924 82.925,290.754 83.396,290.753 83.659 C 290.752 83.923,290.464 84.466,290.112 84.867 C 289.760 85.268,289.379 86.009,289.266 86.513 C 289.153 87.017,288.899 87.608,288.701 87.826 C 288.504 88.044,288.202 88.690,288.030 89.260 C 287.858 89.830,287.510 90.518,287.256 90.788 C 286.665 91.417,286.457 93.448,286.439 98.777 C 286.423 103.247,286.404 103.196,288.267 103.639 C 289.730 103.986,320.463 103.971,322.020 103.622 C 323.896 103.201,323.851 103.341,323.851 98.005 C 323.851 90.010,324.338 90.427,315.000 90.427 C 306.307 90.427,303.344 90.133,304.060 89.341 C 304.257 89.124,304.472 88.525,304.539 88.010 C 304.607 87.495,304.886 86.804,305.162 86.473 C 305.437 86.142,305.729 85.512,305.811 85.073 C 305.894 84.634,306.238 83.892,306.577 83.425 C 306.916 82.957,307.193 82.475,307.193 82.353 C 307.193 81.990,308.946 78.684,309.475 78.050 C 309.744 77.727,310.035 77.045,310.121 76.536 C 310.207 76.027,310.452 75.488,310.665 75.339 C 310.878 75.189,311.207 74.602,311.396 74.032 C 311.585 73.463,311.929 72.836,312.159 72.638 C 312.390 72.441,312.683 71.860,312.811 71.348 C 312.939 70.836,313.138 70.270,313.254 70.092 C 313.370 69.913,313.664 69.367,313.908 68.877 C 314.241 68.211,314.575 67.899,315.234 67.640 C 316.031 67.327,316.104 67.236,315.992 66.692 C 315.916 66.319,316.066 65.554,316.386 64.684 C 316.670 63.910,317.010 62.864,317.140 62.358 C 317.271 61.852,317.476 61.439,317.596 61.439 C 317.716 61.439,317.993 61.040,318.211 60.552 C 318.430 60.065,318.912 59.389,319.282 59.050 C 319.653 58.711,319.957 58.238,319.957 57.997 C 319.957 57.756,320.261 57.213,320.633 56.790 C 321.113 56.243,321.342 55.727,321.423 55.013 C 321.485 54.460,321.762 53.674,322.039 53.266 C 322.586 52.460,322.621 52.295,323.002 48.783 C 323.147 47.445,323.450 45.948,323.695 45.363 C 324.291 43.942,324.131 39.738,323.400 37.626 C 323.090 36.730,322.889 35.544,322.834 34.289 C 322.725 31.802,322.663 31.533,322.024 30.774 C 321.685 30.371,321.441 29.732,321.343 28.991 C 321.228 28.127,321.014 27.641,320.494 27.060 C 320.111 26.634,319.730 26.066,319.646 25.798 C 319.513 25.368,318.784 24.564,316.920 22.792 C 316.618 22.505,316.007 22.211,315.562 22.139 C 315.009 22.049,314.612 21.811,314.311 21.388 C 313.999 20.949,313.617 20.728,312.999 20.629 C 312.520 20.553,311.827 20.236,311.459 19.926 L 310.789 19.362 306.233 19.326 C 303.727 19.306,301.187 19.366,300.588 19.459 M343.530 19.465 C 342.872 19.550,341.947 19.823,341.475 20.073 C 341.003 20.322,340.313 20.636,339.942 20.770 C 339.570 20.904,339.167 21.231,339.046 21.498 C 338.886 21.848,338.445 22.087,337.449 22.362 C 335.202 22.983,333.153 25.259,333.153 27.134 C 333.153 27.520,332.966 27.776,332.512 28.011 C 332.050 28.250,331.803 28.595,331.628 29.246 C 331.494 29.742,331.125 30.489,330.809 30.904 L 330.233 31.659 330.169 60.665 C 330.102 90.997,330.118 91.582,331.030 92.863 C 331.267 93.196,331.551 93.795,331.661 94.193 C 331.771 94.592,332.140 95.269,332.480 95.698 C 332.821 96.126,333.207 96.905,333.339 97.427 C 333.511 98.110,333.804 98.553,334.380 99.000 C 334.821 99.342,335.470 99.889,335.822 100.216 C 336.174 100.544,336.623 100.811,336.819 100.811 C 337.311 100.811,339.340 102.322,339.677 102.939 C 340.084 103.686,340.981 104.056,342.380 104.056 C 343.064 104.056,344.470 104.264,345.504 104.517 C 347.539 105.016,348.250 104.983,352.407 104.195 C 353.418 104.003,354.608 103.793,355.050 103.726 C 355.493 103.660,356.132 103.374,356.470 103.089 C 356.808 102.805,357.759 102.297,358.582 101.962 C 360.166 101.317,361.312 100.350,362.245 98.872 C 362.548 98.392,362.890 97.999,363.005 97.999 C 363.120 97.999,363.413 97.610,363.656 97.134 C 363.899 96.658,364.190 96.268,364.304 96.268 C 364.584 96.268,365.170 95.099,365.170 94.541 C 365.170 94.293,365.397 93.631,365.675 93.070 C 366.733 90.927,366.716 91.522,366.644 60.898 C 366.572 30.259,366.588 30.719,365.613 30.719 C 365.505 30.719,365.308 30.193,365.175 29.550 C 364.924 28.344,364.412 27.505,362.871 25.774 C 362.380 25.222,361.911 24.460,361.829 24.082 C 361.653 23.265,361.319 22.951,360.363 22.708 C 359.015 22.366,357.972 21.906,357.785 21.571 C 357.681 21.387,357.135 21.062,356.570 20.851 C 356.006 20.639,355.300 20.291,355.003 20.078 C 353.933 19.313,347.413 18.964,343.530 19.465 M69.197 20.201 C 69.784 20.527,69.172 21.235,63.246 27.081 C 59.974 30.309,59.199 31.082,54.987 35.318 C 53.360 36.954,51.879 38.341,51.696 38.400 C 51.514 38.459,51.185 38.811,50.965 39.184 C 50.482 40.001,43.245 47.285,42.234 47.972 C 40.251 49.318,40.238 49.229,40.240 34.783 C 40.242 20.870,40.267 20.442,41.078 20.144 C 42.019 19.799,68.569 19.853,69.197 20.201 M254.294 20.366 C 254.509 20.580,253.546 22.036,253.095 22.179 C 252.866 22.252,252.620 22.541,252.550 22.822 C 252.479 23.103,252.280 23.387,252.107 23.453 C 251.934 23.520,251.648 23.921,251.471 24.344 C 251.294 24.767,250.982 25.173,250.777 25.247 C 250.573 25.320,250.095 25.681,249.715 26.049 C 249.336 26.416,248.849 26.870,248.634 27.057 C 248.418 27.244,247.791 27.877,247.239 28.463 C 246.687 29.050,246.103 29.659,245.941 29.816 C 244.936 30.795,244.481 31.317,244.260 31.747 C 244.122 32.015,243.903 32.234,243.773 32.234 C 243.643 32.234,242.911 32.866,242.145 33.640 C 241.379 34.413,240.671 35.046,240.571 35.046 C 240.470 35.046,240.286 35.339,240.161 35.698 C 240.036 36.056,239.759 36.410,239.545 36.484 C 239.331 36.558,238.864 36.894,238.507 37.231 C 237.748 37.948,235.871 39.812,235.295 40.421 C 235.075 40.653,234.783 40.960,234.646 41.103 C 233.553 42.242,233.262 42.581,232.939 43.088 C 232.736 43.406,232.377 43.728,232.142 43.802 C 231.907 43.877,231.659 44.114,231.591 44.328 C 231.523 44.543,231.104 44.881,230.660 45.079 C 229.152 45.753,228.664 46.102,228.664 46.506 C 228.664 47.228,228.411 47.593,227.910 47.593 C 227.364 47.593,227.025 47.916,226.891 48.567 C 226.578 50.078,226.144 24.558,226.438 21.958 L 226.609 20.443 228.448 20.310 C 230.787 20.140,254.119 20.190,254.294 20.366 M307.950 20.334 C 308.664 20.451,309.720 20.791,310.296 21.090 C 310.872 21.389,311.467 21.633,311.617 21.633 C 311.768 21.633,312.416 21.911,313.058 22.251 C 313.699 22.591,314.588 22.988,315.033 23.133 C 315.570 23.308,316.042 23.688,316.439 24.268 C 316.767 24.748,317.439 25.650,317.930 26.273 C 318.422 26.896,318.892 27.618,318.974 27.878 C 319.057 28.138,319.355 28.503,319.638 28.688 C 320.027 28.943,320.238 29.413,320.508 30.627 C 320.704 31.508,321.044 32.457,321.263 32.736 C 322.378 34.154,322.318 49.436,321.191 51.189 C 320.894 51.651,320.590 52.383,320.515 52.817 C 320.440 53.252,320.178 53.862,319.933 54.173 C 319.688 54.484,319.393 55.080,319.278 55.497 C 319.163 55.914,318.791 56.539,318.451 56.887 C 318.111 57.234,317.764 57.841,317.679 58.235 C 317.594 58.629,317.301 59.340,317.029 59.816 C 316.756 60.292,316.411 61.120,316.261 61.655 C 316.112 62.190,315.812 62.828,315.596 63.072 C 315.380 63.316,315.066 63.969,314.900 64.521 C 314.734 65.074,314.392 65.788,314.140 66.108 C 313.889 66.427,313.683 66.802,313.683 66.939 C 313.683 67.077,313.342 67.551,312.926 67.992 C 312.488 68.456,312.169 69.017,312.169 69.321 C 312.169 70.084,311.778 70.996,311.310 71.323 C 311.087 71.480,310.787 71.972,310.644 72.418 C 310.502 72.864,310.205 73.426,309.986 73.668 C 309.767 73.909,309.448 74.500,309.279 74.981 C 309.109 75.463,308.499 76.579,307.924 77.463 C 307.348 78.347,306.717 79.478,306.520 79.976 C 306.324 80.475,305.962 81.138,305.717 81.450 C 305.471 81.762,305.160 82.376,305.024 82.815 C 304.746 83.714,303.293 86.718,302.632 87.761 C 302.393 88.138,302.068 89.063,301.911 89.816 L 301.626 91.184 302.295 91.475 C 303.179 91.860,309.300 92.112,313.899 91.953 C 317.494 91.829,321.096 92.129,321.559 92.592 C 322.100 93.133,322.037 101.846,321.488 102.396 C 321.195 102.688,289.319 102.881,288.875 102.593 C 288.101 102.091,287.655 95.167,288.266 93.151 C 288.443 92.567,288.588 91.820,288.588 91.491 C 288.588 91.162,288.834 90.601,289.135 90.244 C 289.435 89.887,289.813 89.154,289.975 88.616 C 290.137 88.078,290.475 87.376,290.726 87.057 C 290.978 86.738,291.285 86.099,291.409 85.637 C 291.534 85.175,291.923 84.469,292.275 84.068 C 292.627 83.667,292.915 83.221,292.915 83.077 C 292.915 82.933,293.110 82.568,293.348 82.265 C 293.586 81.962,293.927 81.223,294.106 80.622 C 294.284 80.021,294.614 79.329,294.839 79.083 C 295.411 78.460,297.242 74.917,297.242 74.434 C 297.242 74.215,297.490 73.873,297.792 73.675 C 298.095 73.476,298.459 73.051,298.602 72.731 C 298.744 72.410,299.062 71.845,299.308 71.475 C 299.554 71.105,299.876 70.261,300.024 69.601 C 300.172 68.940,300.434 68.345,300.606 68.279 C 300.778 68.213,301.151 67.633,301.436 66.990 C 301.720 66.347,302.054 65.758,302.179 65.681 C 302.303 65.604,302.519 64.990,302.659 64.315 C 302.843 63.429,303.087 62.937,303.539 62.540 C 303.883 62.238,304.164 61.886,304.164 61.757 C 304.164 61.628,304.410 61.190,304.711 60.782 C 305.011 60.375,305.317 59.666,305.390 59.206 C 305.464 58.746,305.748 58.104,306.022 57.778 C 306.296 57.453,307.067 56.105,307.737 54.784 C 308.406 53.462,309.092 52.266,309.262 52.125 C 309.431 51.985,309.675 51.467,309.804 50.975 C 309.933 50.484,310.299 49.700,310.617 49.235 L 311.195 48.388 311.268 42.644 C 311.362 35.259,311.322 34.941,310.086 33.424 C 309.553 32.769,309.022 32.234,308.907 32.234 C 308.792 32.234,308.294 31.966,307.799 31.639 C 305.118 29.865,299.438 32.183,299.389 35.072 C 299.329 38.643,299.023 42.620,298.787 42.905 C 297.589 44.348,289.873 44.049,288.871 42.520 C 287.891 41.025,288.150 32.593,289.218 31.236 C 289.452 30.938,289.802 30.218,289.995 29.636 C 290.214 28.978,290.506 28.526,290.767 28.443 C 290.997 28.370,291.307 28.080,291.456 27.798 C 291.604 27.517,292.057 27.061,292.463 26.785 C 292.868 26.510,293.550 25.712,293.977 25.012 C 294.473 24.200,295.028 23.600,295.511 23.352 C 297.320 22.427,299.144 21.637,299.946 21.432 C 300.422 21.311,301.044 21.048,301.328 20.848 C 302.340 20.137,305.330 19.905,307.950 20.334 M352.093 20.712 C 352.563 20.948,353.483 21.264,354.137 21.414 C 354.792 21.564,355.758 21.966,356.284 22.309 C 356.810 22.651,357.500 22.931,357.817 22.931 C 358.250 22.931,358.604 23.198,359.240 24.004 C 359.706 24.593,360.408 25.233,360.801 25.425 C 361.194 25.617,361.610 26.035,361.726 26.354 C 362.027 27.180,362.987 28.984,363.533 29.746 C 363.788 30.103,364.174 30.979,364.390 31.693 C 364.606 32.407,364.967 33.294,365.193 33.665 C 365.865 34.771,365.831 89.616,365.158 90.332 C 364.913 90.593,364.578 91.319,364.412 91.945 C 364.247 92.571,363.876 93.338,363.587 93.648 C 363.299 93.959,363.003 94.466,362.931 94.775 C 362.515 96.549,361.140 98.263,359.161 99.478 C 358.320 99.993,357.464 100.602,357.258 100.830 C 357.051 101.057,356.747 101.244,356.581 101.244 C 356.151 101.244,354.982 101.863,354.390 102.405 C 353.904 102.851,353.698 102.866,348.424 102.866 L 342.961 102.866 342.113 102.295 C 341.647 101.981,340.910 101.662,340.475 101.586 C 339.971 101.498,339.557 101.253,339.331 100.908 C 339.137 100.611,338.598 100.216,338.133 100.031 C 337.669 99.845,337.142 99.468,336.962 99.194 C 336.783 98.920,336.109 98.125,335.466 97.428 C 334.823 96.731,334.125 95.819,333.916 95.403 C 333.706 94.986,333.357 94.450,333.139 94.211 C 332.921 93.972,332.656 93.220,332.549 92.541 C 332.434 91.809,332.119 90.964,331.777 90.470 L 331.198 89.635 331.256 61.638 L 331.314 33.640 331.798 32.991 C 332.065 32.634,332.376 31.847,332.489 31.242 C 332.626 30.515,332.914 29.909,333.341 29.452 C 333.696 29.072,334.050 28.472,334.127 28.120 C 334.205 27.768,334.362 27.421,334.476 27.350 C 334.591 27.280,334.915 26.858,335.195 26.413 C 335.834 25.402,338.226 22.931,338.567 22.931 C 338.706 22.931,339.127 22.794,339.502 22.626 C 339.877 22.458,341.011 22.060,342.023 21.742 C 343.034 21.424,344.202 21.013,344.619 20.829 C 346.422 20.032,350.610 19.966,352.093 20.712 M347.756 31.141 C 345.667 31.365,343.698 32.850,342.517 35.093 L 341.915 36.236 341.915 61.655 L 341.915 87.074 342.653 88.765 C 343.253 90.135,343.539 90.534,344.168 90.875 C 344.594 91.106,345.199 91.499,345.512 91.749 C 346.007 92.145,346.348 92.200,348.158 92.177 C 351.531 92.133,352.819 91.407,354.120 88.811 L 354.991 87.074 354.943 61.547 L 354.895 36.019 354.319 34.938 C 353.591 33.569,352.502 32.458,351.737 32.305 C 351.411 32.240,350.875 31.905,350.545 31.561 C 350.216 31.217,349.745 30.950,349.500 30.969 C 349.254 30.987,348.469 31.064,347.756 31.141 M350.427 33.306 C 350.824 33.420,351.397 33.761,351.699 34.063 C 352.002 34.366,352.327 34.613,352.421 34.613 C 353.065 34.613,353.132 37.283,353.094 61.439 C 353.051 88.230,353.049 88.305,352.236 89.512 C 351.280 90.933,345.577 90.869,344.378 89.425 C 343.741 88.656,343.645 84.931,343.645 60.790 C 343.645 34.544,343.625 35.032,344.752 34.604 C 345.040 34.494,345.363 34.174,345.470 33.893 C 345.644 33.437,345.812 33.377,347.024 33.340 C 347.772 33.318,348.429 33.254,348.485 33.199 C 348.652 33.031,349.663 33.087,350.427 33.306 M68.578 51.927 C 67.923 52.643,67.120 53.376,66.793 53.554 C 66.466 53.732,66.198 53.974,66.198 54.090 C 66.198 54.207,63.789 56.692,60.844 59.612 C 57.899 62.533,55.424 64.990,55.343 65.073 C 55.147 65.275,54.179 66.243,53.861 66.555 C 53.519 66.890,52.799 67.611,52.493 67.923 C 52.356 68.063,51.368 69.052,50.297 70.119 C 49.227 71.187,48.269 72.145,48.169 72.247 C 48.069 72.349,47.744 72.677,47.447 72.974 C 45.737 74.684,40.558 80.027,39.966 80.693 L 39.369 81.363 39.425 137.040 L 39.481 192.717 39.956 193.360 C 40.302 193.828,40.474 194.463,40.585 195.692 C 40.717 197.148,40.820 197.458,41.329 197.934 C 41.653 198.237,41.981 198.690,42.056 198.940 C 42.132 199.189,42.436 199.504,42.733 199.639 C 43.030 199.775,43.385 200.130,43.521 200.429 C 43.657 200.729,43.854 200.973,43.959 200.973 C 44.064 200.973,44.559 201.370,45.060 201.854 C 45.561 202.339,46.221 202.978,46.528 203.275 C 46.834 203.572,47.502 203.909,48.013 204.023 C 48.523 204.138,49.106 204.436,49.309 204.686 C 50.264 205.866,60.046 205.850,61.319 204.666 C 61.563 204.439,62.134 204.185,62.588 204.101 C 63.134 204.000,63.567 203.739,63.872 203.327 C 64.125 202.984,64.463 202.704,64.623 202.704 C 64.784 202.704,65.116 202.363,65.361 201.947 C 65.607 201.531,65.974 201.190,66.177 201.190 C 66.681 201.190,67.862 199.931,68.160 199.077 C 68.294 198.692,68.525 198.378,68.673 198.378 C 69.121 198.378,69.595 197.672,69.758 196.765 C 69.843 196.294,70.137 195.641,70.413 195.313 C 71.204 194.374,71.201 194.656,71.131 120.857 L 71.065 51.449 70.555 51.036 C 69.866 50.478,69.924 50.452,68.578 51.927 M130.743 51.712 C 129.692 52.203,129.114 52.685,127.978 54.019 C 127.188 54.947,126.440 55.803,126.317 55.922 C 126.193 56.041,125.636 56.619,125.079 57.206 C 123.470 58.903,120.361 61.930,119.621 62.520 C 118.301 63.574,115.719 66.313,115.599 66.787 C 115.511 67.135,115.260 67.307,114.689 67.409 C 113.634 67.597,112.959 68.256,112.677 69.373 C 112.528 69.967,112.295 70.342,112.023 70.428 C 111.504 70.593,108.567 73.027,108.291 73.520 C 108.034 73.980,105.877 76.216,103.419 78.572 C 102.711 79.249,101.957 80.125,101.742 80.519 C 101.371 81.199,101.349 83.138,101.295 120.714 C 101.236 162.265,101.284 165.192,102.056 166.798 C 102.352 167.415,102.599 168.540,102.736 169.897 C 102.890 171.418,103.101 172.315,103.477 173.033 C 103.766 173.587,104.074 174.575,104.162 175.230 C 104.250 175.884,104.603 176.955,104.946 177.610 C 105.289 178.264,105.570 179.107,105.570 179.483 C 105.570 179.981,105.752 180.320,106.237 180.728 C 106.604 181.037,107.004 181.651,107.126 182.093 C 107.436 183.215,109.063 185.443,110.883 187.236 C 111.876 188.215,112.612 189.172,112.963 189.941 C 113.680 191.507,115.751 193.474,117.544 194.291 C 117.859 194.435,118.118 194.626,118.118 194.716 C 118.118 194.805,118.726 195.378,119.470 195.989 C 120.214 196.599,121.181 197.435,121.621 197.846 C 122.060 198.257,122.541 198.594,122.691 198.594 C 122.840 198.594,123.326 198.846,123.771 199.155 C 124.216 199.463,124.991 199.807,125.492 199.920 C 125.993 200.033,126.657 200.301,126.966 200.516 C 127.275 200.731,127.852 201.017,128.247 201.151 C 128.642 201.285,129.341 201.692,129.800 202.055 C 130.258 202.418,131.103 202.859,131.677 203.035 C 132.960 203.429,136.738 204.218,137.339 204.218 C 137.581 204.218,138.110 204.413,138.513 204.651 C 138.929 204.897,139.989 205.178,140.959 205.301 C 146.483 205.999,147.727 206.088,149.594 205.922 C 150.665 205.826,152.846 205.634,154.441 205.494 C 157.128 205.258,157.386 205.197,157.954 204.654 C 158.523 204.111,158.743 204.058,161.009 203.929 C 164.704 203.718,168.010 202.797,168.525 201.837 C 168.651 201.600,168.915 201.406,169.110 201.406 C 170.045 201.406,173.488 199.399,175.554 197.648 C 177.258 196.205,177.778 195.836,179.104 195.133 C 180.341 194.476,180.602 194.226,181.071 193.254 C 181.416 192.538,181.823 192.041,182.196 191.880 C 182.850 191.597,186.553 187.598,187.049 186.640 C 187.224 186.301,187.552 185.839,187.777 185.614 C 188.002 185.389,188.328 184.737,188.502 184.166 C 189.106 182.183,189.495 181.517,190.371 180.964 C 190.922 180.616,191.276 180.208,191.357 179.827 C 191.427 179.500,191.669 178.840,191.894 178.360 C 192.119 177.881,192.441 176.907,192.610 176.197 C 192.780 175.487,193.164 174.419,193.464 173.824 C 193.972 172.818,194.499 170.968,194.789 169.173 C 194.856 168.756,195.080 167.880,195.288 167.226 C 195.640 166.114,195.675 162.707,195.815 115.414 C 195.897 87.572,196.029 64.198,196.107 63.473 C 196.185 62.747,196.132 60.800,195.989 59.146 C 195.846 57.492,195.712 55.652,195.690 55.057 C 195.600 52.595,195.555 52.365,195.052 51.780 C 194.443 51.072,193.213 51.313,191.999 52.379 C 191.640 52.693,191.006 53.093,190.589 53.267 C 190.172 53.442,189.443 54.058,188.968 54.637 C 188.493 55.216,187.617 56.184,187.022 56.786 C 186.426 57.389,185.257 58.594,184.424 59.463 C 183.591 60.332,182.520 61.303,182.044 61.620 C 181.471 62.002,180.997 62.578,180.638 63.331 C 180.341 63.955,179.979 64.466,179.834 64.467 C 179.446 64.468,178.067 65.740,177.713 66.423 C 177.512 66.812,176.926 67.241,176.008 67.671 C 174.944 68.169,174.516 68.507,174.217 69.087 C 174.001 69.506,171.573 72.135,168.821 74.929 L 163.819 80.009 163.442 81.546 C 163.170 82.657,163.071 83.907,163.085 86.052 C 163.386 131.734,163.320 157.782,162.902 158.459 C 162.617 158.921,162.466 159.539,162.466 160.251 C 162.466 163.252,161.341 165.948,159.728 166.811 C 159.442 166.964,158.851 167.752,158.413 168.561 C 157.757 169.776,157.484 170.077,156.851 170.282 C 156.429 170.418,155.505 170.820,154.797 171.174 C 151.153 172.998,148.664 173.556,146.715 172.986 C 146.157 172.823,144.970 172.522,144.078 172.316 C 143.186 172.111,142.101 171.715,141.669 171.436 C 141.236 171.157,140.546 170.789,140.136 170.618 C 139.726 170.446,139.149 170.075,138.855 169.793 C 138.560 169.511,137.908 168.940,137.405 168.524 C 136.338 167.639,136.070 167.094,135.431 164.499 C 135.078 163.062,134.772 162.350,134.218 161.674 L 133.478 160.771 133.478 114.025 C 133.478 79.751,133.542 67.280,133.719 67.280 C 133.876 67.280,133.901 67.109,133.790 66.793 C 133.696 66.525,133.563 63.126,133.495 59.238 L 133.369 52.170 132.845 51.612 C 132.223 50.950,132.391 50.942,130.743 51.712 M255.337 51.498 C 254.066 51.749,253.799 51.925,252.241 53.529 C 251.485 54.308,250.497 55.201,250.047 55.513 C 249.597 55.825,248.935 56.601,248.575 57.238 C 248.202 57.899,247.646 58.540,247.279 58.729 C 245.935 59.424,241.408 64.101,239.805 66.450 C 239.567 66.799,238.917 67.350,238.361 67.674 C 237.804 67.998,237.055 68.632,236.696 69.084 C 236.337 69.536,235.656 70.186,235.184 70.528 C 234.712 70.870,234.268 71.325,234.197 71.540 C 234.127 71.755,233.598 72.275,233.023 72.697 C 232.019 73.432,231.078 74.420,229.205 76.703 C 228.193 77.938,227.632 78.491,226.852 79.025 C 225.152 80.190,225.131 81.053,225.295 141.590 C 225.434 193.223,225.479 195.489,226.377 197.180 C 226.683 197.755,226.933 198.348,226.933 198.499 C 226.933 198.649,227.250 199.038,227.637 199.363 C 228.308 199.928,228.549 200.232,229.530 201.748 C 230.106 202.638,231.805 203.712,233.092 204.001 C 233.667 204.129,234.391 204.416,234.701 204.637 C 236.538 205.945,247.000 205.986,247.971 204.689 C 248.342 204.194,250.668 203.059,251.591 202.923 C 252.246 202.827,252.447 202.634,253.139 201.441 C 253.577 200.687,254.130 199.860,254.367 199.602 C 255.261 198.635,256.308 196.343,256.459 195.024 C 256.541 194.310,256.819 193.288,257.076 192.753 L 257.545 191.779 257.586 129.043 C 257.609 94.538,257.667 65.181,257.716 63.806 C 257.932 57.682,257.249 51.167,256.404 51.295 C 256.317 51.308,255.837 51.399,255.337 51.498 M70.525 123.553 L 70.416 194.184 69.822 194.891 C 69.405 195.387,69.227 195.840,69.227 196.407 C 69.227 197.040,69.073 197.360,68.524 197.878 C 68.137 198.242,67.480 198.990,67.064 199.540 C 66.648 200.091,66.231 200.541,66.137 200.541 C 66.043 200.541,65.507 200.988,64.946 201.535 C 63.257 203.181,63.091 203.303,62.304 203.463 C 61.888 203.548,60.964 203.898,60.252 204.242 C 58.975 204.859,58.904 204.867,55.168 204.867 L 51.379 204.866 49.877 204.110 C 49.051 203.694,48.188 203.353,47.960 203.353 C 47.283 203.353,42.824 199.299,42.382 198.282 C 42.276 198.037,41.987 197.586,41.740 197.279 C 41.445 196.913,41.216 196.167,41.075 195.115 C 40.957 194.232,40.720 193.015,40.549 192.409 C 40.282 191.465,40.238 183.555,40.238 136.806 L 40.238 82.304 40.833 81.117 C 41.160 80.464,41.900 79.493,42.476 78.959 C 43.053 78.425,43.637 77.864,43.774 77.713 C 44.190 77.256,60.196 61.236,62.015 59.457 C 62.947 58.545,64.552 56.939,65.581 55.887 C 66.610 54.835,68.021 53.426,68.718 52.755 L 69.984 51.536 70.308 52.228 C 70.595 52.841,70.620 61.069,70.525 123.553 M255.275 54.846 C 255.615 55.740,256.014 58.223,256.004 59.383 C 255.999 59.978,255.990 87.674,255.984 120.930 C 255.972 187.303,255.985 184.155,255.696 190.253 C 255.508 194.222,255.451 194.629,254.986 195.337 C 254.709 195.760,254.370 196.431,254.233 196.828 C 253.520 198.901,248.942 203.231,247.213 203.469 C 246.591 203.554,245.743 203.807,245.327 204.030 C 244.324 204.567,237.915 204.627,237.225 204.106 C 236.996 203.932,236.046 203.627,235.114 203.426 C 233.551 203.091,233.337 202.977,232.364 201.964 C 229.644 199.132,228.190 197.413,227.687 196.431 C 227.474 196.014,227.095 195.397,226.846 195.060 L 226.393 194.447 226.324 140.220 C 226.287 110.395,226.322 84.979,226.402 83.741 L 226.547 81.490 227.537 80.605 C 228.081 80.117,228.658 79.573,228.818 79.394 C 229.079 79.104,236.563 71.600,237.486 70.704 C 237.691 70.505,238.239 69.847,238.705 69.243 C 239.171 68.639,239.667 68.145,239.809 68.145 C 240.137 68.145,242.293 66.119,242.293 65.810 C 242.293 65.683,242.470 65.522,242.687 65.453 C 242.904 65.384,243.557 64.752,244.140 64.047 C 244.722 63.343,245.701 62.365,246.315 61.875 C 246.930 61.384,247.809 60.496,248.270 59.901 C 249.159 58.752,250.662 57.209,251.934 56.138 C 252.358 55.782,252.964 55.222,253.280 54.895 C 254.040 54.108,254.986 54.085,255.275 54.846 M194.027 54.929 C 194.363 55.142,194.803 59.230,194.586 60.118 C 194.516 60.403,194.464 83.708,194.470 111.907 L 194.482 163.177 193.958 164.628 C 193.670 165.426,193.364 166.800,193.279 167.680 C 193.109 169.430,191.790 173.684,190.813 175.629 C 190.247 176.758,189.679 178.443,189.415 179.780 C 189.350 180.109,188.927 180.595,188.356 180.998 C 187.774 181.408,187.345 181.905,187.252 182.276 C 186.930 183.557,185.368 185.810,183.596 187.549 C 182.510 188.615,181.584 189.745,181.306 190.343 C 180.209 192.699,180.132 192.796,179.069 193.193 C 177.734 193.691,175.862 194.923,174.343 196.303 C 173.039 197.487,170.894 198.790,169.498 199.246 C 167.658 199.846,164.079 201.705,163.198 202.519 C 162.870 202.822,162.229 202.996,160.927 203.136 C 159.929 203.243,158.188 203.432,157.058 203.557 C 150.181 204.315,136.916 203.852,135.062 202.789 C 134.564 202.505,134.043 202.271,133.903 202.271 C 133.763 202.271,133.213 201.978,132.681 201.619 C 132.149 201.259,131.210 200.788,130.594 200.570 C 129.979 200.352,129.117 199.930,128.680 199.632 C 128.243 199.333,127.309 198.976,126.605 198.837 C 125.746 198.668,125.158 198.409,124.820 198.049 C 124.543 197.754,124.200 197.512,124.057 197.512 C 123.915 197.512,122.729 196.459,121.421 195.171 C 120.113 193.883,118.567 192.552,117.986 192.213 C 117.404 191.874,116.551 191.171,116.090 190.651 C 115.630 190.132,114.888 189.520,114.443 189.293 C 113.877 189.004,113.596 188.695,113.511 188.269 C 113.153 186.478,112.478 185.210,111.758 184.972 C 111.068 184.744,110.280 183.764,109.404 182.044 C 109.223 181.687,108.773 181.173,108.404 180.902 C 107.954 180.571,107.734 180.225,107.734 179.848 C 107.734 179.539,107.503 178.739,107.222 178.069 C 106.940 177.400,106.604 176.463,106.476 175.987 C 106.148 174.778,105.166 171.856,104.683 170.653 C 104.460 170.100,104.168 168.931,104.032 168.057 C 103.897 167.183,103.599 165.701,103.371 164.763 C 102.588 161.542,102.525 158.139,102.610 123.526 C 102.655 105.024,102.682 89.400,102.671 88.805 C 102.659 88.210,102.650 86.652,102.650 85.343 L 102.650 82.964 103.979 81.233 C 104.710 80.281,106.122 78.657,107.116 77.625 C 108.110 76.592,109.253 75.388,109.656 74.949 C 110.059 74.511,110.801 73.970,111.304 73.747 C 112.479 73.227,112.561 73.113,113.160 71.174 C 113.784 69.151,114.193 68.680,115.710 68.239 C 117.419 67.742,118.486 67.151,118.911 66.466 C 119.113 66.140,120.405 64.704,121.781 63.275 C 123.157 61.845,124.721 60.104,125.257 59.405 C 127.859 56.008,130.366 54.430,131.380 55.551 C 131.999 56.235,132.289 60.537,131.881 62.981 C 131.444 65.604,131.408 67.228,131.769 68.037 C 132.090 68.755,132.286 148.984,131.983 155.868 C 131.761 160.926,132.426 163.897,134.229 165.893 C 134.765 166.486,135.136 167.189,135.354 168.024 C 135.930 170.230,137.257 171.550,140.082 172.731 C 140.509 172.909,141.128 173.248,141.459 173.483 C 142.205 174.014,146.229 175.032,146.674 174.802 C 146.852 174.710,148.091 174.566,149.425 174.482 C 152.080 174.315,153.739 173.958,154.638 173.362 C 154.957 173.149,155.803 172.774,156.517 172.528 C 157.677 172.129,157.873 171.972,158.356 171.059 C 158.763 170.291,159.084 169.975,159.653 169.787 C 160.288 169.577,163.332 166.848,163.332 166.489 C 163.332 166.430,163.485 165.817,163.673 165.127 C 164.417 162.396,164.490 158.657,164.442 125.690 C 164.388 88.036,164.481 83.388,165.317 82.098 C 167.334 78.984,169.845 76.176,172.990 73.519 C 174.958 71.857,175.555 71.151,176.390 69.503 C 176.947 68.402,177.001 68.361,178.530 67.905 C 180.370 67.355,180.550 67.236,180.736 66.459 C 181.163 64.671,181.511 64.137,182.566 63.653 C 183.530 63.210,185.308 61.455,189.525 56.780 C 189.950 56.308,190.506 55.740,190.760 55.518 C 191.487 54.881,193.405 54.535,194.027 54.929 M301.169 119.863 C 300.890 119.975,300.418 120.258,300.121 120.491 C 299.824 120.725,298.996 121.032,298.281 121.172 C 297.566 121.313,296.724 121.643,296.409 121.907 C 296.093 122.170,295.626 122.451,295.369 122.531 C 295.112 122.612,294.511 123.102,294.033 123.621 C 293.554 124.139,292.718 124.904,292.174 125.319 C 290.956 126.249,289.485 127.992,289.306 128.718 C 289.232 129.016,288.905 129.567,288.579 129.943 C 288.128 130.463,287.949 130.954,287.831 131.998 C 287.745 132.752,287.601 133.467,287.511 133.586 C 286.840 134.473,286.577 136.287,286.556 140.173 C 286.520 146.506,286.070 146.114,293.355 146.086 C 300.819 146.057,300.337 146.451,300.305 140.411 L 300.283 136.398 301.282 135.765 C 301.969 135.330,302.384 134.873,302.607 134.305 L 302.932 133.478 305.176 133.478 C 307.374 133.478,307.424 133.489,307.627 134.021 C 307.740 134.320,308.079 134.676,308.379 134.813 C 308.678 134.950,308.924 135.199,308.924 135.367 C 308.924 135.535,309.180 136.110,309.494 136.645 C 310.450 138.276,310.749 146.790,309.884 147.763 C 309.465 148.235,308.924 149.599,308.924 150.183 C 308.924 150.455,308.639 150.946,308.291 151.274 C 307.944 151.603,307.590 152.186,307.507 152.572 C 307.423 152.957,307.075 153.592,306.733 153.983 C 306.391 154.373,306.111 154.883,306.111 155.114 C 306.111 155.805,305.444 157.292,304.451 158.812 C 303.937 159.598,303.455 160.571,303.379 160.975 C 303.304 161.379,303.023 161.952,302.756 162.250 C 302.488 162.547,302.158 163.141,302.021 163.570 C 301.884 163.999,301.540 164.568,301.256 164.835 C 300.972 165.101,300.676 165.571,300.599 165.879 C 300.522 166.187,300.222 166.721,299.932 167.065 C 299.642 167.410,299.342 168.087,299.264 168.570 C 299.185 169.065,298.862 169.746,298.522 170.133 C 298.191 170.510,297.851 171.105,297.766 171.456 C 297.681 171.806,297.260 172.497,296.832 172.991 C 295.425 174.610,294.636 175.863,294.432 176.798 C 293.688 180.211,293.527 180.646,292.881 180.980 C 292.533 181.160,292.152 181.522,292.035 181.784 C 291.918 182.046,291.595 182.572,291.317 182.952 C 291.038 183.332,290.748 184.038,290.671 184.520 C 290.593 185.003,290.452 185.398,290.356 185.398 C 290.147 185.398,289.237 186.973,289.237 187.335 C 289.237 187.476,288.951 188.007,288.601 188.516 C 288.251 189.025,287.897 189.724,287.815 190.070 C 287.733 190.415,287.451 190.990,287.188 191.347 C 286.470 192.322,286.173 196.827,286.415 203.077 C 286.454 204.097,286.700 204.110,304.922 204.110 L 322.012 204.110 322.900 203.635 C 324.003 203.045,324.078 202.643,324.041 197.536 C 324.012 193.348,323.928 192.828,323.202 192.290 C 322.496 191.767,318.902 191.149,317.716 191.347 C 314.028 191.962,306.059 191.563,304.397 190.681 C 303.647 190.283,303.520 190.141,303.810 190.030 C 304.304 189.841,304.813 188.818,304.813 188.017 C 304.813 187.661,304.907 187.312,305.021 187.242 C 305.135 187.171,305.397 186.557,305.602 185.877 C 305.807 185.197,306.187 184.397,306.447 184.100 C 306.706 183.802,307.031 183.220,307.170 182.806 C 307.308 182.392,307.711 181.789,308.064 181.466 C 308.418 181.143,308.707 180.677,308.707 180.430 C 308.707 180.183,308.943 179.607,309.232 179.150 C 309.520 178.693,309.861 177.929,309.990 177.452 C 310.118 176.975,310.421 176.333,310.663 176.025 C 310.905 175.718,311.212 175.146,311.345 174.753 C 311.479 174.361,311.855 173.732,312.181 173.354 C 312.507 172.977,312.839 172.280,312.920 171.805 C 313.000 171.330,313.254 170.772,313.483 170.564 C 313.713 170.356,314.001 169.816,314.122 169.365 C 314.256 168.870,314.594 168.366,314.978 168.093 C 315.399 167.793,315.664 167.373,315.762 166.848 C 315.844 166.413,316.077 165.879,316.279 165.662 C 316.643 165.271,317.144 163.898,317.144 163.293 C 317.144 163.121,317.436 162.700,317.793 162.358 C 318.150 162.016,318.442 161.633,318.443 161.506 C 318.443 161.129,319.642 158.767,320.477 157.498 C 320.996 156.708,321.256 156.061,321.258 155.551 C 321.261 154.791,321.431 154.384,322.193 153.311 C 322.479 152.906,322.648 152.074,322.799 150.307 C 322.914 148.963,323.160 147.474,323.345 146.998 C 323.895 145.583,324.016 140.097,323.526 138.753 C 323.315 138.172,323.027 136.431,322.887 134.884 C 322.670 132.474,322.553 131.947,322.071 131.206 C 321.763 130.730,321.443 129.923,321.362 129.412 C 321.197 128.376,319.136 125.388,318.103 124.686 C 317.777 124.465,317.111 123.878,316.624 123.383 C 315.527 122.268,313.883 121.433,312.395 121.236 C 311.672 121.140,311.035 120.893,310.629 120.551 C 309.601 119.686,302.838 119.194,301.169 119.863 M344.650 119.864 C 344.370 119.976,343.867 120.263,343.533 120.501 C 343.198 120.739,342.454 120.995,341.879 121.070 C 340.858 121.203,338.840 122.233,337.696 123.204 C 337.399 123.457,336.895 123.825,336.577 124.022 C 336.259 124.219,335.939 124.567,335.866 124.795 C 335.794 125.023,335.538 125.262,335.297 125.325 C 335.056 125.388,334.752 125.722,334.622 126.068 C 334.491 126.414,334.190 126.787,333.953 126.897 C 333.716 127.006,333.366 127.501,333.175 127.996 C 332.985 128.491,332.561 129.106,332.234 129.364 C 331.906 129.621,331.639 130.000,331.639 130.207 C 331.639 130.414,331.310 131.259,330.908 132.084 L 330.176 133.586 330.027 138.372 C 329.817 145.078,330.066 145.833,332.524 145.941 C 342.960 146.396,343.120 146.310,343.494 140.076 C 343.715 136.383,344.033 135.138,344.815 134.890 C 345.063 134.811,345.323 134.522,345.392 134.247 C 345.536 133.675,346.450 133.478,348.964 133.478 L 350.436 133.478 351.534 134.593 C 352.979 136.061,352.951 135.893,352.925 142.953 L 352.902 149.076 352.247 149.768 C 351.796 150.243,351.547 150.771,351.450 151.455 C 351.351 152.150,351.121 152.630,350.685 153.047 C 350.342 153.375,349.998 153.901,349.920 154.215 C 349.841 154.529,349.651 154.932,349.497 155.111 C 349.343 155.289,349.046 155.960,348.837 156.602 C 348.594 157.350,348.196 157.998,347.728 158.409 C 347.327 158.761,346.997 159.259,346.994 159.514 C 346.992 159.769,346.700 160.407,346.345 160.930 C 345.991 161.454,345.700 162.152,345.700 162.482 C 345.700 162.854,345.464 163.318,345.078 163.705 C 344.691 164.092,344.397 164.668,344.303 165.227 C 344.203 165.816,344.016 166.169,343.759 166.250 C 343.351 166.380,343.009 167.071,342.781 168.231 C 342.707 168.605,342.462 169.079,342.235 169.284 C 342.008 169.490,341.707 170.008,341.565 170.437 C 341.424 170.866,341.087 171.391,340.817 171.604 C 340.546 171.816,340.256 172.304,340.172 172.688 C 340.088 173.072,339.782 173.696,339.494 174.075 C 339.205 174.454,338.868 175.136,338.744 175.592 C 338.621 176.047,338.334 176.621,338.107 176.867 C 337.881 177.113,337.461 177.912,337.175 178.642 C 336.888 179.372,336.207 180.519,335.660 181.190 C 335.113 181.862,334.617 182.645,334.558 182.931 C 334.499 183.217,334.402 183.690,334.341 183.982 C 334.281 184.275,333.996 184.767,333.709 185.077 C 333.422 185.387,333.118 186.044,333.035 186.536 C 332.943 187.084,332.690 187.584,332.385 187.824 C 332.111 188.040,331.768 188.580,331.624 189.024 C 331.480 189.469,331.176 190.097,330.949 190.421 C 330.092 191.644,329.653 202.759,330.432 203.537 C 331.008 204.113,332.880 204.182,348.080 204.187 C 364.128 204.192,365.836 204.124,366.362 203.453 C 366.929 202.729,366.737 192.923,366.144 192.337 C 365.695 191.893,363.347 191.353,362.358 191.466 C 362.061 191.500,361.087 191.503,360.195 191.473 C 357.216 191.372,355.354 191.393,351.909 191.564 L 348.490 191.734 347.731 191.000 C 346.922 190.216,346.839 189.082,347.552 188.545 C 347.862 188.312,349.185 185.713,349.485 184.749 C 349.578 184.451,349.880 183.937,350.156 183.606 C 350.433 183.275,350.753 182.667,350.866 182.255 C 350.980 181.843,351.360 181.264,351.711 180.969 C 352.195 180.561,352.376 180.193,352.461 179.444 C 352.522 178.902,352.736 178.276,352.937 178.054 C 353.138 177.832,353.439 177.196,353.606 176.640 C 353.773 176.084,354.204 175.355,354.565 175.019 C 354.989 174.622,355.219 174.196,355.219 173.806 C 355.219 173.396,355.459 172.986,355.976 172.512 C 356.451 172.077,356.733 171.619,356.733 171.282 C 356.733 170.988,357.015 170.393,357.358 169.960 C 357.702 169.528,358.051 168.812,358.134 168.369 C 358.217 167.927,358.569 167.242,358.915 166.847 C 359.262 166.452,359.546 165.884,359.546 165.584 C 359.546 165.239,359.822 164.787,360.301 164.348 C 361.064 163.649,361.365 162.896,362.033 160.013 C 362.368 158.565,362.313 158.648,363.259 158.175 C 363.827 157.890,364.005 157.645,364.107 157.004 C 364.178 156.559,364.389 156.023,364.575 155.815 C 364.761 155.606,365.026 154.997,365.163 154.462 C 365.300 153.926,365.606 153.066,365.843 152.550 C 366.948 150.135,367.051 135.450,365.980 132.936 C 365.676 132.222,365.358 131.273,365.274 130.826 C 365.182 130.336,364.886 129.815,364.527 129.513 C 364.199 129.238,363.810 128.644,363.661 128.194 C 363.513 127.744,363.159 127.173,362.875 126.926 C 362.591 126.679,362.358 126.386,362.358 126.276 C 362.358 126.165,362.043 125.589,361.659 124.996 C 361.014 124.001,360.631 123.703,358.619 122.640 C 358.260 122.450,357.859 122.150,357.728 121.972 C 357.350 121.459,356.717 121.216,355.358 121.063 C 354.434 120.960,353.989 120.794,353.713 120.454 C 353.128 119.732,346.119 119.275,344.650 119.864 M308.276 121.147 C 308.706 121.367,309.661 121.702,310.398 121.893 C 312.674 122.483,315.949 124.530,317.144 126.110 C 317.442 126.503,317.929 127.080,318.227 127.393 C 319.185 128.397,320.375 130.577,320.620 131.774 C 320.750 132.413,321.058 133.220,321.304 133.566 C 321.932 134.450,322.137 137.993,321.968 145.033 L 321.833 150.640 321.219 151.790 C 320.882 152.422,320.605 153.112,320.605 153.322 C 320.604 153.533,320.215 154.473,319.739 155.413 C 319.264 156.352,318.875 157.256,318.875 157.421 C 318.875 157.586,318.724 157.778,318.540 157.849 C 318.124 158.009,316.582 161.195,316.376 162.319 C 316.293 162.774,316.008 163.407,315.742 163.726 C 315.476 164.044,315.087 164.646,314.878 165.062 C 314.669 165.479,314.326 166.014,314.117 166.252 C 313.908 166.490,313.621 167.045,313.480 167.485 C 313.339 167.926,312.997 168.621,312.719 169.030 C 312.441 169.440,312.146 170.080,312.065 170.452 C 311.983 170.825,311.695 171.395,311.425 171.720 C 311.154 172.044,310.814 172.677,310.667 173.126 C 310.521 173.575,310.181 174.208,309.913 174.532 C 309.645 174.856,309.315 175.445,309.180 175.841 C 309.045 176.237,308.701 176.838,308.415 177.178 C 308.130 177.517,307.830 178.233,307.750 178.768 C 307.662 179.352,307.349 180.062,306.966 180.544 C 306.615 180.985,306.328 181.465,306.328 181.610 C 306.328 181.755,306.088 182.132,305.794 182.448 C 305.501 182.765,305.161 183.397,305.038 183.852 C 304.915 184.308,304.624 184.900,304.391 185.169 C 304.158 185.438,303.854 186.013,303.715 186.447 C 303.577 186.881,303.225 187.492,302.933 187.805 C 302.641 188.118,302.174 189.116,301.894 190.022 L 301.386 191.670 301.848 191.994 C 302.556 192.490,302.991 192.516,312.580 192.627 C 318.279 192.694,321.617 192.813,321.759 192.954 C 322.111 193.307,322.085 202.605,321.731 202.962 C 321.428 203.267,292.689 203.525,289.988 203.247 C 287.926 203.035,288.048 203.355,288.048 198.107 C 288.048 193.103,288.015 193.280,289.479 190.289 C 289.822 189.588,290.103 188.895,290.103 188.750 C 290.103 188.605,290.393 188.120,290.749 187.673 C 291.104 187.226,291.489 186.517,291.605 186.098 C 291.721 185.679,292.001 185.131,292.227 184.880 C 292.453 184.629,293.399 182.818,294.328 180.855 C 295.257 178.891,296.107 177.250,296.217 177.206 C 296.327 177.163,296.696 176.506,297.037 175.746 C 297.377 174.986,297.750 174.365,297.864 174.365 C 297.978 174.365,298.244 173.902,298.454 173.337 C 298.665 172.772,299.062 172.034,299.337 171.698 C 299.613 171.362,299.838 170.920,299.838 170.716 C 299.838 170.512,300.044 169.960,300.296 169.489 C 300.547 169.017,300.976 168.189,301.249 167.648 C 301.521 167.106,301.894 166.539,302.077 166.387 C 302.260 166.235,302.565 165.645,302.753 165.077 C 302.942 164.508,303.337 163.817,303.631 163.541 C 303.924 163.265,304.165 162.935,304.165 162.807 C 304.166 162.679,304.457 161.990,304.813 161.276 C 305.169 160.562,305.461 159.775,305.462 159.527 C 305.462 159.279,305.744 158.825,306.088 158.519 C 306.433 158.212,306.834 157.587,306.980 157.131 C 307.127 156.674,307.413 156.106,307.616 155.868 C 307.820 155.630,308.164 154.949,308.380 154.354 C 308.597 153.759,308.898 153.199,309.048 153.109 C 309.198 153.019,309.492 152.484,309.701 151.919 C 309.909 151.354,310.296 150.503,310.559 150.027 C 311.208 148.856,311.655 140.848,311.323 136.348 C 311.312 136.201,311.064 135.812,310.771 135.482 C 310.478 135.153,309.914 134.447,309.518 133.914 C 307.454 131.131,301.509 131.847,299.676 135.100 C 299.386 135.616,299.287 136.539,299.196 139.597 C 299.067 143.908,299.148 143.711,297.350 144.060 C 294.145 144.683,289.512 144.412,288.625 143.550 C 287.757 142.706,288.378 133.412,289.407 131.859 C 289.775 131.303,290.135 130.577,290.208 130.246 C 290.281 129.915,290.627 129.369,290.979 129.033 C 291.330 128.696,291.617 128.293,291.617 128.137 C 291.617 127.981,291.709 127.853,291.821 127.853 C 291.933 127.853,292.590 127.162,293.281 126.318 C 293.972 125.474,294.841 124.622,295.212 124.425 C 297.175 123.383,297.835 122.990,298.360 122.552 C 298.756 122.221,299.465 121.991,300.624 121.819 C 301.551 121.681,302.549 121.412,302.840 121.221 C 304.082 120.407,306.754 120.371,308.276 121.147 M352.082 121.257 C 352.579 121.543,353.526 121.819,354.306 121.905 C 355.078 121.991,355.813 122.204,356.007 122.398 C 356.537 122.928,359.150 124.824,359.351 124.824 C 359.574 124.824,361.493 126.675,361.493 126.890 C 361.493 126.977,361.779 127.513,362.128 128.081 C 362.478 128.649,362.831 129.470,362.913 129.905 C 362.994 130.340,363.298 130.977,363.587 131.321 C 363.994 131.805,364.141 132.291,364.241 133.480 C 364.346 134.726,364.485 135.159,364.986 135.790 L 365.603 136.566 365.603 142.277 C 365.603 147.576,365.572 148.051,365.167 148.843 C 364.927 149.313,364.593 150.405,364.424 151.269 C 364.250 152.153,363.700 153.691,363.165 154.786 C 362.642 155.857,361.988 157.366,361.711 158.140 C 361.435 158.913,361.045 159.740,360.845 159.978 C 360.645 160.216,360.350 160.752,360.190 161.168 C 360.030 161.585,359.738 162.137,359.542 162.396 C 359.345 162.655,359.007 163.337,358.790 163.911 C 358.574 164.484,358.186 165.209,357.928 165.520 C 357.670 165.832,357.328 166.416,357.169 166.818 C 357.009 167.221,356.765 167.696,356.626 167.875 C 356.488 168.053,356.198 168.674,355.984 169.256 C 355.769 169.837,355.427 170.478,355.224 170.682 C 355.021 170.885,354.674 171.554,354.453 172.167 C 354.232 172.781,353.968 173.283,353.866 173.283 C 353.764 173.283,353.453 173.798,353.175 174.427 C 352.896 175.057,352.519 175.696,352.335 175.848 C 352.152 176.001,351.935 176.435,351.854 176.813 C 351.773 177.192,351.426 178.037,351.084 178.691 C 350.741 179.346,350.459 179.978,350.458 180.097 C 350.457 180.216,350.116 180.741,349.700 181.264 C 349.285 181.786,348.945 182.401,348.945 182.630 C 348.945 183.159,348.595 183.842,347.970 184.532 C 347.700 184.830,347.410 185.302,347.326 185.582 C 347.241 185.862,346.945 186.425,346.668 186.833 C 346.391 187.241,346.097 187.880,346.015 188.253 C 345.934 188.625,345.635 189.367,345.351 189.900 C 343.952 192.532,344.074 192.565,355.435 192.644 C 360.254 192.678,364.460 192.774,364.782 192.858 C 365.559 193.061,365.642 193.708,365.560 198.913 L 365.495 203.019 364.458 203.193 C 363.103 203.420,331.513 203.300,331.280 203.067 C 331.182 202.969,331.131 200.730,331.167 198.091 L 331.232 193.294 331.868 192.059 C 332.218 191.379,332.504 190.681,332.504 190.507 C 332.504 190.333,332.732 189.915,333.011 189.579 C 333.290 189.242,333.693 188.505,333.906 187.939 C 334.119 187.374,334.366 186.912,334.455 186.912 C 334.544 186.912,334.838 186.352,335.109 185.668 C 335.379 184.984,335.832 184.171,336.115 183.863 C 336.399 183.554,336.688 182.949,336.758 182.518 C 336.837 182.030,337.076 181.609,337.393 181.401 C 338.015 180.993,339.348 178.175,339.547 176.844 C 339.642 176.214,339.839 175.789,340.102 175.649 C 340.326 175.529,340.660 175.070,340.844 174.630 C 341.028 174.190,341.365 173.631,341.593 173.388 C 341.821 173.145,342.161 172.514,342.347 171.985 C 342.534 171.456,342.870 170.826,343.094 170.585 C 343.318 170.343,343.572 169.768,343.657 169.305 C 343.743 168.843,344.018 168.265,344.270 168.021 C 344.825 167.482,346.075 165.138,348.153 160.736 C 348.349 160.319,348.632 159.786,348.782 159.551 C 349.951 157.712,350.443 156.788,350.760 155.833 C 350.962 155.226,351.311 154.562,351.537 154.357 C 351.763 154.153,352.100 153.539,352.287 152.993 C 352.473 152.447,352.821 151.791,353.060 151.536 C 353.302 151.279,353.602 150.503,353.733 149.793 C 353.864 149.089,354.149 148.075,354.367 147.539 C 355.769 144.100,354.703 135.213,352.691 133.564 C 350.849 132.055,345.810 131.907,344.496 133.324 C 344.209 133.633,343.847 133.964,343.690 134.060 C 342.416 134.841,341.964 136.162,341.799 139.583 C 341.608 143.552,341.641 143.460,340.230 143.984 C 338.434 144.650,332.486 144.374,331.464 143.576 C 330.974 143.194,331.194 134.953,331.709 134.384 C 331.926 134.145,332.251 133.234,332.431 132.361 C 332.614 131.473,332.900 130.693,333.080 130.591 C 333.257 130.491,333.583 130.004,333.804 129.510 C 334.024 129.015,334.844 127.929,335.625 127.096 C 336.406 126.263,337.046 125.471,337.046 125.335 C 337.047 125.200,337.382 125.026,337.792 124.949 C 338.307 124.852,338.747 124.544,339.216 123.951 C 339.652 123.401,340.073 123.094,340.389 123.094 C 340.661 123.094,341.137 122.894,341.447 122.650 C 341.762 122.402,342.610 122.111,343.369 121.990 C 344.116 121.871,345.074 121.546,345.498 121.268 C 346.841 120.385,350.556 120.379,352.082 121.257 " stroke="none" fill="#f2cc9b" fill-rule="evenodd"></path></g></svg>