<?xml version="1.0" encoding="UTF-8" standalone="no"?>
<!-- Created with Inkscape (http://www.inkscape.org/) -->

<svg
   width="419.09048mm"
   height="123.656mm"
   viewBox="0 0 419.09048 123.656"
   version="1.1"
   id="svg1213"
   inkscape:version="1.1.1 (c3084ef, 2021-09-22)"
   sodipodi:docname="recsys.svg"
   xmlns:inkscape="http://www.inkscape.org/namespaces/inkscape"
   xmlns:sodipodi="http://sodipodi.sourceforge.net/DTD/sodipodi-0.dtd"
   xmlns="http://www.w3.org/2000/svg"
   xmlns:svg="http://www.w3.org/2000/svg">
  <sodipodi:namedview
     id="namedview1215"
     pagecolor="#ffffff"
     bordercolor="#666666"
     borderopacity="1.0"
     inkscape:pageshadow="2"
     inkscape:pageopacity="0.0"
     inkscape:pagecheckerboard="0"
     inkscape:document-units="mm"
     showgrid="false"
     inkscape:zoom="0.22392792"
     inkscape:cx="790.43293"
     inkscape:cy="78.150148"
     inkscape:window-width="1407"
     inkscape:window-height="619"
     inkscape:window-x="0"
     inkscape:window-y="25"
     inkscape:window-maximized="0"
     inkscape:current-layer="layer1" />
  <defs
     id="defs1210" />
  <g
     inkscape:label="Layer 1"
     inkscape:groupmode="layer"
     id="layer1"
     transform="translate(103.25051,30.043643)">
    <g
       id="svgg"
       transform="matrix(1.0583333,0,0,1.0583435,-103.23987,-78.146547)">
      <path
         id="path0"
         d="m 295.981,100 c 0.001,0.691 0.04,0.949 0.087,0.572 0.047,-0.376 0.046,-0.942 -0.002,-1.256 -0.048,-0.315 -0.086,-0.007 -0.085,0.684 m -150.222,26.825 c -4.104,0.875 -6.286,3.153 -6.638,6.931 l -0.124,1.323 h 2.187 2.188 l 0.256,-1.24 c 0.563,-2.729 3.261,-3.898 7.111,-3.082 2.502,0.53 3.346,1.408 3.347,3.484 10e-4,2.03 -0.219,2.199 -3.405,2.621 -0.576,0.076 -1.236,0.172 -1.466,0.214 -0.231,0.041 -1.408,0.224 -2.617,0.407 -6.298,0.949 -8.795,3.163 -8.817,7.821 -0.03,6.478 8.011,10.07 13.666,6.103 0.652,-0.457 1.267,-0.831 1.367,-0.831 0.1,0 0.475,-0.268 0.833,-0.595 l 0.652,-0.596 0.237,0.793 c 0.529,1.766 2.696,2.783 5.078,2.383 1.879,-0.315 1.877,-0.313 1.808,-2.14 l -0.061,-1.625 -1.213,-0.063 c -1.664,-0.087 -1.614,0.192 -1.614,-8.948 0,-9.711 -0.059,-9.953 -2.845,-11.678 -2.185,-1.353 -6.805,-1.949 -9.93,-1.282 m 26.283,-0.179 c -2.4,0.52 -4.532,1.927 -6.127,4.044 -1.036,1.376 -1.629,2.648 -1.955,4.198 -0.132,0.623 -0.346,1.265 -0.477,1.427 -0.317,0.393 -0.329,7.094 -0.013,7.305 0.123,0.082 0.379,0.788 0.569,1.568 0.46,1.893 1.98,4.311 3.291,5.237 2.365,1.671 2.78,1.867 4.575,2.164 6.74,1.115 12.598,-3.176 12.598,-9.228 v -0.548 l -2.142,0.059 -2.142,0.06 -0.187,0.628 c -0.678,2.278 -2.355,4.511 -3.65,4.861 -0.755,0.204 -3.562,0.207 -4.284,0.005 -3.646,-1.02 -5.173,-8.895 -2.775,-14.318 2.05,-4.639 9.147,-4.63 10.387,0.013 0.507,1.899 0.351,1.795 2.694,1.795 h 2.099 l -0.008,-0.68 c -0.065,-6.025 -5.855,-10.018 -12.453,-8.59 m 26.387,0.003 c -1.65,0.197 -3.706,1.318 -4.889,2.665 l -0.66,0.753 v -1.142 c 0,-1.839 0.046,-1.805 -2.409,-1.805 -1.771,0 -2.177,0.059 -2.281,0.332 -0.23,0.6 -0.144,23.957 0.09,24.394 0.189,0.353 0.452,0.405 2.054,0.405 2.761,0 2.532,0.693 2.566,-7.748 0.031,-7.591 0.187,-9.245 1.032,-10.901 1.532,-3.003 6.722,-3.725 8.058,-1.12 0.396,0.774 0.421,1.288 0.473,9.822 0.069,11.178 -0.235,9.947 2.455,9.947 h 2.188 l 0.078,-7.905 c 0.043,-4.349 0.137,-8.142 0.21,-8.43 0.072,-0.288 0.215,-0.864 0.319,-1.281 0.735,-2.956 4.513,-4.656 7.323,-3.296 1.718,0.832 1.708,0.763 1.713,11.411 l 0.005,9.243 0.471,0.126 c 0.616,0.165 3.588,0.169 4.014,0.005 0.418,-0.16 0.504,-17.889 0.096,-19.81 -0.753,-3.546 -3.105,-5.527 -6.751,-5.686 -3.165,-0.137 -5.192,0.544 -7.163,2.409 -1.135,1.073 -1.541,1.144 -1.554,0.271 -0.021,-1.458 -4.397,-3.022 -7.438,-2.659 m 48.063,0.325 c -6.111,2.069 -9.392,9.363 -7.674,17.06 0.582,2.604 3.537,7.17 4.642,7.17 0.135,0 0.417,0.191 0.628,0.424 1.236,1.365 6.838,1.753 10.048,0.696 8.705,-2.868 10.328,-19.074 2.419,-24.15 -2.534,-1.626 -7.172,-2.179 -10.063,-1.2 m 28.856,-0.156 c -1.18,0.305 -2.778,1.435 -3.93,2.779 l -0.839,0.979 -0.002,-1.728 -10e-4,-1.728 h -2.199 -2.199 l 0.003,12.304 c 0.002,6.767 0.073,12.409 0.157,12.537 0.207,0.313 3.675,0.382 4.232,0.084 0.425,-0.227 0.432,-0.359 0.42,-7.918 -0.008,-5.502 0.061,-7.896 0.242,-8.42 0.985,-2.847 2.465,-3.943 5.627,-4.167 l 1.78,-0.126 0.06,-2.181 c 0.033,-1.2 -0.024,-2.265 -0.128,-2.368 -0.298,-0.299 -2.145,-0.325 -3.223,-0.047 m 12.169,0.369 c -5.95,2.151 -8.936,10.026 -6.797,17.924 1.873,6.915 10.688,9.766 15.831,5.12 l 0.831,-0.751 v 1.501 c 0,5.19 -2.011,7.404 -6.705,7.379 -2.871,-0.014 -4.593,-1.045 -4.913,-2.94 -0.167,-0.987 -0.376,-1.069 -2.727,-1.068 -2.208,0 -2.286,0.059 -2.016,1.521 0.796,4.301 4.212,6.499 9.974,6.415 4.865,-0.07 7.855,-1.605 9.477,-4.864 1.415,-2.845 1.413,-2.816 1.413,-17.11 v -12.879 l -2.147,-0.06 -2.146,-0.06 v 1.162 1.161 l -1.133,-0.922 c -2.361,-1.923 -6.089,-2.56 -8.942,-1.529 m -34.674,3.875 c 2.813,1.244 4.114,4.222 3.855,8.825 -0.392,6.961 -3.117,9.806 -8.43,8.803 -4.593,-0.866 -6.474,-8.144 -3.762,-14.554 1.33,-3.143 5.067,-4.521 8.337,-3.074 m 40.7,0.262 c 5.628,2.413 5.467,14.174 -0.231,16.762 -5.806,2.637 -10.053,-4.062 -7.841,-12.371 1.069,-4.017 4.54,-5.905 8.072,-4.391 m -139.475,10.874 c -0.154,2.695 -0.49,3.534 -1.854,4.636 -4.08,3.292 -9.592,2.46 -9.595,-1.448 -0.003,-2.46 1.228,-3.45 5.13,-4.13 4.63,-0.807 5.418,-0.965 5.732,-1.149 0.669,-0.39 0.719,-0.211 0.587,2.091 m 74.257,4.328 c -0.361,0.146 -0.37,5.115 -0.011,5.474 0.414,0.414 4.904,0.343 5.067,-0.08 0.399,-1.04 0.129,-5.274 -0.344,-5.401 -0.561,-0.15 -4.337,-0.144 -4.712,0.007"
         stroke="none"
         fill="#6c7374"
         fill-rule="evenodd" />
      <path
         id="path1"
         d="m 48.063,45.589 c -3.773,0.329 -8.053,1.216 -11.909,2.468 -1.251,0.406 -2.385,0.739 -2.52,0.739 -0.134,0 -1.278,0.516 -2.541,1.147 -1.264,0.631 -2.351,1.149 -2.418,1.152 -0.244,0.009 -4.71,2.562 -5.115,2.923 -0.23,0.206 -1.031,0.775 -1.779,1.265 -4.643,3.041 -10.902,9.578 -13.58,14.183 -0.483,0.829 -0.973,1.567 -1.09,1.639 -0.258,0.16 -2.241,4.112 -2.94,5.858 -0.276,0.691 -0.556,1.304 -0.622,1.362 -0.603,0.525 -2.594,7.795 -3.24,11.832 -0.432,2.698 -0.423,13.101 0.013,15.812 0.706,4.387 2.735,11.727 3.241,11.727 0.096,0 0.238,0.296 0.317,0.656 0.197,0.895 2.798,6.231 3.265,6.699 0.207,0.207 0.577,0.769 0.821,1.248 0.245,0.479 0.979,1.578 1.632,2.441 0.653,0.863 1.297,1.76 1.43,1.993 0.134,0.233 0.329,0.481 0.435,0.552 0.105,0.071 0.852,0.883 1.66,1.804 0.808,0.921 1.972,2.147 2.587,2.723 0.615,0.575 1.361,1.293 1.657,1.594 0.296,0.301 1.387,1.175 2.424,1.942 1.036,0.768 2.026,1.518 2.199,1.667 0.981,0.851 1.865,1.399 4.816,2.988 0.403,0.217 0.78,0.454 0.838,0.525 0.24,0.299 3.244,1.687 4.729,2.186 0.881,0.296 2.106,0.761 2.722,1.033 5.465,2.417 18.512,3.539 25.894,2.227 2.67,-0.474 7.306,-1.598 7.872,-1.908 0.622,-0.34 4.099,-1.679 4.361,-1.679 0.324,0 3.718,-1.723 3.811,-1.935 0.039,-0.087 0.159,-0.159 0.268,-0.159 0.321,0 4.505,-2.497 5.087,-3.036 0.294,-0.272 1.037,-0.829 1.65,-1.236 2.715,-1.802 9.088,-8.225 10.097,-10.176 0.179,-0.347 0.398,-0.63 0.486,-0.63 0.175,0 1.924,-2.585 1.924,-2.844 0,-0.088 0.13,-0.309 0.29,-0.491 0.576,-0.656 2.847,-4.802 3.348,-6.111 0.282,-0.737 0.945,-2.444 1.474,-3.793 4.206,-10.729 4.077,-26.105 -0.309,-36.709 -0.476,-1.152 -1.071,-2.613 -1.322,-3.246 -0.545,-1.377 -1.272,-2.781 -1.642,-3.172 -0.148,-0.156 -0.479,-0.708 -0.736,-1.226 -0.718,-1.447 -2.427,-4.13 -2.931,-4.599 -0.248,-0.231 -0.758,-0.87 -1.133,-1.419 -0.376,-0.549 -1.146,-1.563 -1.712,-2.254 -1.079,-1.318 -1.695,-1.97 -1.187,-1.257 0.164,0.231 -0.507,-0.382 -1.492,-1.361 -2.854,-2.836 -6.753,-6.073 -7.315,-6.073 -0.068,0 -0.339,-0.201 -0.602,-0.446 -0.433,-0.404 -1.372,-0.961 -4.522,-2.684 -0.576,-0.315 -1.306,-0.637 -1.623,-0.715 -0.317,-0.078 -0.576,-0.226 -0.576,-0.328 0,-0.616 -8.704,-3.406 -13.089,-4.195 -4.179,-0.752 -9.589,-1.036 -13.403,-0.703 m 11.832,7.98 c 3.175,0.571 3.234,0.483 -3.483,5.171 -1.482,1.034 -3.119,2.271 -3.637,2.749 -1.041,0.96 -2.461,1.966 -2.772,1.966 -0.4,0 0.346,-4.68 0.984,-6.178 0.147,-0.345 0.437,-1.269 0.643,-2.053 0.645,-2.448 2.169,-2.753 8.265,-1.655 m -13.127,0.068 c 1.369,0.7 1.539,2.573 0.463,5.106 -0.147,0.346 -0.432,1.5 -0.633,2.565 -0.353,1.865 -0.407,1.978 -1.474,3.088 -0.822,0.855 -1.145,1.369 -1.249,1.99 -0.078,0.46 -0.228,0.89 -0.333,0.955 -0.28,0.173 -0.233,1.224 0.069,1.526 0.166,0.167 0.185,0.314 0.052,0.409 -0.115,0.081 -0.345,0.414 -0.513,0.739 -0.167,0.325 -0.686,0.935 -1.151,1.355 -0.466,0.421 -0.847,0.826 -0.847,0.899 0,0.074 -0.613,0.821 -1.361,1.66 -2.494,2.793 -2.077,2.539 -3.923,2.389 -3.189,-0.26 -4.882,0.506 -6.653,3.012 -1.303,1.844 -1.299,1.842 -5.808,2.126 -4.107,0.259 -3.968,0.286 -5.735,-1.096 -0.474,-0.371 -1.106,-0.849 -1.405,-1.063 -1.098,-0.788 -1.584,-5.614 -0.722,-7.178 2.144,-3.895 9.548,-10.594 14.609,-13.217 0.977,-0.507 1.826,-1.001 1.886,-1.097 0.248,-0.402 6.452,-2.717 8.169,-3.048 0.404,-0.078 1.016,-0.272 1.362,-0.432 1.431,-0.663 4.461,-1.064 5.197,-0.688 m 26.204,4.401 c 0.813,0.476 2.173,1.277 3.021,1.78 0.849,0.503 1.61,0.915 1.691,0.915 0.082,0 0.377,0.246 0.656,0.547 0.28,0.301 1.026,0.903 1.66,1.338 2.727,1.873 8.706,8.365 9.539,10.358 0.533,1.276 -0.633,2.91 -5.559,7.789 -2.346,2.324 -3.699,2.135 -4.362,-0.611 -1.375,-5.695 -2.846,-10.625 -3.17,-10.625 -0.091,0 -0.313,-0.542 -0.492,-1.204 -0.454,-1.677 -2.184,-5.794 -3.58,-8.521 -1.581,-3.089 -1.595,-3.048 0.596,-1.766 M 64,59.188 c 0.792,0.424 1.468,0.583 2.966,0.698 2.071,0.16 2.814,0.537 3.042,1.544 0.107,0.47 1.896,4.681 2.773,6.528 0.551,1.16 2.664,7.571 3.037,9.215 0.131,0.576 0.341,1.261 0.468,1.523 0.531,1.099 -0.385,1.967 -2.711,2.571 -3.298,0.857 -6.704,3.193 -7.534,5.168 -0.674,1.605 -1.395,1.615 -5.712,0.079 -3.562,-1.268 -4.532,-1.55 -7.973,-2.317 -2.805,-0.625 -3.664,-0.972 -3.948,-1.594 -0.261,-0.574 -0.335,-6.249 -0.108,-8.412 l 0.132,-1.264 0.778,-0.104 c 2.358,-0.316 4.35,-3.35 3.801,-5.79 -0.348,-1.552 0.14,-2.343 2.358,-3.817 0.474,-0.315 1.351,-0.979 1.949,-1.475 0.598,-0.497 1.522,-1.186 2.054,-1.532 2.8,-1.819 3.039,-1.871 4.628,-1.021 M 44.205,76.843 c 0.609,0.609 0.612,0.622 0.612,3.165 v 2.553 l -0.995,-0.145 c -2.435,-0.355 -4.105,-3.985 -2.549,-5.541 0.89,-0.891 2.061,-0.904 2.932,-0.032 m -31.94,2.426 c -0.113,0.599 -0.475,1.031 -1.65,1.967 -0.223,0.178 0.027,-0.507 0.634,-1.737 1.017,-2.06 1.374,-2.141 1.016,-0.23 m 80.349,-0.742 c 0.293,0.231 0.733,0.991 1,1.728 0.262,0.724 0.591,1.504 0.731,1.735 2.706,4.457 3.97,21.753 1.762,24.104 -0.962,1.024 -1.729,0.758 -4.437,-1.539 -1.325,-1.123 -3.008,-2.507 -3.741,-3.075 -2.088,-1.619 -2.257,-2.122 -1.46,-4.352 0.852,-2.383 1.07,-3.331 1.07,-4.642 0,-0.749 -0.094,-1.42 -0.209,-1.491 -0.115,-0.071 -0.21,-0.309 -0.21,-0.529 0,-0.616 -0.593,-2.257 -1.381,-3.817 -1.142,-2.265 -1.157,-2.227 2.455,-5.995 2.67,-2.785 3.237,-3.058 4.42,-2.127 M 27.902,84.81 c 0.287,0.226 0.641,0.697 0.786,1.047 0.145,0.349 0.343,0.635 0.441,0.635 0.314,0 0.551,1.331 0.345,1.937 -0.108,0.317 -0.274,0.576 -0.37,0.576 -0.176,0 -2.825,5.132 -3.352,6.492 -0.156,0.404 -0.363,0.788 -0.461,0.856 -0.176,0.121 -2.041,4.618 -2.05,4.943 -0.013,0.502 -0.845,1.171 -1.633,1.315 l -0.872,0.159 -0.347,-1.175 c -0.8,-2.704 -1.975,-6.441 -2.147,-6.831 -1.267,-2.86 -1.381,-6.344 -0.239,-7.284 0.31,-0.255 0.817,-0.907 1.126,-1.448 0.707,-1.238 0.766,-1.272 2.543,-1.436 3.323,-0.309 5.668,-0.228 6.23,0.214 m 16.281,1.016 c 0.516,0.516 0.608,0.803 0.725,2.252 0.128,1.592 0.597,6.201 0.967,9.514 0.307,2.747 0.276,2.962 -0.616,4.157 -0.448,0.601 -0.922,1.519 -1.054,2.042 -0.35,1.391 -1.904,1.931 -9.545,3.319 -5.543,1.006 -6.051,0.967 -6.811,-0.521 -0.211,-0.415 -0.721,-1.157 -1.132,-1.65 -1.19,-1.423 -1.117,-1.868 1.209,-7.318 0.411,-0.964 0.892,-1.972 1.069,-2.242 0.177,-0.27 0.816,-1.448 1.419,-2.617 1.621,-3.14 1.586,-3.113 4.072,-3.084 3.217,0.037 4.304,-0.551 6.844,-3.702 0.794,-0.986 1.956,-1.047 2.853,-0.15 m -33.171,1.269 c 0.505,0.562 1.231,1.17 1.613,1.351 0.976,0.463 1.329,0.94 1.492,2.015 0.078,0.512 0.217,1.031 0.309,1.152 0.092,0.121 0.479,1.492 0.861,3.047 0.382,1.555 1.093,4.083 1.58,5.619 0.979,3.084 0.979,3.223 0,4.367 -0.376,0.44 -0.979,1.386 -1.341,2.104 -0.958,1.898 -1.24,2.029 -3.955,1.847 C 8.95,108.422 8.354,108.042 8.082,106.371 7.242,101.222 6.91,96.459 7.296,95.079 7.409,94.675 7.695,92.858 7.931,91.04 8.42,87.287 8.828,86.32 10.02,86.087 c 0.04,-0.007 0.486,0.446 0.992,1.008 m 43.334,0.668 c 9.155,2.583 9.603,2.85 9.813,5.85 0.145,2.072 -0.039,2.599 -1.122,3.2 -0.403,0.224 -0.78,0.468 -0.838,0.543 -0.132,0.171 -3.13,1.64 -5.34,2.617 -0.922,0.407 -2.049,0.933 -2.505,1.169 -1.025,0.529 -1.385,0.536 -2.022,0.039 -0.275,-0.215 -0.899,-0.593 -1.387,-0.841 -1.27,-0.645 -1.441,-1.037 -1.93,-4.424 -1.396,-9.682 -1.192,-9.994 5.331,-8.153 m 13.1,12.952 c 2.222,2.308 5.194,3.575 8.396,3.581 3.547,0.007 3.724,0.652 2.573,9.421 -0.174,1.325 -0.406,3.166 -0.515,4.092 -0.221,1.874 -1.047,5.768 -1.532,7.217 -0.173,0.519 -0.422,1.367 -0.552,1.885 -0.258,1.027 -1.727,5.818 -2.248,7.33 -0.179,0.518 -0.607,1.555 -0.952,2.304 -0.345,0.748 -0.69,1.502 -0.767,1.675 -0.218,0.492 -3.23,1.921 -4.303,2.042 -1.164,0.131 -2.182,-0.774 -3.487,-3.099 -0.417,-0.744 -1.411,-2.435 -2.208,-3.76 -0.797,-1.324 -1.909,-3.374 -2.472,-4.555 -0.562,-1.18 -1.1,-2.146 -1.195,-2.146 -0.096,0 -0.174,-0.123 -0.174,-0.273 0,-0.15 -0.364,-1.028 -0.811,-1.95 -0.446,-0.923 -0.876,-1.907 -0.956,-2.188 -0.23,-0.808 -1.46,-3.851 -1.604,-3.966 -0.071,-0.058 -0.234,-0.435 -0.36,-0.838 -0.127,-0.403 -0.673,-2.052 -1.213,-3.665 -1.259,-3.761 -1.325,-4.928 -0.339,-6.05 0.41,-0.467 0.819,-1.276 1.031,-2.037 0.387,-1.393 0.715,-1.617 4.462,-3.049 1.333,-0.51 2.715,-1.247 2.94,-1.569 0.063,-0.089 0.517,-0.304 1.009,-0.478 0.492,-0.174 1.148,-0.493 1.457,-0.709 1.532,-1.073 2.154,-0.945 3.82,0.785 m 17.006,1.833 c 2.312,1.619 5.002,3.885 8.372,7.054 2.338,2.198 2.474,2.599 1.522,4.495 -0.288,0.573 -0.524,1.132 -0.524,1.242 0,0.349 -2.477,5.433 -2.808,5.764 -0.174,0.174 -0.59,0.78 -0.924,1.347 -2.697,4.574 -8.526,10.534 -10.303,10.534 -1.83,0 -2.25,-1.176 -1.458,-4.083 2.517,-9.237 3.765,-16.981 3.765,-23.363 0,-2.619 0.021,-2.751 0.514,-3.244 0.644,-0.644 0.542,-0.658 1.844,0.254 m -38.841,5.825 c 0.34,0.285 1.049,0.704 1.575,0.93 1.122,0.481 1.328,0.827 2.128,3.577 1.064,3.656 1.203,4.081 1.486,4.534 0.155,0.247 0.563,1.284 0.906,2.303 0.828,2.458 1.682,4.506 3.043,7.299 0.617,1.267 1.311,2.729 1.542,3.249 0.23,0.52 1.055,2.027 1.833,3.35 0.778,1.323 1.668,2.889 1.978,3.479 0.633,1.203 1.474,2.451 1.723,2.557 0.434,0.184 0.132,1.337 -0.516,1.972 -0.871,0.852 -2.486,1.147 -7.324,1.339 l -3.502,0.138 -0.842,-0.557 c -0.721,-0.477 -2.932,-2.362 -5.662,-4.826 -0.403,-0.364 -1.416,-1.389 -2.251,-2.278 -0.834,-0.889 -1.597,-1.617 -1.695,-1.617 -0.098,0 -0.264,-0.183 -0.367,-0.406 -0.104,-0.223 -0.884,-1.167 -1.733,-2.098 -1.62,-1.776 -2.115,-2.39 -3.724,-4.616 -0.541,-0.749 -1.143,-1.503 -1.338,-1.676 -0.328,-0.29 -1.403,-1.892 -2.81,-4.188 -0.318,-0.519 -0.694,-1.037 -0.836,-1.152 -0.143,-0.115 -0.615,-0.869 -1.05,-1.676 -0.435,-0.806 -0.921,-1.651 -1.08,-1.879 -0.415,-0.594 -0.355,-1.732 0.127,-2.41 0.229,-0.321 0.598,-1.009 0.821,-1.529 0.485,-1.132 0.904,-1.309 3.789,-1.607 2.63,-0.272 8.902,-1.599 11.309,-2.393 1.337,-0.441 1.769,-0.409 2.47,0.181 m -31.361,3.249 c 0.545,0.152 0.878,0.439 1.256,1.087 0.283,0.484 1.057,1.415 1.719,2.069 1.392,1.375 1.396,1.397 0.8,4.471 -0.455,2.345 -0.878,3.076 -1.937,3.345 -1.481,0.376 -2.011,-0.194 -3.971,-4.269 -0.582,-1.21 -1.12,-2.246 -1.195,-2.304 -0.196,-0.15 -0.689,-1.465 -0.818,-2.181 -0.324,-1.806 1.71,-2.895 4.146,-2.218 m 9.318,5.027 c 0.158,0 0.739,0.715 1.291,1.588 0.553,0.873 1.414,2.216 1.915,2.984 0.5,0.768 1.082,1.727 1.293,2.13 0.211,0.403 0.675,1.046 1.031,1.43 0.355,0.383 0.799,0.992 0.986,1.353 0.356,0.689 2.256,3.239 2.684,3.602 0.137,0.117 0.565,0.636 0.953,1.154 0.387,0.518 1.42,1.744 2.295,2.723 4.297,4.81 4.496,5.22 3.104,6.391 -0.998,0.839 -4.805,-0.176 -8.125,-2.166 -1.192,-0.714 -2.282,-1.412 -3.702,-2.372 -0.826,-0.559 -1.588,-1.016 -1.692,-1.016 -0.105,0 -0.466,-0.285 -0.802,-0.633 -0.336,-0.348 -1.435,-1.299 -2.443,-2.113 -1.708,-1.379 -2.199,-1.861 -1.571,-1.544 0.144,0.073 -0.014,-0.104 -0.352,-0.393 l -0.614,-0.524 0.251,-3.417 c 0.515,-7.012 1.367,-9.701 2.931,-9.256 0.154,0.044 0.409,0.079 0.567,0.079 m 247.078,12.356 c 0,0.864 0.037,1.218 0.082,0.786 0.046,-0.432 0.046,-1.139 0,-1.571 -0.045,-0.432 -0.082,-0.079 -0.082,0.785"
         stroke="none"
         fill="#2c84c4"
         fill-rule="evenodd" />
      <path
         id="path2"
         d="m 280.314,47.956 c -3.823,0.775 -6.634,1.758 -7.225,2.527 -0.058,0.074 -0.435,0.291 -0.838,0.482 -5.674,2.68 -9.157,13.11 -6.705,20.077 0.233,0.659 0.423,1.383 0.423,1.607 0,2.12 4.301,7.506 7.54,9.441 0.863,0.516 1.685,1.049 1.826,1.185 0.315,0.301 2.252,1.223 4.77,2.269 2.251,0.936 2.551,1.068 5.183,2.282 1.123,0.517 2.042,0.896 2.042,0.841 0,-0.107 2.753,1.381 2.932,1.584 0.057,0.066 0.521,0.39 1.031,0.72 6.949,4.509 6.259,15.414 -1.153,18.23 -4.626,1.758 -11.312,1.844 -17.47,0.224 -1.094,-0.288 -2.461,-0.63 -3.036,-0.76 -0.576,-0.13 -1.095,-0.299 -1.152,-0.376 -0.231,-0.305 -4.01,-1.725 -4.298,-1.614 -0.549,0.21 -0.449,8.443 0.108,8.926 0.868,0.753 5.413,2.055 9.17,2.627 2.744,0.417 12.666,0.407 14.915,-0.016 2.534,-0.477 6.802,-1.94 7.671,-2.631 0.425,-0.338 1.283,-0.907 1.906,-1.263 5.636,-3.225 8.685,-13.216 6.475,-21.22 -0.858,-3.106 -3.882,-7.452 -5.91,-8.491 -0.337,-0.172 -1.057,-0.645 -1.599,-1.051 -1.085,-0.81 -4.38,-2.536 -5.751,-3.013 -0.479,-0.166 -1.507,-0.639 -2.282,-1.051 -0.776,-0.412 -1.542,-0.749 -1.701,-0.749 -1.235,0 -7.579,-3.344 -9.962,-5.252 -4.175,-3.342 -4.389,-12.169 -0.363,-14.959 0.46,-0.318 0.835,-0.657 0.835,-0.754 0,-0.606 4.143,-1.82 6.807,-1.996 3.968,-0.262 10.253,0.829 13.435,2.332 0.824,0.389 1.815,0.767 2.202,0.84 l 0.703,0.132 0.814,-1.847 c 0.447,-1.015 1.13,-2.539 1.517,-3.387 1.093,-2.393 1.098,-2.488 0.147,-2.872 -0.444,-0.179 -1.185,-0.496 -1.646,-0.704 -5.157,-2.323 -15.694,-3.468 -21.361,-2.32 m -164.782,0.561 c -0.077,0.076 -0.139,15.72 -0.139,34.764 v 34.625 H 120 124.607 V 103.56 89.215 h 5.202 5.201 l 0.594,1.204 c 0.692,1.402 1.709,3.161 2.939,5.078 0.48,0.749 1.122,1.89 1.427,2.536 0.306,0.646 0.856,1.588 1.223,2.094 0.367,0.506 0.916,1.391 1.219,1.967 1.204,2.288 2.794,5.034 2.989,5.161 0.114,0.075 0.508,0.734 0.877,1.466 1.159,2.302 2.559,4.753 2.921,5.115 0.191,0.191 0.657,0.973 1.036,1.738 1.292,2.61 0.509,2.332 6.569,2.332 h 5.29 l -0.001,-0.471 c -10e-4,-0.26 -0.192,-0.754 -0.426,-1.1 -0.233,-0.345 -0.567,-0.922 -0.742,-1.281 -0.174,-0.358 -0.501,-0.849 -0.726,-1.09 -0.225,-0.241 -0.408,-0.494 -0.408,-0.561 0,-0.067 -0.175,-0.377 -0.389,-0.689 -0.214,-0.312 -0.939,-1.51 -1.612,-2.662 -0.672,-1.151 -1.302,-2.188 -1.4,-2.303 -0.251,-0.295 -2.463,-4.078 -2.463,-4.212 0,-0.123 -1.012,-1.504 -1.414,-1.929 -0.144,-0.152 -0.262,-0.392 -0.262,-0.532 0,-0.141 -0.461,-0.987 -1.026,-1.88 -0.564,-0.894 -1.141,-1.903 -1.282,-2.243 -0.14,-0.34 -0.338,-0.618 -0.44,-0.618 -0.101,0 -0.184,-0.098 -0.184,-0.218 0,-0.12 -0.189,-0.421 -0.419,-0.669 -0.231,-0.248 -0.625,-0.88 -0.875,-1.405 -0.25,-0.525 -0.815,-1.503 -1.255,-2.173 -0.441,-0.67 -0.801,-1.27 -0.801,-1.332 0,-0.061 -0.472,-0.817 -1.048,-1.678 -1.141,-1.706 -1.312,-2.368 -0.611,-2.368 0.634,0 4.839,-2.202 5.778,-3.026 3.336,-2.926 5.144,-5.433 5.831,-8.083 0.192,-0.743 0.438,-1.405 0.545,-1.472 0.909,-0.561 0.863,-11.712 -0.048,-11.712 -0.088,0 -0.227,-0.445 -0.308,-0.99 -0.555,-3.7 -4.228,-8.053 -8.359,-9.908 -3.221,-1.446 -3.549,-1.561 -5.878,-2.055 -3.283,-0.696 -25.75,-1.318 -26.339,-0.729 m 23.412,8.54 c 1.893,0.52 4.497,1.908 5.638,3.007 4.642,4.47 3.625,16.082 -1.65,18.83 -0.346,0.179 -0.675,0.388 -0.733,0.463 -0.238,0.309 -2.686,1.243 -3.56,1.358 -0.519,0.068 -1.508,0.217 -2.199,0.332 -0.691,0.114 -3.636,0.208 -6.545,0.208 l -5.288,0.002 V 68.872 56.488 l 6.545,0.113 c 5.139,0.089 6.812,0.187 7.792,0.456 m 48.595,7.67 c -2.145,0.178 -4.377,0.807 -7.225,2.035 -4.447,1.917 -9.212,8.376 -10.855,14.711 -2.163,8.342 -1.422,19.969 1.583,24.853 0.344,0.56 0.813,1.439 1.043,1.953 0.824,1.851 4.168,5.395 6.187,6.558 0.547,0.316 0.995,0.664 0.995,0.774 0,0.11 0.123,0.201 0.272,0.201 0.15,0 0.38,0.107 0.511,0.238 0.411,0.411 4.377,1.813 6.158,2.176 2.616,0.534 11.947,0.341 14.301,-0.296 2.87,-0.776 4.998,-1.524 6.245,-2.195 l 1.204,-0.648 v -3.919 c 0,-2.418 -0.081,-3.968 -0.212,-4.049 -0.184,-0.114 -1.78,0.56 -2.72,1.148 -2.79,1.746 -13.661,2.982 -17.48,1.988 -4.388,-1.143 -7.23,-4.032 -8.733,-8.877 -0.235,-0.758 -0.504,-1.566 -0.598,-1.797 -0.149,-0.365 -0.623,-4.638 -0.623,-5.614 0,-0.33 1.127,-0.354 16.236,-0.354 h 16.237 l -0.02,-4.909 c -0.026,-6.173 -1.301,-12.648 -2.704,-13.73 -0.075,-0.058 -0.58,-0.869 -1.123,-1.803 -1.531,-2.632 -4.558,-5.325 -7.387,-6.569 -3.876,-1.704 -7.035,-2.229 -11.292,-1.875 m 52.88,-0.001 c -4.077,0.3 -9.523,2.186 -11.272,3.903 -0.152,0.149 -0.343,0.272 -0.425,0.272 -0.081,0 -0.943,0.753 -1.916,1.675 -0.972,0.921 -1.696,1.675 -1.608,1.675 0.087,0 -0.016,0.188 -0.23,0.418 -0.564,0.605 -2.073,3.3 -2.588,4.623 -0.244,0.626 -0.527,1.303 -0.63,1.506 -2.487,4.924 -2.575,20.189 -0.148,25.678 1.463,3.306 2.768,5.773 3.463,6.542 2.364,2.617 3.099,3.328 3.766,3.644 0.404,0.192 0.909,0.523 1.121,0.735 3.537,3.537 16.55,4.333 23.556,1.442 0.68,-0.281 0.839,-0.333 1.137,-0.373 0.755,-0.102 0.852,-0.631 0.852,-4.648 0,-4.297 -0.046,-4.444 -1.157,-3.681 -3.023,2.073 -12.886,3.153 -16.644,1.822 -2.898,-1.026 -5.277,-3.264 -6.53,-6.143 -0.665,-1.527 -0.879,-2.31 -1.335,-4.863 -0.679,-3.801 -0.714,-9.5 -0.084,-13.508 0.118,-0.749 0.252,-1.671 0.298,-2.051 1.105,-9.078 9.762,-12.815 21.005,-9.067 1.067,0.356 2.109,0.647 2.316,0.647 0.417,0 2.598,-5.213 2.858,-6.832 l 0.139,-0.864 -2.684,-0.84 c -5.168,-1.617 -8.575,-2.057 -13.26,-1.712 m 138.115,-0.119 c -0.115,0.048 -1.01,0.128 -1.989,0.176 -5.362,0.263 -9.632,2.255 -12.912,6.024 -1.922,2.209 -2.836,6.916 -2.071,10.666 0.199,0.975 0.393,1.927 0.43,2.115 0.105,0.525 0.862,1.936 1.4,2.61 0.756,0.948 3.541,3.645 3.763,3.645 0.109,0 0.547,0.279 0.972,0.619 0.426,0.341 1.81,1.103 3.077,1.693 1.267,0.59 3.058,1.433 3.979,1.875 0.922,0.442 1.91,0.872 2.196,0.955 0.286,0.084 1.319,0.564 2.294,1.066 0.976,0.502 1.875,0.912 1.999,0.912 0.123,0 0.515,0.26 0.87,0.576 0.355,0.317 1.18,0.953 1.832,1.414 2.572,1.816 3.339,5.216 1.861,8.251 -1.578,3.242 -6.972,4.524 -14.628,3.478 -2.083,-0.284 -8.182,-2.027 -8.466,-2.418 -0.154,-0.214 -1.871,-1.06 -2.328,-1.148 -0.375,-0.073 -0.394,0.12 -0.394,3.967 v 4.043 l 0.534,0.534 c 0.544,0.544 3.571,1.655 6.482,2.378 5.183,1.289 16.248,0.46 20.628,-1.545 8.294,-3.798 10.64,-15.99 4.305,-22.38 -1.268,-1.279 -3.994,-3.247 -4.88,-3.523 -0.258,-0.08 -0.594,-0.271 -0.747,-0.423 -0.379,-0.38 -1.827,-1.078 -3.704,-1.786 -4.865,-1.836 -9.548,-4.307 -11.071,-5.841 -3.607,-3.636 -2.17,-8.703 2.746,-9.681 1.736,-0.345 2.229,-0.389 4.346,-0.393 3.728,-0.007 5.287,0.322 10.366,2.184 1.152,0.422 2.236,0.811 2.408,0.864 0.194,0.059 0.436,-0.138 0.629,-0.513 0.602,-1.17 1.106,-2.229 1.257,-2.645 0.084,-0.23 0.448,-1.126 0.809,-1.99 0.862,-2.061 0.849,-2.169 -0.339,-2.677 -2.978,-1.275 -9.293,-2.917 -11.361,-2.954 -0.518,-0.01 -1.649,-0.062 -2.513,-0.117 -0.864,-0.055 -1.665,-0.06 -1.78,-0.011 m -68.791,1.309 c 0.002,0.202 0.34,1.309 0.751,2.461 0.411,1.152 1.013,2.863 1.339,3.802 0.326,0.94 0.733,1.929 0.906,2.199 0.172,0.27 0.601,1.358 0.952,2.418 0.96,2.894 2.31,6.501 2.968,7.934 0.322,0.701 0.796,1.974 1.054,2.827 0.257,0.854 0.884,2.59 1.392,3.857 0.508,1.267 1.1,2.774 1.315,3.35 0.215,0.576 0.641,1.707 0.947,2.513 0.305,0.807 0.591,1.644 0.635,1.861 0.122,0.61 0.769,2.305 0.965,2.527 0.096,0.109 0.174,0.362 0.174,0.561 0,0.199 0.141,0.502 0.313,0.674 0.172,0.172 0.443,0.815 0.603,1.429 0.16,0.614 0.526,1.681 0.813,2.373 0.286,0.691 0.684,1.774 0.883,2.408 0.489,1.556 1.372,3.821 1.601,4.106 0.102,0.127 0.524,1.241 0.937,2.476 0.794,2.371 0.798,2.522 0.108,4.413 -0.21,0.576 -0.497,1.424 -0.638,1.885 -0.14,0.46 -0.43,1.214 -0.644,1.675 -0.578,1.243 -0.963,2.204 -1.259,3.141 -1.63,5.153 -6.163,7.118 -14.078,6.102 l -1.414,-0.182 v 3.696 c 0,2.765 0.066,3.721 0.262,3.794 0.144,0.054 1.11,0.198 2.147,0.321 6.569,0.777 10.161,0.327 13.685,-1.714 2.879,-1.666 5.626,-5.081 7.226,-8.98 0.213,-0.518 0.657,-1.508 0.988,-2.199 0.33,-0.691 0.853,-2.058 1.162,-3.037 0.308,-0.979 0.869,-2.628 1.245,-3.665 0.376,-1.036 0.75,-2.238 0.83,-2.67 0.08,-0.432 0.217,-0.785 0.304,-0.785 0.163,0 1.639,-4.017 1.798,-4.894 0.05,-0.273 0.521,-1.663 1.048,-3.089 0.526,-1.426 1.129,-3.111 1.339,-3.745 0.21,-0.633 0.624,-1.782 0.922,-2.554 0.297,-0.771 0.585,-1.652 0.641,-1.959 0.1,-0.55 0.98,-3.058 1.43,-4.073 0.127,-0.288 0.246,-0.571 0.265,-0.628 0.018,-0.058 0.092,-0.247 0.166,-0.419 0.073,-0.173 0.361,-1.021 0.641,-1.885 0.28,-0.864 0.716,-2.136 0.97,-2.827 0.253,-0.691 0.497,-1.445 0.541,-1.676 0.123,-0.643 1.005,-3.128 1.151,-3.246 0.161,-0.129 1.055,-2.513 0.943,-2.513 -0.044,0 0.203,-0.777 0.55,-1.728 0.703,-1.927 2.073,-6.163 2.05,-6.34 -0.008,-0.063 0.106,-0.237 0.254,-0.386 0.149,-0.15 0.495,-0.971 0.769,-1.825 0.275,-0.855 0.903,-2.731 1.395,-4.171 0.492,-1.44 0.958,-2.926 1.036,-3.303 l 0.141,-0.684 -4.658,0.056 -4.659,0.056 -0.481,1.362 c -0.265,0.748 -0.485,1.54 -0.49,1.76 -0.005,0.219 -0.235,0.879 -0.511,1.466 -0.276,0.587 -0.754,1.915 -1.06,2.952 -0.795,2.686 -2.443,7.845 -2.743,8.586 -0.14,0.346 -0.609,1.759 -1.041,3.141 -0.433,1.383 -1.155,3.644 -1.606,5.027 -0.45,1.382 -0.847,2.607 -0.881,2.722 -0.034,0.115 -0.117,0.351 -0.185,0.524 -0.391,0.996 -1.825,5.484 -1.915,5.995 -0.178,1.011 -1.374,5.183 -1.603,5.591 -0.182,0.325 -0.993,3.748 -1.047,4.42 -0.018,0.229 -0.867,-3.48 -1.262,-5.519 -0.121,-0.624 -0.411,-1.614 -0.644,-2.199 -0.233,-0.585 -0.444,-1.157 -0.469,-1.273 -0.025,-0.115 -0.193,-0.549 -0.374,-0.964 -0.18,-0.416 -0.395,-1.075 -0.478,-1.466 -0.082,-0.391 -0.619,-2.125 -1.193,-3.852 -1.074,-3.233 -1.159,-3.466 -1.704,-4.714 -0.177,-0.403 -0.99,-2.759 -1.807,-5.235 -0.818,-2.476 -1.593,-4.688 -1.722,-4.916 -0.245,-0.431 -1.616,-4.337 -1.748,-4.977 -0.081,-0.397 -1.955,-5.652 -2.651,-7.436 l -0.429,-1.099 h -4.583 c -4.227,0 -4.582,0.028 -4.578,0.366 m -117.911,6.639 c 1.834,0.352 3.788,1.269 5.092,2.391 0.569,0.489 2.238,3.658 2.582,4.904 0.554,2.004 0.612,2.332 0.808,4.6 l 0.141,1.623 h -11.311 -11.311 l 0.12,-1.623 c 0.066,-0.892 0.2,-1.654 0.298,-1.693 0.098,-0.038 0.178,-0.2 0.178,-0.36 0,-0.405 0.937,-3.189 1.37,-4.072 1.582,-3.221 4.274,-5.257 7.59,-5.739 0.263,-0.038 0.514,-0.105 0.559,-0.15 0.105,-0.105 3.21,-0.01 3.884,0.119 m -43.505,58.066 c 0.319,0.049 0.79,0.047 1.048,-0.002 0.257,-0.05 -0.003,-0.089 -0.579,-0.088 -0.576,0.002 -0.787,0.042 -0.469,0.09 m 101.466,-0.002 c 0.261,0.05 0.637,0.049 0.838,-0.004 0.2,-0.052 -0.013,-0.093 -0.474,-0.091 -0.461,0.002 -0.624,0.045 -0.364,0.095 m -28.127,13.151 c 0,4.492 0.028,6.3 0.062,4.017 0.033,-2.282 0.033,-5.958 -0.001,-8.167 -0.033,-2.21 -0.061,-0.343 -0.061,4.15 m -14.415,-7.113 c -0.072,0.187 -0.109,3.702 -0.083,7.81 l 0.047,7.47 0.11,-7.749 c 0.118,-8.313 0.12,-8.037 -0.074,-7.531 m -53.369,4.338 c 0.108,1.98 0.191,2.175 0.223,0.523 0.017,-0.892 -0.04,-1.623 -0.126,-1.623 -0.086,0 -0.13,0.495 -0.097,1.1"
         stroke="none"
         fill="#3c3c3c"
         fill-rule="evenodd" />
    </g>
  </g>
</svg>
