<?xml version="1.0" encoding="UTF-8" standalone="no"?>
<!-- Created with Inkscape (http://www.inkscape.org/) -->
<svg
   xmlns:svg="http://www.w3.org/2000/svg"
   xmlns="http://www.w3.org/2000/svg"
   version="1.0"
   width="573.78998"
   height="167.83"
   id="svg2">
  <defs
     id="defs4">
    <clipPath
       id="clipPath2418">
      <path
         d="M 0.059998,785.16 L 595.276,785.16 L 595.276,0 L 0.059998,0 L 0.059998,785.16 z"
         id="path2420" />
    </clipPath>
  </defs>
  <g
     transform="translate(9.7538399,-4.3957284)"
     id="layer1">
    <g
       transform="matrix(2.3980358,0,0,2.3980358,46.781765,-1136.555)"
       id="g2446">
      <path
         d="M 29.19357,527.25735 L 29.19357,524.8111 L 25.64982,524.8111 C 26.07107,522.86985 26.40857,521.0136 26.74607,519.15735 L 26.83107,519.15735 C 27.58982,519.15735 28.18107,518.56735 28.18107,517.89235 C 28.18107,517.21735 27.67482,516.6261 26.99982,516.54235 C 27.16857,514.6861 27.25232,512.74485 27.25232,510.9736 C 27.92732,510.8886 28.51857,510.38235 28.51857,509.6236 C 28.51857,508.9486 27.92732,508.35735 27.16857,508.35735 C 26.99982,506.5011 26.74607,504.72985 26.40857,502.95735 C 26.91482,502.8736 27.33732,502.36735 27.33732,501.69235 C 27.33732,501.01735 26.83107,500.4261 26.07107,500.4261 C 25.98732,500.4261 25.81857,500.4261 25.73357,500.5111 C 25.22732,498.7386 24.55232,497.0511 23.70857,495.53235 C 24.13107,495.3636 24.38357,494.94235 24.38357,494.4361 C 24.38357,493.7611 23.79357,493.16985 23.03357,493.16985 C 22.86482,493.16985 22.61232,493.25485 22.44357,493.3386 C 21.34607,491.81985 20.16482,490.3861 18.73107,489.20485 C 18.89982,489.0361 18.98482,488.78235 18.98482,488.44485 C 18.98482,487.76985 18.47857,487.17985 17.71857,487.17985 C 17.29732,487.17985 16.95982,487.3486 16.70607,487.6861 C 15.18732,486.75735 13.49982,485.9136 11.72857,485.3236 C 11.72857,485.2386 11.72857,485.15485 11.72857,484.9861 C 11.72857,484.3111 11.22232,483.71985 10.46232,483.71985 C 9.87232,483.71985 9.36607,484.14235 9.19732,484.6486 C 8.26857,484.47985 7.25607,484.3111 6.15982,484.2261 C 5.48482,481.77985 4.04982,479.5861 -0.00018,480.00735 C -0.00018,480.00735 0.16857,481.8636 0.08482,483.5511 C -1.01268,482.45485 -3.20643,481.69485 -5.48393,482.5386 L -4.64018,488.2761 L -7.00268,491.56735 L -9.28143,492.4111 L -10.80018,496.96735 L -19.32268,508.5261 C -19.32268,508.5261 -19.40643,508.69485 -19.40643,508.9486 C -19.40643,509.2011 -19.15393,509.5386 -19.15393,509.5386 L -13.75393,515.78235 L -11.72768,514.09485 L -11.81268,516.6261 L -5.65268,516.6261 C -5.65268,513.5886 -2.10893,508.35735 0.25357,507.5136 C 0.33732,507.5136 4.21857,507.5136 5.14732,507.5136 C 0.92857,513.9261 -6.66518,516.87985 -7.25643,524.8111 L -10.63143,524.8111 L -10.63143,527.25735 L 29.19357,527.25735 z M 23.11857,524.89485 L -4.72518,524.89485 C -4.47143,521.6886 -2.53143,519.3261 -0.33768,517.13235 C 5.65357,511.2261 10.46232,507.42985 10.46232,497.8111 L 8.01607,497.8111 C 8.01607,500.67985 7.42482,503.1261 6.49732,505.1511 C 6.49732,505.2361 0.16857,505.2361 0.16857,505.2361 L -1.60268,503.04235 L -3.45893,504.64485 L -2.19393,506.1636 C -4.47143,507.8511 -6.91893,511.3111 -7.67768,514.2636 L -9.45018,514.2636 L -9.45018,510.12985 L -10.21018,509.6236 L -13.50018,512.40735 L -16.45393,508.8636 L -8.60643,498.0636 L -7.34018,494.4361 L -2.86893,492.91735 L -3.54393,490.9761 L -2.10893,488.86735 L -2.70018,484.73235 C -1.43393,485.3236 -0.50643,486.16735 -0.50643,488.2761 L 1.77232,488.6986 C 2.44732,485.6611 2.44732,482.6236 2.44732,482.6236 C 4.47232,483.8886 4.30357,489.6261 4.21857,490.46985 L 6.66607,490.89235 C 6.66607,490.89235 6.74982,490.0486 6.74982,489.0361 C 6.74982,488.3611 6.74982,487.6861 6.66607,486.84235 C 22.27482,488.6986 28.01232,504.72985 23.11857,524.89485 z M -2.36268,496.88235 L -2.44643,495.3636 L -6.41268,495.7861 L -6.15893,498.90735 L -2.36268,496.88235 z M -12.06643,506.2486 L -13.58393,506.1636 C -13.58393,507.1761 -13.92268,508.35735 -14.51268,509.2011 L -12.74143,509.8761 C -12.15018,509.03235 -11.98143,507.34485 -12.06643,506.2486 z M -10.63143,539.7461 L 29.10982,539.7461 L 29.10982,534.85097 L -10.63143,534.85097 L -10.63143,539.7461 z M 211.52982,508.6111 C 211.52982,507.2611 210.26357,505.99485 208.66107,505.99485 C 206.63607,505.99485 204.52607,508.1886 203.09232,510.9736 L 203.00732,510.9736 L 203.00732,505.9111 C 200.81357,506.75485 198.45107,507.2611 195.74982,507.76735 L 195.74982,509.2011 C 198.45107,509.70735 198.61857,509.70735 198.61857,512.5761 L 198.61857,522.1111 C 198.61857,524.97985 198.36732,525.23235 195.41232,525.4861 L 195.41232,527.1736 L 206.97357,527.1736 L 206.97357,525.4861 C 203.34482,525.23235 203.00732,524.97985 203.00732,522.1111 L 203.00732,514.2636 C 203.93607,511.6486 205.36982,510.38235 206.46732,510.38235 C 207.14232,510.38235 207.90107,510.6361 208.49232,511.2261 C 209.41982,512.2386 211.52982,510.5511 211.52982,508.6111 z M 192.54357,513.50485 C 192.54357,509.5386 189.25232,505.99485 185.11857,505.99485 C 180.13982,505.99485 175.16232,511.14235 175.16232,517.7236 C 175.16232,523.1236 178.62107,527.67985 184.61232,527.67985 C 186.13107,527.67985 189.42107,526.8361 192.20607,523.3761 L 191.10857,521.85735 C 189.42107,523.54485 188.07107,524.0511 186.21482,524.0511 C 182.92482,524.0511 179.63357,521.6886 179.46482,516.11985 C 184.78107,515.9511 190.60232,515.52985 191.36232,515.44485 C 192.28982,515.2761 192.54357,514.76985 192.54357,513.50485 z M 188.07107,512.5761 C 188.07107,513.41985 187.90232,513.6736 186.97482,513.6736 L 179.71857,513.84235 C 180.22482,510.2136 182.24982,508.10485 184.18982,508.10485 C 186.46857,508.10485 188.07107,510.2986 188.07107,512.5761 z M 173.64357,507.09235 L 173.30607,506.5861 C 171.28107,506.8386 169.08732,507.09235 166.89357,507.1761 C 165.45857,506.41735 163.77107,505.99485 161.99982,505.99485 C 157.94982,505.99485 153.05607,508.9486 153.05607,514.43235 C 153.05607,517.46985 155.16482,520.16985 157.44357,520.92985 C 156.68357,521.85735 154.91232,523.3761 152.97107,524.21985 C 152.80232,526.91985 155.33357,528.3561 156.76857,528.8611 C 152.80232,531.89985 151.87482,533.3336 151.87482,535.18985 C 151.87482,538.0586 154.91232,541.60235 160.64982,541.60235 C 167.23107,541.60235 172.88357,537.0461 172.88357,531.64485 C 172.88357,526.91985 168.91857,525.4861 165.96482,525.4861 L 160.90232,525.4861 C 158.87732,525.4861 158.11857,524.55735 158.11857,523.7986 C 158.11857,523.0386 158.96232,521.85735 159.97482,521.51985 C 160.56482,521.51985 161.23982,521.60485 161.49357,521.60485 C 165.71232,521.60485 170.35232,518.81985 170.35232,513.6736 C 170.35232,512.2386 169.84607,510.38235 169.17107,509.45485 L 171.61857,509.70735 C 172.37732,509.2861 173.30607,507.8511 173.64357,507.09235 z M 165.79607,514.0111 C 165.79607,517.89235 164.02482,519.49485 162.16857,519.49485 C 159.63732,519.49485 157.78107,516.9636 157.78107,513.41985 C 157.78107,509.8761 159.80607,508.01985 161.57732,508.01985 C 164.19357,508.01985 165.79607,510.71985 165.79607,514.0111 z M 169.25607,533.4186 C 169.25607,536.20235 166.89357,538.98735 162.67482,538.98735 C 158.87732,538.98735 156.34607,536.7936 156.34607,533.92485 C 156.34607,531.89985 157.94982,529.1986 161.57732,529.1986 C 164.19357,529.1986 165.79607,529.28235 166.97732,529.70485 C 168.24357,530.21235 169.25607,531.64485 169.25607,533.4186 z M 149.59607,527.1736 L 149.59607,525.4861 C 147.06482,525.23235 146.64357,524.97985 146.64357,522.27985 L 146.64357,512.49235 C 146.64357,508.6111 144.28107,505.99485 140.48357,505.99485 C 138.03732,505.99485 134.83107,508.35735 133.73357,509.2861 L 133.73357,505.9111 C 131.53982,506.75485 129.17732,507.2611 126.64607,507.76735 L 126.64607,509.2011 C 129.17732,509.5386 129.34607,509.70735 129.34607,512.5761 L 129.34607,522.27985 C 129.34607,524.97985 128.92482,525.23235 126.05607,525.4861 L 126.05607,527.1736 L 136.34982,527.1736 L 136.34982,525.4861 C 133.98732,525.23235 133.73357,524.97985 133.73357,522.27985 L 133.73357,511.47985 C 134.99982,510.2986 136.85607,509.11735 138.45857,509.11735 C 140.98982,509.11735 142.33982,510.9736 142.33982,514.0111 L 142.33982,522.27985 C 142.33982,524.97985 142.00232,525.23235 139.63982,525.4861 L 139.63982,527.1736 L 149.59607,527.1736 z M 121.16232,498.56985 C 121.16232,496.88235 119.89607,495.61735 118.20857,495.61735 C 116.60607,495.61735 115.33982,496.88235 115.33982,498.56985 C 115.33982,500.1736 116.60607,501.4386 118.20857,501.4386 C 119.89607,501.4386 121.16232,500.1736 121.16232,498.56985 z M 123.77732,527.1736 L 123.77732,525.4861 C 120.82482,525.23235 120.57107,524.97985 120.57107,521.94235 L 120.57107,505.9111 C 118.46232,506.66985 115.84607,507.2611 113.23107,507.76735 L 113.23107,509.2011 C 116.01482,509.5386 116.26857,509.5386 116.26857,512.82985 L 116.26857,521.94235 C 116.26857,524.97985 115.84607,525.23235 112.97732,525.4861 L 112.97732,527.1736 L 123.77732,527.1736 z M 110.78357,508.6111 C 110.78357,507.2611 109.60232,505.99485 107.91482,505.99485 C 105.97482,505.99485 103.86482,508.1886 102.34607,510.9736 L 102.26232,510.9736 L 102.26232,505.9111 C 100.06857,506.75485 97.62107,507.2611 95.08982,507.76735 L 95.08982,509.2011 C 97.70607,509.70735 97.95857,509.70735 97.95857,512.5761 L 97.95857,522.1111 C 97.95857,524.97985 97.62107,525.23235 94.75232,525.4861 L 94.75232,527.1736 L 106.22732,527.1736 L 106.22732,525.4861 C 102.59982,525.23235 102.26232,524.97985 102.26232,522.1111 L 102.26232,514.2636 C 103.18982,511.6486 104.53982,510.38235 105.63732,510.38235 C 106.48107,510.38235 107.15607,510.5511 107.66232,511.2261 C 108.75857,512.2386 110.78357,510.5511 110.78357,508.6111 z M 91.63107,514.9386 C 91.63107,510.5511 88.67732,505.99485 83.44607,505.99485 C 82.85607,505.99485 82.26482,506.07985 81.67482,506.41735 L 77.11857,508.77985 L 77.11857,505.5736 C 74.67107,506.41735 72.30857,507.1761 69.77732,507.68235 L 69.77732,509.11735 C 72.64607,509.36985 72.73107,509.45485 72.73107,512.40735 L 72.73107,534.9361 C 72.73107,537.8061 72.47732,538.0586 69.43982,538.3961 L 69.43982,539.99985 L 81.33732,539.99985 L 81.33732,538.3961 C 77.45607,538.0586 77.11857,537.8061 77.11857,534.9361 L 77.11857,527.00485 C 77.79357,527.25735 78.88982,527.5111 80.23982,527.59485 C 86.56857,526.8361 91.63107,522.0261 91.63107,514.9386 z M 87.07482,516.79485 C 87.07482,523.1236 83.86857,524.97985 81.42107,524.97985 C 79.56482,524.97985 78.04607,524.21985 77.11857,523.20735 L 77.11857,510.71985 C 78.21482,510.04485 79.98732,509.11735 81.33732,509.11735 C 84.54357,509.11735 87.07482,511.47985 87.07482,516.79485 z M 67.24607,518.6511 C 67.24607,508.1886 52.56482,509.8761 52.56482,501.8611 C 52.56482,499.24485 54.16857,497.0511 57.37482,497.0511 C 61.67732,497.0511 63.02732,500.67985 63.87107,503.63235 L 65.64357,503.5486 C 65.55857,500.00485 65.38982,497.97985 65.22107,496.20735 C 62.85857,495.3636 60.49732,494.7736 58.30232,494.7736 C 51.72107,494.7736 48.00857,498.90735 48.00857,503.4636 C 48.00857,513.50485 62.43732,511.5636 62.43732,520.25485 C 62.43732,523.54485 60.32732,525.7386 56.78357,525.7386 C 51.72107,525.7386 50.20232,521.6886 49.10607,517.55485 L 47.16482,517.89235 C 47.33357,520.92985 47.50232,523.88235 48.00857,526.0761 C 50.45607,527.1736 52.98732,527.93235 56.19357,527.93235 C 62.77482,527.93235 67.24607,523.62985 67.24607,518.6511"
         id="path2428"
         style="fill:#000000;fill-opacity:1;fill-rule:nonzero;stroke:none" />
    </g>
  </g>
</svg>
