<svg id="svg" version="1.1" xmlns="http://www.w3.org/2000/svg" xmlns:xlink="http://www.w3.org/1999/xlink" width="400" height="313.22033898305085" viewBox="0, 0, 400,313.22033898305085"><g id="svgg"><path id="path0" d="M156.460 51.164 C 133.740 62.852,117.062 73.636,102.732 85.903 C 97.897 90.043,96.568 91.412,96.324 92.507 C 96.179 93.156,92.098 109.831,88.491 124.511 C 87.560 128.301,86.563 132.459,86.275 133.751 C 85.988 135.043,85.217 138.356,84.562 141.112 C 83.907 143.868,83.078 147.392,82.720 148.943 C 82.362 150.493,81.497 154.229,80.800 157.244 C 80.102 160.258,78.761 166.319,77.821 170.713 C 75.703 180.608,75.223 182.792,74.858 184.182 C 74.700 184.785,74.294 186.617,73.955 188.254 C 72.246 196.513,71.653 199.272,71.095 201.566 C 70.760 202.944,69.643 208.301,68.613 213.469 C 67.583 218.637,66.303 224.980,65.769 227.565 C 65.234 230.149,64.460 234.025,64.049 236.179 C 63.639 238.332,63.013 241.433,62.660 243.070 C 61.604 247.956,61.237 249.834,59.167 260.924 C 58.990 261.872,58.728 263.140,58.584 263.743 C 58.440 264.346,58.152 265.826,57.943 267.032 C 57.734 268.238,57.438 269.633,57.286 270.133 C 56.964 271.189,56.920 272.514,57.207 272.514 C 57.416 272.514,57.998 271.885,60.397 269.068 C 61.204 268.121,62.510 266.641,63.300 265.779 C 65.283 263.618,68.146 260.453,69.969 258.408 C 75.019 252.744,91.576 236.012,96.946 231.147 C 97.980 230.210,98.896 229.374,98.982 229.287 C 105.681 222.588,126.395 205.211,147.446 188.630 C 153.068 184.202,153.019 184.193,152.231 189.446 C 152.058 190.599,151.561 194.644,151.126 198.434 C 150.692 202.224,150.113 207.087,149.840 209.240 C 149.567 211.394,149.218 214.143,149.065 215.348 C 148.912 216.554,148.651 218.669,148.484 220.047 C 148.318 221.425,148.045 223.681,147.877 225.059 C 147.710 226.437,147.348 229.538,147.074 231.950 C 146.602 236.105,146.037 240.751,145.321 246.359 C 145.145 247.737,144.858 249.992,144.682 251.370 C 144.506 252.749,144.235 254.863,144.078 256.069 C 143.922 257.275,143.638 259.671,143.447 261.394 C 143.256 263.117,142.977 265.372,142.828 266.406 C 142.340 269.788,141.825 275.593,141.976 276.016 C 142.065 276.264,145.915 272.679,151.641 267.014 C 156.876 261.836,162.356 256.480,163.818 255.111 C 165.280 253.743,167.747 251.405,169.300 249.916 C 170.852 248.427,172.897 246.524,173.844 245.687 C 174.791 244.851,176.412 243.387,177.446 242.434 C 181.433 238.761,185.441 235.221,189.507 231.783 C 191.832 229.816,193.806 228.128,193.892 228.032 C 196.195 225.461,222.478 204.816,237.588 193.710 C 245.988 187.536,249.176 185.234,254.503 181.494 C 255.364 180.890,258.208 178.886,260.823 177.042 C 268.024 171.963,274.752 167.293,275.803 166.645 C 276.319 166.327,277.914 165.244,279.347 164.239 C 282.240 162.209,282.813 161.410,283.798 158.027 C 283.999 157.338,284.632 155.435,285.206 153.798 C 285.780 152.161,286.547 149.836,286.912 148.630 C 287.276 147.424,287.839 145.732,288.163 144.871 C 288.486 144.009,289.553 140.767,290.534 137.666 C 291.515 134.565,292.941 130.196,293.703 127.956 C 294.465 125.717,295.425 122.827,295.835 121.535 C 296.246 120.243,297.101 117.706,297.735 115.897 C 298.369 114.088,299.091 111.840,299.338 110.903 C 299.586 109.965,299.905 109.049,300.048 108.867 C 300.191 108.685,300.380 108.183,300.469 107.753 C 300.644 106.901,301.505 104.395,302.137 102.897 C 302.355 102.381,302.888 100.901,303.323 99.608 C 303.757 98.316,304.533 96.132,305.046 94.753 C 308.466 85.571,308.466 85.678,305.026 87.695 C 303.769 88.432,297.032 92.348,290.055 96.398 C 272.673 106.487,272.047 106.850,269.381 108.370 C 267.211 109.607,263.877 111.547,256.695 115.750 C 255.145 116.657,253.383 117.678,252.780 118.019 C 251.250 118.884,236.508 127.386,235.552 127.955 C 230.311 131.074,221.146 136.257,220.871 136.257 C 220.353 136.257,220.435 135.201,221.150 132.688 C 221.498 131.464,221.937 129.898,222.126 129.209 C 222.314 128.520,222.577 127.604,222.709 127.173 C 223.091 125.930,223.583 124.148,224.613 120.282 C 225.689 116.237,226.280 114.102,227.084 111.355 C 227.386 110.321,227.934 108.348,228.300 106.969 C 229.667 101.833,231.189 96.256,231.764 94.283 C 232.091 93.164,232.879 90.274,233.516 87.862 C 234.153 85.450,234.785 83.125,234.920 82.694 C 235.274 81.568,236.293 77.882,238.990 67.972 C 239.154 67.369,239.574 65.889,239.924 64.683 C 240.274 63.477,241.056 60.658,241.662 58.418 C 242.268 56.179,243.057 53.277,243.415 51.971 C 244.650 47.468,244.794 47.427,233.516 54.787 C 232.482 55.461,228.254 58.190,224.119 60.850 C 219.984 63.510,212.091 68.711,206.578 72.407 C 196.747 78.999,195.580 79.800,189.733 83.972 C 188.144 85.106,184.236 87.886,181.049 90.150 C 175.037 94.421,168.563 99.203,158.809 106.578 C 151.350 112.218,151.673 112.366,153.513 104.150 C 153.668 103.461,154.070 101.417,154.409 99.608 C 156.187 90.092,157.303 84.285,157.569 83.164 C 157.733 82.475,158.294 79.655,158.817 76.899 C 161.452 63.012,161.996 60.198,162.269 59.045 C 162.725 57.116,164.102 49.762,164.202 48.719 C 164.346 47.222,163.772 47.403,156.460 51.164 M283.947 214.087 C 279.594 215.475,276.248 219.188,274.061 225.059 C 272.755 228.566,272.246 235.558,272.969 240.080 C 273.245 241.810,273.549 243.748,273.644 244.386 C 276.124 261.054,295.897 262.280,300.237 246.035 C 303.182 235.010,301.429 222.532,296.192 217.241 C 293.066 214.083,288.029 212.786,283.947 214.087 M317.619 214.073 C 308.635 216.564,304.141 226.644,308.236 235.121 C 311.589 242.063,321.327 243.851,327.775 238.707 C 329.448 237.373,329.648 237.797,328.740 240.752 C 326.526 247.961,321.647 251.857,313.547 252.882 L 310.572 253.259 310.480 255.330 C 310.367 257.877,310.414 257.904,314.278 257.468 C 326.773 256.059,333.402 248.888,335.193 234.841 C 336.938 221.163,328.407 211.081,317.619 214.073 M289.832 218.673 C 293.755 220.641,295.403 225.134,295.615 234.432 C 295.936 248.532,291.143 256.058,284.123 252.477 C 280.740 250.751,278.107 243.315,278.186 235.709 C 278.225 232.007,279.153 226.397,280.064 224.357 C 280.391 223.627,280.658 222.941,280.658 222.833 C 280.658 222.725,281.166 221.944,281.788 221.098 C 283.902 218.217,287.040 217.271,289.832 218.673 M324.856 218.960 C 329.583 222.266,331.277 231.443,327.749 234.634 C 325.028 237.095,321.411 237.966,318.054 236.969 C 310.281 234.660,310.534 221.061,318.403 218.260 C 319.818 217.756,323.743 218.182,324.856 218.960 " stroke="none" fill="#25241d" fill-rule="evenodd"></path><path id="path1" d="M343.618 16.449 C 341.120 17.546,338.442 18.724,337.666 19.065 C 334.862 20.302,327.134 23.754,325.450 24.522 C 324.503 24.954,322.811 25.687,321.691 26.150 C 315.396 28.752,299.662 37.073,296.936 39.242 C 296.672 39.452,296.285 40.188,296.077 40.877 C 295.869 41.566,295.426 43.046,295.092 44.166 C 294.759 45.286,293.708 48.669,292.758 51.684 C 291.808 54.699,290.326 59.491,289.465 62.334 C 287.378 69.223,284.077 79.949,282.909 83.634 C 281.075 89.420,280.621 91.464,281.169 91.464 C 281.279 91.464,282.371 90.955,283.597 90.333 C 288.647 87.769,300.800 81.538,304.307 79.715 C 306.374 78.641,311.308 76.105,315.270 74.081 C 335.461 63.767,333.657 64.900,334.514 62.009 C 334.844 60.895,335.629 58.293,336.259 56.226 C 336.888 54.158,337.752 51.269,338.178 49.804 C 338.605 48.340,339.497 45.380,340.162 43.226 C 340.827 41.073,341.678 38.254,342.052 36.962 C 342.427 35.670,343.581 31.934,344.618 28.661 C 347.302 20.187,348.244 17.161,348.423 16.445 C 348.509 16.100,348.671 15.501,348.782 15.114 C 349.071 14.108,348.764 14.188,343.618 16.449 M325.425 84.360 C 324.664 84.759,322.420 85.972,320.439 87.056 C 318.457 88.139,315.497 89.737,313.861 90.607 C 312.224 91.476,309.969 92.710,308.849 93.350 C 305.066 95.508,305.283 95.451,305.496 94.241 C 305.714 93.002,305.607 93.234,304.037 97.416 C 303.422 99.052,302.827 100.814,302.714 101.331 C 302.602 101.848,302.337 102.553,302.125 102.897 C 301.914 103.242,301.666 103.876,301.573 104.307 C 301.386 105.184,300.509 107.706,299.868 109.215 C 299.636 109.762,299.360 110.639,299.255 111.166 C 299.149 111.692,298.504 113.712,297.819 115.654 C 297.135 117.596,296.241 120.243,295.832 121.535 C 295.424 122.827,294.465 125.717,293.703 127.956 C 292.941 130.196,291.515 134.565,290.534 137.666 C 289.553 140.767,288.486 144.009,288.163 144.871 C 287.839 145.732,287.276 147.424,286.912 148.630 C 286.547 149.836,285.780 152.161,285.206 153.798 C 284.632 155.435,283.999 157.338,283.798 158.027 C 282.813 161.410,282.240 162.209,279.347 164.239 C 277.914 165.244,276.319 166.327,275.803 166.645 C 274.744 167.298,267.900 172.049,260.918 176.977 C 258.356 178.786,256.005 180.438,255.694 180.649 C 255.181 180.997,255.179 181.015,255.677 180.850 C 256.353 180.627,256.359 180.919,255.732 183.555 C 255.466 184.675,254.975 186.860,254.641 188.410 C 254.307 189.961,253.837 192.075,253.597 193.109 C 253.357 194.143,252.651 197.314,252.029 200.157 C 251.406 202.999,250.759 205.889,250.589 206.578 C 249.757 209.971,247.346 221.070,246.848 223.806 C 246.521 225.605,244.894 233.407,244.171 236.648 C 243.902 237.854,242.916 242.929,241.981 247.925 C 241.046 252.921,240.126 257.784,239.938 258.731 C 238.214 267.407,237.768 271.261,238.488 271.261 C 238.724 271.261,242.565 268.647,247.024 265.452 C 260.226 255.991,260.858 255.538,264.061 253.250 C 265.749 252.044,268.560 250.024,270.307 248.761 C 273.067 246.766,273.552 246.519,273.998 246.881 C 274.448 247.248,274.480 247.223,274.257 246.672 C 272.291 241.814,272.185 230.095,274.061 225.059 C 278.271 213.758,288.849 209.920,296.053 217.079 C 297.026 218.046,297.749 218.647,297.660 218.413 C 297.570 218.180,297.648 217.395,297.833 216.669 C 298.138 215.469,298.523 213.438,299.956 205.482 C 300.219 204.017,300.653 201.903,300.919 200.783 C 301.185 199.663,301.510 198.042,301.641 197.181 C 301.931 195.280,302.679 191.460,304.434 182.929 C 304.771 181.292,305.132 179.530,305.238 179.013 C 305.344 178.496,305.573 177.439,305.747 176.664 C 305.921 175.889,306.192 174.550,306.348 173.688 C 306.706 171.718,308.405 163.220,308.837 161.237 C 309.016 160.419,309.302 159.080,309.472 158.262 C 309.642 157.443,309.987 155.857,310.238 154.738 C 310.489 153.618,310.787 152.138,310.900 151.449 C 311.179 149.757,313.033 141.210,314.332 135.630 C 314.913 133.132,315.682 129.679,316.041 127.956 C 316.752 124.547,317.621 120.824,318.566 117.150 C 318.898 115.857,319.678 112.686,320.300 110.102 C 320.922 107.518,321.686 104.487,321.997 103.367 C 322.309 102.247,323.018 99.640,323.573 97.572 C 324.129 95.505,325.272 91.602,326.113 88.898 C 328.026 82.751,328.061 82.977,325.425 84.360 M285.513 218.278 C 283.727 218.862,280.658 221.741,280.658 222.833 C 280.658 222.941,280.391 223.627,280.064 224.357 C 279.497 225.628,279.196 226.979,278.478 231.480 C 278.134 233.642,278.268 239.053,278.730 241.660 C 278.883 242.522,279.032 243.015,279.062 242.756 C 279.092 242.498,280.274 241.486,281.688 240.507 C 283.103 239.529,286.724 236.954,289.735 234.784 C 294.435 231.399,295.245 230.919,295.456 231.395 C 295.826 232.234,295.502 229.470,294.914 226.785 C 293.498 220.313,289.726 216.901,285.513 218.278 M94.267 233.594 L 93.187 234.769 94.362 233.690 C 95.455 232.685,95.680 232.420,95.441 232.420 C 95.389 232.420,94.860 232.948,94.267 233.594 " stroke="none" fill="#e91e27" fill-rule="evenodd"></path><path id="path2" d="M0.000 156.617 L 0.000 313.234 200.000 313.234 L 400.000 313.234 400.000 156.617 L 400.000 0.000 200.000 0.000 L 0.000 0.000 0.000 156.617 M348.782 15.114 C 348.671 15.501,348.509 16.100,348.423 16.445 C 348.244 17.161,347.302 20.187,344.618 28.661 C 343.581 31.934,342.427 35.670,342.052 36.962 C 341.678 38.254,340.827 41.073,340.162 43.226 C 339.497 45.380,338.605 48.340,338.178 49.804 C 337.752 51.269,336.888 54.158,336.259 56.226 C 335.629 58.293,334.844 60.895,334.514 62.009 C 333.657 64.900,335.461 63.767,315.270 74.081 C 311.308 76.105,306.374 78.641,304.307 79.715 C 300.800 81.538,288.647 87.769,283.597 90.333 C 282.371 90.955,281.279 91.464,281.169 91.464 C 280.621 91.464,281.075 89.420,282.909 83.634 C 284.077 79.949,287.378 69.223,289.465 62.334 C 290.326 59.491,291.808 54.699,292.758 51.684 C 293.708 48.669,294.759 45.286,295.092 44.166 C 296.672 38.859,296.086 39.655,300.235 37.173 C 306.295 33.548,316.593 28.257,321.691 26.150 C 322.811 25.687,324.503 24.954,325.450 24.522 C 327.134 23.754,334.862 20.302,337.666 19.065 C 349.510 13.844,349.106 13.988,348.782 15.114 M164.448 48.073 C 164.448 48.327,163.616 52.732,162.600 57.862 C 161.583 62.992,160.456 68.739,160.094 70.634 C 159.733 72.529,159.000 76.265,158.465 78.935 C 157.931 81.605,157.426 84.143,157.343 84.573 C 157.260 85.004,156.932 86.695,156.615 88.332 C 156.298 89.969,155.738 92.929,155.370 94.910 C 155.003 96.891,154.268 100.626,153.737 103.211 C 152.057 111.389,152.071 111.758,154.009 110.150 C 159.267 105.784,183.212 88.334,196.554 79.144 C 212.547 68.129,243.132 48.238,244.076 48.238 C 244.521 48.238,244.185 49.601,240.252 63.743 C 239.245 67.361,237.834 72.506,237.116 75.176 C 236.397 77.847,235.697 80.384,235.560 80.814 C 235.162 82.069,234.681 83.822,233.500 88.332 C 232.891 90.658,232.275 92.913,232.130 93.344 C 231.740 94.501,230.548 98.811,225.329 117.933 C 224.577 120.689,223.685 123.931,223.346 125.137 C 220.642 134.779,220.304 136.257,220.804 136.257 C 221.122 136.257,225.939 133.524,236.454 127.377 C 238.415 126.231,240.081 125.294,240.156 125.294 C 240.232 125.294,240.909 124.871,241.660 124.354 C 242.411 123.837,243.086 123.414,243.159 123.414 C 243.233 123.414,246.238 121.700,249.837 119.605 C 253.437 117.510,258.179 114.761,260.376 113.497 C 262.572 112.232,266.167 110.161,268.363 108.893 C 270.560 107.625,273.696 105.816,275.333 104.871 C 276.969 103.927,279.413 102.497,280.762 101.695 C 282.111 100.892,283.264 100.235,283.323 100.235 C 283.382 100.235,284.540 99.554,285.895 98.723 C 287.250 97.891,289.269 96.717,290.381 96.113 C 291.494 95.509,294.871 93.556,297.886 91.772 C 304.920 87.611,307.496 86.248,307.783 86.535 C 308.029 86.782,307.902 87.235,306.360 91.585 C 305.016 95.378,305.089 95.487,307.909 93.876 C 309.201 93.138,311.738 91.746,313.547 90.782 C 315.356 89.818,318.457 88.142,320.439 87.057 C 326.798 83.576,327.643 83.195,327.643 83.808 C 327.643 83.905,326.954 86.195,326.113 88.898 C 325.272 91.602,324.129 95.505,323.573 97.572 C 323.018 99.640,322.309 102.247,321.997 103.367 C 321.686 104.487,320.922 107.518,320.300 110.102 C 319.678 112.686,318.898 115.857,318.566 117.150 C 317.621 120.824,316.752 124.547,316.041 127.956 C 315.682 129.679,314.913 133.132,314.332 135.630 C 313.033 141.210,311.179 149.757,310.900 151.449 C 310.787 152.138,310.489 153.618,310.238 154.738 C 309.987 155.857,309.642 157.443,309.472 158.262 C 309.302 159.080,309.016 160.419,308.837 161.237 C 308.405 163.220,306.706 171.718,306.348 173.688 C 306.192 174.550,305.921 175.889,305.747 176.664 C 305.573 177.439,305.344 178.496,305.238 179.013 C 305.132 179.530,304.771 181.292,304.434 182.929 C 302.679 191.460,301.931 195.280,301.641 197.181 C 301.510 198.042,301.185 199.663,300.919 200.783 C 300.653 201.903,300.206 204.088,299.926 205.638 C 298.778 211.997,298.189 215.118,297.855 216.618 C 297.516 218.139,297.546 218.288,298.638 220.455 C 303.628 230.364,302.287 247.875,296.078 253.893 C 289.019 260.735,278.912 258.263,274.877 248.708 C 273.810 246.182,273.877 246.182,270.323 248.750 C 268.567 250.019,265.749 252.044,264.061 253.250 C 260.858 255.538,260.226 255.991,247.024 265.452 C 242.565 268.647,238.724 271.261,238.488 271.261 C 237.768 271.261,238.214 267.407,239.938 258.731 C 240.126 257.784,241.046 252.921,241.981 247.925 C 242.916 242.929,243.902 237.854,244.171 236.648 C 244.894 233.407,246.521 225.605,246.848 223.806 C 247.351 221.043,249.782 209.854,250.591 206.578 C 250.761 205.889,251.258 203.634,251.695 201.566 C 252.432 198.076,253.301 194.234,254.034 191.229 C 255.056 187.042,256.264 180.983,256.108 180.828 C 255.842 180.561,252.544 182.803,244.479 188.732 C 243.273 189.618,240.031 191.994,237.275 194.011 C 227.959 200.827,220.531 206.537,209.740 215.179 C 205.966 218.201,202.442 221.021,201.909 221.446 C 200.267 222.755,193.431 228.447,193.265 228.643 C 193.179 228.744,191.699 230.020,189.977 231.478 C 179.233 240.569,165.933 252.926,151.137 267.563 C 141.382 277.213,141.512 277.127,141.931 273.646 C 142.058 272.592,142.385 269.757,142.658 267.345 C 142.931 264.933,143.294 261.868,143.464 260.532 C 143.635 259.197,143.915 256.977,144.088 255.599 C 144.260 254.221,144.542 251.966,144.714 250.587 C 144.886 249.209,145.167 246.989,145.338 245.654 C 145.509 244.319,145.855 241.464,146.106 239.311 C 146.665 234.519,147.740 225.373,148.166 221.770 C 148.340 220.305,148.614 218.191,148.777 217.071 C 148.939 215.951,149.223 213.767,149.408 212.216 C 149.593 210.666,149.881 208.340,150.047 207.048 C 150.214 205.756,150.700 201.668,151.127 197.964 C 151.553 194.260,152.072 189.927,152.279 188.335 C 152.754 184.682,152.747 184.678,149.818 186.882 C 117.489 211.208,85.713 240.363,61.900 267.549 C 56.817 273.351,56.307 273.593,57.300 269.731 C 57.460 269.108,57.753 267.753,57.952 266.719 C 58.150 265.685,58.435 264.276,58.584 263.587 C 58.734 262.897,59.069 261.135,59.329 259.671 C 59.954 256.150,61.571 247.956,64.027 235.865 C 65.129 230.439,67.033 220.995,68.258 214.879 C 69.482 208.763,70.761 202.631,71.099 201.253 C 71.438 199.875,72.221 196.280,72.840 193.265 C 73.834 188.421,74.437 185.685,75.497 181.206 C 75.660 180.517,76.373 177.204,77.082 173.845 C 78.205 168.521,78.628 166.571,79.869 161.002 C 80.662 157.441,81.512 153.702,81.917 151.997 C 82.172 150.920,82.587 149.158,82.839 148.081 C 83.091 147.005,83.849 143.798,84.522 140.955 C 85.195 138.113,85.985 134.730,86.276 133.438 C 86.568 132.146,87.511 128.199,88.373 124.667 C 89.235 121.135,90.287 116.766,90.711 114.957 C 91.136 113.148,91.748 110.681,92.073 109.475 C 92.397 108.269,93.537 103.726,94.606 99.380 L 96.550 91.477 98.944 89.200 C 108.204 80.390,124.356 68.877,139.702 60.147 C 140.995 59.412,142.513 58.547,143.076 58.224 C 154.791 51.525,164.448 46.939,164.448 48.073 M325.174 214.072 C 332.823 216.393,336.727 225.332,335.031 236.641 C 333.107 249.474,325.130 257.152,313.312 257.544 L 310.572 257.635 310.572 255.442 L 310.572 253.250 312.451 253.014 C 321.228 251.913,325.848 248.541,328.467 241.325 C 329.685 237.973,329.481 237.435,327.587 238.996 C 322.924 242.840,315.208 242.625,310.782 238.527 C 303.315 231.615,306.607 217.426,316.377 214.406 C 317.319 214.115,318.230 213.832,318.403 213.776 C 319.296 213.488,323.916 213.690,325.174 214.072 M318.449 218.333 C 314.062 219.647,311.197 226.522,312.904 231.637 C 315.928 240.697,330.059 238.430,329.428 228.987 C 328.890 220.934,324.378 216.555,318.449 218.333 M289.735 234.784 C 286.724 236.954,283.092 239.529,281.665 240.507 L 279.069 242.287 279.241 243.696 C 279.880 248.946,283.351 253.093,287.106 253.093 C 292.562 253.093,295.716 246.630,295.665 235.552 C 295.641 230.164,296.071 230.220,289.735 234.784 " stroke="none" fill="#fbfbfb" fill-rule="evenodd"></path></g></svg>