<svg id="svg" version="1.1" xmlns="http://www.w3.org/2000/svg" xmlns:xlink="http://www.w3.org/1999/xlink" width="400" height="227.6094276094276" viewBox="0, 0, 400,227.6094276094276"><g id="svgg"><path id="path0" d="M227.033 19.159 C 227.089 37.604,227.107 38.320,227.513 38.379 C 227.948 38.443,265.908 0.738,265.908 0.241 C 265.908 0.073,259.998 0.000,246.442 0.000 L 226.975 0.000 227.033 19.159 M320.376 0.152 C 319.843 0.208,319.408 0.350,319.408 0.468 C 319.408 0.586,319.202 0.683,318.949 0.683 C 318.308 0.683,316.676 1.213,316.676 1.421 C 316.676 1.516,316.526 1.594,316.342 1.594 C 316.158 1.594,315.620 1.814,315.146 2.084 C 314.673 2.354,313.902 2.782,313.432 3.037 C 312.962 3.291,312.578 3.583,312.578 3.685 C 312.578 3.787,312.473 3.870,312.343 3.870 C 312.119 3.870,307.598 8.337,306.887 9.262 C 306.355 9.953,305.733 11.001,305.594 11.440 C 305.525 11.659,305.377 11.838,305.267 11.838 C 305.156 11.838,305.065 12.037,305.065 12.280 C 305.065 12.523,304.963 12.785,304.838 12.863 C 304.713 12.940,304.610 13.254,304.610 13.559 C 304.610 13.865,304.508 14.115,304.382 14.115 C 304.257 14.115,304.155 14.314,304.155 14.557 C 304.155 14.800,304.052 15.062,303.927 15.139 C 303.802 15.217,303.699 15.633,303.699 16.064 C 303.699 16.494,303.597 16.847,303.472 16.847 C 303.346 16.847,303.244 17.439,303.244 18.167 C 303.244 18.894,303.140 19.592,303.012 19.720 C 302.864 19.868,302.802 21.885,302.841 25.286 L 302.903 30.620 310.700 30.680 L 318.497 30.740 318.497 25.160 C 318.497 21.591,318.580 19.579,318.725 19.579 C 318.850 19.579,318.953 19.312,318.953 18.985 C 318.953 18.311,321.150 15.936,321.774 15.936 C 321.975 15.936,322.140 15.834,322.140 15.709 C 322.140 15.583,322.493 15.481,322.923 15.481 C 323.354 15.481,323.770 15.378,323.847 15.253 C 323.925 15.128,324.494 15.026,325.113 15.026 C 325.732 15.026,326.238 15.128,326.238 15.253 C 326.238 15.378,326.648 15.481,327.149 15.481 C 327.649 15.481,328.059 15.583,328.059 15.709 C 328.059 15.834,328.158 15.936,328.279 15.936 C 328.616 15.936,330.108 17.375,330.108 17.699 C 330.108 17.856,330.186 17.985,330.280 17.985 C 330.375 17.985,330.586 18.318,330.750 18.725 C 330.914 19.132,331.144 19.643,331.261 19.860 C 331.555 20.406,331.541 32.943,331.246 33.125 C 331.121 33.202,331.019 33.612,331.019 34.035 C 331.019 34.459,330.916 34.869,330.791 34.946 C 330.666 35.023,330.563 35.337,330.563 35.642 C 330.563 35.948,330.461 36.198,330.336 36.198 C 330.211 36.198,330.108 36.393,330.108 36.632 C 330.108 36.871,329.707 37.836,329.218 38.777 C 328.728 39.718,328.386 40.547,328.459 40.620 C 328.531 40.692,328.490 40.751,328.367 40.751 C 328.245 40.751,328.003 41.110,327.832 41.548 C 327.660 41.986,327.436 42.345,327.334 42.345 C 327.232 42.345,327.149 42.550,327.149 42.800 C 327.149 43.051,327.046 43.256,326.921 43.256 C 326.796 43.256,326.693 43.452,326.693 43.692 C 326.693 43.932,326.610 44.162,326.509 44.204 C 326.407 44.246,326.061 44.813,325.740 45.465 C 325.418 46.116,325.091 46.586,325.013 46.508 C 324.936 46.431,324.872 46.517,324.872 46.701 C 324.872 47.150,324.346 48.260,324.132 48.262 C 324.038 48.263,323.961 48.469,323.961 48.719 C 323.961 48.970,323.859 49.175,323.734 49.175 C 323.608 49.175,323.506 49.380,323.506 49.630 C 323.506 49.880,323.404 50.085,323.278 50.085 C 323.153 50.085,323.051 50.290,323.051 50.541 C 323.051 50.791,322.948 50.996,322.823 50.996 C 322.698 50.996,322.595 51.201,322.595 51.451 C 322.595 51.702,322.512 51.907,322.410 51.907 C 322.308 51.907,322.084 52.265,321.912 52.703 C 321.740 53.142,321.516 53.500,321.415 53.500 C 321.313 53.500,321.229 53.654,321.229 53.842 C 321.229 54.030,321.127 54.183,321.002 54.183 C 320.876 54.183,320.774 54.388,320.774 54.639 C 320.774 54.889,320.672 55.094,320.546 55.094 C 320.421 55.094,320.319 55.299,320.319 55.549 C 320.319 55.800,320.216 56.005,320.091 56.005 C 319.966 56.005,319.863 56.209,319.863 56.460 C 319.863 56.710,319.780 56.915,319.678 56.915 C 319.576 56.915,319.352 57.274,319.180 57.712 C 319.008 58.150,318.784 58.509,318.683 58.509 C 318.581 58.509,318.495 58.688,318.492 58.907 C 318.490 59.126,318.287 59.562,318.042 59.875 C 317.797 60.188,317.595 60.572,317.592 60.729 C 317.589 60.885,317.510 61.013,317.416 61.014 C 317.322 61.014,316.989 61.577,316.676 62.265 C 316.363 62.953,316.030 63.516,315.936 63.517 C 315.842 63.517,315.766 63.722,315.766 63.973 C 315.766 64.223,315.663 64.428,315.538 64.428 C 315.413 64.428,315.310 64.572,315.310 64.748 C 315.310 65.044,314.433 66.901,314.170 67.160 C 313.883 67.444,311.895 71.520,311.895 71.826 C 311.895 72.014,311.793 72.168,311.668 72.168 C 311.542 72.168,311.440 72.373,311.440 72.624 C 311.440 72.874,311.338 73.079,311.212 73.079 C 311.087 73.079,310.985 73.233,310.985 73.421 C 310.985 73.608,310.882 73.762,310.757 73.762 C 310.632 73.762,310.529 73.967,310.529 74.217 C 310.529 74.468,310.427 74.673,310.302 74.673 C 310.176 74.673,310.074 74.826,310.074 75.014 C 310.074 75.202,309.991 75.356,309.889 75.356 C 309.787 75.356,309.563 75.714,309.391 76.153 C 309.219 76.591,308.995 76.949,308.893 76.949 C 308.791 76.949,308.708 77.083,308.708 77.245 C 308.708 77.664,308.173 78.767,307.968 78.769 C 307.874 78.770,307.797 78.976,307.797 79.226 C 307.797 79.476,307.695 79.681,307.570 79.681 C 307.445 79.681,307.342 79.886,307.342 80.137 C 307.342 80.387,307.240 80.592,307.114 80.592 C 306.989 80.592,306.887 80.797,306.887 81.047 C 306.887 81.298,306.796 81.503,306.686 81.503 C 306.575 81.503,306.428 81.682,306.358 81.901 C 306.189 82.434,305.450 83.646,305.236 83.741 C 305.142 83.783,305.065 84.013,305.065 84.253 C 305.065 84.493,304.963 84.690,304.838 84.690 C 304.713 84.690,304.610 84.895,304.610 85.145 C 304.610 85.396,304.508 85.600,304.382 85.600 C 304.257 85.600,304.155 85.805,304.155 86.056 C 304.155 86.306,304.052 86.511,303.927 86.511 C 303.802 86.511,303.699 86.716,303.699 86.966 C 303.699 87.217,303.597 87.422,303.472 87.422 C 303.347 87.422,303.244 87.627,303.244 87.877 C 303.244 88.127,303.142 88.332,303.017 88.332 C 302.718 88.332,302.704 102.595,303.002 102.780 C 303.155 102.874,332.595 102.957,347.012 102.903 C 347.106 102.903,347.183 99.419,347.183 95.162 L 347.183 87.422 334.351 87.422 L 321.520 87.422 321.629 86.853 C 321.689 86.540,321.809 86.283,321.896 86.283 C 321.984 86.283,322.196 85.925,322.368 85.487 C 322.540 85.048,322.764 84.690,322.865 84.690 C 322.967 84.690,323.051 84.485,323.051 84.234 C 323.051 83.984,323.153 83.779,323.278 83.779 C 323.404 83.779,323.506 83.646,323.506 83.483 C 323.506 83.064,324.041 81.962,324.246 81.960 C 324.340 81.959,324.417 81.753,324.417 81.503 C 324.417 81.252,324.519 81.047,324.644 81.047 C 324.769 81.047,324.872 80.842,324.872 80.592 C 324.872 80.341,324.974 80.137,325.100 80.137 C 325.225 80.137,325.327 79.940,325.327 79.700 C 325.327 79.460,325.404 79.230,325.498 79.188 C 325.764 79.070,327.832 74.989,327.832 74.581 C 327.832 74.381,327.934 74.217,328.059 74.217 C 328.184 74.217,328.287 74.013,328.287 73.762 C 328.287 73.512,328.370 73.307,328.472 73.307 C 328.574 73.307,328.798 72.948,328.970 72.510 C 329.142 72.072,329.366 71.713,329.468 71.713 C 329.569 71.713,329.653 71.508,329.653 71.258 C 329.653 71.007,329.755 70.803,329.880 70.803 C 330.006 70.803,330.108 70.598,330.108 70.347 C 330.108 70.097,330.211 69.892,330.336 69.892 C 330.461 69.892,330.563 69.687,330.563 69.437 C 330.563 69.186,330.640 68.980,330.734 68.979 C 330.911 68.978,331.474 67.898,331.474 67.560 C 331.474 67.455,331.679 67.149,331.929 66.880 C 332.180 66.611,332.385 66.206,332.385 65.979 C 332.385 65.752,332.487 65.566,332.612 65.566 C 332.738 65.566,332.840 65.413,332.840 65.225 C 332.840 65.037,332.943 64.883,333.068 64.883 C 333.193 64.883,333.295 64.750,333.295 64.587 C 333.295 64.168,333.831 63.066,334.035 63.064 C 334.129 63.063,334.206 62.857,334.206 62.607 C 334.206 62.356,334.308 62.151,334.434 62.151 C 334.559 62.151,334.661 61.946,334.661 61.696 C 334.661 61.446,334.764 61.241,334.889 61.241 C 335.014 61.241,335.117 61.036,335.117 60.785 C 335.117 60.535,335.219 60.330,335.344 60.330 C 335.470 60.330,335.572 60.125,335.572 59.875 C 335.572 59.624,335.674 59.419,335.800 59.419 C 335.925 59.419,336.027 59.215,336.027 58.964 C 336.027 58.714,336.130 58.509,336.255 58.509 C 336.380 58.509,336.483 58.304,336.483 58.054 C 336.483 57.803,336.585 57.598,336.710 57.598 C 336.836 57.598,336.938 57.393,336.938 57.143 C 336.938 56.892,337.040 56.688,337.166 56.688 C 337.291 56.688,337.393 56.542,337.393 56.365 C 337.393 56.188,337.470 56.008,337.564 55.967 C 337.746 55.886,338.131 55.179,339.960 51.565 C 340.594 50.313,341.198 49.254,341.302 49.213 C 341.406 49.171,341.491 48.940,341.491 48.700 C 341.491 48.460,341.594 48.264,341.719 48.264 C 341.844 48.264,341.946 48.059,341.946 47.809 C 341.946 47.558,342.049 47.353,342.174 47.353 C 342.299 47.353,342.402 47.149,342.402 46.898 C 342.402 46.648,342.504 46.443,342.629 46.443 C 342.755 46.443,342.857 46.292,342.857 46.108 C 342.857 45.924,343.060 45.412,343.309 44.970 C 343.557 44.528,343.690 44.166,343.605 44.166 C 343.519 44.166,343.572 44.043,343.722 43.893 C 343.873 43.743,343.995 43.435,343.995 43.210 C 343.995 42.985,344.098 42.800,344.223 42.800 C 344.348 42.800,344.451 42.595,344.451 42.345 C 344.451 42.094,344.553 41.890,344.678 41.890 C 344.804 41.890,344.906 41.685,344.906 41.434 C 344.906 41.184,345.009 40.979,345.134 40.979 C 345.259 40.979,345.361 40.672,345.361 40.296 C 345.361 39.920,345.464 39.613,345.589 39.613 C 345.714 39.613,345.817 39.254,345.817 38.816 C 345.817 38.378,345.919 38.019,346.044 38.019 C 346.170 38.019,346.272 37.507,346.272 36.881 C 346.272 36.255,346.375 35.743,346.500 35.743 C 346.639 35.743,346.727 34.680,346.727 33.011 C 346.727 31.341,346.816 30.279,346.955 30.279 C 347.097 30.279,347.183 28.951,347.183 26.750 C 347.183 24.549,347.097 23.221,346.955 23.221 C 346.820 23.221,346.727 22.387,346.727 21.172 C 346.727 19.958,346.635 19.124,346.500 19.124 C 346.375 19.124,346.272 18.611,346.272 17.985 C 346.272 17.359,346.170 16.847,346.044 16.847 C 345.919 16.847,345.817 16.437,345.817 15.936 C 345.817 15.435,345.714 15.026,345.589 15.026 C 345.464 15.026,345.361 14.661,345.361 14.215 C 345.361 13.733,345.269 13.462,345.134 13.546 C 345.001 13.628,344.906 13.396,344.906 12.990 C 344.906 12.607,344.804 12.294,344.678 12.294 C 344.553 12.294,344.451 12.148,344.451 11.970 C 344.451 11.487,342.847 8.423,342.594 8.423 C 342.474 8.423,342.433 8.330,342.503 8.216 C 342.745 7.824,338.855 3.885,337.556 3.206 C 337.216 3.028,336.938 2.798,336.938 2.693 C 336.938 2.589,336.733 2.504,336.483 2.504 C 336.232 2.504,336.027 2.427,336.026 2.334 C 336.023 2.129,334.921 1.594,334.502 1.594 C 334.339 1.594,334.206 1.491,334.206 1.366 C 334.206 1.241,334.001 1.138,333.751 1.138 C 333.500 1.138,333.295 1.036,333.295 0.911 C 333.295 0.785,332.894 0.683,332.404 0.683 C 331.913 0.683,331.473 0.566,331.425 0.422 C 331.336 0.155,322.413 -0.064,320.376 0.152 M373.193 0.152 C 372.536 0.207,371.998 0.349,371.998 0.467 C 371.998 0.586,371.696 0.683,371.328 0.683 C 370.960 0.683,370.595 0.785,370.518 0.911 C 370.441 1.036,370.127 1.138,369.822 1.138 C 369.516 1.138,369.266 1.241,369.266 1.366 C 369.266 1.491,368.958 1.594,368.583 1.594 C 368.207 1.594,367.900 1.696,367.900 1.821 C 367.900 1.946,367.695 2.049,367.445 2.049 C 367.194 2.049,366.989 2.151,366.989 2.277 C 366.989 2.402,366.836 2.504,366.648 2.504 C 366.460 2.504,366.306 2.607,366.306 2.732 C 366.306 2.857,366.153 2.960,365.965 2.960 C 365.777 2.960,365.623 3.062,365.623 3.187 C 365.623 3.312,365.412 3.415,365.154 3.415 C 364.897 3.415,364.749 3.517,364.826 3.643 C 364.904 3.768,364.830 3.870,364.662 3.870 C 364.495 3.870,364.210 4.075,364.030 4.326 C 363.849 4.576,363.617 4.781,363.514 4.781 C 363.098 4.781,359.932 8.400,359.932 8.877 C 359.932 9.003,359.829 9.106,359.704 9.106 C 359.579 9.106,359.476 9.266,359.476 9.461 C 359.476 9.657,359.374 9.753,359.249 9.676 C 359.124 9.598,359.021 9.746,359.021 10.004 C 359.021 10.261,358.919 10.472,358.793 10.472 C 358.668 10.472,358.566 10.677,358.566 10.928 C 358.566 11.178,358.463 11.383,358.338 11.383 C 358.213 11.383,358.110 11.588,358.110 11.838 C 358.110 12.089,358.008 12.294,357.883 12.294 C 357.758 12.294,357.655 12.499,357.655 12.749 C 357.655 12.999,357.553 13.204,357.427 13.204 C 357.302 13.204,357.200 13.512,357.200 13.887 C 357.200 14.263,357.097 14.570,356.972 14.570 C 356.847 14.570,356.744 14.980,356.744 15.481 C 356.744 15.982,356.642 16.392,356.517 16.392 C 356.389 16.392,356.289 17.032,356.289 17.858 C 356.289 18.664,356.187 19.388,356.061 19.465 C 355.911 19.558,355.834 30.627,355.834 51.934 C 355.834 73.427,355.910 84.214,356.061 84.121 C 356.205 84.032,356.289 84.574,356.289 85.587 C 356.289 86.507,356.387 87.194,356.517 87.194 C 356.642 87.194,356.744 87.553,356.744 87.991 C 356.744 88.429,356.847 88.788,356.972 88.788 C 357.097 88.788,357.200 89.044,357.200 89.357 C 357.200 89.670,357.302 89.926,357.427 89.926 C 357.553 89.926,357.655 90.176,357.655 90.482 C 357.655 90.787,357.758 91.101,357.883 91.178 C 358.008 91.256,358.110 91.518,358.110 91.761 C 358.110 92.004,358.213 92.203,358.338 92.203 C 358.463 92.203,358.566 92.414,358.566 92.671 C 358.566 92.929,358.668 93.077,358.793 92.999 C 358.919 92.922,359.021 93.018,359.021 93.214 C 359.021 93.409,359.124 93.569,359.249 93.569 C 359.374 93.569,359.476 93.765,359.476 94.005 C 359.476 94.245,359.559 94.475,359.660 94.517 C 359.762 94.559,360.188 95.096,360.607 95.711 C 361.433 96.921,363.486 99.032,363.837 99.032 C 363.957 99.032,364.382 99.339,364.782 99.714 C 365.182 100.089,365.637 100.397,365.794 100.397 C 365.950 100.398,366.079 100.501,366.079 100.626 C 366.079 100.751,366.283 100.854,366.534 100.854 C 366.784 100.854,366.989 100.956,366.989 101.081 C 366.989 101.207,367.194 101.309,367.445 101.309 C 367.695 101.309,367.900 101.411,367.900 101.537 C 367.900 101.662,368.105 101.764,368.355 101.764 C 368.606 101.764,368.810 101.867,368.810 101.992 C 368.810 102.117,369.061 102.220,369.366 102.220 C 369.672 102.220,369.985 102.322,370.063 102.447 C 370.140 102.573,370.499 102.675,370.859 102.675 C 371.220 102.675,371.579 102.777,371.656 102.903 C 371.734 103.028,372.149 103.130,372.580 103.130 C 373.011 103.130,373.364 103.225,373.364 103.341 C 373.364 103.641,382.394 103.666,382.579 103.366 C 382.659 103.236,383.128 103.130,383.622 103.130 C 384.115 103.130,384.519 103.028,384.519 102.903 C 384.519 102.777,384.826 102.675,385.202 102.675 C 385.578 102.675,385.885 102.573,385.885 102.447 C 385.885 102.322,386.135 102.220,386.441 102.220 C 386.746 102.220,387.060 102.117,387.137 101.992 C 387.215 101.867,387.477 101.764,387.720 101.764 C 387.963 101.764,388.162 101.662,388.162 101.537 C 388.162 101.411,388.367 101.309,388.617 101.309 C 388.867 101.309,389.072 101.207,389.072 101.081 C 389.072 100.956,389.226 100.854,389.414 100.854 C 389.602 100.854,389.755 100.751,389.755 100.626 C 389.755 100.501,389.909 100.398,390.097 100.398 C 390.285 100.398,390.438 100.296,390.438 100.171 C 390.438 100.046,390.586 99.943,390.767 99.943 C 390.948 99.943,391.234 99.745,391.404 99.503 C 391.573 99.261,391.854 99.031,392.028 98.991 C 392.443 98.896,394.504 96.859,395.211 95.845 C 395.517 95.407,395.951 94.883,396.176 94.680 C 396.401 94.478,396.585 94.145,396.585 93.940 C 396.585 93.736,396.663 93.569,396.757 93.569 C 396.852 93.569,397.073 93.236,397.248 92.829 C 397.424 92.422,397.756 91.817,397.987 91.484 C 398.218 91.152,398.406 90.666,398.406 90.403 C 398.406 90.141,398.509 89.926,398.634 89.926 C 398.759 89.926,398.862 89.619,398.862 89.243 C 398.862 88.867,398.964 88.560,399.089 88.560 C 399.215 88.560,399.317 88.210,399.317 87.782 C 399.317 87.354,399.445 86.962,399.602 86.910 C 399.828 86.834,399.886 79.585,399.886 51.679 C 399.886 23.773,399.828 16.524,399.602 16.448 C 399.439 16.394,399.317 15.973,399.317 15.462 C 399.317 14.972,399.215 14.570,399.089 14.570 C 398.964 14.570,398.862 14.263,398.862 13.887 C 398.862 13.512,398.759 13.204,398.634 13.204 C 398.509 13.204,398.406 12.999,398.406 12.749 C 398.406 12.499,398.304 12.294,398.179 12.294 C 398.054 12.294,397.951 12.089,397.951 11.838 C 397.951 11.588,397.849 11.383,397.723 11.383 C 397.598 11.383,397.496 11.178,397.496 10.928 C 397.496 10.677,397.393 10.472,397.268 10.472 C 397.143 10.472,397.040 10.338,397.040 10.174 C 397.040 10.010,396.836 9.655,396.585 9.387 C 396.335 9.118,396.130 8.832,396.130 8.752 C 396.130 8.672,395.822 8.319,395.447 7.968 C 395.071 7.617,394.764 7.228,394.764 7.103 C 394.764 6.846,393.212 5.236,392.964 5.236 C 392.876 5.236,392.435 4.903,391.983 4.496 C 390.552 3.205,390.214 2.960,389.866 2.960 C 389.680 2.960,389.528 2.876,389.528 2.774 C 389.528 2.673,389.169 2.449,388.731 2.277 C 388.293 2.105,387.934 1.881,387.934 1.779 C 387.934 1.677,387.678 1.594,387.365 1.594 C 387.052 1.594,386.796 1.491,386.796 1.366 C 386.796 1.241,386.540 1.138,386.227 1.138 C 385.913 1.138,385.657 1.036,385.657 0.911 C 385.657 0.785,385.307 0.683,384.880 0.683 C 384.452 0.683,384.063 0.567,384.016 0.425 C 383.927 0.159,375.639 -0.050,373.193 0.152 M379.055 15.253 C 379.055 15.378,379.363 15.481,379.738 15.481 C 380.114 15.481,380.421 15.583,380.421 15.709 C 380.421 15.834,380.585 15.936,380.784 15.936 C 381.442 15.936,383.153 17.286,383.153 17.805 C 383.153 17.974,383.358 18.260,383.608 18.441 C 383.859 18.621,384.064 19.002,384.064 19.288 C 384.064 19.573,384.166 19.806,384.291 19.806 C 384.607 19.806,384.607 83.243,384.291 83.438 C 384.166 83.515,384.064 83.828,384.064 84.134 C 384.064 84.440,383.961 84.690,383.836 84.690 C 383.711 84.690,383.608 84.835,383.608 85.013 C 383.608 85.434,381.621 87.422,381.200 87.422 C 381.022 87.422,380.876 87.524,380.876 87.649 C 380.876 87.775,380.569 87.877,380.194 87.877 C 379.818 87.877,379.511 87.980,379.511 88.105 C 379.511 88.235,378.828 88.332,377.917 88.332 C 377.006 88.332,376.323 88.235,376.323 88.105 C 376.323 87.980,376.117 87.877,375.865 87.877 C 374.980 87.877,372.453 85.774,372.453 85.037 C 372.453 84.846,372.351 84.690,372.225 84.690 C 372.100 84.690,371.998 84.485,371.998 84.234 C 371.998 83.984,371.895 83.779,371.770 83.779 C 371.455 83.779,371.455 19.887,371.770 19.693 C 371.895 19.615,371.998 19.369,371.998 19.145 C 371.998 18.922,372.203 18.553,372.453 18.327 C 372.703 18.100,372.908 17.823,372.908 17.712 C 372.908 17.370,373.900 16.495,374.677 16.151 C 375.082 15.972,375.413 15.748,375.413 15.653 C 375.413 15.558,375.720 15.481,376.096 15.481 C 376.471 15.481,376.779 15.378,376.779 15.253 C 376.779 15.128,377.291 15.026,377.917 15.026 C 378.543 15.026,379.055 15.128,379.055 15.253 M245.931 56.578 L 226.978 75.567 226.978 142.963 C 226.978 187.741,227.054 210.359,227.205 210.359 C 227.336 210.359,227.433 211.042,227.433 211.952 C 227.433 212.863,227.531 213.546,227.661 213.546 C 227.786 213.546,227.888 213.853,227.888 214.229 C 227.888 214.604,227.991 214.912,228.116 214.912 C 228.241 214.912,228.344 215.162,228.344 215.467 C 228.344 215.773,228.446 216.087,228.571 216.164 C 228.697 216.241,228.799 216.495,228.799 216.728 C 228.799 216.960,228.876 217.185,228.970 217.226 C 229.064 217.268,229.396 217.814,229.707 218.441 C 230.019 219.067,230.557 219.850,230.903 220.182 C 231.248 220.514,231.531 220.885,231.531 221.006 C 231.531 221.241,233.908 223.791,234.127 223.791 C 234.257 223.791,234.950 224.327,235.524 224.872 C 235.689 225.028,235.934 225.157,236.068 225.157 C 236.202 225.157,236.312 225.259,236.312 225.384 C 236.312 225.509,236.517 225.612,236.767 225.612 C 237.018 225.612,237.223 225.714,237.223 225.839 C 237.223 225.965,237.427 226.067,237.678 226.067 C 237.928 226.067,238.133 226.170,238.133 226.295 C 238.133 226.420,238.338 226.522,238.589 226.522 C 238.839 226.522,239.044 226.625,239.044 226.750 C 239.044 226.875,239.331 226.978,239.681 226.978 C 240.032 226.978,240.447 227.106,240.603 227.262 C 240.816 227.475,242.335 227.547,246.606 227.547 C 250.978 227.547,252.346 227.480,252.419 227.262 C 252.471 227.106,252.813 226.978,253.178 226.978 C 253.543 226.978,253.842 226.875,253.842 226.750 C 253.842 226.625,254.047 226.522,254.297 226.522 C 254.548 226.522,254.752 226.420,254.752 226.295 C 254.752 226.170,254.957 226.067,255.208 226.067 C 255.458 226.067,255.663 225.965,255.663 225.839 C 255.663 225.714,255.868 225.612,256.118 225.612 C 256.369 225.612,256.574 225.509,256.574 225.384 C 256.574 225.259,256.756 225.157,256.979 225.157 C 257.202 225.157,257.532 224.952,257.712 224.701 C 257.893 224.451,258.171 224.246,258.331 224.246 C 258.492 224.246,258.623 224.143,258.623 224.018 C 258.623 223.893,258.731 223.791,258.863 223.791 C 259.152 223.791,261.810 221.119,261.810 220.828 C 261.810 220.716,262.071 220.363,262.389 220.044 C 262.708 219.726,262.916 219.465,262.852 219.465 C 262.787 219.465,262.983 219.099,263.287 218.651 C 263.591 218.203,263.901 217.614,263.977 217.342 C 264.126 216.808,264.473 215.948,264.796 215.313 C 264.907 215.096,264.997 214.718,264.997 214.473 C 264.997 214.228,265.100 213.965,265.225 213.887 C 265.350 213.810,265.452 213.189,265.452 212.508 C 265.452 211.827,265.555 211.269,265.680 211.269 C 265.832 211.269,265.908 182.167,265.908 124.417 L 265.908 37.564 265.396 37.577 C 265.028 37.586,259.532 42.951,245.931 56.578 M321.558 123.413 C 321.488 123.527,320.981 123.620,320.433 123.620 C 319.884 123.620,319.382 123.705,319.318 123.809 C 319.254 123.912,318.633 124.134,317.939 124.300 C 317.244 124.467,316.676 124.689,316.676 124.794 C 316.676 124.900,316.569 124.986,316.437 124.986 C 316.213 124.986,315.547 125.296,313.757 126.233 C 313.341 126.451,312.945 126.772,312.879 126.946 C 312.812 127.120,312.618 127.262,312.447 127.262 C 312.093 127.262,306.887 132.394,306.887 132.743 C 306.887 132.869,306.682 133.193,306.431 133.462 C 306.181 133.730,305.976 134.085,305.976 134.249 C 305.976 134.413,305.874 134.548,305.748 134.548 C 305.623 134.548,305.521 134.752,305.521 135.003 C 305.521 135.253,305.418 135.458,305.293 135.458 C 305.168 135.458,305.065 135.663,305.065 135.913 C 305.065 136.164,304.963 136.369,304.838 136.369 C 304.713 136.369,304.610 136.619,304.610 136.925 C 304.610 137.230,304.508 137.544,304.382 137.621 C 304.257 137.698,304.155 137.960,304.155 138.204 C 304.155 138.447,304.052 138.645,303.927 138.645 C 303.802 138.645,303.699 138.998,303.699 139.429 C 303.699 139.860,303.597 140.275,303.472 140.353 C 303.347 140.430,303.244 141.102,303.244 141.846 C 303.244 142.590,303.148 143.199,303.032 143.199 C 302.906 143.199,302.810 145.433,302.797 148.633 L 302.775 154.067 303.493 154.210 C 304.425 154.397,316.855 154.398,317.786 154.212 L 318.497 154.069 318.497 148.539 C 318.497 145.449,318.588 142.975,318.703 142.933 C 318.817 142.891,318.945 142.601,318.988 142.288 C 319.078 141.640,321.269 139.328,321.794 139.328 C 321.984 139.328,322.140 139.226,322.140 139.101 C 322.140 138.976,322.556 138.873,323.064 138.873 C 323.622 138.873,323.932 138.783,323.847 138.645 C 323.760 138.504,324.187 138.418,324.972 138.418 C 325.668 138.418,326.238 138.520,326.238 138.645 C 326.238 138.771,326.648 138.873,327.149 138.873 C 327.649 138.873,328.059 138.976,328.059 139.101 C 328.059 139.226,328.172 139.328,328.310 139.328 C 328.994 139.328,330.478 141.381,331.114 143.208 C 331.497 144.308,331.663 156.631,331.295 156.631 C 331.196 156.631,331.090 156.962,331.060 157.367 C 331.029 157.772,330.904 158.202,330.783 158.323 C 330.662 158.444,330.563 158.738,330.563 158.975 C 330.563 159.213,330.102 160.320,329.539 161.436 C 328.976 162.551,328.515 163.617,328.515 163.804 C 328.515 163.991,328.412 164.143,328.287 164.143 C 328.162 164.143,328.059 164.348,328.059 164.599 C 328.059 164.849,327.957 165.054,327.832 165.054 C 327.706 165.054,327.604 165.259,327.604 165.509 C 327.604 165.760,327.501 165.965,327.376 165.965 C 327.251 165.965,327.149 166.170,327.149 166.420 C 327.149 166.670,327.046 166.875,326.921 166.875 C 326.796 166.875,326.693 167.080,326.693 167.331 C 326.693 167.581,326.591 167.786,326.466 167.786 C 326.340 167.786,326.238 167.920,326.238 168.085 C 326.238 168.249,326.033 168.603,325.783 168.872 C 325.532 169.141,325.327 169.519,325.327 169.712 C 325.327 169.905,325.225 170.063,325.100 170.063 C 324.974 170.063,324.872 170.268,324.872 170.518 C 324.872 170.768,324.789 170.973,324.687 170.973 C 324.585 170.973,324.361 171.332,324.189 171.770 C 324.017 172.208,323.793 172.567,323.691 172.567 C 323.589 172.567,323.506 172.700,323.506 172.863 C 323.506 173.282,322.971 174.384,322.766 174.386 C 322.672 174.387,322.595 174.593,322.595 174.843 C 322.595 175.094,322.493 175.299,322.368 175.299 C 322.242 175.299,322.138 175.427,322.135 175.583 C 322.132 175.740,321.930 176.124,321.685 176.437 C 321.440 176.750,321.237 177.192,321.234 177.418 C 321.232 177.645,321.127 177.767,321.002 177.689 C 320.876 177.612,320.774 177.759,320.774 178.017 C 320.774 178.275,320.672 178.486,320.546 178.486 C 320.421 178.486,320.319 178.691,320.319 178.941 C 320.319 179.192,320.216 179.397,320.091 179.397 C 319.966 179.397,319.863 179.602,319.863 179.852 C 319.863 180.102,319.761 180.307,319.636 180.307 C 319.511 180.307,319.408 180.512,319.408 180.763 C 319.408 181.013,319.306 181.218,319.180 181.218 C 319.055 181.218,318.953 181.423,318.953 181.673 C 318.953 181.924,318.850 182.129,318.725 182.129 C 318.600 182.129,318.497 182.325,318.497 182.565 C 318.497 182.805,318.403 183.035,318.287 183.077 C 318.171 183.119,318.043 183.303,318.002 183.486 C 317.962 183.669,317.749 184.021,317.530 184.269 C 317.311 184.516,317.131 184.853,317.131 185.017 C 317.131 185.182,317.029 185.316,316.904 185.316 C 316.779 185.316,316.676 185.521,316.676 185.771 C 316.676 186.022,316.574 186.227,316.448 186.227 C 316.323 186.227,316.221 186.423,316.221 186.663 C 316.221 186.903,316.144 187.133,316.049 187.175 C 315.955 187.217,315.521 187.968,315.086 188.845 C 314.651 189.721,314.240 190.489,314.173 190.552 C 313.910 190.797,311.895 194.950,311.895 195.246 C 311.895 195.419,311.793 195.561,311.668 195.561 C 311.542 195.561,311.440 195.766,311.440 196.016 C 311.440 196.266,311.338 196.471,311.212 196.471 C 311.087 196.471,310.985 196.676,310.985 196.927 C 310.985 197.177,310.901 197.382,310.799 197.382 C 310.698 197.382,310.475 197.736,310.306 198.168 C 310.136 198.601,309.909 198.901,309.802 198.834 C 309.695 198.768,309.633 198.798,309.664 198.902 C 309.744 199.169,309.086 200.569,308.880 200.569 C 308.785 200.569,308.708 200.774,308.708 201.024 C 308.708 201.275,308.606 201.480,308.480 201.480 C 308.355 201.480,308.253 201.685,308.253 201.935 C 308.253 202.186,308.150 202.390,308.025 202.390 C 307.900 202.390,307.797 202.595,307.797 202.846 C 307.797 203.096,307.695 203.301,307.570 203.301 C 307.445 203.301,307.342 203.506,307.342 203.756 C 307.342 204.007,307.259 204.212,307.157 204.212 C 307.055 204.212,306.831 204.570,306.659 205.009 C 306.487 205.447,306.263 205.805,306.161 205.805 C 306.059 205.805,305.976 205.959,305.976 206.147 C 305.976 206.335,305.893 206.488,305.791 206.488 C 305.689 206.488,305.465 206.847,305.293 207.285 C 305.121 207.723,304.897 208.082,304.795 208.082 C 304.693 208.082,304.610 208.287,304.610 208.537 C 304.610 208.788,304.508 208.993,304.382 208.993 C 304.257 208.993,304.155 209.197,304.155 209.448 C 304.155 209.698,304.052 209.903,303.927 209.903 C 303.802 209.903,303.699 210.108,303.699 210.359 C 303.699 210.609,303.597 210.814,303.472 210.814 C 303.347 210.814,303.244 211.019,303.244 211.269 C 303.244 211.520,303.142 211.725,303.017 211.725 C 302.870 211.725,302.789 214.267,302.789 218.896 L 302.789 226.067 324.986 226.067 L 347.183 226.067 347.183 218.441 L 347.183 210.814 334.434 210.814 C 321.836 210.814,321.685 210.808,321.685 210.359 C 321.685 210.108,321.787 209.903,321.912 209.903 C 322.038 209.903,322.140 209.770,322.140 209.607 C 322.140 209.188,322.675 208.086,322.880 208.084 C 322.974 208.083,323.051 207.877,323.051 207.627 C 323.051 207.376,323.153 207.171,323.278 207.171 C 323.404 207.171,323.506 206.966,323.506 206.716 C 323.506 206.466,323.608 206.261,323.734 206.261 C 323.859 206.261,323.961 206.056,323.961 205.805 C 323.961 205.555,324.064 205.350,324.189 205.350 C 324.314 205.350,324.417 205.145,324.417 204.895 C 324.417 204.644,324.519 204.439,324.644 204.439 C 324.769 204.439,324.872 204.234,324.872 203.984 C 324.872 203.734,324.962 203.529,325.073 203.529 C 325.184 203.529,325.331 203.349,325.401 203.130 C 325.470 202.911,325.943 201.991,326.452 201.085 C 326.960 200.179,327.376 199.282,327.376 199.093 C 327.376 198.903,327.479 198.748,327.604 198.748 C 327.729 198.748,327.832 198.543,327.832 198.293 C 327.832 198.042,327.934 197.837,328.059 197.837 C 328.184 197.837,328.287 197.632,328.287 197.382 C 328.287 197.131,328.389 196.927,328.515 196.927 C 328.640 196.927,328.742 196.722,328.742 196.471 C 328.742 196.221,328.845 196.016,328.970 196.016 C 329.095 196.016,329.197 195.811,329.197 195.561 C 329.197 195.310,329.300 195.105,329.425 195.105 C 329.550 195.105,329.653 194.900,329.653 194.650 C 329.653 194.400,329.755 194.195,329.880 194.195 C 330.006 194.195,330.108 193.990,330.108 193.739 C 330.108 193.489,330.211 193.284,330.336 193.284 C 330.461 193.284,330.563 193.079,330.563 192.829 C 330.563 192.578,330.666 192.373,330.791 192.373 C 330.916 192.373,331.021 192.245,331.024 192.089 C 331.027 191.932,331.229 191.548,331.474 191.235 C 331.719 190.922,331.922 190.506,331.924 190.310 C 331.927 190.115,332.134 189.735,332.385 189.466 C 332.635 189.197,332.840 188.891,332.840 188.786 C 332.840 188.448,333.403 187.368,333.580 187.367 C 333.674 187.366,333.751 187.160,333.751 186.910 C 333.751 186.659,333.834 186.454,333.936 186.454 C 334.038 186.454,334.262 186.096,334.434 185.657 C 334.606 185.219,334.830 184.861,334.932 184.861 C 335.033 184.861,335.117 184.656,335.117 184.405 C 335.117 184.155,335.219 183.950,335.344 183.950 C 335.470 183.950,335.572 183.817,335.572 183.654 C 335.572 183.235,336.107 182.133,336.312 182.130 C 336.406 182.129,336.483 181.924,336.483 181.673 C 336.483 181.423,336.585 181.218,336.710 181.218 C 336.836 181.218,336.938 181.013,336.938 180.763 C 336.938 180.512,337.040 180.307,337.166 180.307 C 337.291 180.307,337.393 180.102,337.393 179.852 C 337.393 179.602,337.470 179.396,337.564 179.395 C 337.658 179.394,337.846 179.163,337.982 178.883 C 338.901 176.988,339.775 175.401,339.936 175.337 C 340.040 175.295,340.125 175.065,340.125 174.825 C 340.125 174.585,340.228 174.388,340.353 174.388 C 340.478 174.388,340.581 174.183,340.581 173.933 C 340.581 173.682,340.683 173.478,340.808 173.478 C 340.933 173.478,341.036 173.334,341.036 173.159 C 341.036 172.818,342.293 170.319,342.645 169.960 C 342.762 169.841,342.857 169.559,342.857 169.334 C 342.857 169.109,342.960 168.924,343.085 168.924 C 343.210 168.924,343.291 168.847,343.266 168.754 C 343.240 168.660,343.394 168.255,343.607 167.854 C 343.821 167.453,343.995 166.967,343.995 166.773 C 343.995 166.579,344.098 166.420,344.223 166.420 C 344.348 166.420,344.451 166.215,344.451 165.965 C 344.451 165.714,344.553 165.509,344.678 165.509 C 344.804 165.509,344.906 165.311,344.906 165.068 C 344.906 164.824,345.009 164.562,345.134 164.485 C 345.259 164.408,345.361 164.094,345.361 163.788 C 345.361 163.483,345.464 163.233,345.589 163.233 C 345.714 163.233,345.817 162.817,345.817 162.309 C 345.817 161.751,345.907 161.440,346.044 161.525 C 346.186 161.613,346.272 161.186,346.272 160.400 C 346.272 159.704,346.375 159.135,346.500 159.135 C 346.639 159.135,346.727 158.077,346.727 156.416 C 346.727 154.850,346.824 153.638,346.955 153.557 C 347.090 153.474,347.183 152.037,347.183 150.015 C 347.183 147.899,347.097 146.614,346.955 146.614 C 346.821 146.614,346.727 145.821,346.727 144.692 C 346.727 143.635,346.625 142.707,346.500 142.629 C 346.375 142.552,346.272 141.983,346.272 141.364 C 346.272 140.745,346.170 140.239,346.044 140.239 C 345.919 140.239,345.817 139.880,345.817 139.442 C 345.817 139.004,345.714 138.645,345.589 138.645 C 345.464 138.645,345.361 138.293,345.361 137.862 C 345.361 137.431,345.259 137.015,345.134 136.938 C 345.009 136.861,344.906 136.598,344.906 136.355 C 344.906 136.112,344.804 135.913,344.678 135.913 C 344.553 135.913,344.451 135.758,344.451 135.569 C 344.451 135.379,344.353 135.046,344.234 134.829 C 344.115 134.612,343.839 134.024,343.620 133.523 C 342.794 131.630,338.605 126.807,337.787 126.807 C 337.626 126.807,337.346 126.602,337.166 126.352 C 336.985 126.101,336.655 125.896,336.432 125.896 C 336.210 125.896,336.027 125.794,336.027 125.669 C 336.027 125.544,335.822 125.441,335.572 125.441 C 335.322 125.441,335.117 125.339,335.117 125.213 C 335.117 125.088,334.962 124.986,334.772 124.986 C 334.583 124.986,334.224 124.883,333.975 124.758 C 333.727 124.633,333.320 124.428,333.071 124.303 C 332.822 124.178,332.361 124.075,332.046 124.075 C 331.732 124.075,331.474 123.973,331.474 123.847 C 331.474 123.722,330.968 123.620,330.349 123.620 C 329.731 123.620,329.159 123.513,329.078 123.383 C 328.895 123.087,321.742 123.115,321.558 123.413 M374.502 123.387 C 374.314 123.511,373.782 123.614,373.320 123.616 C 372.858 123.618,372.417 123.722,372.339 123.847 C 372.262 123.973,371.998 124.075,371.754 124.075 C 371.509 124.075,371.131 124.166,370.913 124.276 C 370.696 124.387,370.262 124.579,369.949 124.703 C 368.785 125.164,367.101 126.016,367.027 126.181 C 366.985 126.275,366.778 126.352,366.565 126.352 C 366.353 126.352,366.031 126.557,365.851 126.807 C 365.670 127.057,365.402 127.262,365.254 127.262 C 364.864 127.262,360.387 131.776,360.387 132.168 C 360.387 132.350,360.285 132.499,360.159 132.499 C 360.034 132.499,359.932 132.605,359.932 132.736 C 359.932 132.866,359.727 133.193,359.476 133.462 C 359.226 133.730,359.021 134.085,359.021 134.249 C 359.021 134.413,358.919 134.548,358.793 134.548 C 358.668 134.548,358.566 134.752,358.566 135.003 C 358.566 135.253,358.463 135.458,358.338 135.458 C 358.213 135.458,358.110 135.663,358.110 135.913 C 358.110 136.164,358.008 136.369,357.883 136.369 C 357.758 136.369,357.655 136.619,357.655 136.925 C 357.655 137.230,357.553 137.544,357.427 137.621 C 357.302 137.698,357.200 137.960,357.200 138.204 C 357.200 138.447,357.097 138.645,356.972 138.645 C 356.847 138.645,356.744 138.998,356.744 139.429 C 356.744 139.860,356.642 140.275,356.517 140.353 C 356.392 140.430,356.289 141.102,356.289 141.846 C 356.289 142.596,356.188 143.199,356.061 143.199 C 355.916 143.199,355.834 145.163,355.834 148.636 L 355.834 154.073 356.346 154.211 C 357.020 154.391,369.916 154.395,370.816 154.215 L 371.513 154.075 371.534 148.580 C 371.547 145.248,371.642 143.055,371.777 143.009 C 371.898 142.967,371.998 142.634,371.998 142.269 C 371.998 141.904,372.075 141.605,372.168 141.604 C 372.262 141.604,372.544 141.297,372.795 140.922 C 373.045 140.547,373.384 140.240,373.548 140.240 C 373.712 140.239,373.783 140.137,373.705 140.011 C 373.628 139.886,373.724 139.784,373.919 139.784 C 374.115 139.784,374.274 139.681,374.274 139.556 C 374.274 139.431,374.485 139.328,374.743 139.328 C 375.001 139.328,375.149 139.226,375.071 139.101 C 374.986 138.963,375.296 138.873,375.855 138.873 C 376.363 138.873,376.779 138.771,376.779 138.645 C 376.779 138.520,377.348 138.418,378.044 138.418 C 378.830 138.418,379.256 138.504,379.169 138.645 C 379.084 138.783,379.394 138.873,379.952 138.873 C 380.461 138.873,380.876 138.976,380.876 139.101 C 380.876 139.226,381.010 139.328,381.173 139.328 C 381.614 139.328,383.153 140.812,383.153 141.237 C 383.153 141.440,383.256 141.605,383.381 141.605 C 383.506 141.605,383.608 141.759,383.608 141.946 C 383.608 142.134,383.711 142.288,383.836 142.288 C 383.961 142.288,384.064 142.589,384.064 142.958 C 384.064 143.326,384.166 143.690,384.291 143.768 C 384.434 143.856,384.519 146.274,384.519 150.270 C 384.519 154.358,384.438 156.631,384.291 156.631 C 384.166 156.631,384.064 156.983,384.064 157.414 C 384.064 157.845,383.961 158.261,383.836 158.338 C 383.711 158.415,383.608 158.729,383.608 159.034 C 383.608 159.340,383.506 159.590,383.381 159.590 C 383.256 159.590,383.154 159.718,383.155 159.875 C 383.157 160.235,381.282 164.003,381.049 164.105 C 380.954 164.147,380.876 164.306,380.876 164.459 C 380.876 164.862,380.336 165.961,380.137 165.963 C 380.043 165.964,379.966 166.170,379.966 166.420 C 379.966 166.670,379.863 166.875,379.738 166.875 C 379.613 166.875,379.511 167.080,379.511 167.331 C 379.511 167.581,379.420 167.786,379.309 167.786 C 379.199 167.786,379.052 167.965,378.983 168.184 C 378.914 168.404,378.338 169.535,377.704 170.699 C 377.070 171.862,376.551 172.964,376.551 173.146 C 376.551 173.328,376.448 173.478,376.323 173.478 C 376.198 173.478,376.096 173.682,376.096 173.933 C 376.096 174.183,375.993 174.388,375.868 174.388 C 375.743 174.388,375.640 174.593,375.640 174.843 C 375.640 175.094,375.563 175.300,375.470 175.302 C 375.376 175.304,375.048 175.817,374.742 176.441 C 374.435 177.065,374.102 177.575,374.002 177.575 C 373.901 177.575,373.819 177.780,373.819 178.031 C 373.819 178.281,373.717 178.486,373.591 178.486 C 373.466 178.486,373.364 178.691,373.364 178.941 C 373.364 179.192,373.261 179.397,373.136 179.397 C 373.011 179.397,372.908 179.602,372.908 179.852 C 372.908 180.102,372.806 180.307,372.681 180.307 C 372.555 180.307,372.453 180.512,372.453 180.763 C 372.453 181.013,372.351 181.218,372.225 181.218 C 372.100 181.218,371.998 181.423,371.998 181.673 C 371.998 181.924,371.895 182.129,371.770 182.129 C 371.645 182.129,371.542 182.287,371.542 182.480 C 371.542 182.673,371.338 183.051,371.087 183.319 C 370.837 183.588,370.632 183.942,370.632 184.107 C 370.632 184.271,370.529 184.405,370.404 184.405 C 370.279 184.405,370.176 184.610,370.176 184.861 C 370.176 185.111,370.074 185.316,369.949 185.316 C 369.824 185.316,369.721 185.521,369.721 185.771 C 369.721 186.022,369.619 186.227,369.493 186.227 C 369.368 186.227,369.266 186.431,369.266 186.682 C 369.266 186.932,369.182 187.137,369.081 187.137 C 368.979 187.137,368.755 187.496,368.583 187.934 C 368.411 188.372,368.187 188.731,368.085 188.731 C 367.983 188.731,367.900 188.864,367.900 189.027 C 367.900 189.446,367.364 190.548,367.160 190.550 C 367.066 190.551,366.987 190.680,366.984 190.837 C 366.981 190.993,366.779 191.377,366.534 191.690 C 366.289 192.003,366.086 192.419,366.084 192.615 C 366.081 192.811,365.874 193.190,365.623 193.459 C 365.373 193.728,365.168 194.106,365.168 194.299 C 365.168 194.492,365.065 194.650,364.940 194.650 C 364.815 194.650,364.713 194.783,364.713 194.946 C 364.713 195.365,364.177 196.467,363.973 196.469 C 363.879 196.470,363.802 196.676,363.802 196.927 C 363.802 197.177,363.699 197.382,363.574 197.382 C 363.449 197.382,363.347 197.578,363.347 197.818 C 363.347 198.058,363.252 198.289,363.137 198.330 C 362.885 198.422,359.932 204.178,359.932 204.577 C 359.932 204.731,359.855 204.891,359.761 204.933 C 359.607 205.001,358.920 206.198,358.247 207.568 C 358.109 207.849,357.920 208.079,357.826 208.080 C 357.732 208.081,357.655 208.287,357.655 208.537 C 357.655 208.788,357.553 208.993,357.427 208.993 C 357.302 208.993,357.200 209.197,357.200 209.448 C 357.200 209.698,357.097 209.903,356.972 209.903 C 356.847 209.903,356.744 210.108,356.744 210.359 C 356.744 210.609,356.642 210.814,356.517 210.814 C 356.392 210.814,356.289 211.019,356.289 211.269 C 356.289 211.520,356.187 211.725,356.061 211.725 C 355.915 211.725,355.834 214.267,355.834 218.896 L 355.834 226.067 377.917 226.067 L 400.000 226.067 400.000 218.441 L 400.000 210.814 387.251 210.814 C 380.239 210.814,374.502 210.760,374.502 210.694 C 374.502 210.627,374.809 209.964,375.185 209.220 C 375.561 208.476,375.868 207.711,375.868 207.519 C 375.868 207.328,375.970 207.171,376.096 207.171 C 376.221 207.171,376.323 206.966,376.323 206.716 C 376.323 206.466,376.426 206.261,376.551 206.261 C 376.676 206.261,376.779 206.056,376.779 205.805 C 376.779 205.555,376.881 205.350,377.006 205.350 C 377.131 205.350,377.234 205.145,377.234 204.895 C 377.234 204.644,377.336 204.439,377.462 204.439 C 377.587 204.439,377.689 204.234,377.689 203.984 C 377.689 203.734,377.792 203.529,377.917 203.529 C 378.042 203.529,378.145 203.375,378.145 203.187 C 378.145 202.999,378.222 202.846,378.317 202.846 C 378.411 202.846,378.632 202.513,378.808 202.106 C 378.983 201.699,379.316 201.094,379.546 200.762 C 379.777 200.429,379.966 199.994,379.966 199.794 C 379.966 199.594,380.068 199.431,380.194 199.431 C 380.319 199.431,380.421 199.277,380.421 199.089 C 380.421 198.902,380.524 198.748,380.649 198.748 C 380.774 198.748,380.876 198.615,380.876 198.452 C 380.876 198.033,381.412 196.930,381.616 196.928 C 381.710 196.927,381.787 196.722,381.787 196.471 C 381.787 196.221,381.890 196.016,382.015 196.016 C 382.140 196.016,382.242 195.811,382.242 195.561 C 382.242 195.310,382.345 195.105,382.470 195.105 C 382.595 195.105,382.698 194.900,382.698 194.650 C 382.698 194.400,382.800 194.195,382.925 194.195 C 383.051 194.195,383.153 193.990,383.153 193.739 C 383.153 193.489,383.256 193.284,383.381 193.284 C 383.506 193.284,383.608 193.079,383.608 192.829 C 383.608 192.578,383.686 192.373,383.781 192.373 C 383.979 192.373,384.646 190.978,384.570 190.723 C 384.542 190.629,384.622 190.552,384.747 190.552 C 384.872 190.552,384.974 190.398,384.974 190.211 C 384.974 190.023,385.056 189.869,385.156 189.869 C 385.256 189.869,385.468 189.511,385.626 189.072 C 385.785 188.634,386.010 188.275,386.127 188.275 C 386.245 188.275,386.340 188.120,386.340 187.931 C 386.340 187.615,386.751 186.726,387.023 186.454 C 387.295 186.182,387.706 185.293,387.706 184.977 C 387.706 184.788,387.783 184.633,387.877 184.632 C 387.971 184.632,388.304 184.069,388.617 183.381 C 388.930 182.693,389.263 182.130,389.357 182.129 C 389.451 182.129,389.528 181.924,389.528 181.673 C 389.528 181.423,389.630 181.218,389.755 181.218 C 389.880 181.218,389.983 181.013,389.983 180.763 C 389.983 180.512,390.085 180.307,390.211 180.307 C 390.336 180.307,390.438 180.111,390.438 179.871 C 390.438 179.631,390.523 179.400,390.627 179.359 C 390.845 179.271,392.032 176.814,392.032 176.451 C 392.032 176.318,392.134 176.209,392.260 176.209 C 392.385 176.209,392.487 176.005,392.487 175.754 C 392.487 175.504,392.590 175.299,392.715 175.299 C 392.840 175.299,392.943 175.094,392.943 174.843 C 392.943 174.593,393.045 174.388,393.170 174.388 C 393.295 174.388,393.398 174.183,393.398 173.933 C 393.398 173.682,393.500 173.478,393.625 173.478 C 393.751 173.478,393.853 173.273,393.853 173.022 C 393.853 172.772,393.956 172.567,394.081 172.567 C 394.206 172.567,394.308 172.362,394.308 172.112 C 394.308 171.861,394.411 171.656,394.536 171.656 C 394.661 171.656,394.764 171.451,394.764 171.201 C 394.764 170.950,394.847 170.746,394.949 170.746 C 395.051 170.746,395.275 170.387,395.447 169.949 C 395.619 169.511,395.843 169.152,395.945 169.152 C 396.046 169.152,396.130 168.947,396.130 168.697 C 396.130 168.446,396.232 168.241,396.357 168.241 C 396.483 168.241,396.585 168.036,396.585 167.786 C 396.585 167.536,396.688 167.331,396.813 167.331 C 396.938 167.331,397.040 167.126,397.040 166.875 C 397.040 166.625,397.143 166.420,397.268 166.420 C 397.393 166.420,397.496 166.269,397.496 166.085 C 397.496 165.901,397.701 165.386,397.951 164.940 C 398.201 164.494,398.406 163.928,398.406 163.681 C 398.406 163.435,398.509 163.233,398.634 163.233 C 398.759 163.233,398.862 162.823,398.862 162.322 C 398.862 161.821,398.964 161.411,399.089 161.411 C 399.215 161.411,399.317 160.920,399.317 160.319 C 399.317 159.718,399.437 159.106,399.584 158.959 C 399.982 158.561,399.999 142.705,399.602 142.573 C 399.425 142.514,399.317 142.051,399.317 141.358 C 399.317 140.743,399.215 140.239,399.089 140.239 C 398.964 140.239,398.862 139.880,398.862 139.442 C 398.862 139.004,398.759 138.645,398.634 138.645 C 398.509 138.645,398.406 138.293,398.406 137.862 C 398.406 137.431,398.304 137.015,398.179 136.938 C 398.054 136.861,397.951 136.598,397.951 136.355 C 397.951 136.112,397.849 135.913,397.723 135.913 C 397.598 135.913,397.496 135.769,397.496 135.594 C 397.496 135.214,396.546 133.329,396.301 133.220 C 396.207 133.178,396.130 132.947,396.130 132.707 C 396.130 132.467,396.027 132.271,395.902 132.271 C 395.777 132.271,395.674 132.111,395.674 131.916 C 395.674 131.721,395.572 131.624,395.447 131.702 C 395.322 131.779,395.219 131.673,395.219 131.465 C 395.219 131.257,394.912 130.801,394.536 130.450 C 394.161 130.099,393.853 129.704,393.853 129.573 C 393.853 129.442,393.469 129.048,392.999 128.698 C 392.530 128.347,391.874 127.779,391.542 127.434 C 391.210 127.089,390.826 126.807,390.688 126.807 C 390.551 126.807,390.438 126.705,390.438 126.579 C 390.438 126.454,390.285 126.352,390.097 126.352 C 389.909 126.352,389.755 126.249,389.755 126.124 C 389.755 125.999,389.602 125.896,389.414 125.896 C 389.226 125.896,389.072 125.794,389.072 125.669 C 389.072 125.544,388.867 125.441,388.617 125.441 C 388.367 125.441,388.162 125.339,388.162 125.213 C 388.162 125.088,387.957 124.986,387.706 124.986 C 387.456 124.986,387.251 124.900,387.251 124.796 C 387.251 124.582,384.651 123.855,383.267 123.682 C 382.766 123.620,382.254 123.487,382.129 123.388 C 381.793 123.121,374.905 123.120,374.502 123.387 " stroke="none" fill="#f47424" fill-rule="evenodd"></path><path id="path1" d="M0.000 19.237 C 0.000 34.483,0.059 38.472,0.285 38.461 C 0.441 38.454,2.157 36.806,4.098 34.799 C 6.039 32.792,9.504 29.289,11.798 27.015 C 14.092 24.741,17.627 21.209,19.652 19.168 C 25.600 13.173,30.911 7.878,34.821 4.044 C 36.830 2.073,38.475 0.357,38.475 0.230 C 38.475 0.077,32.057 0.000,19.237 0.000 L 0.000 0.000 0.000 19.237 M18.608 56.249 L -0.006 74.903 0.054 144.832 C 0.102 200.529,0.172 214.779,0.398 214.855 C 0.555 214.907,0.683 215.191,0.683 215.486 C 0.683 215.782,0.785 216.087,0.911 216.164 C 1.036 216.241,1.138 216.503,1.138 216.747 C 1.138 216.990,1.241 217.188,1.366 217.188 C 1.491 217.188,1.594 217.393,1.594 217.644 C 1.594 217.894,1.696 218.099,1.821 218.099 C 1.946 218.099,2.049 218.253,2.049 218.441 C 2.049 218.628,2.151 218.782,2.277 218.782 C 2.402 218.782,2.504 218.914,2.504 219.076 C 2.504 219.237,2.914 219.822,3.415 220.376 C 3.916 220.929,4.326 221.466,4.326 221.569 C 4.326 221.822,5.851 223.335,6.105 223.335 C 6.216 223.335,6.629 223.643,7.022 224.018 C 7.415 224.394,7.840 224.701,7.966 224.701 C 8.092 224.701,8.196 224.804,8.196 224.929 C 8.196 225.054,8.349 225.157,8.537 225.157 C 8.725 225.157,8.879 225.259,8.879 225.384 C 8.879 225.509,9.032 225.612,9.220 225.612 C 9.408 225.612,9.562 225.714,9.562 225.839 C 9.562 225.965,9.767 226.067,10.017 226.067 C 10.268 226.067,10.472 226.170,10.472 226.295 C 10.472 226.420,10.671 226.522,10.914 226.522 C 11.157 226.522,11.419 226.625,11.497 226.750 C 11.574 226.875,11.879 226.978,12.174 226.978 C 12.470 226.978,12.754 227.106,12.806 227.262 C 12.943 227.675,24.620 227.675,24.758 227.262 C 24.810 227.106,25.152 226.978,25.517 226.978 C 25.882 226.978,26.181 226.875,26.181 226.750 C 26.181 226.625,26.325 226.522,26.501 226.522 C 26.880 226.522,28.766 225.573,28.875 225.327 C 28.917 225.233,29.125 225.157,29.337 225.157 C 29.549 225.157,29.871 224.952,30.051 224.701 C 30.232 224.451,30.515 224.246,30.680 224.246 C 30.999 224.246,34.604 220.713,34.604 220.401 C 34.604 220.301,34.860 219.921,35.173 219.557 C 35.486 219.194,35.742 218.776,35.742 218.630 C 35.743 218.484,35.820 218.330,35.913 218.289 C 36.193 218.165,37.109 216.269,37.109 215.814 C 37.109 215.583,37.211 215.331,37.336 215.253 C 37.462 215.176,37.564 214.869,37.564 214.570 C 37.564 214.272,37.666 213.965,37.792 213.887 C 37.917 213.810,38.019 213.298,38.019 212.749 C 38.019 212.200,38.122 211.688,38.247 211.611 C 38.398 211.517,38.475 182.240,38.475 124.517 L 38.475 37.564 37.849 37.580 C 37.330 37.593,34.020 40.805,18.608 56.249 " stroke="none" fill="#0c445c" fill-rule="evenodd"></path><path id="path2" d="M21.855 38.036 C 21.855 38.619,22.609 38.553,22.723 37.960 C 22.776 37.687,22.653 37.564,22.327 37.564 C 22.002 37.564,21.855 37.710,21.855 38.036 M113.147 37.792 C 113.147 37.917,113.038 38.019,112.904 38.019 C 112.770 38.019,104.318 46.366,94.122 56.567 L 75.583 75.114 75.583 125.876 C 75.583 159.472,75.660 176.685,75.811 176.779 C 75.936 176.856,76.039 177.624,76.039 178.486 C 76.039 179.348,76.141 180.116,76.266 180.194 C 76.392 180.271,76.494 180.840,76.494 181.459 C 76.494 182.078,76.596 182.584,76.722 182.584 C 76.847 182.584,76.949 183.045,76.949 183.608 C 76.949 184.172,77.052 184.633,77.177 184.633 C 77.302 184.633,77.405 184.985,77.405 185.416 C 77.405 185.847,77.507 186.263,77.632 186.340 C 77.758 186.418,77.860 186.782,77.860 187.151 C 77.860 187.519,77.962 187.820,78.088 187.820 C 78.213 187.820,78.315 188.127,78.315 188.503 C 78.315 188.879,78.418 189.186,78.543 189.186 C 78.668 189.186,78.771 189.493,78.771 189.869 C 78.771 190.245,78.873 190.552,78.998 190.552 C 79.124 190.552,79.226 190.751,79.226 190.994 C 79.226 191.237,79.328 191.499,79.454 191.577 C 79.579 191.654,79.681 191.967,79.681 192.273 C 79.681 192.579,79.784 192.829,79.909 192.829 C 80.034 192.829,80.137 193.034,80.137 193.284 C 80.137 193.534,80.239 193.739,80.364 193.739 C 80.489 193.739,80.592 193.930,80.592 194.163 C 80.592 194.396,81.016 195.395,81.534 196.383 C 82.051 197.371,82.589 198.408,82.729 198.689 C 82.868 198.970,83.059 199.200,83.153 199.201 C 83.247 199.202,83.324 199.408,83.324 199.659 C 83.324 199.909,83.426 200.114,83.552 200.114 C 83.677 200.114,83.779 200.268,83.779 200.455 C 83.779 200.643,83.882 200.797,84.007 200.797 C 84.132 200.797,84.234 200.950,84.234 201.138 C 84.234 201.326,84.337 201.480,84.462 201.480 C 84.587 201.480,84.690 201.633,84.690 201.821 C 84.690 202.009,84.775 202.163,84.879 202.163 C 84.983 202.163,85.213 202.445,85.390 202.789 C 85.567 203.133,85.891 203.581,86.111 203.783 C 86.331 203.986,86.511 204.246,86.511 204.361 C 86.511 204.477,86.921 205.024,87.422 205.578 C 87.923 206.131,88.332 206.664,88.332 206.762 C 88.332 207.179,96.102 215.139,96.508 215.139 C 96.613 215.139,97.090 215.498,97.569 215.936 C 98.047 216.375,98.526 216.733,98.632 216.733 C 98.738 216.733,99.082 216.989,99.395 217.302 C 99.708 217.615,100.054 217.871,100.165 217.871 C 100.275 217.871,100.502 217.999,100.668 218.156 C 101.051 218.518,102.664 219.455,103.187 219.620 C 103.406 219.689,103.586 219.836,103.586 219.947 C 103.586 220.057,103.791 220.148,104.041 220.148 C 104.291 220.148,104.496 220.250,104.496 220.376 C 104.496 220.501,104.641 220.603,104.819 220.603 C 104.996 220.603,105.175 220.680,105.217 220.774 C 105.324 221.015,108.138 222.425,108.512 222.425 C 108.683 222.425,108.822 222.527,108.822 222.652 C 108.822 222.777,109.027 222.880,109.277 222.880 C 109.528 222.880,109.732 222.982,109.732 223.108 C 109.732 223.233,109.937 223.335,110.188 223.335 C 110.438 223.335,110.643 223.438,110.643 223.563 C 110.643 223.688,110.950 223.791,111.326 223.791 C 111.702 223.791,112.009 223.893,112.009 224.018 C 112.009 224.143,112.271 224.246,112.592 224.246 C 112.922 224.246,113.113 224.344,113.034 224.474 C 112.951 224.606,113.183 224.701,113.589 224.701 C 113.972 224.701,114.286 224.804,114.286 224.929 C 114.286 225.054,114.593 225.157,114.969 225.157 C 115.344 225.157,115.652 225.259,115.652 225.384 C 115.652 225.509,116.061 225.612,116.562 225.612 C 117.063 225.612,117.473 225.714,117.473 225.839 C 117.473 225.965,117.825 226.067,118.256 226.067 C 118.687 226.067,119.103 226.170,119.180 226.295 C 119.258 226.420,119.725 226.522,120.218 226.522 C 120.712 226.522,121.116 226.625,121.116 226.750 C 121.116 226.875,121.607 226.978,122.208 226.978 C 122.809 226.978,123.429 227.106,123.586 227.262 C 123.804 227.481,126.023 227.547,133.117 227.547 C 140.312 227.547,142.385 227.484,142.459 227.262 C 142.519 227.081,143.003 226.978,143.787 226.978 C 144.465 226.978,145.020 226.875,145.020 226.750 C 145.020 226.625,145.424 226.522,145.917 226.522 C 146.411 226.522,146.878 226.420,146.955 226.295 C 147.032 226.170,147.448 226.067,147.879 226.067 C 148.310 226.067,148.662 225.965,148.662 225.839 C 148.662 225.714,149.027 225.612,149.473 225.612 C 149.955 225.612,150.226 225.520,150.142 225.384 C 150.060 225.251,150.292 225.157,150.698 225.157 C 151.081 225.157,151.394 225.054,151.394 224.929 C 151.394 224.804,151.702 224.701,152.077 224.701 C 152.453 224.701,152.760 224.599,152.760 224.474 C 152.760 224.348,153.068 224.246,153.443 224.246 C 153.819 224.246,154.126 224.143,154.126 224.018 C 154.126 223.893,154.331 223.791,154.582 223.791 C 154.832 223.791,155.037 223.688,155.037 223.563 C 155.037 223.438,155.344 223.335,155.720 223.335 C 156.096 223.335,156.403 223.233,156.403 223.108 C 156.403 222.982,156.608 222.880,156.858 222.880 C 157.109 222.880,157.314 222.777,157.314 222.652 C 157.314 222.527,157.518 222.425,157.769 222.425 C 158.019 222.425,158.224 222.322,158.224 222.197 C 158.224 222.072,158.421 221.969,158.661 221.969 C 158.901 221.969,159.131 221.892,159.173 221.798 C 159.215 221.703,159.940 221.278,160.785 220.853 C 161.631 220.428,162.322 219.993,162.322 219.886 C 162.322 219.780,162.527 219.693,162.777 219.693 C 163.028 219.693,163.233 219.590,163.233 219.465 C 163.233 219.340,163.354 219.237,163.501 219.237 C 163.908 219.237,166.648 217.397,166.648 217.124 C 166.648 216.992,166.710 216.947,166.786 217.023 C 166.862 217.099,167.174 216.911,167.479 216.605 C 167.784 216.300,168.124 216.050,168.233 216.050 C 168.342 216.050,168.858 215.640,169.380 215.139 C 169.901 214.639,170.418 214.229,170.530 214.229 C 170.816 214.229,175.988 209.043,176.659 208.082 C 176.966 207.644,177.502 207.014,177.851 206.682 C 178.200 206.350,178.486 205.981,178.486 205.862 C 178.486 205.743,178.793 205.324,179.169 204.931 C 179.545 204.537,179.852 204.099,179.852 203.956 C 179.852 203.813,180.031 203.530,180.250 203.327 C 180.729 202.884,181.673 201.563,181.673 201.336 C 181.673 201.247,181.814 201.012,181.986 200.815 C 182.494 200.230,183.722 197.891,183.722 197.508 C 183.722 197.313,183.825 197.154,183.950 197.154 C 184.075 197.154,184.178 197.001,184.178 196.813 C 184.178 196.625,184.280 196.471,184.405 196.471 C 184.530 196.471,184.633 196.266,184.633 196.016 C 184.633 195.766,184.735 195.561,184.861 195.561 C 184.986 195.561,185.088 195.311,185.088 195.005 C 185.088 194.699,185.191 194.386,185.316 194.308 C 185.441 194.231,185.544 193.969,185.544 193.726 C 185.544 193.483,185.646 193.284,185.771 193.284 C 185.896 193.284,185.999 193.085,185.999 192.842 C 185.999 192.599,186.101 192.337,186.227 192.260 C 186.352 192.182,186.454 191.869,186.454 191.563 C 186.454 191.257,186.557 191.007,186.682 191.007 C 186.807 191.007,186.910 190.809,186.910 190.566 C 186.910 190.322,187.012 190.060,187.137 189.983 C 187.262 189.906,187.365 189.598,187.365 189.300 C 187.365 189.002,187.467 188.694,187.592 188.617 C 187.718 188.540,187.820 188.124,187.820 187.693 C 187.820 187.262,187.923 186.910,188.048 186.910 C 188.173 186.910,188.275 186.602,188.275 186.227 C 188.275 185.851,188.378 185.544,188.503 185.544 C 188.628 185.544,188.731 185.134,188.731 184.633 C 188.731 184.132,188.833 183.722,188.958 183.722 C 189.084 183.722,189.186 183.267,189.186 182.711 C 189.186 182.155,189.289 181.637,189.414 181.559 C 189.539 181.482,189.641 180.816,189.641 180.080 C 189.641 179.343,189.744 178.677,189.869 178.600 C 189.996 178.521,190.097 177.464,190.097 176.209 C 190.097 174.972,190.197 173.898,190.319 173.823 C 190.657 173.614,190.637 38.283,190.299 37.875 C 189.682 37.131,189.718 37.105,184.925 41.833 C 182.862 43.867,181.075 45.532,180.955 45.532 C 180.834 45.532,180.799 45.635,180.876 45.760 C 180.954 45.885,180.857 45.987,180.662 45.987 C 180.467 45.987,180.333 46.116,180.364 46.272 C 180.396 46.429,180.293 46.531,180.137 46.500 C 179.980 46.468,179.878 46.520,179.909 46.614 C 179.940 46.707,179.914 46.784,179.850 46.784 C 179.611 46.784,173.997 52.485,174.021 52.703 C 174.035 52.829,173.919 52.906,173.762 52.874 C 173.606 52.843,173.503 52.910,173.534 53.022 C 173.566 53.135,173.505 53.263,173.399 53.307 C 173.293 53.351,172.064 54.550,170.667 55.971 C 167.949 58.737,165.488 61.155,164.656 61.875 C 164.374 62.119,164.143 62.441,164.143 62.590 C 164.143 62.739,164.041 62.798,163.916 62.721 C 163.791 62.643,163.688 62.757,163.688 62.973 C 163.688 63.189,163.628 63.305,163.554 63.232 C 163.381 63.058,158.265 68.130,158.387 68.355 C 158.437 68.449,158.313 68.526,158.110 68.526 C 157.908 68.526,157.805 68.628,157.883 68.754 C 157.960 68.879,157.917 68.981,157.787 68.981 C 157.657 68.981,156.755 69.816,155.782 70.836 C 154.809 71.857,153.475 73.233,152.817 73.895 L 151.622 75.098 151.622 123.819 C 151.622 156.054,151.545 172.588,151.394 172.681 C 151.269 172.758,151.167 173.270,151.167 173.819 C 151.167 174.368,151.064 174.880,150.939 174.957 C 150.814 175.035,150.711 175.348,150.711 175.654 C 150.711 175.959,150.609 176.209,150.484 176.209 C 150.359 176.209,150.256 176.517,150.256 176.892 C 150.256 177.268,150.154 177.575,150.028 177.575 C 149.903 177.575,149.801 177.780,149.801 178.031 C 149.801 178.281,149.698 178.486,149.573 178.486 C 149.448 178.486,149.345 178.668,149.345 178.891 C 149.345 179.114,149.141 179.444,148.890 179.624 C 148.640 179.805,148.435 180.085,148.435 180.246 C 148.435 180.407,148.127 180.861,147.752 181.254 C 147.376 181.647,147.069 182.058,147.069 182.168 C 147.069 182.449,145.083 184.405,144.798 184.405 C 144.670 184.405,144.565 184.508,144.565 184.633 C 144.565 184.758,144.434 184.861,144.273 184.861 C 144.113 184.861,143.834 185.065,143.654 185.316 C 143.473 185.566,143.137 185.771,142.907 185.771 C 142.677 185.771,142.552 185.874,142.629 185.999 C 142.707 186.124,142.610 186.227,142.415 186.227 C 142.220 186.227,142.060 186.329,142.060 186.454 C 142.060 186.579,141.855 186.682,141.605 186.682 C 141.355 186.682,141.150 186.784,141.150 186.910 C 141.150 187.035,140.962 187.137,140.732 187.137 C 140.503 187.137,140.244 187.208,140.157 187.296 C 140.069 187.383,139.873 187.475,139.720 187.500 C 139.567 187.526,138.981 187.702,138.418 187.893 C 135.754 188.791,130.000 188.879,128.059 188.050 C 127.648 187.874,126.469 187.544,126.086 187.497 C 126.003 187.487,125.858 187.402,125.764 187.308 C 125.670 187.214,125.424 187.137,125.218 187.137 C 125.012 187.137,124.641 186.958,124.394 186.739 C 124.146 186.520,123.794 186.307,123.611 186.266 C 123.428 186.226,123.244 186.098,123.202 185.982 C 123.161 185.866,122.973 185.771,122.786 185.771 C 122.599 185.771,122.052 185.361,121.571 184.861 C 121.090 184.360,120.604 183.950,120.491 183.950 C 120.265 183.950,119.608 183.231,119.036 182.356 C 118.831 182.043,118.395 181.480,118.068 181.104 C 117.741 180.729,117.473 180.302,117.473 180.156 C 117.473 180.009,117.396 179.856,117.301 179.814 C 117.137 179.741,115.779 177.046,115.428 176.096 C 114.957 174.822,114.756 173.946,114.708 172.965 C 114.680 172.371,114.573 171.884,114.471 171.884 C 114.369 171.884,114.286 141.662,114.286 104.724 L 114.286 37.564 113.717 37.564 C 113.404 37.564,113.147 37.666,113.147 37.792 M249.402 37.792 C 249.212 38.100,249.469 38.475,249.871 38.475 C 250.052 38.475,250.199 38.270,250.199 38.019 C 250.199 37.548,249.650 37.391,249.402 37.792 M314.343 103.073 C 320.259 103.107,329.940 103.107,335.857 103.073 C 341.773 103.040,336.932 103.012,325.100 103.012 C 313.267 103.012,308.426 103.040,314.343 103.073 " stroke="none" fill="#dede2c" fill-rule="evenodd"></path></g></svg>