<svg height="19.9111" viewBox="0 0 51.3577 19.9111" width="51.3577" xmlns="http://www.w3.org/2000/svg"><path d="m4.4588 9.0182c0-.168.0601-.2637.2158-.3599l2.6147-1.499c.084-.0483.1797-.0239.1797.0958v3.0586c0 .168-.0601.2637-.2158.3599l-2.6147 1.499c-.084.0479-.1797.0239-.1797-.0962zm4.9531-5.0371c-.084-.0483-.1797-.0239-.1797.0957v7.1963c0 .1919-.0601.2998-.252.4077l-3.1064 1.7988c-.1079.0601-.0957.1558-.0117.2041l1.9907 1.1514c.144.084.2637.084.4077 0l3.0347-1.751c.2515-.144.3115-.2759.3115-.5278v-7.064c0-.168-.0601-.2642-.2036-.3481z"/><path d="m14.9002 7.675c0-.0601.0601-.1201.1196-.1201l1.1997-.0117c.0718 0 .1196.0479.1196.1196v6.9082c0 .312-.0957.5161-.3838.6836l-1.0913.6357c-.144.084-.252.084-.3955 0l-.9238-.5396c-.084-.0479-.0957-.144.0122-.2041l1.0913-.6353c.1919-.1084.252-.2163.252-.4082zm1.3794-2.7705c.0718 0 .1196.0479.1196.1201v1.355c0 .0723-.0479.1201-.1196.1201h-1.3193c-.0723 0-.1201-.0479-.1201-.1201v-1.355c0-.0723.0479-.1201.1201-.1201z"/><path d="m23.4524 10.5295c0 1.8228-1.3911 3.1182-3.0703 3.1182-1.7031 0-3.082-1.2832-3.082-3.1182s1.3789-3.1182 3.082-3.1182c1.6792 0 3.0703 1.2832 3.0703 3.1182zm-1.415 0c0-1.0073-.7437-1.751-1.6553-1.751-.9233 0-1.667.7437-1.667 1.751 0 1.0552.7437 1.751 1.667 1.751.8994 0 1.6553-.6958 1.6553-1.751z"/><path d="m24.3318 4.9763c0-.0718.0483-.1196.1201-.1196h1.1992c.0723 0 .1201.0479.1201.1196v2.2549c0 .2759-.0122.5396-.0361.7676l.0361.0122c.4199-.396 1.1035-.5996 1.7271-.5996 1.6191 0 2.9741 1.2832 2.9741 3.1299 0 1.8232-1.3911 3.1064-3.106 3.1064-1.6792 0-3.0464-1.2954-3.0464-3.1304zm4.7256 5.5532c0-1.0073-.7437-1.751-1.6431-1.751-.9355 0-1.6792.7314-1.6792 1.751 0 1.0312.7319 1.751 1.6553 1.751.9116 0 1.667-.7315 1.667-1.751z"/><path d="m32.7913 4.9045c.0718 0 .1201.0479.1201.1201v1.355c0 .0723-.0483.1201-.1201.1201h-1.3193c-.0718 0-.1201-.0479-.1201-.1201v-1.355c0-.0723.0483-.1201.1201-.1201zm-1.2593 8.6352c-.0723 0-.1201-.0479-.1201-.1201v-5.7568c0-.0718.0479-.1196.1201-.1196h1.1992c.0718 0 .1201.0479.1201.1196v5.7568c0 .0723-.0483.1201-.1201.1201z"/><path d="m39.9402 10.4694-.0117 5.1211c0 .0723-.0483.1201-.1201.1201h-1.1992c-.0723 0-.1201-.0479-.1201-.1201v-1.7749c0-.2759.0122-.5396.0361-.7676l-.0361-.0122c-.4194.396-1.0913.5996-1.751.5996-1.583 0-2.9502-1.2471-2.9502-3.1182 0-1.8467 1.3911-3.1182 3.106-3.1182 1.6913.0001 3.0463 1.2594 3.0463 3.0704zm-1.415.0479c0-1.0195-.7314-1.751-1.667-1.751-.8999 0-1.6553.7197-1.6553 1.751 0 1.0317.7314 1.751 1.6431 1.751.9355-.0001 1.6792-.7315 1.6792-1.751z"/><path d="m46.9602 10.5295c0 1.8228-1.3911 3.1182-3.0703 3.1182-1.7031 0-3.082-1.2832-3.082-3.1182s1.3789-3.1182 3.082-3.1182c1.6792 0 3.0703 1.2832 3.0703 3.1182zm-1.415 0c0-1.0073-.7437-1.751-1.6553-1.751-.9233 0-1.667.7437-1.667 1.751 0 1.0552.7437 1.751 1.667 1.751.8994 0 1.6553-.6958 1.6553-1.751z"/></svg>